G04 #@! TF.GenerationSoftware,KiCad,Pcbnew,(6.0.0)*
G04 #@! TF.CreationDate,2022-02-03T13:29:45+01:00*
G04 #@! TF.ProjectId,MinCab,4d696e43-6162-42e6-9b69-6361645f7063,rev?*
G04 #@! TF.SameCoordinates,Original*
G04 #@! TF.FileFunction,Legend,Top*
G04 #@! TF.FilePolarity,Positive*
%FSLAX46Y46*%
G04 Gerber Fmt 4.6, Leading zero omitted, Abs format (unit mm)*
G04 Created by KiCad (PCBNEW (6.0.0)) date 2022-02-03 13:29:45*
%MOMM*%
%LPD*%
G01*
G04 APERTURE LIST*
G04 Aperture macros list*
%AMRoundRect*
0 Rectangle with rounded corners*
0 $1 Rounding radius*
0 $2 $3 $4 $5 $6 $7 $8 $9 X,Y pos of 4 corners*
0 Add a 4 corners polygon primitive as box body*
4,1,4,$2,$3,$4,$5,$6,$7,$8,$9,$2,$3,0*
0 Add four circle primitives for the rounded corners*
1,1,$1+$1,$2,$3*
1,1,$1+$1,$4,$5*
1,1,$1+$1,$6,$7*
1,1,$1+$1,$8,$9*
0 Add four rect primitives between the rounded corners*
20,1,$1+$1,$2,$3,$4,$5,0*
20,1,$1+$1,$4,$5,$6,$7,0*
20,1,$1+$1,$6,$7,$8,$9,0*
20,1,$1+$1,$8,$9,$2,$3,0*%
G04 Aperture macros list end*
G04 #@! TA.AperFunction,Profile*
%ADD10C,0.050000*%
G04 #@! TD*
%ADD11C,0.200000*%
%ADD12C,0.120000*%
%ADD13RoundRect,0.250000X0.475000X-0.250000X0.475000X0.250000X-0.475000X0.250000X-0.475000X-0.250000X0*%
%ADD14RoundRect,0.150000X0.512500X0.150000X-0.512500X0.150000X-0.512500X-0.150000X0.512500X-0.150000X0*%
%ADD15R,0.200000X0.700000*%
%ADD16C,6.000000*%
%ADD17RoundRect,0.237500X-0.237500X0.250000X-0.237500X-0.250000X0.237500X-0.250000X0.237500X0.250000X0*%
%ADD18RoundRect,0.237500X0.237500X-0.250000X0.237500X0.250000X-0.237500X0.250000X-0.237500X-0.250000X0*%
%ADD19R,0.650000X0.400000*%
%ADD20RoundRect,0.218750X-0.256250X0.218750X-0.256250X-0.218750X0.256250X-0.218750X0.256250X0.218750X0*%
%ADD21C,0.650000*%
%ADD22R,0.600000X1.150000*%
%ADD23R,0.300000X1.150000*%
%ADD24O,1.050000X2.100000*%
%ADD25O,1.000000X2.000000*%
%ADD26RoundRect,0.237500X-0.237500X0.300000X-0.237500X-0.300000X0.237500X-0.300000X0.237500X0.300000X0*%
%ADD27RoundRect,0.250000X-0.787500X-1.025000X0.787500X-1.025000X0.787500X1.025000X-0.787500X1.025000X0*%
G04 APERTURE END LIST*
D10*
X117300000Y-91200000D02*
G75*
G03*
X120300000Y-94200000I3000001J1D01*
G01*
X172300000Y-82500000D02*
X172300000Y-91200000D01*
X169300000Y-94200000D02*
X120300000Y-94200000D01*
X172300000Y-82500000D02*
G75*
G03*
X169300000Y-79500000I-3000001J-1D01*
G01*
X169300000Y-94200000D02*
G75*
G03*
X172300000Y-91200000I-1J3000001D01*
G01*
X120300000Y-79500000D02*
X169300000Y-79500000D01*
X120300000Y-79500000D02*
G75*
G03*
X117300000Y-82500000I1J-3000001D01*
G01*
X117300000Y-82500000D02*
X117300000Y-91200000D01*
D11*
X131261904Y-91966666D02*
X131738095Y-91966666D01*
X131166666Y-92252380D02*
X131500000Y-91252380D01*
X131833333Y-92252380D01*
X155750000Y-81142857D02*
X155750000Y-79942857D01*
X156150000Y-80800000D01*
X156550000Y-79942857D01*
X156550000Y-81142857D01*
X157121428Y-81142857D02*
X157121428Y-80342857D01*
X157121428Y-79942857D02*
X157064285Y-80000000D01*
X157121428Y-80057142D01*
X157178571Y-80000000D01*
X157121428Y-79942857D01*
X157121428Y-80057142D01*
X157692857Y-80342857D02*
X157692857Y-81142857D01*
X157692857Y-80457142D02*
X157750000Y-80400000D01*
X157864285Y-80342857D01*
X158035714Y-80342857D01*
X158150000Y-80400000D01*
X158207142Y-80514285D01*
X158207142Y-81142857D01*
X159464285Y-81028571D02*
X159407142Y-81085714D01*
X159235714Y-81142857D01*
X159121428Y-81142857D01*
X158950000Y-81085714D01*
X158835714Y-80971428D01*
X158778571Y-80857142D01*
X158721428Y-80628571D01*
X158721428Y-80457142D01*
X158778571Y-80228571D01*
X158835714Y-80114285D01*
X158950000Y-80000000D01*
X159121428Y-79942857D01*
X159235714Y-79942857D01*
X159407142Y-80000000D01*
X159464285Y-80057142D01*
X160492857Y-81142857D02*
X160492857Y-80514285D01*
X160435714Y-80400000D01*
X160321428Y-80342857D01*
X160092857Y-80342857D01*
X159978571Y-80400000D01*
X160492857Y-81085714D02*
X160378571Y-81142857D01*
X160092857Y-81142857D01*
X159978571Y-81085714D01*
X159921428Y-80971428D01*
X159921428Y-80857142D01*
X159978571Y-80742857D01*
X160092857Y-80685714D01*
X160378571Y-80685714D01*
X160492857Y-80628571D01*
X161064285Y-81142857D02*
X161064285Y-79942857D01*
X161064285Y-80400000D02*
X161178571Y-80342857D01*
X161407142Y-80342857D01*
X161521428Y-80400000D01*
X161578571Y-80457142D01*
X161635714Y-80571428D01*
X161635714Y-80914285D01*
X161578571Y-81028571D01*
X161521428Y-81085714D01*
X161407142Y-81142857D01*
X161178571Y-81142857D01*
X161064285Y-81085714D01*
X162950000Y-80342857D02*
X163235714Y-81142857D01*
X163521428Y-80342857D01*
X163921428Y-80057142D02*
X163978571Y-80000000D01*
X164092857Y-79942857D01*
X164378571Y-79942857D01*
X164492857Y-80000000D01*
X164550000Y-80057142D01*
X164607142Y-80171428D01*
X164607142Y-80285714D01*
X164550000Y-80457142D01*
X163864285Y-81142857D01*
X164607142Y-81142857D01*
X125738095Y-92252380D02*
X125738095Y-91252380D01*
X126119047Y-91252380D01*
X126214285Y-91300000D01*
X126261904Y-91347619D01*
X126309523Y-91442857D01*
X126309523Y-91585714D01*
X126261904Y-91680952D01*
X126214285Y-91728571D01*
X126119047Y-91776190D01*
X125738095Y-91776190D01*
D12*
X159516666Y-85185714D02*
X159478571Y-85223809D01*
X159364285Y-85261904D01*
X159288095Y-85261904D01*
X159173809Y-85223809D01*
X159097619Y-85147619D01*
X159059523Y-85071428D01*
X159021428Y-84919047D01*
X159021428Y-84804761D01*
X159059523Y-84652380D01*
X159097619Y-84576190D01*
X159173809Y-84500000D01*
X159288095Y-84461904D01*
X159364285Y-84461904D01*
X159478571Y-84500000D01*
X159516666Y-84538095D01*
X159821428Y-84538095D02*
X159859523Y-84500000D01*
X159935714Y-84461904D01*
X160126190Y-84461904D01*
X160202380Y-84500000D01*
X160240476Y-84538095D01*
X160278571Y-84614285D01*
X160278571Y-84690476D01*
X160240476Y-84804761D01*
X159783333Y-85261904D01*
X160278571Y-85261904D01*
X161416666Y-85185714D02*
X161378571Y-85223809D01*
X161264285Y-85261904D01*
X161188095Y-85261904D01*
X161073809Y-85223809D01*
X160997619Y-85147619D01*
X160959523Y-85071428D01*
X160921428Y-84919047D01*
X160921428Y-84804761D01*
X160959523Y-84652380D01*
X160997619Y-84576190D01*
X161073809Y-84500000D01*
X161188095Y-84461904D01*
X161264285Y-84461904D01*
X161378571Y-84500000D01*
X161416666Y-84538095D01*
X161683333Y-84461904D02*
X162178571Y-84461904D01*
X161911904Y-84766666D01*
X162026190Y-84766666D01*
X162102380Y-84804761D01*
X162140476Y-84842857D01*
X162178571Y-84919047D01*
X162178571Y-85109523D01*
X162140476Y-85185714D01*
X162102380Y-85223809D01*
X162026190Y-85261904D01*
X161797619Y-85261904D01*
X161721428Y-85223809D01*
X161683333Y-85185714D01*
X131890476Y-81711904D02*
X131890476Y-82359523D01*
X131928571Y-82435714D01*
X131966666Y-82473809D01*
X132042857Y-82511904D01*
X132195238Y-82511904D01*
X132271428Y-82473809D01*
X132309523Y-82435714D01*
X132347619Y-82359523D01*
X132347619Y-81711904D01*
X132690476Y-81788095D02*
X132728571Y-81750000D01*
X132804761Y-81711904D01*
X132995238Y-81711904D01*
X133071428Y-81750000D01*
X133109523Y-81788095D01*
X133147619Y-81864285D01*
X133147619Y-81940476D01*
X133109523Y-82054761D01*
X132652380Y-82511904D01*
X133147619Y-82511904D01*
X154366666Y-88261904D02*
X154100000Y-87880952D01*
X153909523Y-88261904D02*
X153909523Y-87461904D01*
X154214285Y-87461904D01*
X154290476Y-87500000D01*
X154328571Y-87538095D01*
X154366666Y-87614285D01*
X154366666Y-87728571D01*
X154328571Y-87804761D01*
X154290476Y-87842857D01*
X154214285Y-87880952D01*
X153909523Y-87880952D01*
X154671428Y-87538095D02*
X154709523Y-87500000D01*
X154785714Y-87461904D01*
X154976190Y-87461904D01*
X155052380Y-87500000D01*
X155090476Y-87538095D01*
X155128571Y-87614285D01*
X155128571Y-87690476D01*
X155090476Y-87804761D01*
X154633333Y-88261904D01*
X155128571Y-88261904D01*
X128416666Y-82611904D02*
X128150000Y-82230952D01*
X127959523Y-82611904D02*
X127959523Y-81811904D01*
X128264285Y-81811904D01*
X128340476Y-81850000D01*
X128378571Y-81888095D01*
X128416666Y-81964285D01*
X128416666Y-82078571D01*
X128378571Y-82154761D01*
X128340476Y-82192857D01*
X128264285Y-82230952D01*
X127959523Y-82230952D01*
X129140476Y-81811904D02*
X128759523Y-81811904D01*
X128721428Y-82192857D01*
X128759523Y-82154761D01*
X128835714Y-82116666D01*
X129026190Y-82116666D01*
X129102380Y-82154761D01*
X129140476Y-82192857D01*
X129178571Y-82269047D01*
X129178571Y-82459523D01*
X129140476Y-82535714D01*
X129102380Y-82573809D01*
X129026190Y-82611904D01*
X128835714Y-82611904D01*
X128759523Y-82573809D01*
X128721428Y-82535714D01*
X124566666Y-84461904D02*
X124300000Y-84080952D01*
X124109523Y-84461904D02*
X124109523Y-83661904D01*
X124414285Y-83661904D01*
X124490476Y-83700000D01*
X124528571Y-83738095D01*
X124566666Y-83814285D01*
X124566666Y-83928571D01*
X124528571Y-84004761D01*
X124490476Y-84042857D01*
X124414285Y-84080952D01*
X124109523Y-84080952D01*
X124833333Y-83661904D02*
X125328571Y-83661904D01*
X125061904Y-83966666D01*
X125176190Y-83966666D01*
X125252380Y-84004761D01*
X125290476Y-84042857D01*
X125328571Y-84119047D01*
X125328571Y-84309523D01*
X125290476Y-84385714D01*
X125252380Y-84423809D01*
X125176190Y-84461904D01*
X124947619Y-84461904D01*
X124871428Y-84423809D01*
X124833333Y-84385714D01*
X134740476Y-85411904D02*
X134740476Y-86059523D01*
X134778571Y-86135714D01*
X134816666Y-86173809D01*
X134892857Y-86211904D01*
X135045238Y-86211904D01*
X135121428Y-86173809D01*
X135159523Y-86135714D01*
X135197619Y-86059523D01*
X135197619Y-85411904D01*
X135997619Y-86211904D02*
X135540476Y-86211904D01*
X135769047Y-86211904D02*
X135769047Y-85411904D01*
X135692857Y-85526190D01*
X135616666Y-85602380D01*
X135540476Y-85640476D01*
X126466666Y-84461904D02*
X126200000Y-84080952D01*
X126009523Y-84461904D02*
X126009523Y-83661904D01*
X126314285Y-83661904D01*
X126390476Y-83700000D01*
X126428571Y-83738095D01*
X126466666Y-83814285D01*
X126466666Y-83928571D01*
X126428571Y-84004761D01*
X126390476Y-84042857D01*
X126314285Y-84080952D01*
X126009523Y-84080952D01*
X127152380Y-83928571D02*
X127152380Y-84461904D01*
X126961904Y-83623809D02*
X126771428Y-84195238D01*
X127266666Y-84195238D01*
X124109523Y-85961904D02*
X124109523Y-85161904D01*
X124300000Y-85161904D01*
X124414285Y-85200000D01*
X124490476Y-85276190D01*
X124528571Y-85352380D01*
X124566666Y-85504761D01*
X124566666Y-85619047D01*
X124528571Y-85771428D01*
X124490476Y-85847619D01*
X124414285Y-85923809D01*
X124300000Y-85961904D01*
X124109523Y-85961904D01*
X125328571Y-85961904D02*
X124871428Y-85961904D01*
X125100000Y-85961904D02*
X125100000Y-85161904D01*
X125023809Y-85276190D01*
X124947619Y-85352380D01*
X124871428Y-85390476D01*
X165216666Y-85185714D02*
X165178571Y-85223809D01*
X165064285Y-85261904D01*
X164988095Y-85261904D01*
X164873809Y-85223809D01*
X164797619Y-85147619D01*
X164759523Y-85071428D01*
X164721428Y-84919047D01*
X164721428Y-84804761D01*
X164759523Y-84652380D01*
X164797619Y-84576190D01*
X164873809Y-84500000D01*
X164988095Y-84461904D01*
X165064285Y-84461904D01*
X165178571Y-84500000D01*
X165216666Y-84538095D01*
X165940476Y-84461904D02*
X165559523Y-84461904D01*
X165521428Y-84842857D01*
X165559523Y-84804761D01*
X165635714Y-84766666D01*
X165826190Y-84766666D01*
X165902380Y-84804761D01*
X165940476Y-84842857D01*
X165978571Y-84919047D01*
X165978571Y-85109523D01*
X165940476Y-85185714D01*
X165902380Y-85223809D01*
X165826190Y-85261904D01*
X165635714Y-85261904D01*
X165559523Y-85223809D01*
X165521428Y-85185714D01*
X163316666Y-85185714D02*
X163278571Y-85223809D01*
X163164285Y-85261904D01*
X163088095Y-85261904D01*
X162973809Y-85223809D01*
X162897619Y-85147619D01*
X162859523Y-85071428D01*
X162821428Y-84919047D01*
X162821428Y-84804761D01*
X162859523Y-84652380D01*
X162897619Y-84576190D01*
X162973809Y-84500000D01*
X163088095Y-84461904D01*
X163164285Y-84461904D01*
X163278571Y-84500000D01*
X163316666Y-84538095D01*
X164002380Y-84728571D02*
X164002380Y-85261904D01*
X163811904Y-84423809D02*
X163621428Y-84995238D01*
X164116666Y-84995238D01*
X152016666Y-88261904D02*
X151750000Y-87880952D01*
X151559523Y-88261904D02*
X151559523Y-87461904D01*
X151864285Y-87461904D01*
X151940476Y-87500000D01*
X151978571Y-87538095D01*
X152016666Y-87614285D01*
X152016666Y-87728571D01*
X151978571Y-87804761D01*
X151940476Y-87842857D01*
X151864285Y-87880952D01*
X151559523Y-87880952D01*
X152778571Y-88261904D02*
X152321428Y-88261904D01*
X152550000Y-88261904D02*
X152550000Y-87461904D01*
X152473809Y-87576190D01*
X152397619Y-87652380D01*
X152321428Y-87690476D01*
X156666666Y-88185714D02*
X156628571Y-88223809D01*
X156514285Y-88261904D01*
X156438095Y-88261904D01*
X156323809Y-88223809D01*
X156247619Y-88147619D01*
X156209523Y-88071428D01*
X156171428Y-87919047D01*
X156171428Y-87804761D01*
X156209523Y-87652380D01*
X156247619Y-87576190D01*
X156323809Y-87500000D01*
X156438095Y-87461904D01*
X156514285Y-87461904D01*
X156628571Y-87500000D01*
X156666666Y-87538095D01*
X157352380Y-87461904D02*
X157200000Y-87461904D01*
X157123809Y-87500000D01*
X157085714Y-87538095D01*
X157009523Y-87652380D01*
X156971428Y-87804761D01*
X156971428Y-88109523D01*
X157009523Y-88185714D01*
X157047619Y-88223809D01*
X157123809Y-88261904D01*
X157276190Y-88261904D01*
X157352380Y-88223809D01*
X157390476Y-88185714D01*
X157428571Y-88109523D01*
X157428571Y-87919047D01*
X157390476Y-87842857D01*
X157352380Y-87804761D01*
X157276190Y-87766666D01*
X157123809Y-87766666D01*
X157047619Y-87804761D01*
X157009523Y-87842857D01*
X156971428Y-87919047D01*
X162266666Y-91885714D02*
X162228571Y-91923809D01*
X162114285Y-91961904D01*
X162038095Y-91961904D01*
X161923809Y-91923809D01*
X161847619Y-91847619D01*
X161809523Y-91771428D01*
X161771428Y-91619047D01*
X161771428Y-91504761D01*
X161809523Y-91352380D01*
X161847619Y-91276190D01*
X161923809Y-91200000D01*
X162038095Y-91161904D01*
X162114285Y-91161904D01*
X162228571Y-91200000D01*
X162266666Y-91238095D01*
X163028571Y-91961904D02*
X162571428Y-91961904D01*
X162800000Y-91961904D02*
X162800000Y-91161904D01*
X162723809Y-91276190D01*
X162647619Y-91352380D01*
X162571428Y-91390476D01*
X126009523Y-85961904D02*
X126009523Y-85161904D01*
X126200000Y-85161904D01*
X126314285Y-85200000D01*
X126390476Y-85276190D01*
X126428571Y-85352380D01*
X126466666Y-85504761D01*
X126466666Y-85619047D01*
X126428571Y-85771428D01*
X126390476Y-85847619D01*
X126314285Y-85923809D01*
X126200000Y-85961904D01*
X126009523Y-85961904D01*
X126771428Y-85238095D02*
X126809523Y-85200000D01*
X126885714Y-85161904D01*
X127076190Y-85161904D01*
X127152380Y-85200000D01*
X127190476Y-85238095D01*
X127228571Y-85314285D01*
X127228571Y-85390476D01*
X127190476Y-85504761D01*
X126733333Y-85961904D01*
X127228571Y-85961904D01*
X160085000Y-87661252D02*
X160085000Y-87138748D01*
X158615000Y-87661252D02*
X158615000Y-87138748D01*
X162185000Y-87661252D02*
X162185000Y-87138748D01*
X160715000Y-87661252D02*
X160715000Y-87138748D01*
G36*
X138591850Y-88169222D02*
G01*
X138583849Y-88215414D01*
X138571875Y-88267449D01*
X138551715Y-88360018D01*
X138524770Y-88486418D01*
X138492441Y-88639949D01*
X138456131Y-88813910D01*
X138417240Y-89001599D01*
X138377169Y-89196315D01*
X138337322Y-89391357D01*
X138317977Y-89486622D01*
X138283719Y-89654936D01*
X138246041Y-89838776D01*
X138208768Y-90019564D01*
X138175721Y-90178723D01*
X138165088Y-90229567D01*
X138135841Y-90376481D01*
X138118947Y-90480291D01*
X138113989Y-90544367D01*
X138120553Y-90572081D01*
X138122669Y-90573375D01*
X138154189Y-90577416D01*
X138226172Y-90582568D01*
X138330907Y-90588408D01*
X138460684Y-90594514D01*
X138607792Y-90600465D01*
X138638276Y-90601587D01*
X139126418Y-90619260D01*
X138087369Y-92029032D01*
X137874713Y-92317591D01*
X137688915Y-92569721D01*
X137528201Y-92787765D01*
X137390794Y-92974064D01*
X137274921Y-93130960D01*
X137178805Y-93260795D01*
X137100673Y-93365910D01*
X137038748Y-93448647D01*
X136991255Y-93511347D01*
X136956420Y-93556353D01*
X136932468Y-93586006D01*
X136917622Y-93602648D01*
X136910109Y-93608620D01*
X136908152Y-93606264D01*
X136909978Y-93597922D01*
X136913810Y-93585936D01*
X136917873Y-93572647D01*
X136918221Y-93571347D01*
X136943162Y-93477515D01*
X136978757Y-93345181D01*
X137022831Y-93182302D01*
X137073211Y-92996835D01*
X137127723Y-92796735D01*
X137184193Y-92589961D01*
X137240447Y-92384469D01*
X137294311Y-92188215D01*
X137343612Y-92009158D01*
X137386176Y-91855253D01*
X137419829Y-91734457D01*
X137428472Y-91703700D01*
X137466764Y-91563716D01*
X137498072Y-91441106D01*
X137520728Y-91343087D01*
X137533063Y-91276875D01*
X137533424Y-91249699D01*
X137507177Y-91247881D01*
X137440420Y-91248318D01*
X137340777Y-91250816D01*
X137215875Y-91255182D01*
X137073337Y-91261222D01*
X137065981Y-91261560D01*
X136922087Y-91267833D01*
X136794808Y-91272691D01*
X136691947Y-91275892D01*
X136621310Y-91277195D01*
X136590701Y-91276358D01*
X136590424Y-91276279D01*
X136586979Y-91275416D01*
X136584521Y-91273703D01*
X136584463Y-91268907D01*
X136588217Y-91258797D01*
X136597195Y-91241143D01*
X136612809Y-91213711D01*
X136636472Y-91174272D01*
X136669596Y-91120594D01*
X136713592Y-91050445D01*
X136769873Y-90961594D01*
X136839851Y-90851810D01*
X136924939Y-90718862D01*
X137026548Y-90560517D01*
X137146090Y-90374546D01*
X137284978Y-90158716D01*
X137444624Y-89910796D01*
X137626441Y-89628555D01*
X137831839Y-89309762D01*
X138009115Y-89034624D01*
X138100252Y-88892946D01*
X138198951Y-88739131D01*
X138295130Y-88588913D01*
X138378710Y-88458025D01*
X138402762Y-88420256D01*
X138467206Y-88320365D01*
X138522650Y-88237060D01*
X138563968Y-88177848D01*
X138586035Y-88150237D01*
X138587862Y-88149146D01*
X138591850Y-88169222D01*
G37*
X132500000Y-86060000D02*
X131700000Y-86060000D01*
X132500000Y-86060000D02*
X134300000Y-86060000D01*
X132500000Y-82940000D02*
X133300000Y-82940000D01*
X132500000Y-82940000D02*
X131700000Y-82940000D01*
X158150000Y-84910000D02*
X157650000Y-84910000D01*
X158650000Y-84410000D02*
X157150000Y-84410000D01*
X135850000Y-85300000D02*
X135850000Y-81520000D01*
X135850000Y-83350000D02*
X158650000Y-83410000D01*
X158150000Y-82910000D02*
X157650000Y-82910000D01*
X136150000Y-82910000D02*
X136650000Y-82910000D01*
X135850000Y-84350000D02*
X137350000Y-84350000D01*
X136600000Y-81910000D02*
X136150000Y-81910000D01*
X158650000Y-85300000D02*
X158650000Y-81520000D01*
X158150000Y-83910000D02*
X157650000Y-83910000D01*
X135850000Y-82350000D02*
X137350000Y-82350000D01*
X168750000Y-79450000D02*
X120750000Y-79450000D01*
X158650000Y-82410000D02*
X157150000Y-82410000D01*
X136150000Y-83910000D02*
X136650000Y-83910000D01*
X136650000Y-84910000D02*
X136150000Y-84910000D01*
X158150000Y-81910000D02*
X157650000Y-81910000D01*
X120750000Y-86450000D02*
X168750000Y-86450000D01*
X168750000Y-86450000D02*
G75*
G03*
X172250000Y-82950000I1J3499999D01*
G01*
X117250000Y-82950000D02*
G75*
G03*
X120750000Y-86450000I3499999J-1D01*
G01*
X120750000Y-79450000D02*
G75*
G03*
X117250000Y-82950000I-1J-3499999D01*
G01*
X168750000Y-86450000D02*
G75*
G03*
X168750000Y-79450000I0J3500000D01*
G01*
X155022500Y-90145276D02*
X155022500Y-90654724D01*
X153977500Y-90145276D02*
X153977500Y-90654724D01*
X127977500Y-84754724D02*
X127977500Y-84245276D01*
X129022500Y-84754724D02*
X129022500Y-84245276D01*
X124077500Y-88542224D02*
X124077500Y-88032776D01*
X125122500Y-88542224D02*
X125122500Y-88032776D01*
X135600000Y-87140000D02*
X134200000Y-87140000D01*
X134200000Y-89460000D02*
X136100000Y-89460000D01*
X130622500Y-88454724D02*
X130622500Y-87945276D01*
X129577500Y-88454724D02*
X129577500Y-87945276D01*
X125335000Y-92587500D02*
X125335000Y-90302500D01*
X123865000Y-90302500D02*
X123865000Y-92587500D01*
X125335000Y-90302500D02*
X123865000Y-90302500D01*
X164915000Y-87661252D02*
X164915000Y-87138748D01*
X166385000Y-87661252D02*
X166385000Y-87138748D01*
X162815000Y-87661252D02*
X162815000Y-87138748D01*
X164285000Y-87661252D02*
X164285000Y-87138748D01*
G36*
X120948336Y-87818259D02*
G01*
X120952832Y-87834584D01*
X120960416Y-87868775D01*
X120970504Y-87917917D01*
X120982514Y-87979092D01*
X120995863Y-88049386D01*
X121009968Y-88125879D01*
X121011447Y-88134029D01*
X121025411Y-88210490D01*
X121038429Y-88280607D01*
X121049960Y-88341563D01*
X121059465Y-88390541D01*
X121066403Y-88424723D01*
X121070235Y-88441293D01*
X121070465Y-88441978D01*
X121082177Y-88452173D01*
X121109370Y-88467841D01*
X121147871Y-88486769D01*
X121189160Y-88504936D01*
X121287071Y-88545678D01*
X121366709Y-88578443D01*
X121429159Y-88603660D01*
X121475508Y-88621758D01*
X121506840Y-88633167D01*
X121524241Y-88638316D01*
X121527403Y-88638720D01*
X121539126Y-88632960D01*
X121565945Y-88616659D01*
X121605603Y-88591290D01*
X121655842Y-88558322D01*
X121714405Y-88519228D01*
X121779034Y-88475478D01*
X121802686Y-88459327D01*
X121869231Y-88414214D01*
X121930853Y-88373260D01*
X121985230Y-88337944D01*
X122030039Y-88309744D01*
X122062957Y-88290141D01*
X122081662Y-88280615D01*
X122084363Y-88279934D01*
X122097627Y-88287276D01*
X122122966Y-88307765D01*
X122158083Y-88339089D01*
X122200680Y-88378940D01*
X122248460Y-88425006D01*
X122299127Y-88474978D01*
X122350382Y-88526546D01*
X122399930Y-88577400D01*
X122445473Y-88625231D01*
X122484713Y-88667728D01*
X122515354Y-88702581D01*
X122535098Y-88727480D01*
X122541670Y-88739794D01*
X122535860Y-88755891D01*
X122519883Y-88785425D01*
X122495923Y-88824714D01*
X122466161Y-88870079D01*
X122453092Y-88889144D01*
X122384868Y-88987779D01*
X122328288Y-89070390D01*
X122282644Y-89138067D01*
X122247229Y-89191900D01*
X122221335Y-89232979D01*
X122204254Y-89262392D01*
X122195277Y-89281230D01*
X122193436Y-89288875D01*
X122197528Y-89304236D01*
X122208808Y-89335324D01*
X122225781Y-89378630D01*
X122246951Y-89430644D01*
X122270826Y-89487857D01*
X122295909Y-89546759D01*
X122320705Y-89603841D01*
X122343721Y-89655593D01*
X122363461Y-89698506D01*
X122378430Y-89729071D01*
X122387134Y-89743779D01*
X122387249Y-89743903D01*
X122397212Y-89749379D01*
X122418813Y-89756294D01*
X122453423Y-89764937D01*
X122502416Y-89775595D01*
X122567161Y-89788559D01*
X122649031Y-89804116D01*
X122749398Y-89822554D01*
X122831865Y-89837414D01*
X122887140Y-89847694D01*
X122936557Y-89857588D01*
X122975586Y-89866139D01*
X122999699Y-89872389D01*
X123003344Y-89873671D01*
X123027088Y-89883469D01*
X123027088Y-90204257D01*
X123026895Y-90299779D01*
X123026266Y-90376096D01*
X123025121Y-90435105D01*
X123023382Y-90478705D01*
X123020972Y-90508791D01*
X123017810Y-90527261D01*
X123013821Y-90536012D01*
X123013373Y-90536425D01*
X122999744Y-90541257D01*
X122968141Y-90549196D01*
X122921367Y-90559641D01*
X122862224Y-90571992D01*
X122793514Y-90585648D01*
X122718041Y-90600006D01*
X122709987Y-90601502D01*
X122614135Y-90619652D01*
X122537855Y-90634983D01*
X122479846Y-90647797D01*
X122438809Y-90658400D01*
X122413443Y-90667094D01*
X122403247Y-90673194D01*
X122393024Y-90689679D01*
X122377457Y-90721883D01*
X122357845Y-90766444D01*
X122335490Y-90820000D01*
X122311692Y-90879187D01*
X122287753Y-90940644D01*
X122264972Y-91001008D01*
X122244650Y-91056915D01*
X122228089Y-91105005D01*
X122216589Y-91141913D01*
X122211451Y-91164277D01*
X122211565Y-91168710D01*
X122219780Y-91183582D01*
X122237789Y-91212204D01*
X122263287Y-91251034D01*
X122293967Y-91296531D01*
X122309425Y-91319069D01*
X122349073Y-91376571D01*
X122391891Y-91438675D01*
X122433020Y-91498333D01*
X122467600Y-91548498D01*
X122471026Y-91553469D01*
X122498874Y-91595415D01*
X122521549Y-91632509D01*
X122536617Y-91660564D01*
X122541670Y-91674916D01*
X122534481Y-91686370D01*
X122514404Y-91710246D01*
X122483680Y-91744266D01*
X122444546Y-91786157D01*
X122399241Y-91833641D01*
X122350005Y-91884443D01*
X122299074Y-91936288D01*
X122248689Y-91986901D01*
X122201088Y-92034004D01*
X122158509Y-92075323D01*
X122123191Y-92108582D01*
X122097373Y-92131506D01*
X122083293Y-92141818D01*
X122082016Y-92142169D01*
X122069167Y-92136521D01*
X122043269Y-92121287D01*
X122008531Y-92099034D01*
X121981857Y-92081099D01*
X121887448Y-92016478D01*
X121808959Y-91962850D01*
X121744929Y-91919236D01*
X121693900Y-91884657D01*
X121654409Y-91858132D01*
X121624997Y-91838682D01*
X121604203Y-91825328D01*
X121590568Y-91817091D01*
X121582630Y-91812990D01*
X121581388Y-91812505D01*
X121566208Y-91815000D01*
X121536979Y-91825998D01*
X121498060Y-91843680D01*
X121458466Y-91863746D01*
X121413840Y-91886485D01*
X121374352Y-91904892D01*
X121344641Y-91916909D01*
X121330347Y-91920565D01*
X121320206Y-91917047D01*
X121309104Y-91904670D01*
X121295492Y-91880698D01*
X121277818Y-91842396D01*
X121254533Y-91787027D01*
X121254120Y-91786020D01*
X121237200Y-91744901D01*
X121213506Y-91687498D01*
X121184364Y-91617014D01*
X121151101Y-91536653D01*
X121115042Y-91449620D01*
X121077515Y-91359118D01*
X121041433Y-91272178D01*
X121006389Y-91187382D01*
X120973946Y-91108122D01*
X120945000Y-91036642D01*
X120920445Y-90975183D01*
X120901175Y-90925991D01*
X120888087Y-90891308D01*
X120882074Y-90873378D01*
X120881794Y-90871957D01*
X120886339Y-90858028D01*
X120903519Y-90838092D01*
X120935106Y-90810416D01*
X120981517Y-90774283D01*
X121065418Y-90705137D01*
X121131879Y-90636379D01*
X121184152Y-90564242D01*
X121219164Y-90498946D01*
X121259925Y-90387646D01*
X121280746Y-90274037D01*
X121282037Y-90160417D01*
X121264204Y-90049081D01*
X121227655Y-89942326D01*
X121172799Y-89842451D01*
X121100042Y-89751751D01*
X121083537Y-89735069D01*
X121004921Y-89669778D01*
X120915488Y-89614995D01*
X120822216Y-89574719D01*
X120783147Y-89562980D01*
X120724832Y-89552688D01*
X120654331Y-89547402D01*
X120579672Y-89547131D01*
X120508888Y-89551887D01*
X120450007Y-89561679D01*
X120446567Y-89562546D01*
X120338962Y-89601088D01*
X120239447Y-89657801D01*
X120150300Y-89730569D01*
X120073800Y-89817274D01*
X120012225Y-89915800D01*
X119975844Y-90000000D01*
X119962588Y-90052790D01*
X119953859Y-90119311D01*
X119949735Y-90193173D01*
X119950298Y-90267988D01*
X119955628Y-90337369D01*
X119965804Y-90394927D01*
X119970679Y-90411550D01*
X120015134Y-90515073D01*
X120075778Y-90609281D01*
X120154129Y-90696131D01*
X120251707Y-90777584D01*
X120258498Y-90782555D01*
X120302650Y-90816586D01*
X120332402Y-90843809D01*
X120346041Y-90862601D01*
X120346739Y-90866101D01*
X120342814Y-90880828D01*
X120331766Y-90912164D01*
X120314686Y-90957278D01*
X120292667Y-91013337D01*
X120266799Y-91077511D01*
X120242486Y-91136599D01*
X120206763Y-91222651D01*
X120165887Y-91321149D01*
X120122785Y-91425040D01*
X120080383Y-91527272D01*
X120041605Y-91620794D01*
X120029542Y-91649894D01*
X119999716Y-91720676D01*
X119971914Y-91784422D01*
X119947315Y-91838598D01*
X119927096Y-91880672D01*
X119912437Y-91908110D01*
X119904711Y-91918321D01*
X119889216Y-91916173D01*
X119859601Y-91905521D01*
X119820202Y-91888100D01*
X119782612Y-91869451D01*
X119737991Y-91847268D01*
X119698409Y-91829421D01*
X119668618Y-91817944D01*
X119654659Y-91814713D01*
X119640359Y-91820620D01*
X119611333Y-91837097D01*
X119570102Y-91862550D01*
X119519185Y-91895388D01*
X119461106Y-91934017D01*
X119401397Y-91974760D01*
X119338915Y-92017618D01*
X119281371Y-92056531D01*
X119231263Y-92089855D01*
X119191088Y-92115945D01*
X119163341Y-92133157D01*
X119150763Y-92139791D01*
X119140744Y-92137293D01*
X119122964Y-92125499D01*
X119096227Y-92103333D01*
X119059337Y-92069720D01*
X119011098Y-92023583D01*
X118950315Y-91963847D01*
X118905416Y-91919120D01*
X118848899Y-91862213D01*
X118797551Y-91809760D01*
X118753202Y-91763692D01*
X118717686Y-91725939D01*
X118692832Y-91698433D01*
X118680474Y-91683105D01*
X118679435Y-91680891D01*
X118683697Y-91670510D01*
X118696833Y-91647970D01*
X118719363Y-91612481D01*
X118751811Y-91563256D01*
X118794700Y-91499506D01*
X118848551Y-91420443D01*
X118913886Y-91325277D01*
X118943623Y-91282135D01*
X118971995Y-91239385D01*
X118995258Y-91201238D01*
X119010991Y-91171881D01*
X119016773Y-91155603D01*
X119012977Y-91137217D01*
X119002192Y-91103601D01*
X118985793Y-91058096D01*
X118965154Y-91004044D01*
X118941651Y-90944785D01*
X118916660Y-90883661D01*
X118891556Y-90824014D01*
X118867714Y-90769183D01*
X118846510Y-90722511D01*
X118829320Y-90687339D01*
X118817518Y-90667008D01*
X118814211Y-90663523D01*
X118798887Y-90658860D01*
X118765871Y-90651134D01*
X118718248Y-90640988D01*
X118659105Y-90629064D01*
X118591526Y-90616006D01*
X118539519Y-90606289D01*
X118447775Y-90589363D01*
X118374617Y-90575645D01*
X118317885Y-90564481D01*
X118275415Y-90555220D01*
X118245046Y-90547209D01*
X118224616Y-90539796D01*
X118211961Y-90532328D01*
X118204921Y-90524153D01*
X118201332Y-90514619D01*
X118199129Y-90503588D01*
X118196656Y-90478795D01*
X118195035Y-90438212D01*
X118194201Y-90385113D01*
X118194085Y-90322775D01*
X118194621Y-90254473D01*
X118195742Y-90183484D01*
X118197379Y-90113082D01*
X118199468Y-90046544D01*
X118201939Y-89987147D01*
X118204726Y-89938164D01*
X118207762Y-89902873D01*
X118210979Y-89884550D01*
X118211847Y-89882959D01*
X118225096Y-89877892D01*
X118256404Y-89869704D01*
X118303053Y-89858990D01*
X118362327Y-89846343D01*
X118431510Y-89832358D01*
X118507884Y-89817627D01*
X118527872Y-89813881D01*
X118605325Y-89799237D01*
X118676019Y-89785462D01*
X118737293Y-89773109D01*
X118786485Y-89762726D01*
X118820935Y-89754867D01*
X118837981Y-89750081D01*
X118839241Y-89749401D01*
X118846999Y-89736161D01*
X118861211Y-89706856D01*
X118880411Y-89664915D01*
X118903136Y-89613767D01*
X118927920Y-89556842D01*
X118953299Y-89497570D01*
X118977807Y-89439379D01*
X118999980Y-89385699D01*
X119018353Y-89339960D01*
X119031461Y-89305591D01*
X119037840Y-89286022D01*
X119038222Y-89283549D01*
X119036526Y-89277859D01*
X119030730Y-89266821D01*
X119019773Y-89248837D01*
X119002594Y-89222305D01*
X118978133Y-89185625D01*
X118945327Y-89137197D01*
X118903117Y-89075422D01*
X118850442Y-88998697D01*
X118820582Y-88955297D01*
X118782329Y-88899288D01*
X118747981Y-88848171D01*
X118719435Y-88804837D01*
X118698587Y-88772174D01*
X118687336Y-88753074D01*
X118686115Y-88750421D01*
X118686533Y-88741891D01*
X118693485Y-88728480D01*
X118708318Y-88708663D01*
X118732376Y-88680918D01*
X118767006Y-88643724D01*
X118813555Y-88595556D01*
X118873368Y-88534894D01*
X118903016Y-88505074D01*
X118970990Y-88437524D01*
X119029588Y-88380710D01*
X119077750Y-88335609D01*
X119114414Y-88303196D01*
X119138520Y-88284446D01*
X119147869Y-88279934D01*
X119173163Y-88286626D01*
X119185127Y-88294155D01*
X119198604Y-88304161D01*
X119226718Y-88323976D01*
X119266603Y-88351615D01*
X119315392Y-88385095D01*
X119370218Y-88422433D01*
X119386456Y-88433441D01*
X119445860Y-88473710D01*
X119503264Y-88512692D01*
X119554937Y-88547849D01*
X119597150Y-88576642D01*
X119626171Y-88596534D01*
X119629165Y-88598599D01*
X119660717Y-88619087D01*
X119686595Y-88633543D01*
X119700625Y-88638707D01*
X119715516Y-88634729D01*
X119746184Y-88623770D01*
X119789068Y-88607303D01*
X119840608Y-88586806D01*
X119897246Y-88563754D01*
X119955420Y-88539623D01*
X120011571Y-88515889D01*
X120062140Y-88494027D01*
X120103565Y-88475514D01*
X120132289Y-88461825D01*
X120144530Y-88454671D01*
X120150751Y-88440181D01*
X120160015Y-88407030D01*
X120171868Y-88357369D01*
X120185858Y-88293350D01*
X120201532Y-88217126D01*
X120218440Y-88130847D01*
X120236126Y-88036665D01*
X120254141Y-87936734D01*
X120257778Y-87916046D01*
X120266326Y-87872474D01*
X120275136Y-87836195D01*
X120282791Y-87812752D01*
X120285467Y-87807882D01*
X120293762Y-87803875D01*
X120312478Y-87800689D01*
X120343418Y-87798250D01*
X120388384Y-87796486D01*
X120449180Y-87795324D01*
X120527608Y-87794692D01*
X120617347Y-87794516D01*
X120938134Y-87794516D01*
X120948336Y-87818259D01*
G37*
X151627500Y-90654724D02*
X151627500Y-90145276D01*
X152672500Y-90654724D02*
X152672500Y-90145276D01*
D11*
X149590000Y-89350000D02*
X149590000Y-90600000D01*
X140010000Y-93320000D02*
X140010000Y-94600000D01*
X149590000Y-94600000D02*
X149590000Y-93320000D01*
X140010000Y-89350000D02*
X140010000Y-90600000D01*
X140010000Y-94600000D02*
X149590000Y-94600000D01*
D12*
X156290000Y-90266233D02*
X156290000Y-90558767D01*
X157310000Y-90266233D02*
X157310000Y-90558767D01*
X157990000Y-93860000D02*
X166050000Y-93860000D01*
X166050000Y-89340000D02*
X157990000Y-89340000D01*
X157990000Y-89340000D02*
X157990000Y-93860000D01*
X129365000Y-90215000D02*
X129365000Y-92500000D01*
X130835000Y-90215000D02*
X129365000Y-90215000D01*
X130835000Y-92500000D02*
X130835000Y-90215000D01*
%LPC*%
D13*
X159350000Y-88350000D03*
X159350000Y-86450000D03*
X161450000Y-88350000D03*
X161450000Y-86450000D03*
D14*
X133637500Y-85450000D03*
X133637500Y-84500000D03*
X133637500Y-83550000D03*
X131362500Y-83550000D03*
X131362500Y-85450000D03*
D15*
X137450000Y-84950000D03*
X137450000Y-81870000D03*
X137850000Y-84950000D03*
X137850000Y-81870000D03*
X138250000Y-84950000D03*
X138250000Y-81870000D03*
X138650000Y-84950000D03*
X138650000Y-81870000D03*
X139050000Y-84950000D03*
X139050000Y-81870000D03*
X139450000Y-84950000D03*
X139450000Y-81870000D03*
X139850000Y-84950000D03*
X139850000Y-81870000D03*
X140250000Y-84950000D03*
X140250000Y-81870000D03*
X140650000Y-84950000D03*
X140650000Y-81870000D03*
X141050000Y-84950000D03*
X141050000Y-81870000D03*
X141450000Y-84950000D03*
X141450000Y-81870000D03*
X141850000Y-84950000D03*
X141850000Y-81870000D03*
X142250000Y-84950000D03*
X142250000Y-81870000D03*
X142650000Y-84950000D03*
X142650000Y-81870000D03*
X143050000Y-84950000D03*
X143050000Y-81870000D03*
X143450000Y-84950000D03*
X143450000Y-81870000D03*
X143850000Y-84950000D03*
X143850000Y-81870000D03*
X144250000Y-84950000D03*
X144250000Y-81870000D03*
X144650000Y-84950000D03*
X144650000Y-81870000D03*
X145050000Y-84950000D03*
X145050000Y-81870000D03*
X145450000Y-84950000D03*
X145450000Y-81870000D03*
X145850000Y-84950000D03*
X145850000Y-81870000D03*
X146250000Y-84950000D03*
X146250000Y-81870000D03*
X146650000Y-84950000D03*
X146650000Y-81870000D03*
X147050000Y-84950000D03*
X147050000Y-81870000D03*
X147450000Y-84950000D03*
X147450000Y-81870000D03*
X147850000Y-84950000D03*
X147850000Y-81870000D03*
X148250000Y-84950000D03*
X148250000Y-81870000D03*
X148650000Y-84950000D03*
X148650000Y-81870000D03*
X149050000Y-84950000D03*
X149050000Y-81870000D03*
X149450000Y-84950000D03*
X149450000Y-81870000D03*
X149850000Y-84950000D03*
X149850000Y-81870000D03*
X150250000Y-84950000D03*
X150250000Y-81870000D03*
X150650000Y-84950000D03*
X150650000Y-81870000D03*
X151050000Y-84950000D03*
X151050000Y-81870000D03*
X151450000Y-84950000D03*
X151450000Y-81870000D03*
X151850000Y-84950000D03*
X151850000Y-81870000D03*
X152250000Y-84950000D03*
X152250000Y-81870000D03*
X152650000Y-84950000D03*
X152650000Y-81870000D03*
X153050000Y-84950000D03*
X153050000Y-81870000D03*
X153450000Y-84950000D03*
X153450000Y-81870000D03*
X153850000Y-84950000D03*
X153850000Y-81870000D03*
X154250000Y-84950000D03*
X154250000Y-81870000D03*
X154650000Y-84950000D03*
X154650000Y-81870000D03*
X155050000Y-84950000D03*
X155050000Y-81870000D03*
X155450000Y-84950000D03*
X155450000Y-81870000D03*
X155850000Y-84950000D03*
X155850000Y-81870000D03*
X156250000Y-84950000D03*
X156250000Y-81870000D03*
X156650000Y-84950000D03*
X156650000Y-81870000D03*
X157050000Y-84950000D03*
X157050000Y-81870000D03*
D16*
X120750000Y-82950000D03*
X168750000Y-82950000D03*
D17*
X154500000Y-89487500D03*
X154500000Y-91312500D03*
D18*
X128500000Y-85412500D03*
X128500000Y-83587500D03*
X124600000Y-89200000D03*
X124600000Y-87375000D03*
D19*
X135850000Y-88950000D03*
X135850000Y-88300000D03*
X135850000Y-87650000D03*
X133950000Y-87650000D03*
X133950000Y-88950000D03*
D18*
X130100000Y-89112500D03*
X130100000Y-87287500D03*
D20*
X124600000Y-91000000D03*
X124600000Y-92575000D03*
D13*
X165650000Y-88350000D03*
X165650000Y-86450000D03*
X163550000Y-88350000D03*
X163550000Y-86450000D03*
D18*
X152150000Y-91312500D03*
X152150000Y-89487500D03*
D21*
X147690000Y-88320000D03*
X141910000Y-88320000D03*
D22*
X141600000Y-87245000D03*
X142400000Y-87245000D03*
D23*
X143550000Y-87245000D03*
X144550000Y-87245000D03*
X145050000Y-87245000D03*
X146050000Y-87245000D03*
D22*
X148000000Y-87245000D03*
X147200000Y-87245000D03*
D23*
X146550000Y-87245000D03*
X145550000Y-87245000D03*
X144050000Y-87245000D03*
X143050000Y-87245000D03*
D24*
X140480000Y-87820000D03*
D25*
X140480000Y-92000000D03*
X149120000Y-92000000D03*
D24*
X149120000Y-87820000D03*
D26*
X156800000Y-89550000D03*
X156800000Y-91275000D03*
D27*
X159287500Y-91600000D03*
X165512500Y-91600000D03*
D20*
X130100000Y-90912500D03*
X130100000Y-92487500D03*
M02*
