%FSLAX45Y45*%
G04 Gerber Fmt 4.5, Leading zero omitted, Abs format (unit mm)*
G04 Created by KiCad (PCBNEW (6.0.0)) date 2022-02-03 13:29:59*
%MOMM*%
%LPD*%
G01*
G04 APERTURE LIST*
%TA.AperFunction,Profile*%
%ADD10C,0.050000*%
%TD*%
%ADD11C,0.200000*%
%ADD12C,0.025000*%
%ADD13C,0.060000*%
%ADD14C,0.370000*%
G04 APERTURE END LIST*
D10*
X11730000Y-9120000D02*
G75*
G03*
X12030000Y-9420000I300000J0D01*
G01*
X17230000Y-8250000D02*
X17230000Y-9120000D01*
X16930000Y-9420000D02*
X12030000Y-9420000D01*
X17230000Y-8250000D02*
G75*
G03*
X16930000Y-7950000I-300000J0D01*
G01*
X16930000Y-9420000D02*
G75*
G03*
X17230000Y-9120000I0J300000D01*
G01*
X12030000Y-7950000D02*
X16930000Y-7950000D01*
X12030000Y-7950000D02*
G75*
G03*
X11730000Y-8250000I0J-300000D01*
G01*
X11730000Y-8250000D02*
X11730000Y-9120000D01*
D11*
D12*
X11787500Y-8587500D02*
X11812500Y-8612500D01*
X11812500Y-8587500D02*
X11787500Y-8612500D01*
X11787500Y-8787500D02*
X11812500Y-8812500D01*
X11812500Y-8787500D02*
X11787500Y-8812500D01*
X11787500Y-8987500D02*
X11812500Y-9012500D01*
X11812500Y-8987500D02*
X11787500Y-9012500D01*
X11787500Y-9187500D02*
X11812500Y-9212500D01*
X11812500Y-9187500D02*
X11787500Y-9212500D01*
X11887500Y-8687500D02*
X11912500Y-8712500D01*
X11912500Y-8687500D02*
X11887500Y-8712500D01*
X11887500Y-8887500D02*
X11912500Y-8912500D01*
X11912500Y-8887500D02*
X11887500Y-8912500D01*
X11887500Y-9087500D02*
X11912500Y-9112500D01*
X11912500Y-9087500D02*
X11887500Y-9112500D01*
X11887500Y-9287500D02*
X11912500Y-9312500D01*
X11912500Y-9287500D02*
X11887500Y-9312500D01*
X12087500Y-8687500D02*
X12112500Y-8712500D01*
X12112500Y-8687500D02*
X12087500Y-8712500D01*
X12287500Y-8687500D02*
X12312500Y-8712500D01*
X12312500Y-8687500D02*
X12287500Y-8712500D01*
X12287500Y-8887500D02*
X12312500Y-8912500D01*
X12312500Y-8887500D02*
X12287500Y-8912500D01*
X12287500Y-9087500D02*
X12312500Y-9112500D01*
X12312500Y-9087500D02*
X12287500Y-9112500D01*
X12287500Y-9287500D02*
X12312500Y-9312500D01*
X12312500Y-9287500D02*
X12287500Y-9312500D01*
X12387500Y-7987500D02*
X12412500Y-8012500D01*
X12412500Y-7987500D02*
X12387500Y-8012500D01*
X12387500Y-8587500D02*
X12412500Y-8612500D01*
X12412500Y-8587500D02*
X12387500Y-8612500D01*
X12487500Y-8087500D02*
X12512500Y-8112500D01*
X12512500Y-8087500D02*
X12487500Y-8112500D01*
X12487500Y-8287500D02*
X12512500Y-8312500D01*
X12512500Y-8287500D02*
X12487500Y-8312500D01*
X12487500Y-8487500D02*
X12512500Y-8512500D01*
X12512500Y-8487500D02*
X12487500Y-8512500D01*
X12587500Y-7987500D02*
X12612500Y-8012500D01*
X12612500Y-7987500D02*
X12587500Y-8012500D01*
X12587500Y-8187500D02*
X12612500Y-8212500D01*
X12612500Y-8187500D02*
X12587500Y-8212500D01*
X12587500Y-8387500D02*
X12612500Y-8412500D01*
X12612500Y-8387500D02*
X12587500Y-8412500D01*
X12587500Y-8587500D02*
X12612500Y-8612500D01*
X12612500Y-8587500D02*
X12587500Y-8612500D01*
X12587500Y-8987500D02*
X12612500Y-9012500D01*
X12612500Y-8987500D02*
X12587500Y-9012500D01*
X12587500Y-9187500D02*
X12612500Y-9212500D01*
X12612500Y-9187500D02*
X12587500Y-9212500D01*
X12687500Y-8087500D02*
X12712500Y-8112500D01*
X12712500Y-8087500D02*
X12687500Y-8112500D01*
X12687500Y-8687500D02*
X12712500Y-8712500D01*
X12712500Y-8687500D02*
X12687500Y-8712500D01*
X12787500Y-7987500D02*
X12812500Y-8012500D01*
X12812500Y-7987500D02*
X12787500Y-8012500D01*
X12887500Y-8137500D02*
X12912500Y-8162500D01*
X12912500Y-8137500D02*
X12887500Y-8162500D01*
X12887500Y-8687500D02*
X12912500Y-8712500D01*
X12912500Y-8687500D02*
X12887500Y-8712500D01*
X12987500Y-7987500D02*
X13012500Y-8012500D01*
X13012500Y-7987500D02*
X12987500Y-8012500D01*
X12987500Y-8587500D02*
X13012500Y-8612500D01*
X13012500Y-8587500D02*
X12987500Y-8612500D01*
X13087500Y-8087500D02*
X13112500Y-8112500D01*
X13112500Y-8087500D02*
X13087500Y-8112500D01*
X13087500Y-8887500D02*
X13112500Y-8912500D01*
X13112500Y-8887500D02*
X13087500Y-8912500D01*
X13087500Y-9087500D02*
X13112500Y-9112500D01*
X13112500Y-9087500D02*
X13087500Y-9112500D01*
X13087500Y-9287500D02*
X13112500Y-9312500D01*
X13112500Y-9287500D02*
X13087500Y-9312500D01*
X13187500Y-7987500D02*
X13212500Y-8012500D01*
X13212500Y-7987500D02*
X13187500Y-8012500D01*
X13187500Y-8987500D02*
X13212500Y-9012500D01*
X13212500Y-8987500D02*
X13187500Y-9012500D01*
X13187500Y-9187500D02*
X13212500Y-9212500D01*
X13212500Y-9187500D02*
X13187500Y-9212500D01*
X13207500Y-8677500D02*
X13232500Y-8702500D01*
X13232500Y-8677500D02*
X13207500Y-8702500D01*
X13287500Y-8687500D02*
X13312500Y-8712500D01*
X13312500Y-8687500D02*
X13287500Y-8712500D01*
X13287500Y-9287500D02*
X13312500Y-9312500D01*
X13312500Y-9287500D02*
X13287500Y-9312500D01*
X13367500Y-8107950D02*
X13392500Y-8132950D01*
X13392500Y-8107950D02*
X13367500Y-8132950D01*
X13422500Y-8232500D02*
X13447500Y-8257500D01*
X13447500Y-8232500D02*
X13422500Y-8257500D01*
X13487500Y-8687500D02*
X13512500Y-8712500D01*
X13512500Y-8687500D02*
X13487500Y-8712500D01*
X13487500Y-9087500D02*
X13512500Y-9112500D01*
X13512500Y-9087500D02*
X13487500Y-9112500D01*
X13487500Y-9287500D02*
X13512500Y-9312500D01*
X13512500Y-9287500D02*
X13487500Y-9312500D01*
X13502500Y-8127500D02*
X13527500Y-8152500D01*
X13527500Y-8127500D02*
X13502500Y-8152500D01*
X13547500Y-8190000D02*
X13572500Y-8215000D01*
X13572500Y-8190000D02*
X13547500Y-8215000D01*
X13587500Y-8987500D02*
X13612500Y-9012500D01*
X13612500Y-8987500D02*
X13587500Y-9012500D01*
X13587500Y-9187500D02*
X13612500Y-9212500D01*
X13612500Y-9187500D02*
X13587500Y-9212500D01*
X13607500Y-8387500D02*
X13632500Y-8412500D01*
X13632500Y-8387500D02*
X13607500Y-8412500D01*
X13682500Y-8257500D02*
X13707500Y-8282500D01*
X13707500Y-8257500D02*
X13682500Y-8282500D01*
X13687500Y-8887500D02*
X13712500Y-8912500D01*
X13712500Y-8887500D02*
X13687500Y-8912500D01*
X13687500Y-9087500D02*
X13712500Y-9112500D01*
X13712500Y-9087500D02*
X13687500Y-9112500D01*
X13687500Y-9287500D02*
X13712500Y-9312500D01*
X13712500Y-9287500D02*
X13687500Y-9312500D01*
X13742500Y-8687500D02*
X13767500Y-8712500D01*
X13767500Y-8687500D02*
X13742500Y-8712500D01*
X13787500Y-8787500D02*
X13812500Y-8812500D01*
X13812500Y-8787500D02*
X13787500Y-8812500D01*
X13787500Y-8987500D02*
X13812500Y-9012500D01*
X13812500Y-8987500D02*
X13787500Y-9012500D01*
X13787500Y-9187500D02*
X13812500Y-9212500D01*
X13812500Y-9187500D02*
X13787500Y-9212500D01*
X13887500Y-8887500D02*
X13912500Y-8912500D01*
X13912500Y-8887500D02*
X13887500Y-8912500D01*
X13887500Y-9087500D02*
X13912500Y-9112500D01*
X13912500Y-9087500D02*
X13887500Y-9112500D01*
X13887500Y-9287500D02*
X13912500Y-9312500D01*
X13912500Y-9287500D02*
X13887500Y-9312500D01*
X13987500Y-8587500D02*
X14012500Y-8612500D01*
X14012500Y-8587500D02*
X13987500Y-8612500D01*
X14187500Y-8587500D02*
X14212500Y-8612500D01*
X14212500Y-8587500D02*
X14187500Y-8612500D01*
X14187500Y-9087500D02*
X14212500Y-9112500D01*
X14212500Y-9087500D02*
X14187500Y-9112500D01*
X14187500Y-9287500D02*
X14212500Y-9312500D01*
X14212500Y-9287500D02*
X14187500Y-9312500D01*
X14287500Y-8587500D02*
X14312500Y-8612500D01*
X14312500Y-8587500D02*
X14287500Y-8612500D01*
X14287500Y-8987500D02*
X14312500Y-9012500D01*
X14312500Y-8987500D02*
X14287500Y-9012500D01*
X14287500Y-9187500D02*
X14312500Y-9212500D01*
X14312500Y-9187500D02*
X14287500Y-9212500D01*
X14347500Y-8087500D02*
X14372500Y-8112500D01*
X14372500Y-8087500D02*
X14347500Y-8112500D01*
X14372500Y-8414500D02*
X14397500Y-8439500D01*
X14397500Y-8414500D02*
X14372500Y-8439500D01*
X14387500Y-8887500D02*
X14412500Y-8912500D01*
X14412500Y-8887500D02*
X14387500Y-8912500D01*
X14387500Y-9087500D02*
X14412500Y-9112500D01*
X14412500Y-9087500D02*
X14387500Y-9112500D01*
X14387500Y-9287500D02*
X14412500Y-9312500D01*
X14412500Y-9287500D02*
X14387500Y-9312500D01*
X14470909Y-8313554D02*
X14495909Y-8338554D01*
X14495909Y-8313554D02*
X14470909Y-8338554D01*
X14487500Y-8087500D02*
X14512500Y-8112500D01*
X14512500Y-8087500D02*
X14487500Y-8112500D01*
X14487500Y-8987500D02*
X14512500Y-9012500D01*
X14512500Y-8987500D02*
X14487500Y-9012500D01*
X14487500Y-9187500D02*
X14512500Y-9212500D01*
X14512500Y-9187500D02*
X14487500Y-9212500D01*
X14587447Y-8312550D02*
X14612447Y-8337550D01*
X14612447Y-8312550D02*
X14587447Y-8337550D01*
X14587500Y-8887500D02*
X14612500Y-8912500D01*
X14612500Y-8887500D02*
X14587500Y-8912500D01*
X14587500Y-9087500D02*
X14612500Y-9112500D01*
X14612500Y-9087500D02*
X14587500Y-9112500D01*
X14587500Y-9287500D02*
X14612500Y-9312500D01*
X14612500Y-9287500D02*
X14587500Y-9312500D01*
X14627500Y-8087500D02*
X14652500Y-8112500D01*
X14652500Y-8087500D02*
X14627500Y-8112500D01*
X14687500Y-9187500D02*
X14712500Y-9212500D01*
X14712500Y-9187500D02*
X14687500Y-9212500D01*
X14757500Y-8387500D02*
X14782500Y-8412500D01*
X14782500Y-8387500D02*
X14757500Y-8412500D01*
X14787500Y-9087500D02*
X14812500Y-9112500D01*
X14812500Y-9087500D02*
X14787500Y-9112500D01*
X14787500Y-9287500D02*
X14812500Y-9312500D01*
X14812500Y-9287500D02*
X14787500Y-9312500D01*
X14862500Y-8372500D02*
X14887500Y-8397500D01*
X14887500Y-8372500D02*
X14862500Y-8397500D01*
X14907500Y-8087500D02*
X14932500Y-8112500D01*
X14932500Y-8087500D02*
X14907500Y-8112500D01*
X14967500Y-8347500D02*
X14992500Y-8372500D01*
X14992500Y-8347500D02*
X14967500Y-8372500D01*
X14987500Y-9087500D02*
X15012500Y-9112500D01*
X15012500Y-9087500D02*
X14987500Y-9112500D01*
X14987500Y-9287500D02*
X15012500Y-9312500D01*
X15012500Y-9287500D02*
X14987500Y-9312500D01*
X15027500Y-8087500D02*
X15052500Y-8112500D01*
X15052500Y-8087500D02*
X15027500Y-8112500D01*
X15047500Y-8707500D02*
X15072500Y-8732500D01*
X15072500Y-8707500D02*
X15047500Y-8732500D01*
X15087500Y-9187500D02*
X15112500Y-9212500D01*
X15112500Y-9187500D02*
X15087500Y-9212500D01*
X15092724Y-8397827D02*
X15117724Y-8422827D01*
X15117724Y-8397827D02*
X15092724Y-8422827D01*
X15142500Y-8602500D02*
X15167500Y-8627500D01*
X15167500Y-8602500D02*
X15142500Y-8627500D01*
X15147500Y-8087500D02*
X15172500Y-8112500D01*
X15172500Y-8087500D02*
X15147500Y-8112500D01*
X15172500Y-8672500D02*
X15197500Y-8697500D01*
X15197500Y-8672500D02*
X15172500Y-8697500D01*
X15187500Y-9287500D02*
X15212500Y-9312500D01*
X15212500Y-9287500D02*
X15187500Y-9312500D01*
X15247500Y-8047500D02*
X15272500Y-8072500D01*
X15272500Y-8047500D02*
X15247500Y-8072500D01*
X15287500Y-9187500D02*
X15312500Y-9212500D01*
X15312500Y-9187500D02*
X15287500Y-9212500D01*
X15322500Y-8942500D02*
X15347500Y-8967500D01*
X15347500Y-8942500D02*
X15322500Y-8967500D01*
X15387500Y-9287500D02*
X15412500Y-9312500D01*
X15412500Y-9287500D02*
X15387500Y-9312500D01*
X15417500Y-8047500D02*
X15442500Y-8072500D01*
X15442500Y-8047500D02*
X15417500Y-8072500D01*
X15537500Y-8067500D02*
X15562500Y-8092500D01*
X15562500Y-8067500D02*
X15537500Y-8092500D01*
X15587500Y-9287500D02*
X15612500Y-9312500D01*
X15612500Y-9287500D02*
X15587500Y-9312500D01*
X15627500Y-8897500D02*
X15652500Y-8922500D01*
X15652500Y-8897500D02*
X15627500Y-8922500D01*
X15637500Y-8072500D02*
X15662500Y-8097500D01*
X15662500Y-8072500D02*
X15637500Y-8097500D01*
X15687500Y-8380550D02*
X15712500Y-8405550D01*
X15712500Y-8380550D02*
X15687500Y-8405550D01*
X15687500Y-9187500D02*
X15712500Y-9212500D01*
X15712500Y-9187500D02*
X15687500Y-9212500D01*
X15742500Y-8682500D02*
X15767500Y-8707500D01*
X15767500Y-8682500D02*
X15742500Y-8707500D01*
X15742500Y-8767500D02*
X15767500Y-8792500D01*
X15767500Y-8767500D02*
X15742500Y-8792500D01*
X15762500Y-8422500D02*
X15787500Y-8447500D01*
X15787500Y-8422500D02*
X15762500Y-8447500D01*
X15762500Y-8512500D02*
X15787500Y-8537500D01*
X15787500Y-8512500D02*
X15762500Y-8537500D01*
X15787500Y-7987500D02*
X15812500Y-8012500D01*
X15812500Y-7987500D02*
X15787500Y-8012500D01*
X15787500Y-8987500D02*
X15812500Y-9012500D01*
X15812500Y-8987500D02*
X15787500Y-9012500D01*
X15887500Y-8087500D02*
X15912500Y-8112500D01*
X15912500Y-8087500D02*
X15887500Y-8112500D01*
X15987500Y-7987500D02*
X16012500Y-8012500D01*
X16012500Y-7987500D02*
X15987500Y-8012500D01*
X15997500Y-8507500D02*
X16022500Y-8532500D01*
X16022500Y-8507500D02*
X15997500Y-8532500D01*
X16072500Y-8467500D02*
X16097500Y-8492500D01*
X16097500Y-8467500D02*
X16072500Y-8492500D01*
X16087500Y-8087500D02*
X16112500Y-8112500D01*
X16112500Y-8087500D02*
X16087500Y-8112500D01*
X16087500Y-8287500D02*
X16112500Y-8312500D01*
X16112500Y-8287500D02*
X16087500Y-8312500D01*
X16087500Y-8687500D02*
X16112500Y-8712500D01*
X16112500Y-8687500D02*
X16087500Y-8712500D01*
X16087500Y-9287500D02*
X16112500Y-9312500D01*
X16112500Y-9287500D02*
X16087500Y-9312500D01*
X16132500Y-8537500D02*
X16157500Y-8562500D01*
X16157500Y-8537500D02*
X16132500Y-8562500D01*
X16187500Y-7987500D02*
X16212500Y-8012500D01*
X16212500Y-7987500D02*
X16187500Y-8012500D01*
X16187500Y-8187500D02*
X16212500Y-8212500D01*
X16212500Y-8187500D02*
X16187500Y-8212500D01*
X16187500Y-8387500D02*
X16212500Y-8412500D01*
X16212500Y-8387500D02*
X16187500Y-8412500D01*
X16187500Y-8987500D02*
X16212500Y-9012500D01*
X16212500Y-8987500D02*
X16187500Y-9012500D01*
X16187500Y-9187500D02*
X16212500Y-9212500D01*
X16212500Y-9187500D02*
X16187500Y-9212500D01*
X16287500Y-8087500D02*
X16312500Y-8112500D01*
X16312500Y-8087500D02*
X16287500Y-8112500D01*
X16287500Y-8287500D02*
X16312500Y-8312500D01*
X16312500Y-8287500D02*
X16287500Y-8312500D01*
X16287500Y-8487500D02*
X16312500Y-8512500D01*
X16312500Y-8487500D02*
X16287500Y-8512500D01*
X16287500Y-8687500D02*
X16312500Y-8712500D01*
X16312500Y-8687500D02*
X16287500Y-8712500D01*
X16287500Y-9087500D02*
X16312500Y-9112500D01*
X16312500Y-9087500D02*
X16287500Y-9112500D01*
X16287500Y-9287500D02*
X16312500Y-9312500D01*
X16312500Y-9287500D02*
X16287500Y-9312500D01*
X16387500Y-7987500D02*
X16412500Y-8012500D01*
X16412500Y-7987500D02*
X16387500Y-8012500D01*
X16387500Y-8187500D02*
X16412500Y-8212500D01*
X16412500Y-8187500D02*
X16387500Y-8212500D01*
X16387500Y-8387500D02*
X16412500Y-8412500D01*
X16412500Y-8387500D02*
X16387500Y-8412500D01*
X16387500Y-8987500D02*
X16412500Y-9012500D01*
X16412500Y-8987500D02*
X16387500Y-9012500D01*
X16387500Y-9187500D02*
X16412500Y-9212500D01*
X16412500Y-9187500D02*
X16387500Y-9212500D01*
X16487500Y-8087500D02*
X16512500Y-8112500D01*
X16512500Y-8087500D02*
X16487500Y-8112500D01*
X16487500Y-8287500D02*
X16512500Y-8312500D01*
X16512500Y-8287500D02*
X16487500Y-8312500D01*
X16487500Y-8487500D02*
X16512500Y-8512500D01*
X16512500Y-8487500D02*
X16487500Y-8512500D01*
X16487500Y-9287500D02*
X16512500Y-9312500D01*
X16512500Y-9287500D02*
X16487500Y-9312500D01*
X16587500Y-7987500D02*
X16612500Y-8012500D01*
X16612500Y-7987500D02*
X16587500Y-8012500D01*
X16587500Y-8587500D02*
X16612500Y-8612500D01*
X16612500Y-8587500D02*
X16587500Y-8612500D01*
X16687500Y-8687500D02*
X16712500Y-8712500D01*
X16712500Y-8687500D02*
X16687500Y-8712500D01*
X16687500Y-8887500D02*
X16712500Y-8912500D01*
X16712500Y-8887500D02*
X16687500Y-8912500D01*
X16687500Y-9287500D02*
X16712500Y-9312500D01*
X16712500Y-9287500D02*
X16687500Y-9312500D01*
X16787500Y-8787500D02*
X16812500Y-8812500D01*
X16812500Y-8787500D02*
X16787500Y-8812500D01*
X16787500Y-8987500D02*
X16812500Y-9012500D01*
X16812500Y-8987500D02*
X16787500Y-9012500D01*
X16787500Y-9187500D02*
X16812500Y-9212500D01*
X16812500Y-9187500D02*
X16787500Y-9212500D01*
X16887500Y-8687500D02*
X16912500Y-8712500D01*
X16912500Y-8687500D02*
X16887500Y-8712500D01*
X16887500Y-8887500D02*
X16912500Y-8912500D01*
X16912500Y-8887500D02*
X16887500Y-8912500D01*
X16887500Y-9087500D02*
X16912500Y-9112500D01*
X16912500Y-9087500D02*
X16887500Y-9112500D01*
X16887500Y-9287500D02*
X16912500Y-9312500D01*
X16912500Y-9287500D02*
X16887500Y-9312500D01*
X16987500Y-8787500D02*
X17012500Y-8812500D01*
X17012500Y-8787500D02*
X16987500Y-8812500D01*
X16987500Y-8987500D02*
X17012500Y-9012500D01*
X17012500Y-8987500D02*
X16987500Y-9012500D01*
X16987500Y-9187500D02*
X17012500Y-9212500D01*
X17012500Y-9187500D02*
X16987500Y-9212500D01*
X17087500Y-8687500D02*
X17112500Y-8712500D01*
X17112500Y-8687500D02*
X17087500Y-8712500D01*
X17087500Y-8887500D02*
X17112500Y-8912500D01*
X17112500Y-8887500D02*
X17087500Y-8912500D01*
X17087500Y-9087500D02*
X17112500Y-9112500D01*
X17112500Y-9087500D02*
X17087500Y-9112500D01*
D13*
X14078000Y-8782000D02*
G75*
G03*
X14078000Y-8782000I-30000J0D01*
G01*
D11*
X14028000Y-8727000D02*
X14028000Y-8837000D01*
X14068000Y-8727000D02*
X14068000Y-8837000D01*
X14028000Y-8837000D02*
G75*
G03*
X14068000Y-8837000I20000J0D01*
G01*
X14068000Y-8727000D02*
G75*
G03*
X14028000Y-8727000I-20000J0D01*
G01*
D13*
X14078000Y-9200000D02*
G75*
G03*
X14078000Y-9200000I-30000J0D01*
G01*
D11*
X14028000Y-9160000D02*
X14028000Y-9240000D01*
X14068000Y-9160000D02*
X14068000Y-9240000D01*
X14028000Y-9240000D02*
G75*
G03*
X14068000Y-9240000I20000J0D01*
G01*
X14068000Y-9160000D02*
G75*
G03*
X14028000Y-9160000I-20000J0D01*
G01*
D13*
X14942000Y-8782000D02*
G75*
G03*
X14942000Y-8782000I-30000J0D01*
G01*
D11*
X14892000Y-8727000D02*
X14892000Y-8837000D01*
X14932000Y-8727000D02*
X14932000Y-8837000D01*
X14892000Y-8837000D02*
G75*
G03*
X14932000Y-8837000I20000J0D01*
G01*
X14932000Y-8727000D02*
G75*
G03*
X14892000Y-8727000I-20000J0D01*
G01*
D13*
X14942000Y-9200000D02*
G75*
G03*
X14942000Y-9200000I-30000J0D01*
G01*
D11*
X14892000Y-9160000D02*
X14892000Y-9240000D01*
X14932000Y-9160000D02*
X14932000Y-9240000D01*
X14892000Y-9240000D02*
G75*
G03*
X14932000Y-9240000I20000J0D01*
G01*
X14932000Y-9160000D02*
G75*
G03*
X14892000Y-9160000I-20000J0D01*
G01*
D14*
X12075000Y-8110000D02*
X12075000Y-8480000D01*
X11890000Y-8295000D02*
X12260000Y-8295000D01*
X16875000Y-8110000D02*
X16875000Y-8480000D01*
X16690000Y-8295000D02*
X17060000Y-8295000D01*
D11*
X11985119Y-9732976D02*
X11985119Y-9532976D01*
X12032738Y-9532976D01*
X12061309Y-9542500D01*
X12080357Y-9561548D01*
X12089881Y-9580595D01*
X12099405Y-9618690D01*
X12099405Y-9647262D01*
X12089881Y-9685357D01*
X12080357Y-9704405D01*
X12061309Y-9723452D01*
X12032738Y-9732976D01*
X11985119Y-9732976D01*
X12185119Y-9732976D02*
X12185119Y-9599643D01*
X12185119Y-9637738D02*
X12194643Y-9618690D01*
X12204167Y-9609167D01*
X12223214Y-9599643D01*
X12242262Y-9599643D01*
X12308928Y-9732976D02*
X12308928Y-9599643D01*
X12308928Y-9532976D02*
X12299405Y-9542500D01*
X12308928Y-9552024D01*
X12318452Y-9542500D01*
X12308928Y-9532976D01*
X12308928Y-9552024D01*
X12432738Y-9732976D02*
X12413690Y-9723452D01*
X12404167Y-9704405D01*
X12404167Y-9532976D01*
X12537500Y-9732976D02*
X12518452Y-9723452D01*
X12508928Y-9704405D01*
X12508928Y-9532976D01*
X12766071Y-9732976D02*
X12766071Y-9532976D01*
X12832738Y-9675833D01*
X12899405Y-9532976D01*
X12899405Y-9732976D01*
X13080357Y-9732976D02*
X13080357Y-9628214D01*
X13070833Y-9609167D01*
X13051786Y-9599643D01*
X13013690Y-9599643D01*
X12994643Y-9609167D01*
X13080357Y-9723452D02*
X13061309Y-9732976D01*
X13013690Y-9732976D01*
X12994643Y-9723452D01*
X12985119Y-9704405D01*
X12985119Y-9685357D01*
X12994643Y-9666310D01*
X13013690Y-9656786D01*
X13061309Y-9656786D01*
X13080357Y-9647262D01*
X13175595Y-9599643D02*
X13175595Y-9799643D01*
X13175595Y-9609167D02*
X13194643Y-9599643D01*
X13232738Y-9599643D01*
X13251786Y-9609167D01*
X13261309Y-9618690D01*
X13270833Y-9637738D01*
X13270833Y-9694881D01*
X13261309Y-9713929D01*
X13251786Y-9723452D01*
X13232738Y-9732976D01*
X13194643Y-9732976D01*
X13175595Y-9723452D01*
X13356548Y-9713929D02*
X13366071Y-9723452D01*
X13356548Y-9732976D01*
X13347024Y-9723452D01*
X13356548Y-9713929D01*
X13356548Y-9732976D01*
X13356548Y-9609167D02*
X13366071Y-9618690D01*
X13356548Y-9628214D01*
X13347024Y-9618690D01*
X13356548Y-9609167D01*
X13356548Y-9628214D01*
D12*
X11702500Y-10050000D02*
X11727500Y-10075000D01*
X11727500Y-10050000D02*
X11702500Y-10075000D01*
D11*
X12023214Y-9952976D02*
X12042262Y-9952976D01*
X12061309Y-9962500D01*
X12070833Y-9972024D01*
X12080357Y-9991071D01*
X12089881Y-10029167D01*
X12089881Y-10076786D01*
X12080357Y-10114881D01*
X12070833Y-10133929D01*
X12061309Y-10143452D01*
X12042262Y-10152976D01*
X12023214Y-10152976D01*
X12004167Y-10143452D01*
X11994643Y-10133929D01*
X11985119Y-10114881D01*
X11975595Y-10076786D01*
X11975595Y-10029167D01*
X11985119Y-9991071D01*
X11994643Y-9972024D01*
X12004167Y-9962500D01*
X12023214Y-9952976D01*
X12175595Y-10133929D02*
X12185119Y-10143452D01*
X12175595Y-10152976D01*
X12166071Y-10143452D01*
X12175595Y-10133929D01*
X12175595Y-10152976D01*
X12261309Y-9972024D02*
X12270833Y-9962500D01*
X12289881Y-9952976D01*
X12337500Y-9952976D01*
X12356548Y-9962500D01*
X12366071Y-9972024D01*
X12375595Y-9991071D01*
X12375595Y-10010119D01*
X12366071Y-10038690D01*
X12251786Y-10152976D01*
X12375595Y-10152976D01*
X12556548Y-9952976D02*
X12461309Y-9952976D01*
X12451786Y-10048214D01*
X12461309Y-10038690D01*
X12480357Y-10029167D01*
X12527976Y-10029167D01*
X12547024Y-10038690D01*
X12556548Y-10048214D01*
X12566071Y-10067262D01*
X12566071Y-10114881D01*
X12556548Y-10133929D01*
X12547024Y-10143452D01*
X12527976Y-10152976D01*
X12480357Y-10152976D01*
X12461309Y-10143452D01*
X12451786Y-10133929D01*
X12689881Y-9952976D02*
X12708928Y-9952976D01*
X12727976Y-9962500D01*
X12737500Y-9972024D01*
X12747024Y-9991071D01*
X12756548Y-10029167D01*
X12756548Y-10076786D01*
X12747024Y-10114881D01*
X12737500Y-10133929D01*
X12727976Y-10143452D01*
X12708928Y-10152976D01*
X12689881Y-10152976D01*
X12670833Y-10143452D01*
X12661309Y-10133929D01*
X12651786Y-10114881D01*
X12642262Y-10076786D01*
X12642262Y-10029167D01*
X12651786Y-9991071D01*
X12661309Y-9972024D01*
X12670833Y-9962500D01*
X12689881Y-9952976D01*
X12842262Y-10152976D02*
X12842262Y-10019643D01*
X12842262Y-10038690D02*
X12851786Y-10029167D01*
X12870833Y-10019643D01*
X12899405Y-10019643D01*
X12918452Y-10029167D01*
X12927976Y-10048214D01*
X12927976Y-10152976D01*
X12927976Y-10048214D02*
X12937500Y-10029167D01*
X12956548Y-10019643D01*
X12985119Y-10019643D01*
X13004167Y-10029167D01*
X13013690Y-10048214D01*
X13013690Y-10152976D01*
X13108928Y-10152976D02*
X13108928Y-10019643D01*
X13108928Y-10038690D02*
X13118452Y-10029167D01*
X13137500Y-10019643D01*
X13166071Y-10019643D01*
X13185119Y-10029167D01*
X13194643Y-10048214D01*
X13194643Y-10152976D01*
X13194643Y-10048214D02*
X13204167Y-10029167D01*
X13223214Y-10019643D01*
X13251786Y-10019643D01*
X13270833Y-10029167D01*
X13280357Y-10048214D01*
X13280357Y-10152976D01*
X13670833Y-9943452D02*
X13499405Y-10200595D01*
X13927976Y-9952976D02*
X13947024Y-9952976D01*
X13966071Y-9962500D01*
X13975595Y-9972024D01*
X13985119Y-9991071D01*
X13994643Y-10029167D01*
X13994643Y-10076786D01*
X13985119Y-10114881D01*
X13975595Y-10133929D01*
X13966071Y-10143452D01*
X13947024Y-10152976D01*
X13927976Y-10152976D01*
X13908928Y-10143452D01*
X13899405Y-10133929D01*
X13889881Y-10114881D01*
X13880357Y-10076786D01*
X13880357Y-10029167D01*
X13889881Y-9991071D01*
X13899405Y-9972024D01*
X13908928Y-9962500D01*
X13927976Y-9952976D01*
X14080357Y-10133929D02*
X14089881Y-10143452D01*
X14080357Y-10152976D01*
X14070833Y-10143452D01*
X14080357Y-10133929D01*
X14080357Y-10152976D01*
X14213690Y-9952976D02*
X14232738Y-9952976D01*
X14251786Y-9962500D01*
X14261309Y-9972024D01*
X14270833Y-9991071D01*
X14280357Y-10029167D01*
X14280357Y-10076786D01*
X14270833Y-10114881D01*
X14261309Y-10133929D01*
X14251786Y-10143452D01*
X14232738Y-10152976D01*
X14213690Y-10152976D01*
X14194643Y-10143452D01*
X14185119Y-10133929D01*
X14175595Y-10114881D01*
X14166071Y-10076786D01*
X14166071Y-10029167D01*
X14175595Y-9991071D01*
X14185119Y-9972024D01*
X14194643Y-9962500D01*
X14213690Y-9952976D01*
X14404167Y-9952976D02*
X14423214Y-9952976D01*
X14442262Y-9962500D01*
X14451786Y-9972024D01*
X14461309Y-9991071D01*
X14470833Y-10029167D01*
X14470833Y-10076786D01*
X14461309Y-10114881D01*
X14451786Y-10133929D01*
X14442262Y-10143452D01*
X14423214Y-10152976D01*
X14404167Y-10152976D01*
X14385119Y-10143452D01*
X14375595Y-10133929D01*
X14366071Y-10114881D01*
X14356548Y-10076786D01*
X14356548Y-10029167D01*
X14366071Y-9991071D01*
X14375595Y-9972024D01*
X14385119Y-9962500D01*
X14404167Y-9952976D01*
X14566071Y-10152976D02*
X14604167Y-10152976D01*
X14623214Y-10143452D01*
X14632738Y-10133929D01*
X14651786Y-10105357D01*
X14661309Y-10067262D01*
X14661309Y-9991071D01*
X14651786Y-9972024D01*
X14642262Y-9962500D01*
X14623214Y-9952976D01*
X14585119Y-9952976D01*
X14566071Y-9962500D01*
X14556548Y-9972024D01*
X14547024Y-9991071D01*
X14547024Y-10038690D01*
X14556548Y-10057738D01*
X14566071Y-10067262D01*
X14585119Y-10076786D01*
X14623214Y-10076786D01*
X14642262Y-10067262D01*
X14651786Y-10057738D01*
X14661309Y-10038690D01*
X14775595Y-10038690D02*
X14756548Y-10029167D01*
X14747024Y-10019643D01*
X14737500Y-10000595D01*
X14737500Y-9991071D01*
X14747024Y-9972024D01*
X14756548Y-9962500D01*
X14775595Y-9952976D01*
X14813690Y-9952976D01*
X14832738Y-9962500D01*
X14842262Y-9972024D01*
X14851786Y-9991071D01*
X14851786Y-10000595D01*
X14842262Y-10019643D01*
X14832738Y-10029167D01*
X14813690Y-10038690D01*
X14775595Y-10038690D01*
X14756548Y-10048214D01*
X14747024Y-10057738D01*
X14737500Y-10076786D01*
X14737500Y-10114881D01*
X14747024Y-10133929D01*
X14756548Y-10143452D01*
X14775595Y-10152976D01*
X14813690Y-10152976D01*
X14832738Y-10143452D01*
X14842262Y-10133929D01*
X14851786Y-10114881D01*
X14851786Y-10076786D01*
X14842262Y-10057738D01*
X14832738Y-10048214D01*
X14813690Y-10038690D01*
X14927976Y-9952976D02*
X14927976Y-9991071D01*
X15004167Y-9952976D02*
X15004167Y-9991071D01*
X15299405Y-10229167D02*
X15289881Y-10219643D01*
X15270833Y-10191071D01*
X15261309Y-10172024D01*
X15251786Y-10143452D01*
X15242262Y-10095833D01*
X15242262Y-10057738D01*
X15251786Y-10010119D01*
X15261309Y-9981548D01*
X15270833Y-9962500D01*
X15289881Y-9933929D01*
X15299405Y-9924405D01*
X15480357Y-10152976D02*
X15366071Y-10152976D01*
X15423214Y-10152976D02*
X15423214Y-9952976D01*
X15404167Y-9981548D01*
X15385119Y-10000595D01*
X15366071Y-10010119D01*
X15651786Y-9952976D02*
X15613690Y-9952976D01*
X15594643Y-9962500D01*
X15585119Y-9972024D01*
X15566071Y-10000595D01*
X15556548Y-10038690D01*
X15556548Y-10114881D01*
X15566071Y-10133929D01*
X15575595Y-10143452D01*
X15594643Y-10152976D01*
X15632738Y-10152976D01*
X15651786Y-10143452D01*
X15661309Y-10133929D01*
X15670833Y-10114881D01*
X15670833Y-10067262D01*
X15661309Y-10048214D01*
X15651786Y-10038690D01*
X15632738Y-10029167D01*
X15594643Y-10029167D01*
X15575595Y-10038690D01*
X15566071Y-10048214D01*
X15556548Y-10067262D01*
X15842262Y-10019643D02*
X15842262Y-10152976D01*
X15794643Y-9943452D02*
X15747024Y-10086310D01*
X15870833Y-10086310D01*
X16099405Y-10152976D02*
X16099405Y-9952976D01*
X16185119Y-10152976D02*
X16185119Y-10048214D01*
X16175595Y-10029167D01*
X16156548Y-10019643D01*
X16127976Y-10019643D01*
X16108928Y-10029167D01*
X16099405Y-10038690D01*
X16308928Y-10152976D02*
X16289881Y-10143452D01*
X16280357Y-10133929D01*
X16270833Y-10114881D01*
X16270833Y-10057738D01*
X16280357Y-10038690D01*
X16289881Y-10029167D01*
X16308928Y-10019643D01*
X16337500Y-10019643D01*
X16356548Y-10029167D01*
X16366071Y-10038690D01*
X16375595Y-10057738D01*
X16375595Y-10114881D01*
X16366071Y-10133929D01*
X16356548Y-10143452D01*
X16337500Y-10152976D01*
X16308928Y-10152976D01*
X16489881Y-10152976D02*
X16470833Y-10143452D01*
X16461309Y-10124405D01*
X16461309Y-9952976D01*
X16642262Y-10143452D02*
X16623214Y-10152976D01*
X16585119Y-10152976D01*
X16566071Y-10143452D01*
X16556548Y-10124405D01*
X16556548Y-10048214D01*
X16566071Y-10029167D01*
X16585119Y-10019643D01*
X16623214Y-10019643D01*
X16642262Y-10029167D01*
X16651786Y-10048214D01*
X16651786Y-10067262D01*
X16556548Y-10086310D01*
X16727976Y-10143452D02*
X16747024Y-10152976D01*
X16785119Y-10152976D01*
X16804167Y-10143452D01*
X16813690Y-10124405D01*
X16813690Y-10114881D01*
X16804167Y-10095833D01*
X16785119Y-10086310D01*
X16756548Y-10086310D01*
X16737500Y-10076786D01*
X16727976Y-10057738D01*
X16727976Y-10048214D01*
X16737500Y-10029167D01*
X16756548Y-10019643D01*
X16785119Y-10019643D01*
X16804167Y-10029167D01*
X16880357Y-10229167D02*
X16889881Y-10219643D01*
X16908929Y-10191071D01*
X16918452Y-10172024D01*
X16927976Y-10143452D01*
X16937500Y-10095833D01*
X16937500Y-10057738D01*
X16927976Y-10010119D01*
X16918452Y-9981548D01*
X16908929Y-9962500D01*
X16889881Y-9933929D01*
X16880357Y-9924405D01*
D13*
X11727500Y-10326500D02*
G75*
G03*
X11727500Y-10326500I-30000J0D01*
G01*
D11*
X12023214Y-10216976D02*
X12042262Y-10216976D01*
X12061309Y-10226500D01*
X12070833Y-10236024D01*
X12080357Y-10255071D01*
X12089881Y-10293167D01*
X12089881Y-10340786D01*
X12080357Y-10378881D01*
X12070833Y-10397929D01*
X12061309Y-10407452D01*
X12042262Y-10416976D01*
X12023214Y-10416976D01*
X12004167Y-10407452D01*
X11994643Y-10397929D01*
X11985119Y-10378881D01*
X11975595Y-10340786D01*
X11975595Y-10293167D01*
X11985119Y-10255071D01*
X11994643Y-10236024D01*
X12004167Y-10226500D01*
X12023214Y-10216976D01*
X12175595Y-10397929D02*
X12185119Y-10407452D01*
X12175595Y-10416976D01*
X12166071Y-10407452D01*
X12175595Y-10397929D01*
X12175595Y-10416976D01*
X12356548Y-10216976D02*
X12318452Y-10216976D01*
X12299405Y-10226500D01*
X12289881Y-10236024D01*
X12270833Y-10264595D01*
X12261309Y-10302690D01*
X12261309Y-10378881D01*
X12270833Y-10397929D01*
X12280357Y-10407452D01*
X12299405Y-10416976D01*
X12337500Y-10416976D01*
X12356548Y-10407452D01*
X12366071Y-10397929D01*
X12375595Y-10378881D01*
X12375595Y-10331262D01*
X12366071Y-10312214D01*
X12356548Y-10302690D01*
X12337500Y-10293167D01*
X12299405Y-10293167D01*
X12280357Y-10302690D01*
X12270833Y-10312214D01*
X12261309Y-10331262D01*
X12499405Y-10216976D02*
X12518452Y-10216976D01*
X12537500Y-10226500D01*
X12547024Y-10236024D01*
X12556548Y-10255071D01*
X12566071Y-10293167D01*
X12566071Y-10340786D01*
X12556548Y-10378881D01*
X12547024Y-10397929D01*
X12537500Y-10407452D01*
X12518452Y-10416976D01*
X12499405Y-10416976D01*
X12480357Y-10407452D01*
X12470833Y-10397929D01*
X12461309Y-10378881D01*
X12451786Y-10340786D01*
X12451786Y-10293167D01*
X12461309Y-10255071D01*
X12470833Y-10236024D01*
X12480357Y-10226500D01*
X12499405Y-10216976D01*
X12689881Y-10216976D02*
X12708928Y-10216976D01*
X12727976Y-10226500D01*
X12737500Y-10236024D01*
X12747024Y-10255071D01*
X12756548Y-10293167D01*
X12756548Y-10340786D01*
X12747024Y-10378881D01*
X12737500Y-10397929D01*
X12727976Y-10407452D01*
X12708928Y-10416976D01*
X12689881Y-10416976D01*
X12670833Y-10407452D01*
X12661309Y-10397929D01*
X12651786Y-10378881D01*
X12642262Y-10340786D01*
X12642262Y-10293167D01*
X12651786Y-10255071D01*
X12661309Y-10236024D01*
X12670833Y-10226500D01*
X12689881Y-10216976D01*
X12842262Y-10416976D02*
X12842262Y-10283643D01*
X12842262Y-10302690D02*
X12851786Y-10293167D01*
X12870833Y-10283643D01*
X12899405Y-10283643D01*
X12918452Y-10293167D01*
X12927976Y-10312214D01*
X12927976Y-10416976D01*
X12927976Y-10312214D02*
X12937500Y-10293167D01*
X12956548Y-10283643D01*
X12985119Y-10283643D01*
X13004167Y-10293167D01*
X13013690Y-10312214D01*
X13013690Y-10416976D01*
X13108928Y-10416976D02*
X13108928Y-10283643D01*
X13108928Y-10302690D02*
X13118452Y-10293167D01*
X13137500Y-10283643D01*
X13166071Y-10283643D01*
X13185119Y-10293167D01*
X13194643Y-10312214D01*
X13194643Y-10416976D01*
X13194643Y-10312214D02*
X13204167Y-10293167D01*
X13223214Y-10283643D01*
X13251786Y-10283643D01*
X13270833Y-10293167D01*
X13280357Y-10312214D01*
X13280357Y-10416976D01*
X13670833Y-10207452D02*
X13499405Y-10464595D01*
X13927976Y-10216976D02*
X13947024Y-10216976D01*
X13966071Y-10226500D01*
X13975595Y-10236024D01*
X13985119Y-10255071D01*
X13994643Y-10293167D01*
X13994643Y-10340786D01*
X13985119Y-10378881D01*
X13975595Y-10397929D01*
X13966071Y-10407452D01*
X13947024Y-10416976D01*
X13927976Y-10416976D01*
X13908928Y-10407452D01*
X13899405Y-10397929D01*
X13889881Y-10378881D01*
X13880357Y-10340786D01*
X13880357Y-10293167D01*
X13889881Y-10255071D01*
X13899405Y-10236024D01*
X13908928Y-10226500D01*
X13927976Y-10216976D01*
X14080357Y-10397929D02*
X14089881Y-10407452D01*
X14080357Y-10416976D01*
X14070833Y-10407452D01*
X14080357Y-10397929D01*
X14080357Y-10416976D01*
X14213690Y-10216976D02*
X14232738Y-10216976D01*
X14251786Y-10226500D01*
X14261309Y-10236024D01*
X14270833Y-10255071D01*
X14280357Y-10293167D01*
X14280357Y-10340786D01*
X14270833Y-10378881D01*
X14261309Y-10397929D01*
X14251786Y-10407452D01*
X14232738Y-10416976D01*
X14213690Y-10416976D01*
X14194643Y-10407452D01*
X14185119Y-10397929D01*
X14175595Y-10378881D01*
X14166071Y-10340786D01*
X14166071Y-10293167D01*
X14175595Y-10255071D01*
X14185119Y-10236024D01*
X14194643Y-10226500D01*
X14213690Y-10216976D01*
X14356548Y-10236024D02*
X14366071Y-10226500D01*
X14385119Y-10216976D01*
X14432738Y-10216976D01*
X14451786Y-10226500D01*
X14461309Y-10236024D01*
X14470833Y-10255071D01*
X14470833Y-10274119D01*
X14461309Y-10302690D01*
X14347024Y-10416976D01*
X14470833Y-10416976D01*
X14537500Y-10216976D02*
X14661309Y-10216976D01*
X14594643Y-10293167D01*
X14623214Y-10293167D01*
X14642262Y-10302690D01*
X14651786Y-10312214D01*
X14661309Y-10331262D01*
X14661309Y-10378881D01*
X14651786Y-10397929D01*
X14642262Y-10407452D01*
X14623214Y-10416976D01*
X14566071Y-10416976D01*
X14547024Y-10407452D01*
X14537500Y-10397929D01*
X14832738Y-10216976D02*
X14794643Y-10216976D01*
X14775595Y-10226500D01*
X14766071Y-10236024D01*
X14747024Y-10264595D01*
X14737500Y-10302690D01*
X14737500Y-10378881D01*
X14747024Y-10397929D01*
X14756548Y-10407452D01*
X14775595Y-10416976D01*
X14813690Y-10416976D01*
X14832738Y-10407452D01*
X14842262Y-10397929D01*
X14851786Y-10378881D01*
X14851786Y-10331262D01*
X14842262Y-10312214D01*
X14832738Y-10302690D01*
X14813690Y-10293167D01*
X14775595Y-10293167D01*
X14756548Y-10302690D01*
X14747024Y-10312214D01*
X14737500Y-10331262D01*
X14927976Y-10216976D02*
X14927976Y-10255071D01*
X15004167Y-10216976D02*
X15004167Y-10255071D01*
X15299405Y-10493167D02*
X15289881Y-10483643D01*
X15270833Y-10455071D01*
X15261309Y-10436024D01*
X15251786Y-10407452D01*
X15242262Y-10359833D01*
X15242262Y-10321738D01*
X15251786Y-10274119D01*
X15261309Y-10245548D01*
X15270833Y-10226500D01*
X15289881Y-10197929D01*
X15299405Y-10188405D01*
X15413690Y-10216976D02*
X15432738Y-10216976D01*
X15451786Y-10226500D01*
X15461309Y-10236024D01*
X15470833Y-10255071D01*
X15480357Y-10293167D01*
X15480357Y-10340786D01*
X15470833Y-10378881D01*
X15461309Y-10397929D01*
X15451786Y-10407452D01*
X15432738Y-10416976D01*
X15413690Y-10416976D01*
X15394643Y-10407452D01*
X15385119Y-10397929D01*
X15375595Y-10378881D01*
X15366071Y-10340786D01*
X15366071Y-10293167D01*
X15375595Y-10255071D01*
X15385119Y-10236024D01*
X15394643Y-10226500D01*
X15413690Y-10216976D01*
X15718452Y-10416976D02*
X15718452Y-10216976D01*
X15804167Y-10416976D02*
X15804167Y-10312214D01*
X15794643Y-10293167D01*
X15775595Y-10283643D01*
X15747024Y-10283643D01*
X15727976Y-10293167D01*
X15718452Y-10302690D01*
X15927976Y-10416976D02*
X15908928Y-10407452D01*
X15899405Y-10397929D01*
X15889881Y-10378881D01*
X15889881Y-10321738D01*
X15899405Y-10302690D01*
X15908928Y-10293167D01*
X15927976Y-10283643D01*
X15956548Y-10283643D01*
X15975595Y-10293167D01*
X15985119Y-10302690D01*
X15994643Y-10321738D01*
X15994643Y-10378881D01*
X15985119Y-10397929D01*
X15975595Y-10407452D01*
X15956548Y-10416976D01*
X15927976Y-10416976D01*
X16108928Y-10416976D02*
X16089881Y-10407452D01*
X16080357Y-10388405D01*
X16080357Y-10216976D01*
X16261309Y-10407452D02*
X16242262Y-10416976D01*
X16204167Y-10416976D01*
X16185119Y-10407452D01*
X16175595Y-10388405D01*
X16175595Y-10312214D01*
X16185119Y-10293167D01*
X16204167Y-10283643D01*
X16242262Y-10283643D01*
X16261309Y-10293167D01*
X16270833Y-10312214D01*
X16270833Y-10331262D01*
X16175595Y-10350310D01*
X16347024Y-10407452D02*
X16366071Y-10416976D01*
X16404167Y-10416976D01*
X16423214Y-10407452D01*
X16432738Y-10388405D01*
X16432738Y-10378881D01*
X16423214Y-10359833D01*
X16404167Y-10350310D01*
X16375595Y-10350310D01*
X16356548Y-10340786D01*
X16347024Y-10321738D01*
X16347024Y-10312214D01*
X16356548Y-10293167D01*
X16375595Y-10283643D01*
X16404167Y-10283643D01*
X16423214Y-10293167D01*
X16670833Y-10340786D02*
X16823214Y-10340786D01*
X16747024Y-10416976D02*
X16747024Y-10264595D01*
X17156548Y-10283643D02*
X17156548Y-10416976D01*
X17108929Y-10207452D02*
X17061310Y-10350310D01*
X17185119Y-10350310D01*
X17404167Y-10407452D02*
X17423214Y-10416976D01*
X17461310Y-10416976D01*
X17480357Y-10407452D01*
X17489881Y-10388405D01*
X17489881Y-10378881D01*
X17480357Y-10359833D01*
X17461310Y-10350310D01*
X17432738Y-10350310D01*
X17413690Y-10340786D01*
X17404167Y-10321738D01*
X17404167Y-10312214D01*
X17413690Y-10293167D01*
X17432738Y-10283643D01*
X17461310Y-10283643D01*
X17480357Y-10293167D01*
X17604167Y-10416976D02*
X17585119Y-10407452D01*
X17575595Y-10388405D01*
X17575595Y-10216976D01*
X17708929Y-10416976D02*
X17689881Y-10407452D01*
X17680357Y-10397929D01*
X17670833Y-10378881D01*
X17670833Y-10321738D01*
X17680357Y-10302690D01*
X17689881Y-10293167D01*
X17708929Y-10283643D01*
X17737500Y-10283643D01*
X17756548Y-10293167D01*
X17766071Y-10302690D01*
X17775595Y-10321738D01*
X17775595Y-10378881D01*
X17766071Y-10397929D01*
X17756548Y-10407452D01*
X17737500Y-10416976D01*
X17708929Y-10416976D01*
X17832738Y-10283643D02*
X17908929Y-10283643D01*
X17861310Y-10216976D02*
X17861310Y-10388405D01*
X17870833Y-10407452D01*
X17889881Y-10416976D01*
X17908929Y-10416976D01*
X17966071Y-10407452D02*
X17985119Y-10416976D01*
X18023214Y-10416976D01*
X18042262Y-10407452D01*
X18051786Y-10388405D01*
X18051786Y-10378881D01*
X18042262Y-10359833D01*
X18023214Y-10350310D01*
X17994643Y-10350310D01*
X17975595Y-10340786D01*
X17966071Y-10321738D01*
X17966071Y-10312214D01*
X17975595Y-10293167D01*
X17994643Y-10283643D01*
X18023214Y-10283643D01*
X18042262Y-10293167D01*
X18118452Y-10493167D02*
X18127976Y-10483643D01*
X18147024Y-10455071D01*
X18156548Y-10436024D01*
X18166071Y-10407452D01*
X18175595Y-10359833D01*
X18175595Y-10321738D01*
X18166071Y-10274119D01*
X18156548Y-10245548D01*
X18147024Y-10226500D01*
X18127976Y-10197929D01*
X18118452Y-10188405D01*
X11627500Y-10490500D02*
X11627500Y-10690500D01*
X11527500Y-10590500D02*
X11727500Y-10590500D01*
X11966071Y-10480976D02*
X12089881Y-10480976D01*
X12023214Y-10557167D01*
X12051786Y-10557167D01*
X12070833Y-10566690D01*
X12080357Y-10576214D01*
X12089881Y-10595262D01*
X12089881Y-10642881D01*
X12080357Y-10661929D01*
X12070833Y-10671452D01*
X12051786Y-10680976D01*
X11994643Y-10680976D01*
X11975595Y-10671452D01*
X11966071Y-10661929D01*
X12175595Y-10661929D02*
X12185119Y-10671452D01*
X12175595Y-10680976D01*
X12166071Y-10671452D01*
X12175595Y-10661929D01*
X12175595Y-10680976D01*
X12251786Y-10480976D02*
X12385119Y-10480976D01*
X12299405Y-10680976D01*
X12499405Y-10480976D02*
X12518452Y-10480976D01*
X12537500Y-10490500D01*
X12547024Y-10500024D01*
X12556548Y-10519071D01*
X12566071Y-10557167D01*
X12566071Y-10604786D01*
X12556548Y-10642881D01*
X12547024Y-10661929D01*
X12537500Y-10671452D01*
X12518452Y-10680976D01*
X12499405Y-10680976D01*
X12480357Y-10671452D01*
X12470833Y-10661929D01*
X12461309Y-10642881D01*
X12451786Y-10604786D01*
X12451786Y-10557167D01*
X12461309Y-10519071D01*
X12470833Y-10500024D01*
X12480357Y-10490500D01*
X12499405Y-10480976D01*
X12689881Y-10480976D02*
X12708928Y-10480976D01*
X12727976Y-10490500D01*
X12737500Y-10500024D01*
X12747024Y-10519071D01*
X12756548Y-10557167D01*
X12756548Y-10604786D01*
X12747024Y-10642881D01*
X12737500Y-10661929D01*
X12727976Y-10671452D01*
X12708928Y-10680976D01*
X12689881Y-10680976D01*
X12670833Y-10671452D01*
X12661309Y-10661929D01*
X12651786Y-10642881D01*
X12642262Y-10604786D01*
X12642262Y-10557167D01*
X12651786Y-10519071D01*
X12661309Y-10500024D01*
X12670833Y-10490500D01*
X12689881Y-10480976D01*
X12842262Y-10680976D02*
X12842262Y-10547643D01*
X12842262Y-10566690D02*
X12851786Y-10557167D01*
X12870833Y-10547643D01*
X12899405Y-10547643D01*
X12918452Y-10557167D01*
X12927976Y-10576214D01*
X12927976Y-10680976D01*
X12927976Y-10576214D02*
X12937500Y-10557167D01*
X12956548Y-10547643D01*
X12985119Y-10547643D01*
X13004167Y-10557167D01*
X13013690Y-10576214D01*
X13013690Y-10680976D01*
X13108928Y-10680976D02*
X13108928Y-10547643D01*
X13108928Y-10566690D02*
X13118452Y-10557167D01*
X13137500Y-10547643D01*
X13166071Y-10547643D01*
X13185119Y-10557167D01*
X13194643Y-10576214D01*
X13194643Y-10680976D01*
X13194643Y-10576214D02*
X13204167Y-10557167D01*
X13223214Y-10547643D01*
X13251786Y-10547643D01*
X13270833Y-10557167D01*
X13280357Y-10576214D01*
X13280357Y-10680976D01*
X13670833Y-10471452D02*
X13499405Y-10728595D01*
X13927976Y-10480976D02*
X13947024Y-10480976D01*
X13966071Y-10490500D01*
X13975595Y-10500024D01*
X13985119Y-10519071D01*
X13994643Y-10557167D01*
X13994643Y-10604786D01*
X13985119Y-10642881D01*
X13975595Y-10661929D01*
X13966071Y-10671452D01*
X13947024Y-10680976D01*
X13927976Y-10680976D01*
X13908928Y-10671452D01*
X13899405Y-10661929D01*
X13889881Y-10642881D01*
X13880357Y-10604786D01*
X13880357Y-10557167D01*
X13889881Y-10519071D01*
X13899405Y-10500024D01*
X13908928Y-10490500D01*
X13927976Y-10480976D01*
X14080357Y-10661929D02*
X14089881Y-10671452D01*
X14080357Y-10680976D01*
X14070833Y-10671452D01*
X14080357Y-10661929D01*
X14080357Y-10680976D01*
X14280357Y-10680976D02*
X14166071Y-10680976D01*
X14223214Y-10680976D02*
X14223214Y-10480976D01*
X14204167Y-10509548D01*
X14185119Y-10528595D01*
X14166071Y-10538119D01*
X14451786Y-10547643D02*
X14451786Y-10680976D01*
X14404167Y-10471452D02*
X14356548Y-10614310D01*
X14480357Y-10614310D01*
X14651786Y-10480976D02*
X14556548Y-10480976D01*
X14547024Y-10576214D01*
X14556548Y-10566690D01*
X14575595Y-10557167D01*
X14623214Y-10557167D01*
X14642262Y-10566690D01*
X14651786Y-10576214D01*
X14661309Y-10595262D01*
X14661309Y-10642881D01*
X14651786Y-10661929D01*
X14642262Y-10671452D01*
X14623214Y-10680976D01*
X14575595Y-10680976D01*
X14556548Y-10671452D01*
X14547024Y-10661929D01*
X14727976Y-10480976D02*
X14861309Y-10480976D01*
X14775595Y-10680976D01*
X14927976Y-10480976D02*
X14927976Y-10519071D01*
X15004167Y-10480976D02*
X15004167Y-10519071D01*
X15299405Y-10757167D02*
X15289881Y-10747643D01*
X15270833Y-10719071D01*
X15261309Y-10700024D01*
X15251786Y-10671452D01*
X15242262Y-10623833D01*
X15242262Y-10585738D01*
X15251786Y-10538119D01*
X15261309Y-10509548D01*
X15270833Y-10490500D01*
X15289881Y-10461929D01*
X15299405Y-10452405D01*
X15366071Y-10500024D02*
X15375595Y-10490500D01*
X15394643Y-10480976D01*
X15442262Y-10480976D01*
X15461309Y-10490500D01*
X15470833Y-10500024D01*
X15480357Y-10519071D01*
X15480357Y-10538119D01*
X15470833Y-10566690D01*
X15356548Y-10680976D01*
X15480357Y-10680976D01*
X15718452Y-10680976D02*
X15718452Y-10480976D01*
X15804167Y-10680976D02*
X15804167Y-10576214D01*
X15794643Y-10557167D01*
X15775595Y-10547643D01*
X15747024Y-10547643D01*
X15727976Y-10557167D01*
X15718452Y-10566690D01*
X15927976Y-10680976D02*
X15908928Y-10671452D01*
X15899405Y-10661929D01*
X15889881Y-10642881D01*
X15889881Y-10585738D01*
X15899405Y-10566690D01*
X15908928Y-10557167D01*
X15927976Y-10547643D01*
X15956548Y-10547643D01*
X15975595Y-10557167D01*
X15985119Y-10566690D01*
X15994643Y-10585738D01*
X15994643Y-10642881D01*
X15985119Y-10661929D01*
X15975595Y-10671452D01*
X15956548Y-10680976D01*
X15927976Y-10680976D01*
X16108928Y-10680976D02*
X16089881Y-10671452D01*
X16080357Y-10652405D01*
X16080357Y-10480976D01*
X16261309Y-10671452D02*
X16242262Y-10680976D01*
X16204167Y-10680976D01*
X16185119Y-10671452D01*
X16175595Y-10652405D01*
X16175595Y-10576214D01*
X16185119Y-10557167D01*
X16204167Y-10547643D01*
X16242262Y-10547643D01*
X16261309Y-10557167D01*
X16270833Y-10576214D01*
X16270833Y-10595262D01*
X16175595Y-10614310D01*
X16347024Y-10671452D02*
X16366071Y-10680976D01*
X16404167Y-10680976D01*
X16423214Y-10671452D01*
X16432738Y-10652405D01*
X16432738Y-10642881D01*
X16423214Y-10623833D01*
X16404167Y-10614310D01*
X16375595Y-10614310D01*
X16356548Y-10604786D01*
X16347024Y-10585738D01*
X16347024Y-10576214D01*
X16356548Y-10557167D01*
X16375595Y-10547643D01*
X16404167Y-10547643D01*
X16423214Y-10557167D01*
X16499405Y-10757167D02*
X16508928Y-10747643D01*
X16527976Y-10719071D01*
X16537500Y-10700024D01*
X16547024Y-10671452D01*
X16556548Y-10623833D01*
X16556548Y-10585738D01*
X16547024Y-10538119D01*
X16537500Y-10509548D01*
X16527976Y-10490500D01*
X16508928Y-10461929D01*
X16499405Y-10452405D01*
M02*
