M48
; DRILL file {KiCad (6.0.0)} date Thu Feb  3 13:29:58 2022
; FORMAT={-:-/ absolute / metric / decimal}
; #@! TF.CreationDate,2022-02-03T13:29:58+01:00
; #@! TF.GenerationSoftware,Kicad,Pcbnew,(6.0.0)
; #@! TF.FileFunction,Plated,1,2,PTH
FMAT,2
METRIC
; #@! TA.AperFunction,Plated,PTH,ViaDrill
T1C0.250
; #@! TA.AperFunction,Plated,PTH,ComponentDrill
T2C0.600
; #@! TA.AperFunction,Plated,PTH,ComponentDrill
T3C3.700
%
G90
G05
T1
X118.0Y-86.0
X118.0Y-88.0
X118.0Y-90.0
X118.0Y-92.0
X119.0Y-87.0
X119.0Y-89.0
X119.0Y-91.0
X119.0Y-93.0
X121.0Y-87.0
X123.0Y-87.0
X123.0Y-89.0
X123.0Y-91.0
X123.0Y-93.0
X124.0Y-80.0
X124.0Y-86.0
X125.0Y-81.0
X125.0Y-83.0
X125.0Y-85.0
X126.0Y-80.0
X126.0Y-82.0
X126.0Y-84.0
X126.0Y-86.0
X126.0Y-90.0
X126.0Y-92.0
X127.0Y-81.0
X127.0Y-87.0
X128.0Y-80.0
X129.0Y-81.5
X129.0Y-87.0
X130.0Y-80.0
X130.0Y-86.0
X131.0Y-81.0
X131.0Y-89.0
X131.0Y-91.0
X131.0Y-93.0
X132.0Y-80.0
X132.0Y-90.0
X132.0Y-92.0
X132.2Y-86.9
X133.0Y-87.0
X133.0Y-93.0
X133.8Y-81.204
X134.35Y-82.45
X135.0Y-87.0
X135.0Y-91.0
X135.0Y-93.0
X135.15Y-81.4
X135.6Y-82.025
X136.0Y-90.0
X136.0Y-92.0
X136.2Y-84.0
X136.95Y-82.7
X137.0Y-89.0
X137.0Y-91.0
X137.0Y-93.0
X137.55Y-87.0
X138.0Y-88.0
X138.0Y-90.0
X138.0Y-92.0
X139.0Y-89.0
X139.0Y-91.0
X139.0Y-93.0
X140.0Y-86.0
X142.0Y-86.0
X142.0Y-91.0
X142.0Y-93.0
X143.0Y-86.0
X143.0Y-90.0
X143.0Y-92.0
X143.6Y-81.0
X143.85Y-84.27
X144.0Y-89.0
X144.0Y-91.0
X144.0Y-93.0
X144.834Y-83.261
X145.0Y-81.0
X145.0Y-90.0
X145.0Y-92.0
X145.999Y-83.25
X146.0Y-89.0
X146.0Y-91.0
X146.0Y-93.0
X146.4Y-81.0
X147.0Y-92.0
X147.7Y-84.0
X148.0Y-91.0
X148.0Y-93.0
X148.75Y-83.85
X149.2Y-81.0
X149.8Y-83.6
X150.0Y-91.0
X150.0Y-93.0
X150.4Y-81.0
X150.6Y-87.2
X151.0Y-92.0
X151.052Y-84.103
X151.55Y-86.15
X151.6Y-81.0
X151.85Y-86.85
X152.0Y-93.0
X152.6Y-80.6
X153.0Y-92.0
X153.35Y-89.55
X154.0Y-93.0
X154.3Y-80.6
X155.5Y-80.8
X156.0Y-93.0
X156.4Y-89.1
X156.5Y-80.85
X157.0Y-83.93
X157.0Y-92.0
X157.55Y-86.95
X157.55Y-87.8
X157.75Y-84.35
X157.75Y-85.25
X158.0Y-80.0
X158.0Y-90.0
X159.0Y-81.0
X160.0Y-80.0
X160.1Y-85.2
X160.85Y-84.8
X161.0Y-81.0
X161.0Y-83.0
X161.0Y-87.0
X161.0Y-93.0
X161.45Y-85.5
X162.0Y-80.0
X162.0Y-82.0
X162.0Y-84.0
X162.0Y-90.0
X162.0Y-92.0
X163.0Y-81.0
X163.0Y-83.0
X163.0Y-85.0
X163.0Y-87.0
X163.0Y-91.0
X163.0Y-93.0
X164.0Y-80.0
X164.0Y-82.0
X164.0Y-84.0
X164.0Y-90.0
X164.0Y-92.0
X165.0Y-81.0
X165.0Y-83.0
X165.0Y-85.0
X165.0Y-93.0
X166.0Y-80.0
X166.0Y-86.0
X167.0Y-87.0
X167.0Y-89.0
X167.0Y-93.0
X168.0Y-88.0
X168.0Y-90.0
X168.0Y-92.0
X169.0Y-87.0
X169.0Y-89.0
X169.0Y-91.0
X169.0Y-93.0
X170.0Y-88.0
X170.0Y-90.0
X170.0Y-92.0
X171.0Y-87.0
X171.0Y-89.0
X171.0Y-91.0
T3
X120.75Y-82.95
X168.75Y-82.95
T2
X140.48Y-87.27G85X140.48Y-88.37
G05
X140.48Y-91.6G85X140.48Y-92.4
G05
X149.12Y-87.27G85X149.12Y-88.37
G05
X149.12Y-91.6G85X149.12Y-92.4
G05
T0
M30
