M48
; DRILL file {KiCad (5.99.0-12267-gfe608bfcef)} date Sun Nov  7 23:23:36 2021
; FORMAT={-:-/ absolute / metric / decimal}
; #@! TF.CreationDate,2021-11-07T23:23:36+01:00
; #@! TF.GenerationSoftware,Kicad,Pcbnew,(5.99.0-12267-gfe608bfcef)
; #@! TF.FileFunction,Plated,1,2,PTH
FMAT,2
METRIC
; #@! TA.AperFunction,Plated,PTH,ViaDrill
T1C0.250
; #@! TA.AperFunction,Plated,PTH,ComponentDrill
T2C0.600
; #@! TA.AperFunction,Plated,PTH,ComponentDrill
T3C3.700
%
G90
G05
T1
X125.0Y-85.0
X132.2Y-86.9
X133.6Y-82.8
X134.25Y-81.625
X134.3Y-86.1
X135.0Y-87.0
X135.6Y-82.025
X137.575Y-86.975
X143.0Y-86.0
X143.85Y-84.27
X144.834Y-83.261
X145.5Y-88.65
X145.999Y-83.25
X149.08Y-83.31
X150.0Y-82.8
X150.7Y-86.5
X150.725Y-83.625
X151.25Y-84.15
X152.4Y-83.0
X152.6Y-80.6
X154.2Y-86.5
X155.6Y-86.5
T3
X120.75Y-82.95
X168.75Y-82.95
T2
X140.48Y-87.27G85X140.48Y-88.37
G05
X140.48Y-91.6G85X140.48Y-92.4
G05
X149.12Y-87.27G85X149.12Y-88.37
G05
X149.12Y-91.6G85X149.12Y-92.4
G05
T0
M30
