G04 #@! TF.GenerationSoftware,KiCad,Pcbnew,(6.0.0)*
G04 #@! TF.CreationDate,2022-12-24T23:31:17+01:00*
G04 #@! TF.ProjectId,MinCab,4d696e43-6162-42e6-9b69-6361645f7063,rev?*
G04 #@! TF.SameCoordinates,Original*
G04 #@! TF.FileFunction,Copper,L2,Inr*
G04 #@! TF.FilePolarity,Positive*
%FSLAX46Y46*%
G04 Gerber Fmt 4.6, Leading zero omitted, Abs format (unit mm)*
G04 Created by KiCad (PCBNEW (6.0.0)) date 2022-12-24 23:31:17*
%MOMM*%
%LPD*%
G01*
G04 APERTURE LIST*
G04 #@! TA.AperFunction,Profile*
%ADD10C,0.050000*%
G04 #@! TD*
G04 #@! TA.AperFunction,ComponentPad*
%ADD11C,6.000000*%
G04 #@! TD*
G04 #@! TA.AperFunction,ComponentPad*
%ADD12C,0.800000*%
G04 #@! TD*
G04 #@! TA.AperFunction,ComponentPad*
%ADD13O,1.050000X2.100000*%
G04 #@! TD*
G04 #@! TA.AperFunction,ComponentPad*
%ADD14O,1.000000X2.000000*%
G04 #@! TD*
G04 #@! TA.AperFunction,ViaPad*
%ADD15C,0.450000*%
G04 #@! TD*
G04 #@! TA.AperFunction,Conductor*
%ADD16C,0.127000*%
G04 #@! TD*
G04 APERTURE END LIST*
D10*
X117300000Y-91200000D02*
G75*
G03*
X120300000Y-94200000I3000001J1D01*
G01*
X172300000Y-82500000D02*
X172300000Y-91200000D01*
X169300000Y-94200000D02*
X120300000Y-94200000D01*
X172300000Y-82500000D02*
G75*
G03*
X169300000Y-79500000I-3000001J-1D01*
G01*
X169300000Y-94200000D02*
G75*
G03*
X172300000Y-91200000I-1J3000001D01*
G01*
X120300000Y-79500000D02*
X169300000Y-79500000D01*
X120300000Y-79500000D02*
G75*
G03*
X117300000Y-82500000I1J-3000001D01*
G01*
X117300000Y-82500000D02*
X117300000Y-91200000D01*
D11*
X120750000Y-82950000D03*
X168750000Y-82950000D03*
D12*
X131000000Y-91350000D03*
D13*
X140480000Y-87820000D03*
D14*
X140480000Y-92000000D03*
X149120000Y-92000000D03*
D13*
X149120000Y-87820000D03*
D15*
X126150000Y-85600000D03*
X132842000Y-82296000D03*
X129200000Y-86050000D03*
X141000000Y-84050000D03*
X119000000Y-89000000D03*
X166000000Y-80000000D03*
X160000000Y-80000000D03*
X154000000Y-93000000D03*
X118000000Y-88000000D03*
X163000000Y-87000000D03*
X171000000Y-91000000D03*
X163000000Y-91000000D03*
X164000000Y-84000000D03*
X171000000Y-89000000D03*
X126000000Y-80000000D03*
X162000000Y-80000000D03*
X151600000Y-81000000D03*
X142000000Y-91000000D03*
X165000000Y-85000000D03*
X150000000Y-91000000D03*
X163000000Y-83000000D03*
X168000000Y-88000000D03*
X133500000Y-86700000D03*
X168000000Y-90000000D03*
X155500000Y-80800000D03*
X153000000Y-92000000D03*
X157000000Y-92000000D03*
X164000000Y-90000000D03*
X169000000Y-87000000D03*
X167000000Y-93000000D03*
X163000000Y-85000000D03*
X123000000Y-87000000D03*
X128000000Y-80000000D03*
X169000000Y-89000000D03*
X165000000Y-93000000D03*
X162000000Y-84000000D03*
X165000000Y-81000000D03*
X170000000Y-88000000D03*
X162000000Y-92000000D03*
X123000000Y-93000000D03*
X157750000Y-85250000D03*
X132000000Y-80000000D03*
X162000000Y-90000000D03*
X118000000Y-86000000D03*
X146000000Y-93000000D03*
X144000000Y-93000000D03*
X119000000Y-91000000D03*
X136950000Y-82700000D03*
X158000000Y-80000000D03*
X150000000Y-93000000D03*
X146400000Y-81000000D03*
X130000000Y-80000000D03*
X167000000Y-89000000D03*
X159000000Y-81000000D03*
X147000000Y-92000000D03*
X170000000Y-90000000D03*
X169000000Y-93000000D03*
X161000000Y-87000000D03*
X171000000Y-87000000D03*
X121000000Y-87000000D03*
X143253368Y-83680043D03*
X143600000Y-81000000D03*
X161000000Y-83000000D03*
X154000000Y-88000000D03*
X148000000Y-91000000D03*
X163000000Y-93000000D03*
X145000000Y-92000000D03*
X152000000Y-93000000D03*
X158000000Y-90000000D03*
X123000000Y-91000000D03*
X156000000Y-93000000D03*
X168000000Y-92000000D03*
X166000000Y-86000000D03*
X151000000Y-92000000D03*
X162000000Y-82000000D03*
X169000000Y-91000000D03*
X163000000Y-81000000D03*
X150400000Y-81000000D03*
X118000000Y-92000000D03*
X164000000Y-82000000D03*
X164000000Y-92000000D03*
X161000000Y-81000000D03*
X161000000Y-93000000D03*
X164000000Y-80000000D03*
X165000000Y-83000000D03*
X119000000Y-87000000D03*
X142240000Y-84074000D03*
X118000000Y-90000000D03*
X170000000Y-92000000D03*
X124000000Y-80000000D03*
X148000000Y-93000000D03*
X167000000Y-87000000D03*
X146000000Y-91000000D03*
X119000000Y-93000000D03*
X160100000Y-85200000D03*
X156400000Y-89100000D03*
X153350000Y-89550000D03*
X157750000Y-84350000D03*
X136900000Y-85600000D03*
X157000000Y-83930500D03*
X156500000Y-80850000D03*
X149800000Y-83600000D03*
X151052236Y-84103267D03*
X151550000Y-86150000D03*
X151850000Y-86850000D03*
X149200000Y-81000000D03*
X148750000Y-83850000D03*
X135150000Y-81400000D03*
X143150000Y-82700000D03*
X145999474Y-83250496D03*
X133800000Y-81204500D03*
X133000000Y-93150000D03*
X147100000Y-83750000D03*
X147900000Y-83800000D03*
X129650000Y-93350000D03*
X135600000Y-82025000D03*
X134350000Y-82450000D03*
X143000000Y-86000000D03*
X157550000Y-87800000D03*
X150600000Y-87200000D03*
X157550000Y-86950000D03*
X137900000Y-86800000D03*
X139550000Y-86250000D03*
X154300000Y-80600000D03*
X127100000Y-81500000D03*
X152600000Y-80600000D03*
X131200000Y-83400000D03*
X144650000Y-84150000D03*
X165000000Y-89800000D03*
X160800000Y-90000000D03*
X144650000Y-81000000D03*
X136500000Y-92650000D03*
X144550000Y-89150000D03*
X136500000Y-90900000D03*
X144050000Y-88550000D03*
X145028368Y-88328368D03*
X132800000Y-89950000D03*
X131396632Y-87546632D03*
D16*
X169283824Y-79691850D02*
X169316177Y-79691850D01*
X169320321Y-79690740D01*
X169614667Y-79707270D01*
X169925377Y-79760062D01*
X170228217Y-79847308D01*
X170519390Y-79967917D01*
X170795216Y-80120361D01*
X171052261Y-80302743D01*
X171287253Y-80512747D01*
X171497257Y-80747739D01*
X171679639Y-81004784D01*
X171832083Y-81280610D01*
X171952692Y-81571783D01*
X172039938Y-81874623D01*
X172092730Y-82185333D01*
X172109260Y-82479679D01*
X172108150Y-82483823D01*
X172108150Y-82516176D01*
X172110500Y-82524947D01*
X172110500Y-91175053D01*
X172108150Y-91183824D01*
X172108150Y-91216177D01*
X172109260Y-91220321D01*
X172092730Y-91514667D01*
X172039938Y-91825377D01*
X171952692Y-92128217D01*
X171832083Y-92419390D01*
X171679639Y-92695216D01*
X171497257Y-92952261D01*
X171287253Y-93187253D01*
X171052261Y-93397257D01*
X170795216Y-93579639D01*
X170519390Y-93732083D01*
X170228217Y-93852692D01*
X169925377Y-93939938D01*
X169614667Y-93992730D01*
X169320321Y-94009260D01*
X169316177Y-94008150D01*
X169283824Y-94008150D01*
X169275053Y-94010500D01*
X120324947Y-94010500D01*
X120316176Y-94008150D01*
X120283823Y-94008150D01*
X120279679Y-94009260D01*
X119985333Y-93992730D01*
X119674623Y-93939938D01*
X119371783Y-93852692D01*
X119080610Y-93732083D01*
X118804784Y-93579639D01*
X118547739Y-93397257D01*
X118505799Y-93359777D01*
X129228338Y-93359777D01*
X129245954Y-93471002D01*
X129251997Y-93489600D01*
X129303122Y-93589937D01*
X129314616Y-93605756D01*
X129394244Y-93685384D01*
X129410063Y-93696878D01*
X129510400Y-93748003D01*
X129528998Y-93754046D01*
X129640223Y-93771662D01*
X129659777Y-93771662D01*
X129771002Y-93754046D01*
X129789600Y-93748003D01*
X129889937Y-93696878D01*
X129905756Y-93685384D01*
X129985384Y-93605756D01*
X129996878Y-93589937D01*
X130048003Y-93489600D01*
X130054046Y-93471002D01*
X130071662Y-93359777D01*
X130071662Y-93340223D01*
X130054046Y-93228998D01*
X130048003Y-93210400D01*
X130022209Y-93159777D01*
X132578338Y-93159777D01*
X132595954Y-93271002D01*
X132601997Y-93289600D01*
X132653122Y-93389937D01*
X132664616Y-93405756D01*
X132744244Y-93485384D01*
X132760063Y-93496878D01*
X132860400Y-93548003D01*
X132878998Y-93554046D01*
X132990223Y-93571662D01*
X133009777Y-93571662D01*
X133121002Y-93554046D01*
X133139600Y-93548003D01*
X133239937Y-93496878D01*
X133255756Y-93485384D01*
X133335384Y-93405756D01*
X133346878Y-93389937D01*
X133398003Y-93289600D01*
X133404046Y-93271002D01*
X133421662Y-93159777D01*
X133421662Y-93140223D01*
X133404046Y-93028998D01*
X133398003Y-93010400D01*
X133346878Y-92910063D01*
X133335384Y-92894244D01*
X133255756Y-92814616D01*
X133239937Y-92803122D01*
X133139600Y-92751997D01*
X133121002Y-92745954D01*
X133009777Y-92728338D01*
X132990223Y-92728338D01*
X132878998Y-92745954D01*
X132860400Y-92751997D01*
X132760063Y-92803122D01*
X132744244Y-92814616D01*
X132664616Y-92894244D01*
X132653122Y-92910063D01*
X132601997Y-93010400D01*
X132595954Y-93028998D01*
X132578338Y-93140223D01*
X132578338Y-93159777D01*
X130022209Y-93159777D01*
X129996878Y-93110063D01*
X129985384Y-93094244D01*
X129905756Y-93014616D01*
X129889937Y-93003122D01*
X129789600Y-92951997D01*
X129771002Y-92945954D01*
X129659777Y-92928338D01*
X129640223Y-92928338D01*
X129528998Y-92945954D01*
X129510400Y-92951997D01*
X129410063Y-93003122D01*
X129394244Y-93014616D01*
X129314616Y-93094244D01*
X129303122Y-93110063D01*
X129251997Y-93210400D01*
X129245954Y-93228998D01*
X129228338Y-93340223D01*
X129228338Y-93359777D01*
X118505799Y-93359777D01*
X118312747Y-93187253D01*
X118102743Y-92952261D01*
X117920361Y-92695216D01*
X117900775Y-92659777D01*
X136078338Y-92659777D01*
X136095954Y-92771002D01*
X136101997Y-92789600D01*
X136153122Y-92889937D01*
X136164616Y-92905756D01*
X136244244Y-92985384D01*
X136260063Y-92996878D01*
X136360400Y-93048003D01*
X136378998Y-93054046D01*
X136490223Y-93071662D01*
X136509777Y-93071662D01*
X136621002Y-93054046D01*
X136639600Y-93048003D01*
X136739937Y-92996878D01*
X136755756Y-92985384D01*
X136835384Y-92905756D01*
X136846878Y-92889937D01*
X136898003Y-92789600D01*
X136904046Y-92771002D01*
X136921662Y-92659777D01*
X136921662Y-92640223D01*
X136906601Y-92545129D01*
X139617500Y-92545129D01*
X139617889Y-92552096D01*
X139632833Y-92685327D01*
X139635921Y-92698914D01*
X139694946Y-92868410D01*
X139700966Y-92880976D01*
X139796075Y-93033182D01*
X139804730Y-93044102D01*
X139931197Y-93171455D01*
X139942056Y-93180185D01*
X140093595Y-93276355D01*
X140106118Y-93282464D01*
X140275197Y-93342670D01*
X140288762Y-93345851D01*
X140322599Y-93349886D01*
X140368650Y-93336942D01*
X140392060Y-93295227D01*
X140392449Y-93288686D01*
X140567500Y-93288686D01*
X140585806Y-93332880D01*
X140630000Y-93351186D01*
X140636532Y-93350844D01*
X140659407Y-93348440D01*
X140673017Y-93345448D01*
X140842921Y-93287608D01*
X140855528Y-93281675D01*
X141008395Y-93187631D01*
X141019375Y-93179052D01*
X141147607Y-93053477D01*
X141156413Y-93042680D01*
X141253639Y-92891816D01*
X141259835Y-92879335D01*
X141321220Y-92710680D01*
X141324496Y-92697137D01*
X141342007Y-92558525D01*
X141342500Y-92550692D01*
X141342500Y-92545129D01*
X148257500Y-92545129D01*
X148257889Y-92552096D01*
X148272833Y-92685327D01*
X148275921Y-92698914D01*
X148334946Y-92868410D01*
X148340966Y-92880976D01*
X148436075Y-93033182D01*
X148444730Y-93044102D01*
X148571197Y-93171455D01*
X148582056Y-93180185D01*
X148733595Y-93276355D01*
X148746118Y-93282464D01*
X148915197Y-93342670D01*
X148928762Y-93345851D01*
X148962599Y-93349886D01*
X149008650Y-93336942D01*
X149032060Y-93295227D01*
X149032449Y-93288686D01*
X149207500Y-93288686D01*
X149225806Y-93332880D01*
X149270000Y-93351186D01*
X149276532Y-93350844D01*
X149299407Y-93348440D01*
X149313017Y-93345448D01*
X149482921Y-93287608D01*
X149495528Y-93281675D01*
X149648395Y-93187631D01*
X149659375Y-93179052D01*
X149787607Y-93053477D01*
X149796413Y-93042680D01*
X149893639Y-92891816D01*
X149899835Y-92879335D01*
X149961220Y-92710680D01*
X149964496Y-92697137D01*
X149982007Y-92558525D01*
X149982500Y-92550692D01*
X149982500Y-92150000D01*
X149964194Y-92105806D01*
X149920000Y-92087500D01*
X149270000Y-92087500D01*
X149225806Y-92105806D01*
X149207500Y-92150000D01*
X149207500Y-93288686D01*
X149032449Y-93288686D01*
X149032500Y-93287826D01*
X149032500Y-92150000D01*
X149014194Y-92105806D01*
X148970000Y-92087500D01*
X148320000Y-92087500D01*
X148275806Y-92105806D01*
X148257500Y-92150000D01*
X148257500Y-92545129D01*
X141342500Y-92545129D01*
X141342500Y-92150000D01*
X141324194Y-92105806D01*
X141280000Y-92087500D01*
X140630000Y-92087500D01*
X140585806Y-92105806D01*
X140567500Y-92150000D01*
X140567500Y-93288686D01*
X140392449Y-93288686D01*
X140392500Y-93287826D01*
X140392500Y-92150000D01*
X140374194Y-92105806D01*
X140330000Y-92087500D01*
X139680000Y-92087500D01*
X139635806Y-92105806D01*
X139617500Y-92150000D01*
X139617500Y-92545129D01*
X136906601Y-92545129D01*
X136904046Y-92528998D01*
X136898003Y-92510400D01*
X136846878Y-92410063D01*
X136835384Y-92394244D01*
X136755756Y-92314616D01*
X136739937Y-92303122D01*
X136639600Y-92251997D01*
X136621002Y-92245954D01*
X136509777Y-92228338D01*
X136490223Y-92228338D01*
X136378998Y-92245954D01*
X136360400Y-92251997D01*
X136260063Y-92303122D01*
X136244244Y-92314616D01*
X136164616Y-92394244D01*
X136153122Y-92410063D01*
X136101997Y-92510400D01*
X136095954Y-92528998D01*
X136078338Y-92640223D01*
X136078338Y-92659777D01*
X117900775Y-92659777D01*
X117767917Y-92419390D01*
X117647308Y-92128217D01*
X117593345Y-91940906D01*
X130558726Y-91940906D01*
X130577032Y-91985100D01*
X130591403Y-91995832D01*
X130710597Y-92060550D01*
X130724560Y-92066078D01*
X130888441Y-92109071D01*
X130903319Y-92111109D01*
X131072725Y-92113770D01*
X131087660Y-92112201D01*
X131252811Y-92074377D01*
X131266940Y-92069290D01*
X131408305Y-91998191D01*
X131439562Y-91961980D01*
X131436059Y-91914273D01*
X131424417Y-91898161D01*
X131376256Y-91850000D01*
X139617500Y-91850000D01*
X139635806Y-91894194D01*
X139680000Y-91912500D01*
X140330000Y-91912500D01*
X140374194Y-91894194D01*
X140392500Y-91850000D01*
X140567500Y-91850000D01*
X140585806Y-91894194D01*
X140630000Y-91912500D01*
X141280000Y-91912500D01*
X141324194Y-91894194D01*
X141342500Y-91850000D01*
X148257500Y-91850000D01*
X148275806Y-91894194D01*
X148320000Y-91912500D01*
X148970000Y-91912500D01*
X149014194Y-91894194D01*
X149032500Y-91850000D01*
X149207500Y-91850000D01*
X149225806Y-91894194D01*
X149270000Y-91912500D01*
X149920000Y-91912500D01*
X149964194Y-91894194D01*
X149982500Y-91850000D01*
X149982500Y-91454871D01*
X149982111Y-91447904D01*
X149967167Y-91314673D01*
X149964079Y-91301086D01*
X149905054Y-91131590D01*
X149899034Y-91119024D01*
X149803925Y-90966818D01*
X149795270Y-90955898D01*
X149668803Y-90828545D01*
X149657944Y-90819815D01*
X149506405Y-90723645D01*
X149493882Y-90717536D01*
X149324803Y-90657330D01*
X149311238Y-90654149D01*
X149277401Y-90650114D01*
X149231350Y-90663058D01*
X149207940Y-90704773D01*
X149207500Y-90712174D01*
X149207500Y-91850000D01*
X149032500Y-91850000D01*
X149032500Y-90711314D01*
X149014194Y-90667120D01*
X148970000Y-90648814D01*
X148963468Y-90649156D01*
X148940593Y-90651560D01*
X148926983Y-90654552D01*
X148757079Y-90712392D01*
X148744472Y-90718325D01*
X148591605Y-90812369D01*
X148580625Y-90820948D01*
X148452393Y-90946523D01*
X148443587Y-90957320D01*
X148346361Y-91108184D01*
X148340165Y-91120665D01*
X148278780Y-91289320D01*
X148275504Y-91302863D01*
X148257993Y-91441475D01*
X148257500Y-91449308D01*
X148257500Y-91850000D01*
X141342500Y-91850000D01*
X141342500Y-91454871D01*
X141342111Y-91447904D01*
X141327167Y-91314673D01*
X141324079Y-91301086D01*
X141265054Y-91131590D01*
X141259034Y-91119024D01*
X141163925Y-90966818D01*
X141155270Y-90955898D01*
X141028803Y-90828545D01*
X141017944Y-90819815D01*
X140866405Y-90723645D01*
X140853882Y-90717536D01*
X140684803Y-90657330D01*
X140671238Y-90654149D01*
X140637401Y-90650114D01*
X140591350Y-90663058D01*
X140567940Y-90704773D01*
X140567500Y-90712174D01*
X140567500Y-91850000D01*
X140392500Y-91850000D01*
X140392500Y-90711314D01*
X140374194Y-90667120D01*
X140330000Y-90648814D01*
X140323468Y-90649156D01*
X140300593Y-90651560D01*
X140286983Y-90654552D01*
X140117079Y-90712392D01*
X140104472Y-90718325D01*
X139951605Y-90812369D01*
X139940625Y-90820948D01*
X139812393Y-90946523D01*
X139803587Y-90957320D01*
X139706361Y-91108184D01*
X139700165Y-91120665D01*
X139638780Y-91289320D01*
X139635504Y-91302863D01*
X139617993Y-91441475D01*
X139617500Y-91449308D01*
X139617500Y-91850000D01*
X131376256Y-91850000D01*
X131044194Y-91517938D01*
X131000000Y-91499632D01*
X130955806Y-91517938D01*
X130577032Y-91896712D01*
X130558726Y-91940906D01*
X117593345Y-91940906D01*
X117560062Y-91825377D01*
X117507270Y-91514667D01*
X117497993Y-91349474D01*
X130232775Y-91349474D01*
X130251367Y-91517878D01*
X130254797Y-91532499D01*
X130313022Y-91691606D01*
X130319839Y-91704986D01*
X130358432Y-91762419D01*
X130398275Y-91788891D01*
X130445167Y-91779436D01*
X130454502Y-91771754D01*
X130832062Y-91394194D01*
X130850368Y-91350000D01*
X131149632Y-91350000D01*
X131167938Y-91394194D01*
X131546095Y-91772351D01*
X131590289Y-91790657D01*
X131634483Y-91772351D01*
X131641044Y-91764628D01*
X131668675Y-91726175D01*
X131675910Y-91713016D01*
X131739104Y-91555816D01*
X131742991Y-91541310D01*
X131766863Y-91373573D01*
X131767483Y-91365423D01*
X131767638Y-91350656D01*
X131767188Y-91342492D01*
X131746834Y-91174292D01*
X131743252Y-91159708D01*
X131683363Y-91001219D01*
X131676406Y-90987910D01*
X131641344Y-90936895D01*
X131601225Y-90910843D01*
X131554435Y-90920788D01*
X131545642Y-90928102D01*
X131167938Y-91305806D01*
X131149632Y-91350000D01*
X130850368Y-91350000D01*
X130832062Y-91305806D01*
X130454159Y-90927903D01*
X130409965Y-90909597D01*
X130365771Y-90927903D01*
X130358831Y-90936159D01*
X130327423Y-90980847D01*
X130320326Y-90994082D01*
X130258781Y-91151936D01*
X130255047Y-91166481D01*
X130232933Y-91334458D01*
X130232775Y-91349474D01*
X117497993Y-91349474D01*
X117490740Y-91220321D01*
X117491850Y-91216177D01*
X117491850Y-91183824D01*
X117489500Y-91175053D01*
X117489500Y-90739187D01*
X130560780Y-90739187D01*
X130564783Y-90786855D01*
X130576127Y-90802383D01*
X130955806Y-91182062D01*
X131000000Y-91200368D01*
X131044194Y-91182062D01*
X131316479Y-90909777D01*
X136078338Y-90909777D01*
X136095954Y-91021002D01*
X136101997Y-91039600D01*
X136153122Y-91139937D01*
X136164616Y-91155756D01*
X136244244Y-91235384D01*
X136260063Y-91246878D01*
X136360400Y-91298003D01*
X136378998Y-91304046D01*
X136490223Y-91321662D01*
X136509777Y-91321662D01*
X136621002Y-91304046D01*
X136639600Y-91298003D01*
X136739937Y-91246878D01*
X136755756Y-91235384D01*
X136835384Y-91155756D01*
X136846878Y-91139937D01*
X136898003Y-91039600D01*
X136904046Y-91021002D01*
X136921662Y-90909777D01*
X136921662Y-90890223D01*
X136904046Y-90778998D01*
X136898003Y-90760400D01*
X136846878Y-90660063D01*
X136835384Y-90644244D01*
X136755756Y-90564616D01*
X136739937Y-90553122D01*
X136639600Y-90501997D01*
X136621002Y-90495954D01*
X136509777Y-90478338D01*
X136490223Y-90478338D01*
X136378998Y-90495954D01*
X136360400Y-90501997D01*
X136260063Y-90553122D01*
X136244244Y-90564616D01*
X136164616Y-90644244D01*
X136153122Y-90660063D01*
X136101997Y-90760400D01*
X136095954Y-90778998D01*
X136078338Y-90890223D01*
X136078338Y-90909777D01*
X131316479Y-90909777D01*
X131423391Y-90802865D01*
X131441697Y-90758671D01*
X131423391Y-90714477D01*
X131408443Y-90703436D01*
X131281946Y-90636459D01*
X131267926Y-90631077D01*
X131103604Y-90589802D01*
X131088705Y-90587920D01*
X130919280Y-90587033D01*
X130904363Y-90588759D01*
X130739618Y-90628311D01*
X130725542Y-90633546D01*
X130591655Y-90702651D01*
X130560780Y-90739187D01*
X117489500Y-90739187D01*
X117489500Y-89959777D01*
X132378338Y-89959777D01*
X132395954Y-90071002D01*
X132401997Y-90089600D01*
X132453122Y-90189937D01*
X132464616Y-90205756D01*
X132544244Y-90285384D01*
X132560063Y-90296878D01*
X132660400Y-90348003D01*
X132678998Y-90354046D01*
X132790223Y-90371662D01*
X132809777Y-90371662D01*
X132921002Y-90354046D01*
X132939600Y-90348003D01*
X133039937Y-90296878D01*
X133055756Y-90285384D01*
X133135384Y-90205756D01*
X133146878Y-90189937D01*
X133198003Y-90089600D01*
X133204046Y-90071002D01*
X133213743Y-90009777D01*
X160378338Y-90009777D01*
X160395954Y-90121002D01*
X160401997Y-90139600D01*
X160453122Y-90239937D01*
X160464616Y-90255756D01*
X160544244Y-90335384D01*
X160560063Y-90346878D01*
X160660400Y-90398003D01*
X160678998Y-90404046D01*
X160790223Y-90421662D01*
X160809777Y-90421662D01*
X160921002Y-90404046D01*
X160939600Y-90398003D01*
X161039937Y-90346878D01*
X161055756Y-90335384D01*
X161135384Y-90255756D01*
X161146878Y-90239937D01*
X161198003Y-90139600D01*
X161204046Y-90121002D01*
X161221662Y-90009777D01*
X161221662Y-89990223D01*
X161204046Y-89878998D01*
X161198003Y-89860400D01*
X161172209Y-89809777D01*
X164578338Y-89809777D01*
X164595954Y-89921002D01*
X164601997Y-89939600D01*
X164653122Y-90039937D01*
X164664616Y-90055756D01*
X164744244Y-90135384D01*
X164760063Y-90146878D01*
X164860400Y-90198003D01*
X164878998Y-90204046D01*
X164990223Y-90221662D01*
X165009777Y-90221662D01*
X165121002Y-90204046D01*
X165139600Y-90198003D01*
X165239937Y-90146878D01*
X165255756Y-90135384D01*
X165335384Y-90055756D01*
X165346878Y-90039937D01*
X165398003Y-89939600D01*
X165404046Y-89921002D01*
X165421662Y-89809777D01*
X165421662Y-89790223D01*
X165404046Y-89678998D01*
X165398003Y-89660400D01*
X165346878Y-89560063D01*
X165335384Y-89544244D01*
X165255756Y-89464616D01*
X165239937Y-89453122D01*
X165139600Y-89401997D01*
X165121002Y-89395954D01*
X165009777Y-89378338D01*
X164990223Y-89378338D01*
X164878998Y-89395954D01*
X164860400Y-89401997D01*
X164760063Y-89453122D01*
X164744244Y-89464616D01*
X164664616Y-89544244D01*
X164653122Y-89560063D01*
X164601997Y-89660400D01*
X164595954Y-89678998D01*
X164578338Y-89790223D01*
X164578338Y-89809777D01*
X161172209Y-89809777D01*
X161146878Y-89760063D01*
X161135384Y-89744244D01*
X161055756Y-89664616D01*
X161039937Y-89653122D01*
X160939600Y-89601997D01*
X160921002Y-89595954D01*
X160809777Y-89578338D01*
X160790223Y-89578338D01*
X160678998Y-89595954D01*
X160660400Y-89601997D01*
X160560063Y-89653122D01*
X160544244Y-89664616D01*
X160464616Y-89744244D01*
X160453122Y-89760063D01*
X160401997Y-89860400D01*
X160395954Y-89878998D01*
X160378338Y-89990223D01*
X160378338Y-90009777D01*
X133213743Y-90009777D01*
X133221662Y-89959777D01*
X133221662Y-89940223D01*
X133204046Y-89828998D01*
X133198003Y-89810400D01*
X133146878Y-89710063D01*
X133135384Y-89694244D01*
X133055756Y-89614616D01*
X133039937Y-89603122D01*
X132939600Y-89551997D01*
X132921002Y-89545954D01*
X132809777Y-89528338D01*
X132790223Y-89528338D01*
X132678998Y-89545954D01*
X132660400Y-89551997D01*
X132560063Y-89603122D01*
X132544244Y-89614616D01*
X132464616Y-89694244D01*
X132453122Y-89710063D01*
X132401997Y-89810400D01*
X132395954Y-89828998D01*
X132378338Y-89940223D01*
X132378338Y-89959777D01*
X117489500Y-89959777D01*
X117489500Y-88389783D01*
X139592500Y-88389783D01*
X139592866Y-88396533D01*
X139607360Y-88529951D01*
X139610258Y-88543136D01*
X139667431Y-88713024D01*
X139673094Y-88725279D01*
X139765415Y-88878926D01*
X139773577Y-88889679D01*
X139896737Y-89019917D01*
X139907018Y-89028667D01*
X140055272Y-89129420D01*
X140067191Y-89135757D01*
X140233622Y-89202325D01*
X140246625Y-89205956D01*
X140319792Y-89218069D01*
X140366382Y-89207227D01*
X140391661Y-89166616D01*
X140392253Y-89159419D01*
X140567500Y-89159419D01*
X140585806Y-89203613D01*
X140630000Y-89221919D01*
X140646597Y-89219675D01*
X140802091Y-89176845D01*
X140814643Y-89171875D01*
X140973204Y-89088275D01*
X140984396Y-89080726D01*
X141121306Y-88965028D01*
X141130616Y-88955252D01*
X141239488Y-88812853D01*
X141246481Y-88801306D01*
X141322235Y-88638851D01*
X141326586Y-88626071D01*
X141365688Y-88451138D01*
X141367096Y-88440993D01*
X141367403Y-88435502D01*
X141367500Y-88432013D01*
X141367500Y-88288272D01*
X141388431Y-88288272D01*
X141398105Y-88424901D01*
X141402159Y-88443038D01*
X141451579Y-88570782D01*
X141460787Y-88586925D01*
X141545585Y-88694490D01*
X141559132Y-88707211D01*
X141671809Y-88785087D01*
X141688498Y-88793263D01*
X141819093Y-88834565D01*
X141833036Y-88837281D01*
X141839720Y-88837807D01*
X141844623Y-88838000D01*
X141944221Y-88838000D01*
X141953513Y-88837305D01*
X142054740Y-88822086D01*
X142072502Y-88816622D01*
X142195975Y-88757332D01*
X142211346Y-88746886D01*
X142311926Y-88653910D01*
X142323545Y-88639407D01*
X142369798Y-88559777D01*
X143628338Y-88559777D01*
X143645954Y-88671002D01*
X143651997Y-88689600D01*
X143703122Y-88789937D01*
X143714616Y-88805756D01*
X143794244Y-88885384D01*
X143810063Y-88896878D01*
X143910400Y-88948003D01*
X143928998Y-88954046D01*
X144040223Y-88971662D01*
X144059777Y-88971662D01*
X144171002Y-88954046D01*
X144182638Y-88950265D01*
X144151997Y-89010400D01*
X144145954Y-89028998D01*
X144128338Y-89140223D01*
X144128338Y-89159777D01*
X144145954Y-89271002D01*
X144151997Y-89289600D01*
X144203122Y-89389937D01*
X144214616Y-89405756D01*
X144294244Y-89485384D01*
X144310063Y-89496878D01*
X144410400Y-89548003D01*
X144428998Y-89554046D01*
X144540223Y-89571662D01*
X144559777Y-89571662D01*
X144634817Y-89559777D01*
X152928338Y-89559777D01*
X152945954Y-89671002D01*
X152951997Y-89689600D01*
X153003122Y-89789937D01*
X153014616Y-89805756D01*
X153094244Y-89885384D01*
X153110063Y-89896878D01*
X153210400Y-89948003D01*
X153228998Y-89954046D01*
X153340223Y-89971662D01*
X153359777Y-89971662D01*
X153471002Y-89954046D01*
X153489600Y-89948003D01*
X153589937Y-89896878D01*
X153605756Y-89885384D01*
X153685384Y-89805756D01*
X153696878Y-89789937D01*
X153748003Y-89689600D01*
X153754046Y-89671002D01*
X153771662Y-89559777D01*
X153771662Y-89540223D01*
X153754046Y-89428998D01*
X153748003Y-89410400D01*
X153696878Y-89310063D01*
X153685384Y-89294244D01*
X153605756Y-89214616D01*
X153589937Y-89203122D01*
X153489600Y-89151997D01*
X153471002Y-89145954D01*
X153359777Y-89128338D01*
X153340223Y-89128338D01*
X153228998Y-89145954D01*
X153210400Y-89151997D01*
X153110063Y-89203122D01*
X153094244Y-89214616D01*
X153014616Y-89294244D01*
X153003122Y-89310063D01*
X152951997Y-89410400D01*
X152945954Y-89428998D01*
X152928338Y-89540223D01*
X152928338Y-89559777D01*
X144634817Y-89559777D01*
X144671002Y-89554046D01*
X144689600Y-89548003D01*
X144789937Y-89496878D01*
X144805756Y-89485384D01*
X144885384Y-89405756D01*
X144896878Y-89389937D01*
X144948003Y-89289600D01*
X144954046Y-89271002D01*
X144971662Y-89159777D01*
X144971662Y-89140223D01*
X144954046Y-89028998D01*
X144948003Y-89010400D01*
X144896878Y-88910063D01*
X144885384Y-88894244D01*
X144805756Y-88814616D01*
X144789937Y-88803122D01*
X144689600Y-88751997D01*
X144671002Y-88745954D01*
X144559777Y-88728338D01*
X144540223Y-88728338D01*
X144428998Y-88745954D01*
X144417362Y-88749735D01*
X144448003Y-88689600D01*
X144454046Y-88671002D01*
X144471662Y-88559777D01*
X144471662Y-88540223D01*
X144454046Y-88428998D01*
X144448003Y-88410400D01*
X144411187Y-88338145D01*
X144606706Y-88338145D01*
X144624322Y-88449370D01*
X144630365Y-88467968D01*
X144681490Y-88568305D01*
X144692984Y-88584124D01*
X144772612Y-88663752D01*
X144788431Y-88675246D01*
X144888768Y-88726371D01*
X144907366Y-88732414D01*
X145018591Y-88750030D01*
X145038145Y-88750030D01*
X145149370Y-88732414D01*
X145167968Y-88726371D01*
X145268305Y-88675246D01*
X145284124Y-88663752D01*
X145363752Y-88584124D01*
X145375246Y-88568305D01*
X145426371Y-88467968D01*
X145432414Y-88449370D01*
X145450030Y-88338145D01*
X145450030Y-88318591D01*
X145445228Y-88288272D01*
X147168431Y-88288272D01*
X147178105Y-88424901D01*
X147182159Y-88443038D01*
X147231579Y-88570782D01*
X147240787Y-88586925D01*
X147325585Y-88694490D01*
X147339132Y-88707211D01*
X147451809Y-88785087D01*
X147468498Y-88793263D01*
X147599093Y-88834565D01*
X147613036Y-88837281D01*
X147619720Y-88837807D01*
X147624623Y-88838000D01*
X147724221Y-88838000D01*
X147733513Y-88837305D01*
X147834740Y-88822086D01*
X147852502Y-88816622D01*
X147975975Y-88757332D01*
X147991346Y-88746886D01*
X148091926Y-88653910D01*
X148103545Y-88639407D01*
X148172341Y-88520967D01*
X148179183Y-88503688D01*
X148205585Y-88389783D01*
X148232500Y-88389783D01*
X148232866Y-88396533D01*
X148247360Y-88529951D01*
X148250258Y-88543136D01*
X148307431Y-88713024D01*
X148313094Y-88725279D01*
X148405415Y-88878926D01*
X148413577Y-88889679D01*
X148536737Y-89019917D01*
X148547018Y-89028667D01*
X148695272Y-89129420D01*
X148707191Y-89135757D01*
X148873622Y-89202325D01*
X148886625Y-89205956D01*
X148959792Y-89218069D01*
X149006382Y-89207227D01*
X149031661Y-89166616D01*
X149032253Y-89159419D01*
X149207500Y-89159419D01*
X149225806Y-89203613D01*
X149270000Y-89221919D01*
X149286597Y-89219675D01*
X149442091Y-89176845D01*
X149454643Y-89171875D01*
X149572422Y-89109777D01*
X155978338Y-89109777D01*
X155995954Y-89221002D01*
X156001997Y-89239600D01*
X156053122Y-89339937D01*
X156064616Y-89355756D01*
X156144244Y-89435384D01*
X156160063Y-89446878D01*
X156260400Y-89498003D01*
X156278998Y-89504046D01*
X156390223Y-89521662D01*
X156409777Y-89521662D01*
X156521002Y-89504046D01*
X156539600Y-89498003D01*
X156639937Y-89446878D01*
X156655756Y-89435384D01*
X156735384Y-89355756D01*
X156746878Y-89339937D01*
X156798003Y-89239600D01*
X156804046Y-89221002D01*
X156821662Y-89109777D01*
X156821662Y-89090223D01*
X156804046Y-88978998D01*
X156798003Y-88960400D01*
X156746878Y-88860063D01*
X156735384Y-88844244D01*
X156655756Y-88764616D01*
X156639937Y-88753122D01*
X156539600Y-88701997D01*
X156521002Y-88695954D01*
X156409777Y-88678338D01*
X156390223Y-88678338D01*
X156278998Y-88695954D01*
X156260400Y-88701997D01*
X156160063Y-88753122D01*
X156144244Y-88764616D01*
X156064616Y-88844244D01*
X156053122Y-88860063D01*
X156001997Y-88960400D01*
X155995954Y-88978998D01*
X155978338Y-89090223D01*
X155978338Y-89109777D01*
X149572422Y-89109777D01*
X149613204Y-89088275D01*
X149624396Y-89080726D01*
X149761306Y-88965028D01*
X149770616Y-88955252D01*
X149879488Y-88812853D01*
X149886481Y-88801306D01*
X149962235Y-88638851D01*
X149966586Y-88626071D01*
X150005688Y-88451138D01*
X150007096Y-88440993D01*
X150007403Y-88435502D01*
X150007500Y-88432013D01*
X150007500Y-87970000D01*
X149989194Y-87925806D01*
X149945000Y-87907500D01*
X149270000Y-87907500D01*
X149225806Y-87925806D01*
X149207500Y-87970000D01*
X149207500Y-89159419D01*
X149032253Y-89159419D01*
X149032500Y-89156408D01*
X149032500Y-87970000D01*
X149014194Y-87925806D01*
X148970000Y-87907500D01*
X148295000Y-87907500D01*
X148250806Y-87925806D01*
X148232500Y-87970000D01*
X148232500Y-88389783D01*
X148205585Y-88389783D01*
X148210111Y-88370255D01*
X148211569Y-88351728D01*
X148201895Y-88215099D01*
X148197841Y-88196962D01*
X148148421Y-88069218D01*
X148139213Y-88053075D01*
X148054415Y-87945510D01*
X148040868Y-87932789D01*
X147928191Y-87854913D01*
X147911502Y-87846737D01*
X147794636Y-87809777D01*
X157128338Y-87809777D01*
X157145954Y-87921002D01*
X157151997Y-87939600D01*
X157203122Y-88039937D01*
X157214616Y-88055756D01*
X157294244Y-88135384D01*
X157310063Y-88146878D01*
X157410400Y-88198003D01*
X157428998Y-88204046D01*
X157540223Y-88221662D01*
X157559777Y-88221662D01*
X157671002Y-88204046D01*
X157689600Y-88198003D01*
X157789937Y-88146878D01*
X157805756Y-88135384D01*
X157885384Y-88055756D01*
X157896878Y-88039937D01*
X157948003Y-87939600D01*
X157954046Y-87921002D01*
X157971662Y-87809777D01*
X157971662Y-87790223D01*
X157954046Y-87678998D01*
X157948003Y-87660400D01*
X157896878Y-87560063D01*
X157885384Y-87544244D01*
X157805756Y-87464616D01*
X157789937Y-87453122D01*
X157689600Y-87401997D01*
X157671002Y-87395954D01*
X157559777Y-87378338D01*
X157540223Y-87378338D01*
X157428998Y-87395954D01*
X157410400Y-87401997D01*
X157310063Y-87453122D01*
X157294244Y-87464616D01*
X157214616Y-87544244D01*
X157203122Y-87560063D01*
X157151997Y-87660400D01*
X157145954Y-87678998D01*
X157128338Y-87790223D01*
X157128338Y-87809777D01*
X147794636Y-87809777D01*
X147780907Y-87805435D01*
X147766964Y-87802719D01*
X147760280Y-87802193D01*
X147755377Y-87802000D01*
X147655779Y-87802000D01*
X147646487Y-87802695D01*
X147545260Y-87817914D01*
X147527498Y-87823378D01*
X147404025Y-87882668D01*
X147388654Y-87893114D01*
X147288074Y-87986090D01*
X147276455Y-88000593D01*
X147207659Y-88119033D01*
X147200817Y-88136312D01*
X147169889Y-88269745D01*
X147168431Y-88288272D01*
X145445228Y-88288272D01*
X145432414Y-88207366D01*
X145426371Y-88188768D01*
X145375246Y-88088431D01*
X145363752Y-88072612D01*
X145284124Y-87992984D01*
X145268305Y-87981490D01*
X145167968Y-87930365D01*
X145149370Y-87924322D01*
X145038145Y-87906706D01*
X145018591Y-87906706D01*
X144907366Y-87924322D01*
X144888768Y-87930365D01*
X144788431Y-87981490D01*
X144772612Y-87992984D01*
X144692984Y-88072612D01*
X144681490Y-88088431D01*
X144630365Y-88188768D01*
X144624322Y-88207366D01*
X144606706Y-88318591D01*
X144606706Y-88338145D01*
X144411187Y-88338145D01*
X144396878Y-88310063D01*
X144385384Y-88294244D01*
X144305756Y-88214616D01*
X144289937Y-88203122D01*
X144189600Y-88151997D01*
X144171002Y-88145954D01*
X144059777Y-88128338D01*
X144040223Y-88128338D01*
X143928998Y-88145954D01*
X143910400Y-88151997D01*
X143810063Y-88203122D01*
X143794244Y-88214616D01*
X143714616Y-88294244D01*
X143703122Y-88310063D01*
X143651997Y-88410400D01*
X143645954Y-88428998D01*
X143628338Y-88540223D01*
X143628338Y-88559777D01*
X142369798Y-88559777D01*
X142392341Y-88520967D01*
X142399183Y-88503688D01*
X142430111Y-88370255D01*
X142431569Y-88351728D01*
X142421895Y-88215099D01*
X142417841Y-88196962D01*
X142368421Y-88069218D01*
X142359213Y-88053075D01*
X142274415Y-87945510D01*
X142260868Y-87932789D01*
X142148191Y-87854913D01*
X142131502Y-87846737D01*
X142000907Y-87805435D01*
X141986964Y-87802719D01*
X141980280Y-87802193D01*
X141975377Y-87802000D01*
X141875779Y-87802000D01*
X141866487Y-87802695D01*
X141765260Y-87817914D01*
X141747498Y-87823378D01*
X141624025Y-87882668D01*
X141608654Y-87893114D01*
X141508074Y-87986090D01*
X141496455Y-88000593D01*
X141427659Y-88119033D01*
X141420817Y-88136312D01*
X141389889Y-88269745D01*
X141388431Y-88288272D01*
X141367500Y-88288272D01*
X141367500Y-87970000D01*
X141349194Y-87925806D01*
X141305000Y-87907500D01*
X140630000Y-87907500D01*
X140585806Y-87925806D01*
X140567500Y-87970000D01*
X140567500Y-89159419D01*
X140392253Y-89159419D01*
X140392500Y-89156408D01*
X140392500Y-87970000D01*
X140374194Y-87925806D01*
X140330000Y-87907500D01*
X139655000Y-87907500D01*
X139610806Y-87925806D01*
X139592500Y-87970000D01*
X139592500Y-88389783D01*
X117489500Y-88389783D01*
X117489500Y-87556409D01*
X130974970Y-87556409D01*
X130992586Y-87667634D01*
X130998629Y-87686232D01*
X131049754Y-87786569D01*
X131061248Y-87802388D01*
X131140876Y-87882016D01*
X131156695Y-87893510D01*
X131257032Y-87944635D01*
X131275630Y-87950678D01*
X131386855Y-87968294D01*
X131406409Y-87968294D01*
X131517634Y-87950678D01*
X131536232Y-87944635D01*
X131636569Y-87893510D01*
X131652388Y-87882016D01*
X131732016Y-87802388D01*
X131743510Y-87786569D01*
X131794635Y-87686232D01*
X131799909Y-87670000D01*
X139592500Y-87670000D01*
X139610806Y-87714194D01*
X139655000Y-87732500D01*
X140330000Y-87732500D01*
X140374194Y-87714194D01*
X140392500Y-87670000D01*
X140567500Y-87670000D01*
X140585806Y-87714194D01*
X140630000Y-87732500D01*
X141305000Y-87732500D01*
X141349194Y-87714194D01*
X141367500Y-87670000D01*
X148232500Y-87670000D01*
X148250806Y-87714194D01*
X148295000Y-87732500D01*
X148970000Y-87732500D01*
X149014194Y-87714194D01*
X149032500Y-87670000D01*
X149207500Y-87670000D01*
X149225806Y-87714194D01*
X149270000Y-87732500D01*
X149945000Y-87732500D01*
X149989194Y-87714194D01*
X150007500Y-87670000D01*
X150007500Y-87250217D01*
X150007134Y-87243467D01*
X150003474Y-87209777D01*
X150178338Y-87209777D01*
X150195954Y-87321002D01*
X150201997Y-87339600D01*
X150253122Y-87439937D01*
X150264616Y-87455756D01*
X150344244Y-87535384D01*
X150360063Y-87546878D01*
X150460400Y-87598003D01*
X150478998Y-87604046D01*
X150590223Y-87621662D01*
X150609777Y-87621662D01*
X150721002Y-87604046D01*
X150739600Y-87598003D01*
X150839937Y-87546878D01*
X150855756Y-87535384D01*
X150935384Y-87455756D01*
X150946878Y-87439937D01*
X150998003Y-87339600D01*
X151004046Y-87321002D01*
X151021662Y-87209777D01*
X151021662Y-87190223D01*
X151004046Y-87078998D01*
X150998003Y-87060400D01*
X150946878Y-86960063D01*
X150935384Y-86944244D01*
X150855756Y-86864616D01*
X150839937Y-86853122D01*
X150739600Y-86801997D01*
X150721002Y-86795954D01*
X150609777Y-86778338D01*
X150590223Y-86778338D01*
X150478998Y-86795954D01*
X150460400Y-86801997D01*
X150360063Y-86853122D01*
X150344244Y-86864616D01*
X150264616Y-86944244D01*
X150253122Y-86960063D01*
X150201997Y-87060400D01*
X150195954Y-87078998D01*
X150178338Y-87190223D01*
X150178338Y-87209777D01*
X150003474Y-87209777D01*
X149992640Y-87110049D01*
X149989742Y-87096864D01*
X149932569Y-86926976D01*
X149926906Y-86914721D01*
X149834585Y-86761074D01*
X149826423Y-86750321D01*
X149703263Y-86620083D01*
X149692982Y-86611333D01*
X149544728Y-86510580D01*
X149532809Y-86504243D01*
X149366378Y-86437675D01*
X149353375Y-86434044D01*
X149280208Y-86421931D01*
X149233618Y-86432773D01*
X149208339Y-86473384D01*
X149207500Y-86483592D01*
X149207500Y-87670000D01*
X149032500Y-87670000D01*
X149032500Y-86480581D01*
X149014194Y-86436387D01*
X148970000Y-86418081D01*
X148953403Y-86420325D01*
X148797909Y-86463155D01*
X148785357Y-86468125D01*
X148626796Y-86551725D01*
X148615604Y-86559274D01*
X148478694Y-86674972D01*
X148469384Y-86684748D01*
X148360512Y-86827147D01*
X148353519Y-86838694D01*
X148277765Y-87001149D01*
X148273414Y-87013929D01*
X148234312Y-87188862D01*
X148232904Y-87199007D01*
X148232597Y-87204498D01*
X148232500Y-87207987D01*
X148232500Y-87670000D01*
X141367500Y-87670000D01*
X141367500Y-87250217D01*
X141367134Y-87243467D01*
X141352640Y-87110049D01*
X141349742Y-87096864D01*
X141292569Y-86926976D01*
X141286906Y-86914721D01*
X141194585Y-86761074D01*
X141186423Y-86750321D01*
X141063263Y-86620083D01*
X141052982Y-86611333D01*
X140904728Y-86510580D01*
X140892809Y-86504243D01*
X140726378Y-86437675D01*
X140713375Y-86434044D01*
X140640208Y-86421931D01*
X140593618Y-86432773D01*
X140568339Y-86473384D01*
X140567500Y-86483592D01*
X140567500Y-87670000D01*
X140392500Y-87670000D01*
X140392500Y-86480581D01*
X140374194Y-86436387D01*
X140330000Y-86418081D01*
X140313403Y-86420325D01*
X140157909Y-86463155D01*
X140145357Y-86468125D01*
X139986796Y-86551725D01*
X139975604Y-86559274D01*
X139838694Y-86674972D01*
X139829384Y-86684748D01*
X139720512Y-86827147D01*
X139713519Y-86838694D01*
X139637765Y-87001149D01*
X139633414Y-87013929D01*
X139594312Y-87188862D01*
X139592904Y-87199007D01*
X139592597Y-87204498D01*
X139592500Y-87207987D01*
X139592500Y-87670000D01*
X131799909Y-87670000D01*
X131800678Y-87667634D01*
X131818294Y-87556409D01*
X131818294Y-87536855D01*
X131800678Y-87425630D01*
X131794635Y-87407032D01*
X131743510Y-87306695D01*
X131732016Y-87290876D01*
X131652388Y-87211248D01*
X131636569Y-87199754D01*
X131536232Y-87148629D01*
X131517634Y-87142586D01*
X131406409Y-87124970D01*
X131386855Y-87124970D01*
X131275630Y-87142586D01*
X131257032Y-87148629D01*
X131156695Y-87199754D01*
X131140876Y-87211248D01*
X131061248Y-87290876D01*
X131049754Y-87306695D01*
X130998629Y-87407032D01*
X130992586Y-87425630D01*
X130974970Y-87536855D01*
X130974970Y-87556409D01*
X117489500Y-87556409D01*
X117489500Y-86809777D01*
X137478338Y-86809777D01*
X137495954Y-86921002D01*
X137501997Y-86939600D01*
X137553122Y-87039937D01*
X137564616Y-87055756D01*
X137644244Y-87135384D01*
X137660063Y-87146878D01*
X137760400Y-87198003D01*
X137778998Y-87204046D01*
X137890223Y-87221662D01*
X137909777Y-87221662D01*
X138021002Y-87204046D01*
X138039600Y-87198003D01*
X138139937Y-87146878D01*
X138155756Y-87135384D01*
X138235384Y-87055756D01*
X138246878Y-87039937D01*
X138298003Y-86939600D01*
X138304046Y-86921002D01*
X138321662Y-86809777D01*
X138321662Y-86790223D01*
X138304046Y-86678998D01*
X138298003Y-86660400D01*
X138246878Y-86560063D01*
X138235384Y-86544244D01*
X138155756Y-86464616D01*
X138139937Y-86453122D01*
X138039600Y-86401997D01*
X138021002Y-86395954D01*
X137909777Y-86378338D01*
X137890223Y-86378338D01*
X137778998Y-86395954D01*
X137760400Y-86401997D01*
X137660063Y-86453122D01*
X137644244Y-86464616D01*
X137564616Y-86544244D01*
X137553122Y-86560063D01*
X137501997Y-86660400D01*
X137495954Y-86678998D01*
X137478338Y-86790223D01*
X137478338Y-86809777D01*
X117489500Y-86809777D01*
X117489500Y-82908840D01*
X117552428Y-82908840D01*
X117567086Y-83258582D01*
X117567767Y-83265527D01*
X117621320Y-83611455D01*
X117622770Y-83618280D01*
X117714549Y-83956083D01*
X117716752Y-83962704D01*
X117845614Y-84288172D01*
X117848541Y-84294506D01*
X118012879Y-84603581D01*
X118016493Y-84609549D01*
X118214259Y-84898379D01*
X118218517Y-84903908D01*
X118447246Y-85168894D01*
X118452093Y-85173913D01*
X118708935Y-85411751D01*
X118714311Y-85416199D01*
X118996063Y-85623924D01*
X119001902Y-85627745D01*
X119305054Y-85802770D01*
X119311282Y-85805916D01*
X119632054Y-85946058D01*
X119638594Y-85948490D01*
X119972988Y-86052002D01*
X119979759Y-86053690D01*
X120323608Y-86119283D01*
X120330524Y-86120206D01*
X120679541Y-86147061D01*
X120686517Y-86147207D01*
X121036353Y-86134991D01*
X121043302Y-86134359D01*
X121389596Y-86083223D01*
X121396431Y-86081819D01*
X121479856Y-86059777D01*
X128778338Y-86059777D01*
X128795954Y-86171002D01*
X128801997Y-86189600D01*
X128853122Y-86289937D01*
X128864616Y-86305756D01*
X128944244Y-86385384D01*
X128960063Y-86396878D01*
X129060400Y-86448003D01*
X129078998Y-86454046D01*
X129190223Y-86471662D01*
X129209777Y-86471662D01*
X129321002Y-86454046D01*
X129339600Y-86448003D01*
X129439937Y-86396878D01*
X129455756Y-86385384D01*
X129535384Y-86305756D01*
X129546878Y-86289937D01*
X129562246Y-86259777D01*
X139128338Y-86259777D01*
X139145954Y-86371002D01*
X139151997Y-86389600D01*
X139203122Y-86489937D01*
X139214616Y-86505756D01*
X139294244Y-86585384D01*
X139310063Y-86596878D01*
X139410400Y-86648003D01*
X139428998Y-86654046D01*
X139540223Y-86671662D01*
X139559777Y-86671662D01*
X139671002Y-86654046D01*
X139689600Y-86648003D01*
X139789937Y-86596878D01*
X139805756Y-86585384D01*
X139885384Y-86505756D01*
X139896878Y-86489937D01*
X139948003Y-86389600D01*
X139954046Y-86371002D01*
X139971662Y-86259777D01*
X139971662Y-86240223D01*
X139954046Y-86128998D01*
X139948003Y-86110400D01*
X139896878Y-86010063D01*
X139896670Y-86009777D01*
X142578338Y-86009777D01*
X142595954Y-86121002D01*
X142601997Y-86139600D01*
X142653122Y-86239937D01*
X142664616Y-86255756D01*
X142744244Y-86335384D01*
X142760063Y-86346878D01*
X142860400Y-86398003D01*
X142878998Y-86404046D01*
X142990223Y-86421662D01*
X143009777Y-86421662D01*
X143121002Y-86404046D01*
X143139600Y-86398003D01*
X143239937Y-86346878D01*
X143255756Y-86335384D01*
X143335384Y-86255756D01*
X143346878Y-86239937D01*
X143387722Y-86159777D01*
X151128338Y-86159777D01*
X151145954Y-86271002D01*
X151151997Y-86289600D01*
X151203122Y-86389937D01*
X151214616Y-86405756D01*
X151294244Y-86485384D01*
X151310063Y-86496878D01*
X151410400Y-86548003D01*
X151428998Y-86554046D01*
X151537612Y-86571248D01*
X151514616Y-86594244D01*
X151503122Y-86610063D01*
X151451997Y-86710400D01*
X151445954Y-86728998D01*
X151428338Y-86840223D01*
X151428338Y-86859777D01*
X151445954Y-86971002D01*
X151451997Y-86989600D01*
X151503122Y-87089937D01*
X151514616Y-87105756D01*
X151594244Y-87185384D01*
X151610063Y-87196878D01*
X151710400Y-87248003D01*
X151728998Y-87254046D01*
X151840223Y-87271662D01*
X151859777Y-87271662D01*
X151971002Y-87254046D01*
X151989600Y-87248003D01*
X152089937Y-87196878D01*
X152105756Y-87185384D01*
X152185384Y-87105756D01*
X152196878Y-87089937D01*
X152248003Y-86989600D01*
X152254046Y-86971002D01*
X152255824Y-86959777D01*
X157128338Y-86959777D01*
X157145954Y-87071002D01*
X157151997Y-87089600D01*
X157203122Y-87189937D01*
X157214616Y-87205756D01*
X157294244Y-87285384D01*
X157310063Y-87296878D01*
X157410400Y-87348003D01*
X157428998Y-87354046D01*
X157540223Y-87371662D01*
X157559777Y-87371662D01*
X157671002Y-87354046D01*
X157689600Y-87348003D01*
X157789937Y-87296878D01*
X157805756Y-87285384D01*
X157885384Y-87205756D01*
X157896878Y-87189937D01*
X157948003Y-87089600D01*
X157954046Y-87071002D01*
X157971662Y-86959777D01*
X157971662Y-86940223D01*
X157954046Y-86828998D01*
X157948003Y-86810400D01*
X157896878Y-86710063D01*
X157885384Y-86694244D01*
X157805756Y-86614616D01*
X157789937Y-86603122D01*
X157689600Y-86551997D01*
X157671002Y-86545954D01*
X157559777Y-86528338D01*
X157540223Y-86528338D01*
X157428998Y-86545954D01*
X157410400Y-86551997D01*
X157310063Y-86603122D01*
X157294244Y-86614616D01*
X157214616Y-86694244D01*
X157203122Y-86710063D01*
X157151997Y-86810400D01*
X157145954Y-86828998D01*
X157128338Y-86940223D01*
X157128338Y-86959777D01*
X152255824Y-86959777D01*
X152271662Y-86859777D01*
X152271662Y-86840223D01*
X152254046Y-86728998D01*
X152248003Y-86710400D01*
X152196878Y-86610063D01*
X152185384Y-86594244D01*
X152105756Y-86514616D01*
X152089937Y-86503122D01*
X151989600Y-86451997D01*
X151971002Y-86445954D01*
X151862388Y-86428752D01*
X151885384Y-86405756D01*
X151896878Y-86389937D01*
X151948003Y-86289600D01*
X151954046Y-86271002D01*
X151971662Y-86159777D01*
X151971662Y-86140223D01*
X151954046Y-86028998D01*
X151948003Y-86010400D01*
X151896878Y-85910063D01*
X151885384Y-85894244D01*
X151805756Y-85814616D01*
X151789937Y-85803122D01*
X151689600Y-85751997D01*
X151671002Y-85745954D01*
X151559777Y-85728338D01*
X151540223Y-85728338D01*
X151428998Y-85745954D01*
X151410400Y-85751997D01*
X151310063Y-85803122D01*
X151294244Y-85814616D01*
X151214616Y-85894244D01*
X151203122Y-85910063D01*
X151151997Y-86010400D01*
X151145954Y-86028998D01*
X151128338Y-86140223D01*
X151128338Y-86159777D01*
X143387722Y-86159777D01*
X143398003Y-86139600D01*
X143404046Y-86121002D01*
X143421662Y-86009777D01*
X143421662Y-85990223D01*
X143404046Y-85878998D01*
X143398003Y-85860400D01*
X143346878Y-85760063D01*
X143335384Y-85744244D01*
X143255756Y-85664616D01*
X143239937Y-85653122D01*
X143139600Y-85601997D01*
X143121002Y-85595954D01*
X143009777Y-85578338D01*
X142990223Y-85578338D01*
X142878998Y-85595954D01*
X142860400Y-85601997D01*
X142760063Y-85653122D01*
X142744244Y-85664616D01*
X142664616Y-85744244D01*
X142653122Y-85760063D01*
X142601997Y-85860400D01*
X142595954Y-85878998D01*
X142578338Y-85990223D01*
X142578338Y-86009777D01*
X139896670Y-86009777D01*
X139885384Y-85994244D01*
X139805756Y-85914616D01*
X139789937Y-85903122D01*
X139689600Y-85851997D01*
X139671002Y-85845954D01*
X139559777Y-85828338D01*
X139540223Y-85828338D01*
X139428998Y-85845954D01*
X139410400Y-85851997D01*
X139310063Y-85903122D01*
X139294244Y-85914616D01*
X139214616Y-85994244D01*
X139203122Y-86010063D01*
X139151997Y-86110400D01*
X139145954Y-86128998D01*
X139128338Y-86240223D01*
X139128338Y-86259777D01*
X129562246Y-86259777D01*
X129598003Y-86189600D01*
X129604046Y-86171002D01*
X129621662Y-86059777D01*
X129621662Y-86040223D01*
X129604046Y-85928998D01*
X129598003Y-85910400D01*
X129546878Y-85810063D01*
X129535384Y-85794244D01*
X129455756Y-85714616D01*
X129439937Y-85703122D01*
X129339600Y-85651997D01*
X129321002Y-85645954D01*
X129209777Y-85628338D01*
X129190223Y-85628338D01*
X129078998Y-85645954D01*
X129060400Y-85651997D01*
X128960063Y-85703122D01*
X128944244Y-85714616D01*
X128864616Y-85794244D01*
X128853122Y-85810063D01*
X128801997Y-85910400D01*
X128795954Y-85928998D01*
X128778338Y-86040223D01*
X128778338Y-86059777D01*
X121479856Y-86059777D01*
X121734867Y-85992400D01*
X121741503Y-85990244D01*
X122067862Y-85863658D01*
X122074217Y-85860776D01*
X122384432Y-85698599D01*
X122390426Y-85695026D01*
X122516813Y-85609777D01*
X125728338Y-85609777D01*
X125745954Y-85721002D01*
X125751997Y-85739600D01*
X125803122Y-85839937D01*
X125814616Y-85855756D01*
X125894244Y-85935384D01*
X125910063Y-85946878D01*
X126010400Y-85998003D01*
X126028998Y-86004046D01*
X126140223Y-86021662D01*
X126159777Y-86021662D01*
X126271002Y-86004046D01*
X126289600Y-85998003D01*
X126389937Y-85946878D01*
X126405756Y-85935384D01*
X126485384Y-85855756D01*
X126496878Y-85839937D01*
X126548003Y-85739600D01*
X126554046Y-85721002D01*
X126571662Y-85609777D01*
X136478338Y-85609777D01*
X136495954Y-85721002D01*
X136501997Y-85739600D01*
X136553122Y-85839937D01*
X136564616Y-85855756D01*
X136644244Y-85935384D01*
X136660063Y-85946878D01*
X136760400Y-85998003D01*
X136778998Y-86004046D01*
X136890223Y-86021662D01*
X136909777Y-86021662D01*
X137021002Y-86004046D01*
X137039600Y-85998003D01*
X137139937Y-85946878D01*
X137155756Y-85935384D01*
X137235384Y-85855756D01*
X137246878Y-85839937D01*
X137298003Y-85739600D01*
X137304046Y-85721002D01*
X137321662Y-85609777D01*
X137321662Y-85590223D01*
X137304046Y-85478998D01*
X137298003Y-85460400D01*
X137246878Y-85360063D01*
X137235384Y-85344244D01*
X137155756Y-85264616D01*
X137139937Y-85253122D01*
X137039600Y-85201997D01*
X137021002Y-85195954D01*
X136909777Y-85178338D01*
X136890223Y-85178338D01*
X136778998Y-85195954D01*
X136760400Y-85201997D01*
X136660063Y-85253122D01*
X136644244Y-85264616D01*
X136564616Y-85344244D01*
X136553122Y-85360063D01*
X136501997Y-85460400D01*
X136495954Y-85478998D01*
X136478338Y-85590223D01*
X136478338Y-85609777D01*
X126571662Y-85609777D01*
X126571662Y-85590223D01*
X126554046Y-85478998D01*
X126548003Y-85460400D01*
X126496878Y-85360063D01*
X126485384Y-85344244D01*
X126405756Y-85264616D01*
X126389937Y-85253122D01*
X126289600Y-85201997D01*
X126271002Y-85195954D01*
X126159777Y-85178338D01*
X126140223Y-85178338D01*
X126028998Y-85195954D01*
X126010400Y-85201997D01*
X125910063Y-85253122D01*
X125894244Y-85264616D01*
X125814616Y-85344244D01*
X125803122Y-85360063D01*
X125751997Y-85460400D01*
X125745954Y-85478998D01*
X125728338Y-85590223D01*
X125728338Y-85609777D01*
X122516813Y-85609777D01*
X122680630Y-85499281D01*
X122686187Y-85495062D01*
X122952763Y-85268188D01*
X122957817Y-85263376D01*
X123197442Y-85008201D01*
X123201927Y-85002856D01*
X123411615Y-84722561D01*
X123415476Y-84716749D01*
X123592612Y-84414827D01*
X123595802Y-84408621D01*
X123738180Y-84088835D01*
X123740657Y-84082312D01*
X123747806Y-84059777D01*
X140578338Y-84059777D01*
X140595954Y-84171002D01*
X140601997Y-84189600D01*
X140653122Y-84289937D01*
X140664616Y-84305756D01*
X140744244Y-84385384D01*
X140760063Y-84396878D01*
X140860400Y-84448003D01*
X140878998Y-84454046D01*
X140990223Y-84471662D01*
X141009777Y-84471662D01*
X141121002Y-84454046D01*
X141139600Y-84448003D01*
X141239937Y-84396878D01*
X141255756Y-84385384D01*
X141335384Y-84305756D01*
X141346878Y-84289937D01*
X141398003Y-84189600D01*
X141404046Y-84171002D01*
X141405824Y-84159777D01*
X144228338Y-84159777D01*
X144245954Y-84271002D01*
X144251997Y-84289600D01*
X144303122Y-84389937D01*
X144314616Y-84405756D01*
X144394244Y-84485384D01*
X144410063Y-84496878D01*
X144510400Y-84548003D01*
X144528998Y-84554046D01*
X144640223Y-84571662D01*
X144659777Y-84571662D01*
X144771002Y-84554046D01*
X144789600Y-84548003D01*
X144889937Y-84496878D01*
X144905756Y-84485384D01*
X144985384Y-84405756D01*
X144996878Y-84389937D01*
X145048003Y-84289600D01*
X145054046Y-84271002D01*
X145071662Y-84159777D01*
X145071662Y-84140223D01*
X145054046Y-84028998D01*
X145048003Y-84010400D01*
X144996878Y-83910063D01*
X144985384Y-83894244D01*
X144905756Y-83814616D01*
X144889937Y-83803122D01*
X144804869Y-83759777D01*
X146678338Y-83759777D01*
X146695954Y-83871002D01*
X146701997Y-83889600D01*
X146753122Y-83989937D01*
X146764616Y-84005756D01*
X146844244Y-84085384D01*
X146860063Y-84096878D01*
X146960400Y-84148003D01*
X146978998Y-84154046D01*
X147090223Y-84171662D01*
X147109777Y-84171662D01*
X147221002Y-84154046D01*
X147239600Y-84148003D01*
X147339937Y-84096878D01*
X147355756Y-84085384D01*
X147435384Y-84005756D01*
X147446878Y-83989937D01*
X147492646Y-83900114D01*
X147495954Y-83921002D01*
X147501997Y-83939600D01*
X147553122Y-84039937D01*
X147564616Y-84055756D01*
X147644244Y-84135384D01*
X147660063Y-84146878D01*
X147760400Y-84198003D01*
X147778998Y-84204046D01*
X147890223Y-84221662D01*
X147909777Y-84221662D01*
X148021002Y-84204046D01*
X148039600Y-84198003D01*
X148139937Y-84146878D01*
X148155756Y-84135384D01*
X148235384Y-84055756D01*
X148246878Y-84039937D01*
X148298003Y-83939600D01*
X148304046Y-83921002D01*
X148313743Y-83859777D01*
X148328338Y-83859777D01*
X148345954Y-83971002D01*
X148351997Y-83989600D01*
X148403122Y-84089937D01*
X148414616Y-84105756D01*
X148494244Y-84185384D01*
X148510063Y-84196878D01*
X148610400Y-84248003D01*
X148628998Y-84254046D01*
X148740223Y-84271662D01*
X148759777Y-84271662D01*
X148871002Y-84254046D01*
X148889600Y-84248003D01*
X148989937Y-84196878D01*
X149005756Y-84185384D01*
X149078096Y-84113044D01*
X150630574Y-84113044D01*
X150648190Y-84224269D01*
X150654233Y-84242867D01*
X150705358Y-84343204D01*
X150716852Y-84359023D01*
X150796480Y-84438651D01*
X150812299Y-84450145D01*
X150912636Y-84501270D01*
X150931234Y-84507313D01*
X151042459Y-84524929D01*
X151062013Y-84524929D01*
X151173238Y-84507313D01*
X151191836Y-84501270D01*
X151292173Y-84450145D01*
X151307992Y-84438651D01*
X151386866Y-84359777D01*
X157328338Y-84359777D01*
X157345954Y-84471002D01*
X157351997Y-84489600D01*
X157403122Y-84589937D01*
X157414616Y-84605756D01*
X157494244Y-84685384D01*
X157510063Y-84696878D01*
X157610400Y-84748003D01*
X157628998Y-84754046D01*
X157740223Y-84771662D01*
X157759777Y-84771662D01*
X157871002Y-84754046D01*
X157889600Y-84748003D01*
X157989937Y-84696878D01*
X158005756Y-84685384D01*
X158085384Y-84605756D01*
X158096878Y-84589937D01*
X158148003Y-84489600D01*
X158154046Y-84471002D01*
X158171662Y-84359777D01*
X158171662Y-84340223D01*
X158154046Y-84228998D01*
X158148003Y-84210400D01*
X158096878Y-84110063D01*
X158085384Y-84094244D01*
X158005756Y-84014616D01*
X157989937Y-84003122D01*
X157889600Y-83951997D01*
X157871002Y-83945954D01*
X157759777Y-83928338D01*
X157740223Y-83928338D01*
X157628998Y-83945954D01*
X157610400Y-83951997D01*
X157510063Y-84003122D01*
X157494244Y-84014616D01*
X157414616Y-84094244D01*
X157403122Y-84110063D01*
X157351997Y-84210400D01*
X157345954Y-84228998D01*
X157328338Y-84340223D01*
X157328338Y-84359777D01*
X151386866Y-84359777D01*
X151387620Y-84359023D01*
X151399114Y-84343204D01*
X151450239Y-84242867D01*
X151456282Y-84224269D01*
X151473898Y-84113044D01*
X151473898Y-84093490D01*
X151456282Y-83982265D01*
X151450239Y-83963667D01*
X151438321Y-83940277D01*
X156578338Y-83940277D01*
X156595954Y-84051502D01*
X156601997Y-84070100D01*
X156653122Y-84170437D01*
X156664616Y-84186256D01*
X156744244Y-84265884D01*
X156760063Y-84277378D01*
X156860400Y-84328503D01*
X156878998Y-84334546D01*
X156990223Y-84352162D01*
X157009777Y-84352162D01*
X157121002Y-84334546D01*
X157139600Y-84328503D01*
X157239937Y-84277378D01*
X157255756Y-84265884D01*
X157335384Y-84186256D01*
X157346878Y-84170437D01*
X157398003Y-84070100D01*
X157404046Y-84051502D01*
X157421662Y-83940277D01*
X157421662Y-83920723D01*
X157404046Y-83809498D01*
X157398003Y-83790900D01*
X157346878Y-83690563D01*
X157335384Y-83674744D01*
X157255756Y-83595116D01*
X157239937Y-83583622D01*
X157139600Y-83532497D01*
X157121002Y-83526454D01*
X157009777Y-83508838D01*
X156990223Y-83508838D01*
X156878998Y-83526454D01*
X156860400Y-83532497D01*
X156760063Y-83583622D01*
X156744244Y-83595116D01*
X156664616Y-83674744D01*
X156653122Y-83690563D01*
X156601997Y-83790900D01*
X156595954Y-83809498D01*
X156578338Y-83920723D01*
X156578338Y-83940277D01*
X151438321Y-83940277D01*
X151399114Y-83863330D01*
X151387620Y-83847511D01*
X151307992Y-83767883D01*
X151292173Y-83756389D01*
X151191836Y-83705264D01*
X151173238Y-83699221D01*
X151062013Y-83681605D01*
X151042459Y-83681605D01*
X150931234Y-83699221D01*
X150912636Y-83705264D01*
X150812299Y-83756389D01*
X150796480Y-83767883D01*
X150716852Y-83847511D01*
X150705358Y-83863330D01*
X150654233Y-83963667D01*
X150648190Y-83982265D01*
X150630574Y-84093490D01*
X150630574Y-84113044D01*
X149078096Y-84113044D01*
X149085384Y-84105756D01*
X149096878Y-84089937D01*
X149148003Y-83989600D01*
X149154046Y-83971002D01*
X149171662Y-83859777D01*
X149171662Y-83840223D01*
X149154046Y-83728998D01*
X149148003Y-83710400D01*
X149096878Y-83610063D01*
X149096670Y-83609777D01*
X149378338Y-83609777D01*
X149395954Y-83721002D01*
X149401997Y-83739600D01*
X149453122Y-83839937D01*
X149464616Y-83855756D01*
X149544244Y-83935384D01*
X149560063Y-83946878D01*
X149660400Y-83998003D01*
X149678998Y-84004046D01*
X149790223Y-84021662D01*
X149809777Y-84021662D01*
X149921002Y-84004046D01*
X149939600Y-83998003D01*
X150039937Y-83946878D01*
X150055756Y-83935384D01*
X150135384Y-83855756D01*
X150146878Y-83839937D01*
X150198003Y-83739600D01*
X150204046Y-83721002D01*
X150221662Y-83609777D01*
X150221662Y-83590223D01*
X150204046Y-83478998D01*
X150198003Y-83460400D01*
X150146878Y-83360063D01*
X150135384Y-83344244D01*
X150055756Y-83264616D01*
X150039937Y-83253122D01*
X149939600Y-83201997D01*
X149921002Y-83195954D01*
X149809777Y-83178338D01*
X149790223Y-83178338D01*
X149678998Y-83195954D01*
X149660400Y-83201997D01*
X149560063Y-83253122D01*
X149544244Y-83264616D01*
X149464616Y-83344244D01*
X149453122Y-83360063D01*
X149401997Y-83460400D01*
X149395954Y-83478998D01*
X149378338Y-83590223D01*
X149378338Y-83609777D01*
X149096670Y-83609777D01*
X149085384Y-83594244D01*
X149005756Y-83514616D01*
X148989937Y-83503122D01*
X148889600Y-83451997D01*
X148871002Y-83445954D01*
X148759777Y-83428338D01*
X148740223Y-83428338D01*
X148628998Y-83445954D01*
X148610400Y-83451997D01*
X148510063Y-83503122D01*
X148494244Y-83514616D01*
X148414616Y-83594244D01*
X148403122Y-83610063D01*
X148351997Y-83710400D01*
X148345954Y-83728998D01*
X148328338Y-83840223D01*
X148328338Y-83859777D01*
X148313743Y-83859777D01*
X148321662Y-83809777D01*
X148321662Y-83790223D01*
X148304046Y-83678998D01*
X148298003Y-83660400D01*
X148246878Y-83560063D01*
X148235384Y-83544244D01*
X148155756Y-83464616D01*
X148139937Y-83453122D01*
X148039600Y-83401997D01*
X148021002Y-83395954D01*
X147909777Y-83378338D01*
X147890223Y-83378338D01*
X147778998Y-83395954D01*
X147760400Y-83401997D01*
X147660063Y-83453122D01*
X147644244Y-83464616D01*
X147564616Y-83544244D01*
X147553122Y-83560063D01*
X147507354Y-83649886D01*
X147504046Y-83628998D01*
X147498003Y-83610400D01*
X147446878Y-83510063D01*
X147435384Y-83494244D01*
X147355756Y-83414616D01*
X147339937Y-83403122D01*
X147239600Y-83351997D01*
X147221002Y-83345954D01*
X147109777Y-83328338D01*
X147090223Y-83328338D01*
X146978998Y-83345954D01*
X146960400Y-83351997D01*
X146860063Y-83403122D01*
X146844244Y-83414616D01*
X146764616Y-83494244D01*
X146753122Y-83510063D01*
X146701997Y-83610400D01*
X146695954Y-83628998D01*
X146678338Y-83740223D01*
X146678338Y-83759777D01*
X144804869Y-83759777D01*
X144789600Y-83751997D01*
X144771002Y-83745954D01*
X144659777Y-83728338D01*
X144640223Y-83728338D01*
X144528998Y-83745954D01*
X144510400Y-83751997D01*
X144410063Y-83803122D01*
X144394244Y-83814616D01*
X144314616Y-83894244D01*
X144303122Y-83910063D01*
X144251997Y-84010400D01*
X144245954Y-84028998D01*
X144228338Y-84140223D01*
X144228338Y-84159777D01*
X141405824Y-84159777D01*
X141421662Y-84059777D01*
X141421662Y-84040223D01*
X141404046Y-83928998D01*
X141398003Y-83910400D01*
X141346878Y-83810063D01*
X141335384Y-83794244D01*
X141255756Y-83714616D01*
X141239937Y-83703122D01*
X141139600Y-83651997D01*
X141121002Y-83645954D01*
X141009777Y-83628338D01*
X140990223Y-83628338D01*
X140878998Y-83645954D01*
X140860400Y-83651997D01*
X140760063Y-83703122D01*
X140744244Y-83714616D01*
X140664616Y-83794244D01*
X140653122Y-83810063D01*
X140601997Y-83910400D01*
X140595954Y-83928998D01*
X140578338Y-84040223D01*
X140578338Y-84059777D01*
X123747806Y-84059777D01*
X123846502Y-83748648D01*
X123848238Y-83741890D01*
X123913998Y-83409777D01*
X130778338Y-83409777D01*
X130795954Y-83521002D01*
X130801997Y-83539600D01*
X130853122Y-83639937D01*
X130864616Y-83655756D01*
X130944244Y-83735384D01*
X130960063Y-83746878D01*
X131060400Y-83798003D01*
X131078998Y-83804046D01*
X131190223Y-83821662D01*
X131209777Y-83821662D01*
X131321002Y-83804046D01*
X131339600Y-83798003D01*
X131439937Y-83746878D01*
X131455756Y-83735384D01*
X131535384Y-83655756D01*
X131546878Y-83639937D01*
X131598003Y-83539600D01*
X131604046Y-83521002D01*
X131621662Y-83409777D01*
X131621662Y-83390223D01*
X131604046Y-83278998D01*
X131598003Y-83260400D01*
X131597938Y-83260273D01*
X145577812Y-83260273D01*
X145595428Y-83371498D01*
X145601471Y-83390096D01*
X145652596Y-83490433D01*
X145664090Y-83506252D01*
X145743718Y-83585880D01*
X145759537Y-83597374D01*
X145859874Y-83648499D01*
X145878472Y-83654542D01*
X145989697Y-83672158D01*
X146009251Y-83672158D01*
X146120476Y-83654542D01*
X146139074Y-83648499D01*
X146239411Y-83597374D01*
X146255230Y-83585880D01*
X146334858Y-83506252D01*
X146346352Y-83490433D01*
X146397477Y-83390096D01*
X146403520Y-83371498D01*
X146421136Y-83260273D01*
X146421136Y-83240719D01*
X146403520Y-83129494D01*
X146397477Y-83110896D01*
X146346352Y-83010559D01*
X146334858Y-82994740D01*
X146255230Y-82915112D01*
X146246598Y-82908840D01*
X165552428Y-82908840D01*
X165567086Y-83258582D01*
X165567767Y-83265527D01*
X165621320Y-83611455D01*
X165622770Y-83618280D01*
X165714549Y-83956083D01*
X165716752Y-83962704D01*
X165845614Y-84288172D01*
X165848541Y-84294506D01*
X166012879Y-84603581D01*
X166016493Y-84609549D01*
X166214259Y-84898379D01*
X166218517Y-84903908D01*
X166447246Y-85168894D01*
X166452093Y-85173913D01*
X166708935Y-85411751D01*
X166714311Y-85416199D01*
X166996063Y-85623924D01*
X167001902Y-85627745D01*
X167305054Y-85802770D01*
X167311282Y-85805916D01*
X167632054Y-85946058D01*
X167638594Y-85948490D01*
X167972988Y-86052002D01*
X167979759Y-86053690D01*
X168323608Y-86119283D01*
X168330524Y-86120206D01*
X168679541Y-86147061D01*
X168686517Y-86147207D01*
X169036353Y-86134991D01*
X169043302Y-86134359D01*
X169389596Y-86083223D01*
X169396431Y-86081819D01*
X169734867Y-85992400D01*
X169741503Y-85990244D01*
X170067862Y-85863658D01*
X170074217Y-85860776D01*
X170384432Y-85698599D01*
X170390426Y-85695026D01*
X170680630Y-85499281D01*
X170686187Y-85495062D01*
X170952763Y-85268188D01*
X170957817Y-85263376D01*
X171197442Y-85008201D01*
X171201927Y-85002856D01*
X171411615Y-84722561D01*
X171415476Y-84716749D01*
X171592612Y-84414827D01*
X171595802Y-84408621D01*
X171738180Y-84088835D01*
X171740657Y-84082312D01*
X171846502Y-83748648D01*
X171848238Y-83741890D01*
X171916229Y-83398508D01*
X171917200Y-83391598D01*
X171946492Y-83042776D01*
X171946705Y-83038418D01*
X171947927Y-82950872D01*
X171947836Y-82946511D01*
X171928296Y-82597008D01*
X171927518Y-82590074D01*
X171869140Y-82244927D01*
X171867594Y-82238123D01*
X171771108Y-81901634D01*
X171768813Y-81895044D01*
X171635419Y-81571407D01*
X171632404Y-81565114D01*
X171463767Y-81258364D01*
X171460070Y-81252447D01*
X171258290Y-80966406D01*
X171253955Y-80960938D01*
X171021549Y-80699172D01*
X171016633Y-80694220D01*
X170756495Y-80459991D01*
X170751057Y-80455619D01*
X170466432Y-80251847D01*
X170460540Y-80248108D01*
X170154974Y-80077333D01*
X170148703Y-80074275D01*
X169826006Y-79938626D01*
X169819432Y-79936285D01*
X169483625Y-79837452D01*
X169476832Y-79835859D01*
X169132101Y-79775073D01*
X169125172Y-79774246D01*
X168775813Y-79752266D01*
X168768836Y-79752218D01*
X168419205Y-79769318D01*
X168412265Y-79770047D01*
X168066719Y-79826014D01*
X168059905Y-79827512D01*
X167722751Y-79921647D01*
X167716145Y-79923896D01*
X167391585Y-80055026D01*
X167385272Y-80057997D01*
X167077351Y-80224489D01*
X167071407Y-80228145D01*
X166783965Y-80427923D01*
X166778467Y-80432219D01*
X166515084Y-80662793D01*
X166510099Y-80667675D01*
X166274060Y-80926170D01*
X166269649Y-80931578D01*
X166063896Y-81214774D01*
X166060117Y-81220639D01*
X165887213Y-81525005D01*
X165884110Y-81531255D01*
X165746211Y-81852998D01*
X165743825Y-81859554D01*
X165642649Y-82194663D01*
X165641008Y-82201446D01*
X165577818Y-82545744D01*
X165576943Y-82552666D01*
X165552525Y-82901863D01*
X165552428Y-82908840D01*
X146246598Y-82908840D01*
X146239411Y-82903618D01*
X146139074Y-82852493D01*
X146120476Y-82846450D01*
X146009251Y-82828834D01*
X145989697Y-82828834D01*
X145878472Y-82846450D01*
X145859874Y-82852493D01*
X145759537Y-82903618D01*
X145743718Y-82915112D01*
X145664090Y-82994740D01*
X145652596Y-83010559D01*
X145601471Y-83110896D01*
X145595428Y-83129494D01*
X145577812Y-83240719D01*
X145577812Y-83260273D01*
X131597938Y-83260273D01*
X131546878Y-83160063D01*
X131535384Y-83144244D01*
X131455756Y-83064616D01*
X131439937Y-83053122D01*
X131339600Y-83001997D01*
X131321002Y-82995954D01*
X131209777Y-82978338D01*
X131190223Y-82978338D01*
X131078998Y-82995954D01*
X131060400Y-83001997D01*
X130960063Y-83053122D01*
X130944244Y-83064616D01*
X130864616Y-83144244D01*
X130853122Y-83160063D01*
X130801997Y-83260400D01*
X130795954Y-83278998D01*
X130778338Y-83390223D01*
X130778338Y-83409777D01*
X123913998Y-83409777D01*
X123916229Y-83398508D01*
X123917200Y-83391598D01*
X123946492Y-83042776D01*
X123946705Y-83038418D01*
X123947927Y-82950872D01*
X123947836Y-82946511D01*
X123928296Y-82597008D01*
X123927518Y-82590074D01*
X123879432Y-82305777D01*
X132420338Y-82305777D01*
X132437954Y-82417002D01*
X132443997Y-82435600D01*
X132495122Y-82535937D01*
X132506616Y-82551756D01*
X132586244Y-82631384D01*
X132602063Y-82642878D01*
X132702400Y-82694003D01*
X132720998Y-82700046D01*
X132832223Y-82717662D01*
X132851777Y-82717662D01*
X132963002Y-82700046D01*
X132981600Y-82694003D01*
X133081937Y-82642878D01*
X133097756Y-82631384D01*
X133177384Y-82551756D01*
X133188878Y-82535937D01*
X133227684Y-82459777D01*
X133928338Y-82459777D01*
X133945954Y-82571002D01*
X133951997Y-82589600D01*
X134003122Y-82689937D01*
X134014616Y-82705756D01*
X134094244Y-82785384D01*
X134110063Y-82796878D01*
X134210400Y-82848003D01*
X134228998Y-82854046D01*
X134340223Y-82871662D01*
X134359777Y-82871662D01*
X134471002Y-82854046D01*
X134489600Y-82848003D01*
X134589937Y-82796878D01*
X134605756Y-82785384D01*
X134681363Y-82709777D01*
X142728338Y-82709777D01*
X142745954Y-82821002D01*
X142751997Y-82839600D01*
X142803122Y-82939937D01*
X142814616Y-82955756D01*
X142894244Y-83035384D01*
X142910063Y-83046878D01*
X143010400Y-83098003D01*
X143028998Y-83104046D01*
X143140223Y-83121662D01*
X143159777Y-83121662D01*
X143271002Y-83104046D01*
X143289600Y-83098003D01*
X143389937Y-83046878D01*
X143405756Y-83035384D01*
X143485384Y-82955756D01*
X143496878Y-82939937D01*
X143548003Y-82839600D01*
X143554046Y-82821002D01*
X143571662Y-82709777D01*
X143571662Y-82690223D01*
X143554046Y-82578998D01*
X143548003Y-82560400D01*
X143496878Y-82460063D01*
X143485384Y-82444244D01*
X143405756Y-82364616D01*
X143389937Y-82353122D01*
X143289600Y-82301997D01*
X143271002Y-82295954D01*
X143159777Y-82278338D01*
X143140223Y-82278338D01*
X143028998Y-82295954D01*
X143010400Y-82301997D01*
X142910063Y-82353122D01*
X142894244Y-82364616D01*
X142814616Y-82444244D01*
X142803122Y-82460063D01*
X142751997Y-82560400D01*
X142745954Y-82578998D01*
X142728338Y-82690223D01*
X142728338Y-82709777D01*
X134681363Y-82709777D01*
X134685384Y-82705756D01*
X134696878Y-82689937D01*
X134748003Y-82589600D01*
X134754046Y-82571002D01*
X134771662Y-82459777D01*
X134771662Y-82440223D01*
X134754046Y-82328998D01*
X134748003Y-82310400D01*
X134696878Y-82210063D01*
X134685384Y-82194244D01*
X134605756Y-82114616D01*
X134589937Y-82103122D01*
X134489600Y-82051997D01*
X134471002Y-82045954D01*
X134359777Y-82028338D01*
X134340223Y-82028338D01*
X134228998Y-82045954D01*
X134210400Y-82051997D01*
X134110063Y-82103122D01*
X134094244Y-82114616D01*
X134014616Y-82194244D01*
X134003122Y-82210063D01*
X133951997Y-82310400D01*
X133945954Y-82328998D01*
X133928338Y-82440223D01*
X133928338Y-82459777D01*
X133227684Y-82459777D01*
X133240003Y-82435600D01*
X133246046Y-82417002D01*
X133263662Y-82305777D01*
X133263662Y-82286223D01*
X133246046Y-82174998D01*
X133240003Y-82156400D01*
X133188878Y-82056063D01*
X133177384Y-82040244D01*
X133097756Y-81960616D01*
X133081937Y-81949122D01*
X132981600Y-81897997D01*
X132963002Y-81891954D01*
X132851777Y-81874338D01*
X132832223Y-81874338D01*
X132720998Y-81891954D01*
X132702400Y-81897997D01*
X132602063Y-81949122D01*
X132586244Y-81960616D01*
X132506616Y-82040244D01*
X132495122Y-82056063D01*
X132443997Y-82156400D01*
X132437954Y-82174998D01*
X132420338Y-82286223D01*
X132420338Y-82305777D01*
X123879432Y-82305777D01*
X123869140Y-82244927D01*
X123867594Y-82238123D01*
X123771108Y-81901634D01*
X123768813Y-81895044D01*
X123635419Y-81571407D01*
X123632404Y-81565114D01*
X123601982Y-81509777D01*
X126678338Y-81509777D01*
X126695954Y-81621002D01*
X126701997Y-81639600D01*
X126753122Y-81739937D01*
X126764616Y-81755756D01*
X126844244Y-81835384D01*
X126860063Y-81846878D01*
X126960400Y-81898003D01*
X126978998Y-81904046D01*
X127090223Y-81921662D01*
X127109777Y-81921662D01*
X127221002Y-81904046D01*
X127239600Y-81898003D01*
X127339937Y-81846878D01*
X127355756Y-81835384D01*
X127435384Y-81755756D01*
X127446878Y-81739937D01*
X127498003Y-81639600D01*
X127504046Y-81621002D01*
X127521662Y-81509777D01*
X127521662Y-81490223D01*
X127504046Y-81378998D01*
X127498003Y-81360400D01*
X127446878Y-81260063D01*
X127435384Y-81244244D01*
X127405417Y-81214277D01*
X133378338Y-81214277D01*
X133395954Y-81325502D01*
X133401997Y-81344100D01*
X133453122Y-81444437D01*
X133464616Y-81460256D01*
X133544244Y-81539884D01*
X133560063Y-81551378D01*
X133660400Y-81602503D01*
X133678998Y-81608546D01*
X133790223Y-81626162D01*
X133809777Y-81626162D01*
X133921002Y-81608546D01*
X133939600Y-81602503D01*
X134039937Y-81551378D01*
X134055756Y-81539884D01*
X134135384Y-81460256D01*
X134146878Y-81444437D01*
X134164538Y-81409777D01*
X134728338Y-81409777D01*
X134745954Y-81521002D01*
X134751997Y-81539600D01*
X134803122Y-81639937D01*
X134814616Y-81655756D01*
X134894244Y-81735384D01*
X134910063Y-81746878D01*
X135010400Y-81798003D01*
X135028998Y-81804046D01*
X135140223Y-81821662D01*
X135159777Y-81821662D01*
X135241031Y-81808793D01*
X135201997Y-81885400D01*
X135195954Y-81903998D01*
X135178338Y-82015223D01*
X135178338Y-82034777D01*
X135195954Y-82146002D01*
X135201997Y-82164600D01*
X135253122Y-82264937D01*
X135264616Y-82280756D01*
X135344244Y-82360384D01*
X135360063Y-82371878D01*
X135460400Y-82423003D01*
X135478998Y-82429046D01*
X135590223Y-82446662D01*
X135609777Y-82446662D01*
X135721002Y-82429046D01*
X135739600Y-82423003D01*
X135839937Y-82371878D01*
X135855756Y-82360384D01*
X135935384Y-82280756D01*
X135946878Y-82264937D01*
X135998003Y-82164600D01*
X136004046Y-82146002D01*
X136021662Y-82034777D01*
X136021662Y-82015223D01*
X136004046Y-81903998D01*
X135998003Y-81885400D01*
X135946878Y-81785063D01*
X135935384Y-81769244D01*
X135855756Y-81689616D01*
X135839937Y-81678122D01*
X135739600Y-81626997D01*
X135721002Y-81620954D01*
X135609777Y-81603338D01*
X135590223Y-81603338D01*
X135508969Y-81616207D01*
X135548003Y-81539600D01*
X135554046Y-81521002D01*
X135571662Y-81409777D01*
X135571662Y-81390223D01*
X135554046Y-81278998D01*
X135548003Y-81260400D01*
X135496878Y-81160063D01*
X135485384Y-81144244D01*
X135405756Y-81064616D01*
X135389937Y-81053122D01*
X135304869Y-81009777D01*
X144228338Y-81009777D01*
X144245954Y-81121002D01*
X144251997Y-81139600D01*
X144303122Y-81239937D01*
X144314616Y-81255756D01*
X144394244Y-81335384D01*
X144410063Y-81346878D01*
X144510400Y-81398003D01*
X144528998Y-81404046D01*
X144640223Y-81421662D01*
X144659777Y-81421662D01*
X144771002Y-81404046D01*
X144789600Y-81398003D01*
X144889937Y-81346878D01*
X144905756Y-81335384D01*
X144985384Y-81255756D01*
X144996878Y-81239937D01*
X145048003Y-81139600D01*
X145054046Y-81121002D01*
X145071662Y-81009777D01*
X148778338Y-81009777D01*
X148795954Y-81121002D01*
X148801997Y-81139600D01*
X148853122Y-81239937D01*
X148864616Y-81255756D01*
X148944244Y-81335384D01*
X148960063Y-81346878D01*
X149060400Y-81398003D01*
X149078998Y-81404046D01*
X149190223Y-81421662D01*
X149209777Y-81421662D01*
X149321002Y-81404046D01*
X149339600Y-81398003D01*
X149439937Y-81346878D01*
X149455756Y-81335384D01*
X149535384Y-81255756D01*
X149546878Y-81239937D01*
X149598003Y-81139600D01*
X149604046Y-81121002D01*
X149621662Y-81009777D01*
X149621662Y-80990223D01*
X149604046Y-80878998D01*
X149598003Y-80860400D01*
X149546878Y-80760063D01*
X149535384Y-80744244D01*
X149455756Y-80664616D01*
X149439937Y-80653122D01*
X149354869Y-80609777D01*
X152178338Y-80609777D01*
X152195954Y-80721002D01*
X152201997Y-80739600D01*
X152253122Y-80839937D01*
X152264616Y-80855756D01*
X152344244Y-80935384D01*
X152360063Y-80946878D01*
X152460400Y-80998003D01*
X152478998Y-81004046D01*
X152590223Y-81021662D01*
X152609777Y-81021662D01*
X152721002Y-81004046D01*
X152739600Y-80998003D01*
X152839937Y-80946878D01*
X152855756Y-80935384D01*
X152935384Y-80855756D01*
X152946878Y-80839937D01*
X152998003Y-80739600D01*
X153004046Y-80721002D01*
X153021662Y-80609777D01*
X153878338Y-80609777D01*
X153895954Y-80721002D01*
X153901997Y-80739600D01*
X153953122Y-80839937D01*
X153964616Y-80855756D01*
X154044244Y-80935384D01*
X154060063Y-80946878D01*
X154160400Y-80998003D01*
X154178998Y-81004046D01*
X154290223Y-81021662D01*
X154309777Y-81021662D01*
X154421002Y-81004046D01*
X154439600Y-80998003D01*
X154539937Y-80946878D01*
X154555756Y-80935384D01*
X154631363Y-80859777D01*
X156078338Y-80859777D01*
X156095954Y-80971002D01*
X156101997Y-80989600D01*
X156153122Y-81089937D01*
X156164616Y-81105756D01*
X156244244Y-81185384D01*
X156260063Y-81196878D01*
X156360400Y-81248003D01*
X156378998Y-81254046D01*
X156490223Y-81271662D01*
X156509777Y-81271662D01*
X156621002Y-81254046D01*
X156639600Y-81248003D01*
X156739937Y-81196878D01*
X156755756Y-81185384D01*
X156835384Y-81105756D01*
X156846878Y-81089937D01*
X156898003Y-80989600D01*
X156904046Y-80971002D01*
X156921662Y-80859777D01*
X156921662Y-80840223D01*
X156904046Y-80728998D01*
X156898003Y-80710400D01*
X156846878Y-80610063D01*
X156835384Y-80594244D01*
X156755756Y-80514616D01*
X156739937Y-80503122D01*
X156639600Y-80451997D01*
X156621002Y-80445954D01*
X156509777Y-80428338D01*
X156490223Y-80428338D01*
X156378998Y-80445954D01*
X156360400Y-80451997D01*
X156260063Y-80503122D01*
X156244244Y-80514616D01*
X156164616Y-80594244D01*
X156153122Y-80610063D01*
X156101997Y-80710400D01*
X156095954Y-80728998D01*
X156078338Y-80840223D01*
X156078338Y-80859777D01*
X154631363Y-80859777D01*
X154635384Y-80855756D01*
X154646878Y-80839937D01*
X154698003Y-80739600D01*
X154704046Y-80721002D01*
X154721662Y-80609777D01*
X154721662Y-80590223D01*
X154704046Y-80478998D01*
X154698003Y-80460400D01*
X154646878Y-80360063D01*
X154635384Y-80344244D01*
X154555756Y-80264616D01*
X154539937Y-80253122D01*
X154439600Y-80201997D01*
X154421002Y-80195954D01*
X154309777Y-80178338D01*
X154290223Y-80178338D01*
X154178998Y-80195954D01*
X154160400Y-80201997D01*
X154060063Y-80253122D01*
X154044244Y-80264616D01*
X153964616Y-80344244D01*
X153953122Y-80360063D01*
X153901997Y-80460400D01*
X153895954Y-80478998D01*
X153878338Y-80590223D01*
X153878338Y-80609777D01*
X153021662Y-80609777D01*
X153021662Y-80590223D01*
X153004046Y-80478998D01*
X152998003Y-80460400D01*
X152946878Y-80360063D01*
X152935384Y-80344244D01*
X152855756Y-80264616D01*
X152839937Y-80253122D01*
X152739600Y-80201997D01*
X152721002Y-80195954D01*
X152609777Y-80178338D01*
X152590223Y-80178338D01*
X152478998Y-80195954D01*
X152460400Y-80201997D01*
X152360063Y-80253122D01*
X152344244Y-80264616D01*
X152264616Y-80344244D01*
X152253122Y-80360063D01*
X152201997Y-80460400D01*
X152195954Y-80478998D01*
X152178338Y-80590223D01*
X152178338Y-80609777D01*
X149354869Y-80609777D01*
X149339600Y-80601997D01*
X149321002Y-80595954D01*
X149209777Y-80578338D01*
X149190223Y-80578338D01*
X149078998Y-80595954D01*
X149060400Y-80601997D01*
X148960063Y-80653122D01*
X148944244Y-80664616D01*
X148864616Y-80744244D01*
X148853122Y-80760063D01*
X148801997Y-80860400D01*
X148795954Y-80878998D01*
X148778338Y-80990223D01*
X148778338Y-81009777D01*
X145071662Y-81009777D01*
X145071662Y-80990223D01*
X145054046Y-80878998D01*
X145048003Y-80860400D01*
X144996878Y-80760063D01*
X144985384Y-80744244D01*
X144905756Y-80664616D01*
X144889937Y-80653122D01*
X144789600Y-80601997D01*
X144771002Y-80595954D01*
X144659777Y-80578338D01*
X144640223Y-80578338D01*
X144528998Y-80595954D01*
X144510400Y-80601997D01*
X144410063Y-80653122D01*
X144394244Y-80664616D01*
X144314616Y-80744244D01*
X144303122Y-80760063D01*
X144251997Y-80860400D01*
X144245954Y-80878998D01*
X144228338Y-80990223D01*
X144228338Y-81009777D01*
X135304869Y-81009777D01*
X135289600Y-81001997D01*
X135271002Y-80995954D01*
X135159777Y-80978338D01*
X135140223Y-80978338D01*
X135028998Y-80995954D01*
X135010400Y-81001997D01*
X134910063Y-81053122D01*
X134894244Y-81064616D01*
X134814616Y-81144244D01*
X134803122Y-81160063D01*
X134751997Y-81260400D01*
X134745954Y-81278998D01*
X134728338Y-81390223D01*
X134728338Y-81409777D01*
X134164538Y-81409777D01*
X134198003Y-81344100D01*
X134204046Y-81325502D01*
X134221662Y-81214277D01*
X134221662Y-81194723D01*
X134204046Y-81083498D01*
X134198003Y-81064900D01*
X134146878Y-80964563D01*
X134135384Y-80948744D01*
X134055756Y-80869116D01*
X134039937Y-80857622D01*
X133939600Y-80806497D01*
X133921002Y-80800454D01*
X133809777Y-80782838D01*
X133790223Y-80782838D01*
X133678998Y-80800454D01*
X133660400Y-80806497D01*
X133560063Y-80857622D01*
X133544244Y-80869116D01*
X133464616Y-80948744D01*
X133453122Y-80964563D01*
X133401997Y-81064900D01*
X133395954Y-81083498D01*
X133378338Y-81194723D01*
X133378338Y-81214277D01*
X127405417Y-81214277D01*
X127355756Y-81164616D01*
X127339937Y-81153122D01*
X127239600Y-81101997D01*
X127221002Y-81095954D01*
X127109777Y-81078338D01*
X127090223Y-81078338D01*
X126978998Y-81095954D01*
X126960400Y-81101997D01*
X126860063Y-81153122D01*
X126844244Y-81164616D01*
X126764616Y-81244244D01*
X126753122Y-81260063D01*
X126701997Y-81360400D01*
X126695954Y-81378998D01*
X126678338Y-81490223D01*
X126678338Y-81509777D01*
X123601982Y-81509777D01*
X123463767Y-81258364D01*
X123460070Y-81252447D01*
X123258290Y-80966406D01*
X123253955Y-80960938D01*
X123021549Y-80699172D01*
X123016633Y-80694220D01*
X122756495Y-80459991D01*
X122751057Y-80455619D01*
X122466432Y-80251847D01*
X122460540Y-80248108D01*
X122154974Y-80077333D01*
X122148703Y-80074275D01*
X121826006Y-79938626D01*
X121819432Y-79936285D01*
X121483625Y-79837452D01*
X121476832Y-79835859D01*
X121132101Y-79775073D01*
X121125172Y-79774246D01*
X120775813Y-79752266D01*
X120768836Y-79752218D01*
X120419205Y-79769318D01*
X120412265Y-79770047D01*
X120066719Y-79826014D01*
X120059905Y-79827512D01*
X119722751Y-79921647D01*
X119716145Y-79923896D01*
X119391585Y-80055026D01*
X119385272Y-80057997D01*
X119077351Y-80224489D01*
X119071407Y-80228145D01*
X118783965Y-80427923D01*
X118778467Y-80432219D01*
X118515084Y-80662793D01*
X118510099Y-80667675D01*
X118274060Y-80926170D01*
X118269649Y-80931578D01*
X118063896Y-81214774D01*
X118060117Y-81220639D01*
X117887213Y-81525005D01*
X117884110Y-81531255D01*
X117746211Y-81852998D01*
X117743825Y-81859554D01*
X117642649Y-82194663D01*
X117641008Y-82201446D01*
X117577818Y-82545744D01*
X117576943Y-82552666D01*
X117552525Y-82901863D01*
X117552428Y-82908840D01*
X117489500Y-82908840D01*
X117489500Y-82524947D01*
X117491850Y-82516176D01*
X117491850Y-82483823D01*
X117490740Y-82479679D01*
X117507270Y-82185333D01*
X117560062Y-81874623D01*
X117647308Y-81571783D01*
X117767917Y-81280610D01*
X117920361Y-81004784D01*
X118102743Y-80747739D01*
X118312747Y-80512747D01*
X118547739Y-80302743D01*
X118804784Y-80120361D01*
X119080610Y-79967917D01*
X119371783Y-79847308D01*
X119674623Y-79760062D01*
X119985333Y-79707270D01*
X120279679Y-79690740D01*
X120283823Y-79691850D01*
X120316176Y-79691850D01*
X120324947Y-79689500D01*
X169275053Y-79689500D01*
X169283824Y-79691850D02*
X169275053Y-79689500D01*
G04 #@! TA.AperFunction,Conductor*
G36*
X169283824Y-79691850D02*
G01*
X169316177Y-79691850D01*
X169320321Y-79690740D01*
X169614667Y-79707270D01*
X169925377Y-79760062D01*
X170228217Y-79847308D01*
X170519390Y-79967917D01*
X170795216Y-80120361D01*
X171052261Y-80302743D01*
X171287253Y-80512747D01*
X171497257Y-80747739D01*
X171679639Y-81004784D01*
X171832083Y-81280610D01*
X171952692Y-81571783D01*
X172039938Y-81874623D01*
X172092730Y-82185333D01*
X172109260Y-82479679D01*
X172108150Y-82483823D01*
X172108150Y-82516176D01*
X172110500Y-82524947D01*
X172110500Y-91175053D01*
X172108150Y-91183824D01*
X172108150Y-91216177D01*
X172109260Y-91220321D01*
X172092730Y-91514667D01*
X172039938Y-91825377D01*
X171952692Y-92128217D01*
X171832083Y-92419390D01*
X171679639Y-92695216D01*
X171497257Y-92952261D01*
X171287253Y-93187253D01*
X171052261Y-93397257D01*
X170795216Y-93579639D01*
X170519390Y-93732083D01*
X170228217Y-93852692D01*
X169925377Y-93939938D01*
X169614667Y-93992730D01*
X169320321Y-94009260D01*
X169316177Y-94008150D01*
X169283824Y-94008150D01*
X169275053Y-94010500D01*
X120324947Y-94010500D01*
X120316176Y-94008150D01*
X120283823Y-94008150D01*
X120279679Y-94009260D01*
X119985333Y-93992730D01*
X119674623Y-93939938D01*
X119371783Y-93852692D01*
X119080610Y-93732083D01*
X118804784Y-93579639D01*
X118547739Y-93397257D01*
X118505799Y-93359777D01*
X129228338Y-93359777D01*
X129245954Y-93471002D01*
X129251997Y-93489600D01*
X129303122Y-93589937D01*
X129314616Y-93605756D01*
X129394244Y-93685384D01*
X129410063Y-93696878D01*
X129510400Y-93748003D01*
X129528998Y-93754046D01*
X129640223Y-93771662D01*
X129659777Y-93771662D01*
X129771002Y-93754046D01*
X129789600Y-93748003D01*
X129889937Y-93696878D01*
X129905756Y-93685384D01*
X129985384Y-93605756D01*
X129996878Y-93589937D01*
X130048003Y-93489600D01*
X130054046Y-93471002D01*
X130071662Y-93359777D01*
X130071662Y-93340223D01*
X130054046Y-93228998D01*
X130048003Y-93210400D01*
X130022209Y-93159777D01*
X132578338Y-93159777D01*
X132595954Y-93271002D01*
X132601997Y-93289600D01*
X132653122Y-93389937D01*
X132664616Y-93405756D01*
X132744244Y-93485384D01*
X132760063Y-93496878D01*
X132860400Y-93548003D01*
X132878998Y-93554046D01*
X132990223Y-93571662D01*
X133009777Y-93571662D01*
X133121002Y-93554046D01*
X133139600Y-93548003D01*
X133239937Y-93496878D01*
X133255756Y-93485384D01*
X133335384Y-93405756D01*
X133346878Y-93389937D01*
X133398003Y-93289600D01*
X133404046Y-93271002D01*
X133421662Y-93159777D01*
X133421662Y-93140223D01*
X133404046Y-93028998D01*
X133398003Y-93010400D01*
X133346878Y-92910063D01*
X133335384Y-92894244D01*
X133255756Y-92814616D01*
X133239937Y-92803122D01*
X133139600Y-92751997D01*
X133121002Y-92745954D01*
X133009777Y-92728338D01*
X132990223Y-92728338D01*
X132878998Y-92745954D01*
X132860400Y-92751997D01*
X132760063Y-92803122D01*
X132744244Y-92814616D01*
X132664616Y-92894244D01*
X132653122Y-92910063D01*
X132601997Y-93010400D01*
X132595954Y-93028998D01*
X132578338Y-93140223D01*
X132578338Y-93159777D01*
X130022209Y-93159777D01*
X129996878Y-93110063D01*
X129985384Y-93094244D01*
X129905756Y-93014616D01*
X129889937Y-93003122D01*
X129789600Y-92951997D01*
X129771002Y-92945954D01*
X129659777Y-92928338D01*
X129640223Y-92928338D01*
X129528998Y-92945954D01*
X129510400Y-92951997D01*
X129410063Y-93003122D01*
X129394244Y-93014616D01*
X129314616Y-93094244D01*
X129303122Y-93110063D01*
X129251997Y-93210400D01*
X129245954Y-93228998D01*
X129228338Y-93340223D01*
X129228338Y-93359777D01*
X118505799Y-93359777D01*
X118312747Y-93187253D01*
X118102743Y-92952261D01*
X117920361Y-92695216D01*
X117900775Y-92659777D01*
X136078338Y-92659777D01*
X136095954Y-92771002D01*
X136101997Y-92789600D01*
X136153122Y-92889937D01*
X136164616Y-92905756D01*
X136244244Y-92985384D01*
X136260063Y-92996878D01*
X136360400Y-93048003D01*
X136378998Y-93054046D01*
X136490223Y-93071662D01*
X136509777Y-93071662D01*
X136621002Y-93054046D01*
X136639600Y-93048003D01*
X136739937Y-92996878D01*
X136755756Y-92985384D01*
X136835384Y-92905756D01*
X136846878Y-92889937D01*
X136898003Y-92789600D01*
X136904046Y-92771002D01*
X136921662Y-92659777D01*
X136921662Y-92640223D01*
X136906601Y-92545129D01*
X139617500Y-92545129D01*
X139617889Y-92552096D01*
X139632833Y-92685327D01*
X139635921Y-92698914D01*
X139694946Y-92868410D01*
X139700966Y-92880976D01*
X139796075Y-93033182D01*
X139804730Y-93044102D01*
X139931197Y-93171455D01*
X139942056Y-93180185D01*
X140093595Y-93276355D01*
X140106118Y-93282464D01*
X140275197Y-93342670D01*
X140288762Y-93345851D01*
X140322599Y-93349886D01*
X140368650Y-93336942D01*
X140392060Y-93295227D01*
X140392449Y-93288686D01*
X140567500Y-93288686D01*
X140585806Y-93332880D01*
X140630000Y-93351186D01*
X140636532Y-93350844D01*
X140659407Y-93348440D01*
X140673017Y-93345448D01*
X140842921Y-93287608D01*
X140855528Y-93281675D01*
X141008395Y-93187631D01*
X141019375Y-93179052D01*
X141147607Y-93053477D01*
X141156413Y-93042680D01*
X141253639Y-92891816D01*
X141259835Y-92879335D01*
X141321220Y-92710680D01*
X141324496Y-92697137D01*
X141342007Y-92558525D01*
X141342500Y-92550692D01*
X141342500Y-92545129D01*
X148257500Y-92545129D01*
X148257889Y-92552096D01*
X148272833Y-92685327D01*
X148275921Y-92698914D01*
X148334946Y-92868410D01*
X148340966Y-92880976D01*
X148436075Y-93033182D01*
X148444730Y-93044102D01*
X148571197Y-93171455D01*
X148582056Y-93180185D01*
X148733595Y-93276355D01*
X148746118Y-93282464D01*
X148915197Y-93342670D01*
X148928762Y-93345851D01*
X148962599Y-93349886D01*
X149008650Y-93336942D01*
X149032060Y-93295227D01*
X149032449Y-93288686D01*
X149207500Y-93288686D01*
X149225806Y-93332880D01*
X149270000Y-93351186D01*
X149276532Y-93350844D01*
X149299407Y-93348440D01*
X149313017Y-93345448D01*
X149482921Y-93287608D01*
X149495528Y-93281675D01*
X149648395Y-93187631D01*
X149659375Y-93179052D01*
X149787607Y-93053477D01*
X149796413Y-93042680D01*
X149893639Y-92891816D01*
X149899835Y-92879335D01*
X149961220Y-92710680D01*
X149964496Y-92697137D01*
X149982007Y-92558525D01*
X149982500Y-92550692D01*
X149982500Y-92150000D01*
X149964194Y-92105806D01*
X149920000Y-92087500D01*
X149270000Y-92087500D01*
X149225806Y-92105806D01*
X149207500Y-92150000D01*
X149207500Y-93288686D01*
X149032449Y-93288686D01*
X149032500Y-93287826D01*
X149032500Y-92150000D01*
X149014194Y-92105806D01*
X148970000Y-92087500D01*
X148320000Y-92087500D01*
X148275806Y-92105806D01*
X148257500Y-92150000D01*
X148257500Y-92545129D01*
X141342500Y-92545129D01*
X141342500Y-92150000D01*
X141324194Y-92105806D01*
X141280000Y-92087500D01*
X140630000Y-92087500D01*
X140585806Y-92105806D01*
X140567500Y-92150000D01*
X140567500Y-93288686D01*
X140392449Y-93288686D01*
X140392500Y-93287826D01*
X140392500Y-92150000D01*
X140374194Y-92105806D01*
X140330000Y-92087500D01*
X139680000Y-92087500D01*
X139635806Y-92105806D01*
X139617500Y-92150000D01*
X139617500Y-92545129D01*
X136906601Y-92545129D01*
X136904046Y-92528998D01*
X136898003Y-92510400D01*
X136846878Y-92410063D01*
X136835384Y-92394244D01*
X136755756Y-92314616D01*
X136739937Y-92303122D01*
X136639600Y-92251997D01*
X136621002Y-92245954D01*
X136509777Y-92228338D01*
X136490223Y-92228338D01*
X136378998Y-92245954D01*
X136360400Y-92251997D01*
X136260063Y-92303122D01*
X136244244Y-92314616D01*
X136164616Y-92394244D01*
X136153122Y-92410063D01*
X136101997Y-92510400D01*
X136095954Y-92528998D01*
X136078338Y-92640223D01*
X136078338Y-92659777D01*
X117900775Y-92659777D01*
X117767917Y-92419390D01*
X117647308Y-92128217D01*
X117593345Y-91940906D01*
X130558726Y-91940906D01*
X130577032Y-91985100D01*
X130591403Y-91995832D01*
X130710597Y-92060550D01*
X130724560Y-92066078D01*
X130888441Y-92109071D01*
X130903319Y-92111109D01*
X131072725Y-92113770D01*
X131087660Y-92112201D01*
X131252811Y-92074377D01*
X131266940Y-92069290D01*
X131408305Y-91998191D01*
X131439562Y-91961980D01*
X131436059Y-91914273D01*
X131424417Y-91898161D01*
X131376256Y-91850000D01*
X139617500Y-91850000D01*
X139635806Y-91894194D01*
X139680000Y-91912500D01*
X140330000Y-91912500D01*
X140374194Y-91894194D01*
X140392500Y-91850000D01*
X140567500Y-91850000D01*
X140585806Y-91894194D01*
X140630000Y-91912500D01*
X141280000Y-91912500D01*
X141324194Y-91894194D01*
X141342500Y-91850000D01*
X148257500Y-91850000D01*
X148275806Y-91894194D01*
X148320000Y-91912500D01*
X148970000Y-91912500D01*
X149014194Y-91894194D01*
X149032500Y-91850000D01*
X149207500Y-91850000D01*
X149225806Y-91894194D01*
X149270000Y-91912500D01*
X149920000Y-91912500D01*
X149964194Y-91894194D01*
X149982500Y-91850000D01*
X149982500Y-91454871D01*
X149982111Y-91447904D01*
X149967167Y-91314673D01*
X149964079Y-91301086D01*
X149905054Y-91131590D01*
X149899034Y-91119024D01*
X149803925Y-90966818D01*
X149795270Y-90955898D01*
X149668803Y-90828545D01*
X149657944Y-90819815D01*
X149506405Y-90723645D01*
X149493882Y-90717536D01*
X149324803Y-90657330D01*
X149311238Y-90654149D01*
X149277401Y-90650114D01*
X149231350Y-90663058D01*
X149207940Y-90704773D01*
X149207500Y-90712174D01*
X149207500Y-91850000D01*
X149032500Y-91850000D01*
X149032500Y-90711314D01*
X149014194Y-90667120D01*
X148970000Y-90648814D01*
X148963468Y-90649156D01*
X148940593Y-90651560D01*
X148926983Y-90654552D01*
X148757079Y-90712392D01*
X148744472Y-90718325D01*
X148591605Y-90812369D01*
X148580625Y-90820948D01*
X148452393Y-90946523D01*
X148443587Y-90957320D01*
X148346361Y-91108184D01*
X148340165Y-91120665D01*
X148278780Y-91289320D01*
X148275504Y-91302863D01*
X148257993Y-91441475D01*
X148257500Y-91449308D01*
X148257500Y-91850000D01*
X141342500Y-91850000D01*
X141342500Y-91454871D01*
X141342111Y-91447904D01*
X141327167Y-91314673D01*
X141324079Y-91301086D01*
X141265054Y-91131590D01*
X141259034Y-91119024D01*
X141163925Y-90966818D01*
X141155270Y-90955898D01*
X141028803Y-90828545D01*
X141017944Y-90819815D01*
X140866405Y-90723645D01*
X140853882Y-90717536D01*
X140684803Y-90657330D01*
X140671238Y-90654149D01*
X140637401Y-90650114D01*
X140591350Y-90663058D01*
X140567940Y-90704773D01*
X140567500Y-90712174D01*
X140567500Y-91850000D01*
X140392500Y-91850000D01*
X140392500Y-90711314D01*
X140374194Y-90667120D01*
X140330000Y-90648814D01*
X140323468Y-90649156D01*
X140300593Y-90651560D01*
X140286983Y-90654552D01*
X140117079Y-90712392D01*
X140104472Y-90718325D01*
X139951605Y-90812369D01*
X139940625Y-90820948D01*
X139812393Y-90946523D01*
X139803587Y-90957320D01*
X139706361Y-91108184D01*
X139700165Y-91120665D01*
X139638780Y-91289320D01*
X139635504Y-91302863D01*
X139617993Y-91441475D01*
X139617500Y-91449308D01*
X139617500Y-91850000D01*
X131376256Y-91850000D01*
X131044194Y-91517938D01*
X131000000Y-91499632D01*
X130955806Y-91517938D01*
X130577032Y-91896712D01*
X130558726Y-91940906D01*
X117593345Y-91940906D01*
X117560062Y-91825377D01*
X117507270Y-91514667D01*
X117497993Y-91349474D01*
X130232775Y-91349474D01*
X130251367Y-91517878D01*
X130254797Y-91532499D01*
X130313022Y-91691606D01*
X130319839Y-91704986D01*
X130358432Y-91762419D01*
X130398275Y-91788891D01*
X130445167Y-91779436D01*
X130454502Y-91771754D01*
X130832062Y-91394194D01*
X130850368Y-91350000D01*
X131149632Y-91350000D01*
X131167938Y-91394194D01*
X131546095Y-91772351D01*
X131590289Y-91790657D01*
X131634483Y-91772351D01*
X131641044Y-91764628D01*
X131668675Y-91726175D01*
X131675910Y-91713016D01*
X131739104Y-91555816D01*
X131742991Y-91541310D01*
X131766863Y-91373573D01*
X131767483Y-91365423D01*
X131767638Y-91350656D01*
X131767188Y-91342492D01*
X131746834Y-91174292D01*
X131743252Y-91159708D01*
X131683363Y-91001219D01*
X131676406Y-90987910D01*
X131641344Y-90936895D01*
X131601225Y-90910843D01*
X131554435Y-90920788D01*
X131545642Y-90928102D01*
X131167938Y-91305806D01*
X131149632Y-91350000D01*
X130850368Y-91350000D01*
X130832062Y-91305806D01*
X130454159Y-90927903D01*
X130409965Y-90909597D01*
X130365771Y-90927903D01*
X130358831Y-90936159D01*
X130327423Y-90980847D01*
X130320326Y-90994082D01*
X130258781Y-91151936D01*
X130255047Y-91166481D01*
X130232933Y-91334458D01*
X130232775Y-91349474D01*
X117497993Y-91349474D01*
X117490740Y-91220321D01*
X117491850Y-91216177D01*
X117491850Y-91183824D01*
X117489500Y-91175053D01*
X117489500Y-90739187D01*
X130560780Y-90739187D01*
X130564783Y-90786855D01*
X130576127Y-90802383D01*
X130955806Y-91182062D01*
X131000000Y-91200368D01*
X131044194Y-91182062D01*
X131316479Y-90909777D01*
X136078338Y-90909777D01*
X136095954Y-91021002D01*
X136101997Y-91039600D01*
X136153122Y-91139937D01*
X136164616Y-91155756D01*
X136244244Y-91235384D01*
X136260063Y-91246878D01*
X136360400Y-91298003D01*
X136378998Y-91304046D01*
X136490223Y-91321662D01*
X136509777Y-91321662D01*
X136621002Y-91304046D01*
X136639600Y-91298003D01*
X136739937Y-91246878D01*
X136755756Y-91235384D01*
X136835384Y-91155756D01*
X136846878Y-91139937D01*
X136898003Y-91039600D01*
X136904046Y-91021002D01*
X136921662Y-90909777D01*
X136921662Y-90890223D01*
X136904046Y-90778998D01*
X136898003Y-90760400D01*
X136846878Y-90660063D01*
X136835384Y-90644244D01*
X136755756Y-90564616D01*
X136739937Y-90553122D01*
X136639600Y-90501997D01*
X136621002Y-90495954D01*
X136509777Y-90478338D01*
X136490223Y-90478338D01*
X136378998Y-90495954D01*
X136360400Y-90501997D01*
X136260063Y-90553122D01*
X136244244Y-90564616D01*
X136164616Y-90644244D01*
X136153122Y-90660063D01*
X136101997Y-90760400D01*
X136095954Y-90778998D01*
X136078338Y-90890223D01*
X136078338Y-90909777D01*
X131316479Y-90909777D01*
X131423391Y-90802865D01*
X131441697Y-90758671D01*
X131423391Y-90714477D01*
X131408443Y-90703436D01*
X131281946Y-90636459D01*
X131267926Y-90631077D01*
X131103604Y-90589802D01*
X131088705Y-90587920D01*
X130919280Y-90587033D01*
X130904363Y-90588759D01*
X130739618Y-90628311D01*
X130725542Y-90633546D01*
X130591655Y-90702651D01*
X130560780Y-90739187D01*
X117489500Y-90739187D01*
X117489500Y-89959777D01*
X132378338Y-89959777D01*
X132395954Y-90071002D01*
X132401997Y-90089600D01*
X132453122Y-90189937D01*
X132464616Y-90205756D01*
X132544244Y-90285384D01*
X132560063Y-90296878D01*
X132660400Y-90348003D01*
X132678998Y-90354046D01*
X132790223Y-90371662D01*
X132809777Y-90371662D01*
X132921002Y-90354046D01*
X132939600Y-90348003D01*
X133039937Y-90296878D01*
X133055756Y-90285384D01*
X133135384Y-90205756D01*
X133146878Y-90189937D01*
X133198003Y-90089600D01*
X133204046Y-90071002D01*
X133213743Y-90009777D01*
X160378338Y-90009777D01*
X160395954Y-90121002D01*
X160401997Y-90139600D01*
X160453122Y-90239937D01*
X160464616Y-90255756D01*
X160544244Y-90335384D01*
X160560063Y-90346878D01*
X160660400Y-90398003D01*
X160678998Y-90404046D01*
X160790223Y-90421662D01*
X160809777Y-90421662D01*
X160921002Y-90404046D01*
X160939600Y-90398003D01*
X161039937Y-90346878D01*
X161055756Y-90335384D01*
X161135384Y-90255756D01*
X161146878Y-90239937D01*
X161198003Y-90139600D01*
X161204046Y-90121002D01*
X161221662Y-90009777D01*
X161221662Y-89990223D01*
X161204046Y-89878998D01*
X161198003Y-89860400D01*
X161172209Y-89809777D01*
X164578338Y-89809777D01*
X164595954Y-89921002D01*
X164601997Y-89939600D01*
X164653122Y-90039937D01*
X164664616Y-90055756D01*
X164744244Y-90135384D01*
X164760063Y-90146878D01*
X164860400Y-90198003D01*
X164878998Y-90204046D01*
X164990223Y-90221662D01*
X165009777Y-90221662D01*
X165121002Y-90204046D01*
X165139600Y-90198003D01*
X165239937Y-90146878D01*
X165255756Y-90135384D01*
X165335384Y-90055756D01*
X165346878Y-90039937D01*
X165398003Y-89939600D01*
X165404046Y-89921002D01*
X165421662Y-89809777D01*
X165421662Y-89790223D01*
X165404046Y-89678998D01*
X165398003Y-89660400D01*
X165346878Y-89560063D01*
X165335384Y-89544244D01*
X165255756Y-89464616D01*
X165239937Y-89453122D01*
X165139600Y-89401997D01*
X165121002Y-89395954D01*
X165009777Y-89378338D01*
X164990223Y-89378338D01*
X164878998Y-89395954D01*
X164860400Y-89401997D01*
X164760063Y-89453122D01*
X164744244Y-89464616D01*
X164664616Y-89544244D01*
X164653122Y-89560063D01*
X164601997Y-89660400D01*
X164595954Y-89678998D01*
X164578338Y-89790223D01*
X164578338Y-89809777D01*
X161172209Y-89809777D01*
X161146878Y-89760063D01*
X161135384Y-89744244D01*
X161055756Y-89664616D01*
X161039937Y-89653122D01*
X160939600Y-89601997D01*
X160921002Y-89595954D01*
X160809777Y-89578338D01*
X160790223Y-89578338D01*
X160678998Y-89595954D01*
X160660400Y-89601997D01*
X160560063Y-89653122D01*
X160544244Y-89664616D01*
X160464616Y-89744244D01*
X160453122Y-89760063D01*
X160401997Y-89860400D01*
X160395954Y-89878998D01*
X160378338Y-89990223D01*
X160378338Y-90009777D01*
X133213743Y-90009777D01*
X133221662Y-89959777D01*
X133221662Y-89940223D01*
X133204046Y-89828998D01*
X133198003Y-89810400D01*
X133146878Y-89710063D01*
X133135384Y-89694244D01*
X133055756Y-89614616D01*
X133039937Y-89603122D01*
X132939600Y-89551997D01*
X132921002Y-89545954D01*
X132809777Y-89528338D01*
X132790223Y-89528338D01*
X132678998Y-89545954D01*
X132660400Y-89551997D01*
X132560063Y-89603122D01*
X132544244Y-89614616D01*
X132464616Y-89694244D01*
X132453122Y-89710063D01*
X132401997Y-89810400D01*
X132395954Y-89828998D01*
X132378338Y-89940223D01*
X132378338Y-89959777D01*
X117489500Y-89959777D01*
X117489500Y-88389783D01*
X139592500Y-88389783D01*
X139592866Y-88396533D01*
X139607360Y-88529951D01*
X139610258Y-88543136D01*
X139667431Y-88713024D01*
X139673094Y-88725279D01*
X139765415Y-88878926D01*
X139773577Y-88889679D01*
X139896737Y-89019917D01*
X139907018Y-89028667D01*
X140055272Y-89129420D01*
X140067191Y-89135757D01*
X140233622Y-89202325D01*
X140246625Y-89205956D01*
X140319792Y-89218069D01*
X140366382Y-89207227D01*
X140391661Y-89166616D01*
X140392253Y-89159419D01*
X140567500Y-89159419D01*
X140585806Y-89203613D01*
X140630000Y-89221919D01*
X140646597Y-89219675D01*
X140802091Y-89176845D01*
X140814643Y-89171875D01*
X140973204Y-89088275D01*
X140984396Y-89080726D01*
X141121306Y-88965028D01*
X141130616Y-88955252D01*
X141239488Y-88812853D01*
X141246481Y-88801306D01*
X141322235Y-88638851D01*
X141326586Y-88626071D01*
X141365688Y-88451138D01*
X141367096Y-88440993D01*
X141367403Y-88435502D01*
X141367500Y-88432013D01*
X141367500Y-88288272D01*
X141388431Y-88288272D01*
X141398105Y-88424901D01*
X141402159Y-88443038D01*
X141451579Y-88570782D01*
X141460787Y-88586925D01*
X141545585Y-88694490D01*
X141559132Y-88707211D01*
X141671809Y-88785087D01*
X141688498Y-88793263D01*
X141819093Y-88834565D01*
X141833036Y-88837281D01*
X141839720Y-88837807D01*
X141844623Y-88838000D01*
X141944221Y-88838000D01*
X141953513Y-88837305D01*
X142054740Y-88822086D01*
X142072502Y-88816622D01*
X142195975Y-88757332D01*
X142211346Y-88746886D01*
X142311926Y-88653910D01*
X142323545Y-88639407D01*
X142369798Y-88559777D01*
X143628338Y-88559777D01*
X143645954Y-88671002D01*
X143651997Y-88689600D01*
X143703122Y-88789937D01*
X143714616Y-88805756D01*
X143794244Y-88885384D01*
X143810063Y-88896878D01*
X143910400Y-88948003D01*
X143928998Y-88954046D01*
X144040223Y-88971662D01*
X144059777Y-88971662D01*
X144171002Y-88954046D01*
X144182638Y-88950265D01*
X144151997Y-89010400D01*
X144145954Y-89028998D01*
X144128338Y-89140223D01*
X144128338Y-89159777D01*
X144145954Y-89271002D01*
X144151997Y-89289600D01*
X144203122Y-89389937D01*
X144214616Y-89405756D01*
X144294244Y-89485384D01*
X144310063Y-89496878D01*
X144410400Y-89548003D01*
X144428998Y-89554046D01*
X144540223Y-89571662D01*
X144559777Y-89571662D01*
X144634817Y-89559777D01*
X152928338Y-89559777D01*
X152945954Y-89671002D01*
X152951997Y-89689600D01*
X153003122Y-89789937D01*
X153014616Y-89805756D01*
X153094244Y-89885384D01*
X153110063Y-89896878D01*
X153210400Y-89948003D01*
X153228998Y-89954046D01*
X153340223Y-89971662D01*
X153359777Y-89971662D01*
X153471002Y-89954046D01*
X153489600Y-89948003D01*
X153589937Y-89896878D01*
X153605756Y-89885384D01*
X153685384Y-89805756D01*
X153696878Y-89789937D01*
X153748003Y-89689600D01*
X153754046Y-89671002D01*
X153771662Y-89559777D01*
X153771662Y-89540223D01*
X153754046Y-89428998D01*
X153748003Y-89410400D01*
X153696878Y-89310063D01*
X153685384Y-89294244D01*
X153605756Y-89214616D01*
X153589937Y-89203122D01*
X153489600Y-89151997D01*
X153471002Y-89145954D01*
X153359777Y-89128338D01*
X153340223Y-89128338D01*
X153228998Y-89145954D01*
X153210400Y-89151997D01*
X153110063Y-89203122D01*
X153094244Y-89214616D01*
X153014616Y-89294244D01*
X153003122Y-89310063D01*
X152951997Y-89410400D01*
X152945954Y-89428998D01*
X152928338Y-89540223D01*
X152928338Y-89559777D01*
X144634817Y-89559777D01*
X144671002Y-89554046D01*
X144689600Y-89548003D01*
X144789937Y-89496878D01*
X144805756Y-89485384D01*
X144885384Y-89405756D01*
X144896878Y-89389937D01*
X144948003Y-89289600D01*
X144954046Y-89271002D01*
X144971662Y-89159777D01*
X144971662Y-89140223D01*
X144954046Y-89028998D01*
X144948003Y-89010400D01*
X144896878Y-88910063D01*
X144885384Y-88894244D01*
X144805756Y-88814616D01*
X144789937Y-88803122D01*
X144689600Y-88751997D01*
X144671002Y-88745954D01*
X144559777Y-88728338D01*
X144540223Y-88728338D01*
X144428998Y-88745954D01*
X144417362Y-88749735D01*
X144448003Y-88689600D01*
X144454046Y-88671002D01*
X144471662Y-88559777D01*
X144471662Y-88540223D01*
X144454046Y-88428998D01*
X144448003Y-88410400D01*
X144411187Y-88338145D01*
X144606706Y-88338145D01*
X144624322Y-88449370D01*
X144630365Y-88467968D01*
X144681490Y-88568305D01*
X144692984Y-88584124D01*
X144772612Y-88663752D01*
X144788431Y-88675246D01*
X144888768Y-88726371D01*
X144907366Y-88732414D01*
X145018591Y-88750030D01*
X145038145Y-88750030D01*
X145149370Y-88732414D01*
X145167968Y-88726371D01*
X145268305Y-88675246D01*
X145284124Y-88663752D01*
X145363752Y-88584124D01*
X145375246Y-88568305D01*
X145426371Y-88467968D01*
X145432414Y-88449370D01*
X145450030Y-88338145D01*
X145450030Y-88318591D01*
X145445228Y-88288272D01*
X147168431Y-88288272D01*
X147178105Y-88424901D01*
X147182159Y-88443038D01*
X147231579Y-88570782D01*
X147240787Y-88586925D01*
X147325585Y-88694490D01*
X147339132Y-88707211D01*
X147451809Y-88785087D01*
X147468498Y-88793263D01*
X147599093Y-88834565D01*
X147613036Y-88837281D01*
X147619720Y-88837807D01*
X147624623Y-88838000D01*
X147724221Y-88838000D01*
X147733513Y-88837305D01*
X147834740Y-88822086D01*
X147852502Y-88816622D01*
X147975975Y-88757332D01*
X147991346Y-88746886D01*
X148091926Y-88653910D01*
X148103545Y-88639407D01*
X148172341Y-88520967D01*
X148179183Y-88503688D01*
X148205585Y-88389783D01*
X148232500Y-88389783D01*
X148232866Y-88396533D01*
X148247360Y-88529951D01*
X148250258Y-88543136D01*
X148307431Y-88713024D01*
X148313094Y-88725279D01*
X148405415Y-88878926D01*
X148413577Y-88889679D01*
X148536737Y-89019917D01*
X148547018Y-89028667D01*
X148695272Y-89129420D01*
X148707191Y-89135757D01*
X148873622Y-89202325D01*
X148886625Y-89205956D01*
X148959792Y-89218069D01*
X149006382Y-89207227D01*
X149031661Y-89166616D01*
X149032253Y-89159419D01*
X149207500Y-89159419D01*
X149225806Y-89203613D01*
X149270000Y-89221919D01*
X149286597Y-89219675D01*
X149442091Y-89176845D01*
X149454643Y-89171875D01*
X149572422Y-89109777D01*
X155978338Y-89109777D01*
X155995954Y-89221002D01*
X156001997Y-89239600D01*
X156053122Y-89339937D01*
X156064616Y-89355756D01*
X156144244Y-89435384D01*
X156160063Y-89446878D01*
X156260400Y-89498003D01*
X156278998Y-89504046D01*
X156390223Y-89521662D01*
X156409777Y-89521662D01*
X156521002Y-89504046D01*
X156539600Y-89498003D01*
X156639937Y-89446878D01*
X156655756Y-89435384D01*
X156735384Y-89355756D01*
X156746878Y-89339937D01*
X156798003Y-89239600D01*
X156804046Y-89221002D01*
X156821662Y-89109777D01*
X156821662Y-89090223D01*
X156804046Y-88978998D01*
X156798003Y-88960400D01*
X156746878Y-88860063D01*
X156735384Y-88844244D01*
X156655756Y-88764616D01*
X156639937Y-88753122D01*
X156539600Y-88701997D01*
X156521002Y-88695954D01*
X156409777Y-88678338D01*
X156390223Y-88678338D01*
X156278998Y-88695954D01*
X156260400Y-88701997D01*
X156160063Y-88753122D01*
X156144244Y-88764616D01*
X156064616Y-88844244D01*
X156053122Y-88860063D01*
X156001997Y-88960400D01*
X155995954Y-88978998D01*
X155978338Y-89090223D01*
X155978338Y-89109777D01*
X149572422Y-89109777D01*
X149613204Y-89088275D01*
X149624396Y-89080726D01*
X149761306Y-88965028D01*
X149770616Y-88955252D01*
X149879488Y-88812853D01*
X149886481Y-88801306D01*
X149962235Y-88638851D01*
X149966586Y-88626071D01*
X150005688Y-88451138D01*
X150007096Y-88440993D01*
X150007403Y-88435502D01*
X150007500Y-88432013D01*
X150007500Y-87970000D01*
X149989194Y-87925806D01*
X149945000Y-87907500D01*
X149270000Y-87907500D01*
X149225806Y-87925806D01*
X149207500Y-87970000D01*
X149207500Y-89159419D01*
X149032253Y-89159419D01*
X149032500Y-89156408D01*
X149032500Y-87970000D01*
X149014194Y-87925806D01*
X148970000Y-87907500D01*
X148295000Y-87907500D01*
X148250806Y-87925806D01*
X148232500Y-87970000D01*
X148232500Y-88389783D01*
X148205585Y-88389783D01*
X148210111Y-88370255D01*
X148211569Y-88351728D01*
X148201895Y-88215099D01*
X148197841Y-88196962D01*
X148148421Y-88069218D01*
X148139213Y-88053075D01*
X148054415Y-87945510D01*
X148040868Y-87932789D01*
X147928191Y-87854913D01*
X147911502Y-87846737D01*
X147794636Y-87809777D01*
X157128338Y-87809777D01*
X157145954Y-87921002D01*
X157151997Y-87939600D01*
X157203122Y-88039937D01*
X157214616Y-88055756D01*
X157294244Y-88135384D01*
X157310063Y-88146878D01*
X157410400Y-88198003D01*
X157428998Y-88204046D01*
X157540223Y-88221662D01*
X157559777Y-88221662D01*
X157671002Y-88204046D01*
X157689600Y-88198003D01*
X157789937Y-88146878D01*
X157805756Y-88135384D01*
X157885384Y-88055756D01*
X157896878Y-88039937D01*
X157948003Y-87939600D01*
X157954046Y-87921002D01*
X157971662Y-87809777D01*
X157971662Y-87790223D01*
X157954046Y-87678998D01*
X157948003Y-87660400D01*
X157896878Y-87560063D01*
X157885384Y-87544244D01*
X157805756Y-87464616D01*
X157789937Y-87453122D01*
X157689600Y-87401997D01*
X157671002Y-87395954D01*
X157559777Y-87378338D01*
X157540223Y-87378338D01*
X157428998Y-87395954D01*
X157410400Y-87401997D01*
X157310063Y-87453122D01*
X157294244Y-87464616D01*
X157214616Y-87544244D01*
X157203122Y-87560063D01*
X157151997Y-87660400D01*
X157145954Y-87678998D01*
X157128338Y-87790223D01*
X157128338Y-87809777D01*
X147794636Y-87809777D01*
X147780907Y-87805435D01*
X147766964Y-87802719D01*
X147760280Y-87802193D01*
X147755377Y-87802000D01*
X147655779Y-87802000D01*
X147646487Y-87802695D01*
X147545260Y-87817914D01*
X147527498Y-87823378D01*
X147404025Y-87882668D01*
X147388654Y-87893114D01*
X147288074Y-87986090D01*
X147276455Y-88000593D01*
X147207659Y-88119033D01*
X147200817Y-88136312D01*
X147169889Y-88269745D01*
X147168431Y-88288272D01*
X145445228Y-88288272D01*
X145432414Y-88207366D01*
X145426371Y-88188768D01*
X145375246Y-88088431D01*
X145363752Y-88072612D01*
X145284124Y-87992984D01*
X145268305Y-87981490D01*
X145167968Y-87930365D01*
X145149370Y-87924322D01*
X145038145Y-87906706D01*
X145018591Y-87906706D01*
X144907366Y-87924322D01*
X144888768Y-87930365D01*
X144788431Y-87981490D01*
X144772612Y-87992984D01*
X144692984Y-88072612D01*
X144681490Y-88088431D01*
X144630365Y-88188768D01*
X144624322Y-88207366D01*
X144606706Y-88318591D01*
X144606706Y-88338145D01*
X144411187Y-88338145D01*
X144396878Y-88310063D01*
X144385384Y-88294244D01*
X144305756Y-88214616D01*
X144289937Y-88203122D01*
X144189600Y-88151997D01*
X144171002Y-88145954D01*
X144059777Y-88128338D01*
X144040223Y-88128338D01*
X143928998Y-88145954D01*
X143910400Y-88151997D01*
X143810063Y-88203122D01*
X143794244Y-88214616D01*
X143714616Y-88294244D01*
X143703122Y-88310063D01*
X143651997Y-88410400D01*
X143645954Y-88428998D01*
X143628338Y-88540223D01*
X143628338Y-88559777D01*
X142369798Y-88559777D01*
X142392341Y-88520967D01*
X142399183Y-88503688D01*
X142430111Y-88370255D01*
X142431569Y-88351728D01*
X142421895Y-88215099D01*
X142417841Y-88196962D01*
X142368421Y-88069218D01*
X142359213Y-88053075D01*
X142274415Y-87945510D01*
X142260868Y-87932789D01*
X142148191Y-87854913D01*
X142131502Y-87846737D01*
X142000907Y-87805435D01*
X141986964Y-87802719D01*
X141980280Y-87802193D01*
X141975377Y-87802000D01*
X141875779Y-87802000D01*
X141866487Y-87802695D01*
X141765260Y-87817914D01*
X141747498Y-87823378D01*
X141624025Y-87882668D01*
X141608654Y-87893114D01*
X141508074Y-87986090D01*
X141496455Y-88000593D01*
X141427659Y-88119033D01*
X141420817Y-88136312D01*
X141389889Y-88269745D01*
X141388431Y-88288272D01*
X141367500Y-88288272D01*
X141367500Y-87970000D01*
X141349194Y-87925806D01*
X141305000Y-87907500D01*
X140630000Y-87907500D01*
X140585806Y-87925806D01*
X140567500Y-87970000D01*
X140567500Y-89159419D01*
X140392253Y-89159419D01*
X140392500Y-89156408D01*
X140392500Y-87970000D01*
X140374194Y-87925806D01*
X140330000Y-87907500D01*
X139655000Y-87907500D01*
X139610806Y-87925806D01*
X139592500Y-87970000D01*
X139592500Y-88389783D01*
X117489500Y-88389783D01*
X117489500Y-87556409D01*
X130974970Y-87556409D01*
X130992586Y-87667634D01*
X130998629Y-87686232D01*
X131049754Y-87786569D01*
X131061248Y-87802388D01*
X131140876Y-87882016D01*
X131156695Y-87893510D01*
X131257032Y-87944635D01*
X131275630Y-87950678D01*
X131386855Y-87968294D01*
X131406409Y-87968294D01*
X131517634Y-87950678D01*
X131536232Y-87944635D01*
X131636569Y-87893510D01*
X131652388Y-87882016D01*
X131732016Y-87802388D01*
X131743510Y-87786569D01*
X131794635Y-87686232D01*
X131799909Y-87670000D01*
X139592500Y-87670000D01*
X139610806Y-87714194D01*
X139655000Y-87732500D01*
X140330000Y-87732500D01*
X140374194Y-87714194D01*
X140392500Y-87670000D01*
X140567500Y-87670000D01*
X140585806Y-87714194D01*
X140630000Y-87732500D01*
X141305000Y-87732500D01*
X141349194Y-87714194D01*
X141367500Y-87670000D01*
X148232500Y-87670000D01*
X148250806Y-87714194D01*
X148295000Y-87732500D01*
X148970000Y-87732500D01*
X149014194Y-87714194D01*
X149032500Y-87670000D01*
X149207500Y-87670000D01*
X149225806Y-87714194D01*
X149270000Y-87732500D01*
X149945000Y-87732500D01*
X149989194Y-87714194D01*
X150007500Y-87670000D01*
X150007500Y-87250217D01*
X150007134Y-87243467D01*
X150003474Y-87209777D01*
X150178338Y-87209777D01*
X150195954Y-87321002D01*
X150201997Y-87339600D01*
X150253122Y-87439937D01*
X150264616Y-87455756D01*
X150344244Y-87535384D01*
X150360063Y-87546878D01*
X150460400Y-87598003D01*
X150478998Y-87604046D01*
X150590223Y-87621662D01*
X150609777Y-87621662D01*
X150721002Y-87604046D01*
X150739600Y-87598003D01*
X150839937Y-87546878D01*
X150855756Y-87535384D01*
X150935384Y-87455756D01*
X150946878Y-87439937D01*
X150998003Y-87339600D01*
X151004046Y-87321002D01*
X151021662Y-87209777D01*
X151021662Y-87190223D01*
X151004046Y-87078998D01*
X150998003Y-87060400D01*
X150946878Y-86960063D01*
X150935384Y-86944244D01*
X150855756Y-86864616D01*
X150839937Y-86853122D01*
X150739600Y-86801997D01*
X150721002Y-86795954D01*
X150609777Y-86778338D01*
X150590223Y-86778338D01*
X150478998Y-86795954D01*
X150460400Y-86801997D01*
X150360063Y-86853122D01*
X150344244Y-86864616D01*
X150264616Y-86944244D01*
X150253122Y-86960063D01*
X150201997Y-87060400D01*
X150195954Y-87078998D01*
X150178338Y-87190223D01*
X150178338Y-87209777D01*
X150003474Y-87209777D01*
X149992640Y-87110049D01*
X149989742Y-87096864D01*
X149932569Y-86926976D01*
X149926906Y-86914721D01*
X149834585Y-86761074D01*
X149826423Y-86750321D01*
X149703263Y-86620083D01*
X149692982Y-86611333D01*
X149544728Y-86510580D01*
X149532809Y-86504243D01*
X149366378Y-86437675D01*
X149353375Y-86434044D01*
X149280208Y-86421931D01*
X149233618Y-86432773D01*
X149208339Y-86473384D01*
X149207500Y-86483592D01*
X149207500Y-87670000D01*
X149032500Y-87670000D01*
X149032500Y-86480581D01*
X149014194Y-86436387D01*
X148970000Y-86418081D01*
X148953403Y-86420325D01*
X148797909Y-86463155D01*
X148785357Y-86468125D01*
X148626796Y-86551725D01*
X148615604Y-86559274D01*
X148478694Y-86674972D01*
X148469384Y-86684748D01*
X148360512Y-86827147D01*
X148353519Y-86838694D01*
X148277765Y-87001149D01*
X148273414Y-87013929D01*
X148234312Y-87188862D01*
X148232904Y-87199007D01*
X148232597Y-87204498D01*
X148232500Y-87207987D01*
X148232500Y-87670000D01*
X141367500Y-87670000D01*
X141367500Y-87250217D01*
X141367134Y-87243467D01*
X141352640Y-87110049D01*
X141349742Y-87096864D01*
X141292569Y-86926976D01*
X141286906Y-86914721D01*
X141194585Y-86761074D01*
X141186423Y-86750321D01*
X141063263Y-86620083D01*
X141052982Y-86611333D01*
X140904728Y-86510580D01*
X140892809Y-86504243D01*
X140726378Y-86437675D01*
X140713375Y-86434044D01*
X140640208Y-86421931D01*
X140593618Y-86432773D01*
X140568339Y-86473384D01*
X140567500Y-86483592D01*
X140567500Y-87670000D01*
X140392500Y-87670000D01*
X140392500Y-86480581D01*
X140374194Y-86436387D01*
X140330000Y-86418081D01*
X140313403Y-86420325D01*
X140157909Y-86463155D01*
X140145357Y-86468125D01*
X139986796Y-86551725D01*
X139975604Y-86559274D01*
X139838694Y-86674972D01*
X139829384Y-86684748D01*
X139720512Y-86827147D01*
X139713519Y-86838694D01*
X139637765Y-87001149D01*
X139633414Y-87013929D01*
X139594312Y-87188862D01*
X139592904Y-87199007D01*
X139592597Y-87204498D01*
X139592500Y-87207987D01*
X139592500Y-87670000D01*
X131799909Y-87670000D01*
X131800678Y-87667634D01*
X131818294Y-87556409D01*
X131818294Y-87536855D01*
X131800678Y-87425630D01*
X131794635Y-87407032D01*
X131743510Y-87306695D01*
X131732016Y-87290876D01*
X131652388Y-87211248D01*
X131636569Y-87199754D01*
X131536232Y-87148629D01*
X131517634Y-87142586D01*
X131406409Y-87124970D01*
X131386855Y-87124970D01*
X131275630Y-87142586D01*
X131257032Y-87148629D01*
X131156695Y-87199754D01*
X131140876Y-87211248D01*
X131061248Y-87290876D01*
X131049754Y-87306695D01*
X130998629Y-87407032D01*
X130992586Y-87425630D01*
X130974970Y-87536855D01*
X130974970Y-87556409D01*
X117489500Y-87556409D01*
X117489500Y-86809777D01*
X137478338Y-86809777D01*
X137495954Y-86921002D01*
X137501997Y-86939600D01*
X137553122Y-87039937D01*
X137564616Y-87055756D01*
X137644244Y-87135384D01*
X137660063Y-87146878D01*
X137760400Y-87198003D01*
X137778998Y-87204046D01*
X137890223Y-87221662D01*
X137909777Y-87221662D01*
X138021002Y-87204046D01*
X138039600Y-87198003D01*
X138139937Y-87146878D01*
X138155756Y-87135384D01*
X138235384Y-87055756D01*
X138246878Y-87039937D01*
X138298003Y-86939600D01*
X138304046Y-86921002D01*
X138321662Y-86809777D01*
X138321662Y-86790223D01*
X138304046Y-86678998D01*
X138298003Y-86660400D01*
X138246878Y-86560063D01*
X138235384Y-86544244D01*
X138155756Y-86464616D01*
X138139937Y-86453122D01*
X138039600Y-86401997D01*
X138021002Y-86395954D01*
X137909777Y-86378338D01*
X137890223Y-86378338D01*
X137778998Y-86395954D01*
X137760400Y-86401997D01*
X137660063Y-86453122D01*
X137644244Y-86464616D01*
X137564616Y-86544244D01*
X137553122Y-86560063D01*
X137501997Y-86660400D01*
X137495954Y-86678998D01*
X137478338Y-86790223D01*
X137478338Y-86809777D01*
X117489500Y-86809777D01*
X117489500Y-82908840D01*
X117552428Y-82908840D01*
X117567086Y-83258582D01*
X117567767Y-83265527D01*
X117621320Y-83611455D01*
X117622770Y-83618280D01*
X117714549Y-83956083D01*
X117716752Y-83962704D01*
X117845614Y-84288172D01*
X117848541Y-84294506D01*
X118012879Y-84603581D01*
X118016493Y-84609549D01*
X118214259Y-84898379D01*
X118218517Y-84903908D01*
X118447246Y-85168894D01*
X118452093Y-85173913D01*
X118708935Y-85411751D01*
X118714311Y-85416199D01*
X118996063Y-85623924D01*
X119001902Y-85627745D01*
X119305054Y-85802770D01*
X119311282Y-85805916D01*
X119632054Y-85946058D01*
X119638594Y-85948490D01*
X119972988Y-86052002D01*
X119979759Y-86053690D01*
X120323608Y-86119283D01*
X120330524Y-86120206D01*
X120679541Y-86147061D01*
X120686517Y-86147207D01*
X121036353Y-86134991D01*
X121043302Y-86134359D01*
X121389596Y-86083223D01*
X121396431Y-86081819D01*
X121479856Y-86059777D01*
X128778338Y-86059777D01*
X128795954Y-86171002D01*
X128801997Y-86189600D01*
X128853122Y-86289937D01*
X128864616Y-86305756D01*
X128944244Y-86385384D01*
X128960063Y-86396878D01*
X129060400Y-86448003D01*
X129078998Y-86454046D01*
X129190223Y-86471662D01*
X129209777Y-86471662D01*
X129321002Y-86454046D01*
X129339600Y-86448003D01*
X129439937Y-86396878D01*
X129455756Y-86385384D01*
X129535384Y-86305756D01*
X129546878Y-86289937D01*
X129562246Y-86259777D01*
X139128338Y-86259777D01*
X139145954Y-86371002D01*
X139151997Y-86389600D01*
X139203122Y-86489937D01*
X139214616Y-86505756D01*
X139294244Y-86585384D01*
X139310063Y-86596878D01*
X139410400Y-86648003D01*
X139428998Y-86654046D01*
X139540223Y-86671662D01*
X139559777Y-86671662D01*
X139671002Y-86654046D01*
X139689600Y-86648003D01*
X139789937Y-86596878D01*
X139805756Y-86585384D01*
X139885384Y-86505756D01*
X139896878Y-86489937D01*
X139948003Y-86389600D01*
X139954046Y-86371002D01*
X139971662Y-86259777D01*
X139971662Y-86240223D01*
X139954046Y-86128998D01*
X139948003Y-86110400D01*
X139896878Y-86010063D01*
X139896670Y-86009777D01*
X142578338Y-86009777D01*
X142595954Y-86121002D01*
X142601997Y-86139600D01*
X142653122Y-86239937D01*
X142664616Y-86255756D01*
X142744244Y-86335384D01*
X142760063Y-86346878D01*
X142860400Y-86398003D01*
X142878998Y-86404046D01*
X142990223Y-86421662D01*
X143009777Y-86421662D01*
X143121002Y-86404046D01*
X143139600Y-86398003D01*
X143239937Y-86346878D01*
X143255756Y-86335384D01*
X143335384Y-86255756D01*
X143346878Y-86239937D01*
X143387722Y-86159777D01*
X151128338Y-86159777D01*
X151145954Y-86271002D01*
X151151997Y-86289600D01*
X151203122Y-86389937D01*
X151214616Y-86405756D01*
X151294244Y-86485384D01*
X151310063Y-86496878D01*
X151410400Y-86548003D01*
X151428998Y-86554046D01*
X151537612Y-86571248D01*
X151514616Y-86594244D01*
X151503122Y-86610063D01*
X151451997Y-86710400D01*
X151445954Y-86728998D01*
X151428338Y-86840223D01*
X151428338Y-86859777D01*
X151445954Y-86971002D01*
X151451997Y-86989600D01*
X151503122Y-87089937D01*
X151514616Y-87105756D01*
X151594244Y-87185384D01*
X151610063Y-87196878D01*
X151710400Y-87248003D01*
X151728998Y-87254046D01*
X151840223Y-87271662D01*
X151859777Y-87271662D01*
X151971002Y-87254046D01*
X151989600Y-87248003D01*
X152089937Y-87196878D01*
X152105756Y-87185384D01*
X152185384Y-87105756D01*
X152196878Y-87089937D01*
X152248003Y-86989600D01*
X152254046Y-86971002D01*
X152255824Y-86959777D01*
X157128338Y-86959777D01*
X157145954Y-87071002D01*
X157151997Y-87089600D01*
X157203122Y-87189937D01*
X157214616Y-87205756D01*
X157294244Y-87285384D01*
X157310063Y-87296878D01*
X157410400Y-87348003D01*
X157428998Y-87354046D01*
X157540223Y-87371662D01*
X157559777Y-87371662D01*
X157671002Y-87354046D01*
X157689600Y-87348003D01*
X157789937Y-87296878D01*
X157805756Y-87285384D01*
X157885384Y-87205756D01*
X157896878Y-87189937D01*
X157948003Y-87089600D01*
X157954046Y-87071002D01*
X157971662Y-86959777D01*
X157971662Y-86940223D01*
X157954046Y-86828998D01*
X157948003Y-86810400D01*
X157896878Y-86710063D01*
X157885384Y-86694244D01*
X157805756Y-86614616D01*
X157789937Y-86603122D01*
X157689600Y-86551997D01*
X157671002Y-86545954D01*
X157559777Y-86528338D01*
X157540223Y-86528338D01*
X157428998Y-86545954D01*
X157410400Y-86551997D01*
X157310063Y-86603122D01*
X157294244Y-86614616D01*
X157214616Y-86694244D01*
X157203122Y-86710063D01*
X157151997Y-86810400D01*
X157145954Y-86828998D01*
X157128338Y-86940223D01*
X157128338Y-86959777D01*
X152255824Y-86959777D01*
X152271662Y-86859777D01*
X152271662Y-86840223D01*
X152254046Y-86728998D01*
X152248003Y-86710400D01*
X152196878Y-86610063D01*
X152185384Y-86594244D01*
X152105756Y-86514616D01*
X152089937Y-86503122D01*
X151989600Y-86451997D01*
X151971002Y-86445954D01*
X151862388Y-86428752D01*
X151885384Y-86405756D01*
X151896878Y-86389937D01*
X151948003Y-86289600D01*
X151954046Y-86271002D01*
X151971662Y-86159777D01*
X151971662Y-86140223D01*
X151954046Y-86028998D01*
X151948003Y-86010400D01*
X151896878Y-85910063D01*
X151885384Y-85894244D01*
X151805756Y-85814616D01*
X151789937Y-85803122D01*
X151689600Y-85751997D01*
X151671002Y-85745954D01*
X151559777Y-85728338D01*
X151540223Y-85728338D01*
X151428998Y-85745954D01*
X151410400Y-85751997D01*
X151310063Y-85803122D01*
X151294244Y-85814616D01*
X151214616Y-85894244D01*
X151203122Y-85910063D01*
X151151997Y-86010400D01*
X151145954Y-86028998D01*
X151128338Y-86140223D01*
X151128338Y-86159777D01*
X143387722Y-86159777D01*
X143398003Y-86139600D01*
X143404046Y-86121002D01*
X143421662Y-86009777D01*
X143421662Y-85990223D01*
X143404046Y-85878998D01*
X143398003Y-85860400D01*
X143346878Y-85760063D01*
X143335384Y-85744244D01*
X143255756Y-85664616D01*
X143239937Y-85653122D01*
X143139600Y-85601997D01*
X143121002Y-85595954D01*
X143009777Y-85578338D01*
X142990223Y-85578338D01*
X142878998Y-85595954D01*
X142860400Y-85601997D01*
X142760063Y-85653122D01*
X142744244Y-85664616D01*
X142664616Y-85744244D01*
X142653122Y-85760063D01*
X142601997Y-85860400D01*
X142595954Y-85878998D01*
X142578338Y-85990223D01*
X142578338Y-86009777D01*
X139896670Y-86009777D01*
X139885384Y-85994244D01*
X139805756Y-85914616D01*
X139789937Y-85903122D01*
X139689600Y-85851997D01*
X139671002Y-85845954D01*
X139559777Y-85828338D01*
X139540223Y-85828338D01*
X139428998Y-85845954D01*
X139410400Y-85851997D01*
X139310063Y-85903122D01*
X139294244Y-85914616D01*
X139214616Y-85994244D01*
X139203122Y-86010063D01*
X139151997Y-86110400D01*
X139145954Y-86128998D01*
X139128338Y-86240223D01*
X139128338Y-86259777D01*
X129562246Y-86259777D01*
X129598003Y-86189600D01*
X129604046Y-86171002D01*
X129621662Y-86059777D01*
X129621662Y-86040223D01*
X129604046Y-85928998D01*
X129598003Y-85910400D01*
X129546878Y-85810063D01*
X129535384Y-85794244D01*
X129455756Y-85714616D01*
X129439937Y-85703122D01*
X129339600Y-85651997D01*
X129321002Y-85645954D01*
X129209777Y-85628338D01*
X129190223Y-85628338D01*
X129078998Y-85645954D01*
X129060400Y-85651997D01*
X128960063Y-85703122D01*
X128944244Y-85714616D01*
X128864616Y-85794244D01*
X128853122Y-85810063D01*
X128801997Y-85910400D01*
X128795954Y-85928998D01*
X128778338Y-86040223D01*
X128778338Y-86059777D01*
X121479856Y-86059777D01*
X121734867Y-85992400D01*
X121741503Y-85990244D01*
X122067862Y-85863658D01*
X122074217Y-85860776D01*
X122384432Y-85698599D01*
X122390426Y-85695026D01*
X122516813Y-85609777D01*
X125728338Y-85609777D01*
X125745954Y-85721002D01*
X125751997Y-85739600D01*
X125803122Y-85839937D01*
X125814616Y-85855756D01*
X125894244Y-85935384D01*
X125910063Y-85946878D01*
X126010400Y-85998003D01*
X126028998Y-86004046D01*
X126140223Y-86021662D01*
X126159777Y-86021662D01*
X126271002Y-86004046D01*
X126289600Y-85998003D01*
X126389937Y-85946878D01*
X126405756Y-85935384D01*
X126485384Y-85855756D01*
X126496878Y-85839937D01*
X126548003Y-85739600D01*
X126554046Y-85721002D01*
X126571662Y-85609777D01*
X136478338Y-85609777D01*
X136495954Y-85721002D01*
X136501997Y-85739600D01*
X136553122Y-85839937D01*
X136564616Y-85855756D01*
X136644244Y-85935384D01*
X136660063Y-85946878D01*
X136760400Y-85998003D01*
X136778998Y-86004046D01*
X136890223Y-86021662D01*
X136909777Y-86021662D01*
X137021002Y-86004046D01*
X137039600Y-85998003D01*
X137139937Y-85946878D01*
X137155756Y-85935384D01*
X137235384Y-85855756D01*
X137246878Y-85839937D01*
X137298003Y-85739600D01*
X137304046Y-85721002D01*
X137321662Y-85609777D01*
X137321662Y-85590223D01*
X137304046Y-85478998D01*
X137298003Y-85460400D01*
X137246878Y-85360063D01*
X137235384Y-85344244D01*
X137155756Y-85264616D01*
X137139937Y-85253122D01*
X137039600Y-85201997D01*
X137021002Y-85195954D01*
X136909777Y-85178338D01*
X136890223Y-85178338D01*
X136778998Y-85195954D01*
X136760400Y-85201997D01*
X136660063Y-85253122D01*
X136644244Y-85264616D01*
X136564616Y-85344244D01*
X136553122Y-85360063D01*
X136501997Y-85460400D01*
X136495954Y-85478998D01*
X136478338Y-85590223D01*
X136478338Y-85609777D01*
X126571662Y-85609777D01*
X126571662Y-85590223D01*
X126554046Y-85478998D01*
X126548003Y-85460400D01*
X126496878Y-85360063D01*
X126485384Y-85344244D01*
X126405756Y-85264616D01*
X126389937Y-85253122D01*
X126289600Y-85201997D01*
X126271002Y-85195954D01*
X126159777Y-85178338D01*
X126140223Y-85178338D01*
X126028998Y-85195954D01*
X126010400Y-85201997D01*
X125910063Y-85253122D01*
X125894244Y-85264616D01*
X125814616Y-85344244D01*
X125803122Y-85360063D01*
X125751997Y-85460400D01*
X125745954Y-85478998D01*
X125728338Y-85590223D01*
X125728338Y-85609777D01*
X122516813Y-85609777D01*
X122680630Y-85499281D01*
X122686187Y-85495062D01*
X122952763Y-85268188D01*
X122957817Y-85263376D01*
X123197442Y-85008201D01*
X123201927Y-85002856D01*
X123411615Y-84722561D01*
X123415476Y-84716749D01*
X123592612Y-84414827D01*
X123595802Y-84408621D01*
X123738180Y-84088835D01*
X123740657Y-84082312D01*
X123747806Y-84059777D01*
X140578338Y-84059777D01*
X140595954Y-84171002D01*
X140601997Y-84189600D01*
X140653122Y-84289937D01*
X140664616Y-84305756D01*
X140744244Y-84385384D01*
X140760063Y-84396878D01*
X140860400Y-84448003D01*
X140878998Y-84454046D01*
X140990223Y-84471662D01*
X141009777Y-84471662D01*
X141121002Y-84454046D01*
X141139600Y-84448003D01*
X141239937Y-84396878D01*
X141255756Y-84385384D01*
X141335384Y-84305756D01*
X141346878Y-84289937D01*
X141398003Y-84189600D01*
X141404046Y-84171002D01*
X141405824Y-84159777D01*
X144228338Y-84159777D01*
X144245954Y-84271002D01*
X144251997Y-84289600D01*
X144303122Y-84389937D01*
X144314616Y-84405756D01*
X144394244Y-84485384D01*
X144410063Y-84496878D01*
X144510400Y-84548003D01*
X144528998Y-84554046D01*
X144640223Y-84571662D01*
X144659777Y-84571662D01*
X144771002Y-84554046D01*
X144789600Y-84548003D01*
X144889937Y-84496878D01*
X144905756Y-84485384D01*
X144985384Y-84405756D01*
X144996878Y-84389937D01*
X145048003Y-84289600D01*
X145054046Y-84271002D01*
X145071662Y-84159777D01*
X145071662Y-84140223D01*
X145054046Y-84028998D01*
X145048003Y-84010400D01*
X144996878Y-83910063D01*
X144985384Y-83894244D01*
X144905756Y-83814616D01*
X144889937Y-83803122D01*
X144804869Y-83759777D01*
X146678338Y-83759777D01*
X146695954Y-83871002D01*
X146701997Y-83889600D01*
X146753122Y-83989937D01*
X146764616Y-84005756D01*
X146844244Y-84085384D01*
X146860063Y-84096878D01*
X146960400Y-84148003D01*
X146978998Y-84154046D01*
X147090223Y-84171662D01*
X147109777Y-84171662D01*
X147221002Y-84154046D01*
X147239600Y-84148003D01*
X147339937Y-84096878D01*
X147355756Y-84085384D01*
X147435384Y-84005756D01*
X147446878Y-83989937D01*
X147492646Y-83900114D01*
X147495954Y-83921002D01*
X147501997Y-83939600D01*
X147553122Y-84039937D01*
X147564616Y-84055756D01*
X147644244Y-84135384D01*
X147660063Y-84146878D01*
X147760400Y-84198003D01*
X147778998Y-84204046D01*
X147890223Y-84221662D01*
X147909777Y-84221662D01*
X148021002Y-84204046D01*
X148039600Y-84198003D01*
X148139937Y-84146878D01*
X148155756Y-84135384D01*
X148235384Y-84055756D01*
X148246878Y-84039937D01*
X148298003Y-83939600D01*
X148304046Y-83921002D01*
X148313743Y-83859777D01*
X148328338Y-83859777D01*
X148345954Y-83971002D01*
X148351997Y-83989600D01*
X148403122Y-84089937D01*
X148414616Y-84105756D01*
X148494244Y-84185384D01*
X148510063Y-84196878D01*
X148610400Y-84248003D01*
X148628998Y-84254046D01*
X148740223Y-84271662D01*
X148759777Y-84271662D01*
X148871002Y-84254046D01*
X148889600Y-84248003D01*
X148989937Y-84196878D01*
X149005756Y-84185384D01*
X149078096Y-84113044D01*
X150630574Y-84113044D01*
X150648190Y-84224269D01*
X150654233Y-84242867D01*
X150705358Y-84343204D01*
X150716852Y-84359023D01*
X150796480Y-84438651D01*
X150812299Y-84450145D01*
X150912636Y-84501270D01*
X150931234Y-84507313D01*
X151042459Y-84524929D01*
X151062013Y-84524929D01*
X151173238Y-84507313D01*
X151191836Y-84501270D01*
X151292173Y-84450145D01*
X151307992Y-84438651D01*
X151386866Y-84359777D01*
X157328338Y-84359777D01*
X157345954Y-84471002D01*
X157351997Y-84489600D01*
X157403122Y-84589937D01*
X157414616Y-84605756D01*
X157494244Y-84685384D01*
X157510063Y-84696878D01*
X157610400Y-84748003D01*
X157628998Y-84754046D01*
X157740223Y-84771662D01*
X157759777Y-84771662D01*
X157871002Y-84754046D01*
X157889600Y-84748003D01*
X157989937Y-84696878D01*
X158005756Y-84685384D01*
X158085384Y-84605756D01*
X158096878Y-84589937D01*
X158148003Y-84489600D01*
X158154046Y-84471002D01*
X158171662Y-84359777D01*
X158171662Y-84340223D01*
X158154046Y-84228998D01*
X158148003Y-84210400D01*
X158096878Y-84110063D01*
X158085384Y-84094244D01*
X158005756Y-84014616D01*
X157989937Y-84003122D01*
X157889600Y-83951997D01*
X157871002Y-83945954D01*
X157759777Y-83928338D01*
X157740223Y-83928338D01*
X157628998Y-83945954D01*
X157610400Y-83951997D01*
X157510063Y-84003122D01*
X157494244Y-84014616D01*
X157414616Y-84094244D01*
X157403122Y-84110063D01*
X157351997Y-84210400D01*
X157345954Y-84228998D01*
X157328338Y-84340223D01*
X157328338Y-84359777D01*
X151386866Y-84359777D01*
X151387620Y-84359023D01*
X151399114Y-84343204D01*
X151450239Y-84242867D01*
X151456282Y-84224269D01*
X151473898Y-84113044D01*
X151473898Y-84093490D01*
X151456282Y-83982265D01*
X151450239Y-83963667D01*
X151438321Y-83940277D01*
X156578338Y-83940277D01*
X156595954Y-84051502D01*
X156601997Y-84070100D01*
X156653122Y-84170437D01*
X156664616Y-84186256D01*
X156744244Y-84265884D01*
X156760063Y-84277378D01*
X156860400Y-84328503D01*
X156878998Y-84334546D01*
X156990223Y-84352162D01*
X157009777Y-84352162D01*
X157121002Y-84334546D01*
X157139600Y-84328503D01*
X157239937Y-84277378D01*
X157255756Y-84265884D01*
X157335384Y-84186256D01*
X157346878Y-84170437D01*
X157398003Y-84070100D01*
X157404046Y-84051502D01*
X157421662Y-83940277D01*
X157421662Y-83920723D01*
X157404046Y-83809498D01*
X157398003Y-83790900D01*
X157346878Y-83690563D01*
X157335384Y-83674744D01*
X157255756Y-83595116D01*
X157239937Y-83583622D01*
X157139600Y-83532497D01*
X157121002Y-83526454D01*
X157009777Y-83508838D01*
X156990223Y-83508838D01*
X156878998Y-83526454D01*
X156860400Y-83532497D01*
X156760063Y-83583622D01*
X156744244Y-83595116D01*
X156664616Y-83674744D01*
X156653122Y-83690563D01*
X156601997Y-83790900D01*
X156595954Y-83809498D01*
X156578338Y-83920723D01*
X156578338Y-83940277D01*
X151438321Y-83940277D01*
X151399114Y-83863330D01*
X151387620Y-83847511D01*
X151307992Y-83767883D01*
X151292173Y-83756389D01*
X151191836Y-83705264D01*
X151173238Y-83699221D01*
X151062013Y-83681605D01*
X151042459Y-83681605D01*
X150931234Y-83699221D01*
X150912636Y-83705264D01*
X150812299Y-83756389D01*
X150796480Y-83767883D01*
X150716852Y-83847511D01*
X150705358Y-83863330D01*
X150654233Y-83963667D01*
X150648190Y-83982265D01*
X150630574Y-84093490D01*
X150630574Y-84113044D01*
X149078096Y-84113044D01*
X149085384Y-84105756D01*
X149096878Y-84089937D01*
X149148003Y-83989600D01*
X149154046Y-83971002D01*
X149171662Y-83859777D01*
X149171662Y-83840223D01*
X149154046Y-83728998D01*
X149148003Y-83710400D01*
X149096878Y-83610063D01*
X149096670Y-83609777D01*
X149378338Y-83609777D01*
X149395954Y-83721002D01*
X149401997Y-83739600D01*
X149453122Y-83839937D01*
X149464616Y-83855756D01*
X149544244Y-83935384D01*
X149560063Y-83946878D01*
X149660400Y-83998003D01*
X149678998Y-84004046D01*
X149790223Y-84021662D01*
X149809777Y-84021662D01*
X149921002Y-84004046D01*
X149939600Y-83998003D01*
X150039937Y-83946878D01*
X150055756Y-83935384D01*
X150135384Y-83855756D01*
X150146878Y-83839937D01*
X150198003Y-83739600D01*
X150204046Y-83721002D01*
X150221662Y-83609777D01*
X150221662Y-83590223D01*
X150204046Y-83478998D01*
X150198003Y-83460400D01*
X150146878Y-83360063D01*
X150135384Y-83344244D01*
X150055756Y-83264616D01*
X150039937Y-83253122D01*
X149939600Y-83201997D01*
X149921002Y-83195954D01*
X149809777Y-83178338D01*
X149790223Y-83178338D01*
X149678998Y-83195954D01*
X149660400Y-83201997D01*
X149560063Y-83253122D01*
X149544244Y-83264616D01*
X149464616Y-83344244D01*
X149453122Y-83360063D01*
X149401997Y-83460400D01*
X149395954Y-83478998D01*
X149378338Y-83590223D01*
X149378338Y-83609777D01*
X149096670Y-83609777D01*
X149085384Y-83594244D01*
X149005756Y-83514616D01*
X148989937Y-83503122D01*
X148889600Y-83451997D01*
X148871002Y-83445954D01*
X148759777Y-83428338D01*
X148740223Y-83428338D01*
X148628998Y-83445954D01*
X148610400Y-83451997D01*
X148510063Y-83503122D01*
X148494244Y-83514616D01*
X148414616Y-83594244D01*
X148403122Y-83610063D01*
X148351997Y-83710400D01*
X148345954Y-83728998D01*
X148328338Y-83840223D01*
X148328338Y-83859777D01*
X148313743Y-83859777D01*
X148321662Y-83809777D01*
X148321662Y-83790223D01*
X148304046Y-83678998D01*
X148298003Y-83660400D01*
X148246878Y-83560063D01*
X148235384Y-83544244D01*
X148155756Y-83464616D01*
X148139937Y-83453122D01*
X148039600Y-83401997D01*
X148021002Y-83395954D01*
X147909777Y-83378338D01*
X147890223Y-83378338D01*
X147778998Y-83395954D01*
X147760400Y-83401997D01*
X147660063Y-83453122D01*
X147644244Y-83464616D01*
X147564616Y-83544244D01*
X147553122Y-83560063D01*
X147507354Y-83649886D01*
X147504046Y-83628998D01*
X147498003Y-83610400D01*
X147446878Y-83510063D01*
X147435384Y-83494244D01*
X147355756Y-83414616D01*
X147339937Y-83403122D01*
X147239600Y-83351997D01*
X147221002Y-83345954D01*
X147109777Y-83328338D01*
X147090223Y-83328338D01*
X146978998Y-83345954D01*
X146960400Y-83351997D01*
X146860063Y-83403122D01*
X146844244Y-83414616D01*
X146764616Y-83494244D01*
X146753122Y-83510063D01*
X146701997Y-83610400D01*
X146695954Y-83628998D01*
X146678338Y-83740223D01*
X146678338Y-83759777D01*
X144804869Y-83759777D01*
X144789600Y-83751997D01*
X144771002Y-83745954D01*
X144659777Y-83728338D01*
X144640223Y-83728338D01*
X144528998Y-83745954D01*
X144510400Y-83751997D01*
X144410063Y-83803122D01*
X144394244Y-83814616D01*
X144314616Y-83894244D01*
X144303122Y-83910063D01*
X144251997Y-84010400D01*
X144245954Y-84028998D01*
X144228338Y-84140223D01*
X144228338Y-84159777D01*
X141405824Y-84159777D01*
X141421662Y-84059777D01*
X141421662Y-84040223D01*
X141404046Y-83928998D01*
X141398003Y-83910400D01*
X141346878Y-83810063D01*
X141335384Y-83794244D01*
X141255756Y-83714616D01*
X141239937Y-83703122D01*
X141139600Y-83651997D01*
X141121002Y-83645954D01*
X141009777Y-83628338D01*
X140990223Y-83628338D01*
X140878998Y-83645954D01*
X140860400Y-83651997D01*
X140760063Y-83703122D01*
X140744244Y-83714616D01*
X140664616Y-83794244D01*
X140653122Y-83810063D01*
X140601997Y-83910400D01*
X140595954Y-83928998D01*
X140578338Y-84040223D01*
X140578338Y-84059777D01*
X123747806Y-84059777D01*
X123846502Y-83748648D01*
X123848238Y-83741890D01*
X123913998Y-83409777D01*
X130778338Y-83409777D01*
X130795954Y-83521002D01*
X130801997Y-83539600D01*
X130853122Y-83639937D01*
X130864616Y-83655756D01*
X130944244Y-83735384D01*
X130960063Y-83746878D01*
X131060400Y-83798003D01*
X131078998Y-83804046D01*
X131190223Y-83821662D01*
X131209777Y-83821662D01*
X131321002Y-83804046D01*
X131339600Y-83798003D01*
X131439937Y-83746878D01*
X131455756Y-83735384D01*
X131535384Y-83655756D01*
X131546878Y-83639937D01*
X131598003Y-83539600D01*
X131604046Y-83521002D01*
X131621662Y-83409777D01*
X131621662Y-83390223D01*
X131604046Y-83278998D01*
X131598003Y-83260400D01*
X131597938Y-83260273D01*
X145577812Y-83260273D01*
X145595428Y-83371498D01*
X145601471Y-83390096D01*
X145652596Y-83490433D01*
X145664090Y-83506252D01*
X145743718Y-83585880D01*
X145759537Y-83597374D01*
X145859874Y-83648499D01*
X145878472Y-83654542D01*
X145989697Y-83672158D01*
X146009251Y-83672158D01*
X146120476Y-83654542D01*
X146139074Y-83648499D01*
X146239411Y-83597374D01*
X146255230Y-83585880D01*
X146334858Y-83506252D01*
X146346352Y-83490433D01*
X146397477Y-83390096D01*
X146403520Y-83371498D01*
X146421136Y-83260273D01*
X146421136Y-83240719D01*
X146403520Y-83129494D01*
X146397477Y-83110896D01*
X146346352Y-83010559D01*
X146334858Y-82994740D01*
X146255230Y-82915112D01*
X146246598Y-82908840D01*
X165552428Y-82908840D01*
X165567086Y-83258582D01*
X165567767Y-83265527D01*
X165621320Y-83611455D01*
X165622770Y-83618280D01*
X165714549Y-83956083D01*
X165716752Y-83962704D01*
X165845614Y-84288172D01*
X165848541Y-84294506D01*
X166012879Y-84603581D01*
X166016493Y-84609549D01*
X166214259Y-84898379D01*
X166218517Y-84903908D01*
X166447246Y-85168894D01*
X166452093Y-85173913D01*
X166708935Y-85411751D01*
X166714311Y-85416199D01*
X166996063Y-85623924D01*
X167001902Y-85627745D01*
X167305054Y-85802770D01*
X167311282Y-85805916D01*
X167632054Y-85946058D01*
X167638594Y-85948490D01*
X167972988Y-86052002D01*
X167979759Y-86053690D01*
X168323608Y-86119283D01*
X168330524Y-86120206D01*
X168679541Y-86147061D01*
X168686517Y-86147207D01*
X169036353Y-86134991D01*
X169043302Y-86134359D01*
X169389596Y-86083223D01*
X169396431Y-86081819D01*
X169734867Y-85992400D01*
X169741503Y-85990244D01*
X170067862Y-85863658D01*
X170074217Y-85860776D01*
X170384432Y-85698599D01*
X170390426Y-85695026D01*
X170680630Y-85499281D01*
X170686187Y-85495062D01*
X170952763Y-85268188D01*
X170957817Y-85263376D01*
X171197442Y-85008201D01*
X171201927Y-85002856D01*
X171411615Y-84722561D01*
X171415476Y-84716749D01*
X171592612Y-84414827D01*
X171595802Y-84408621D01*
X171738180Y-84088835D01*
X171740657Y-84082312D01*
X171846502Y-83748648D01*
X171848238Y-83741890D01*
X171916229Y-83398508D01*
X171917200Y-83391598D01*
X171946492Y-83042776D01*
X171946705Y-83038418D01*
X171947927Y-82950872D01*
X171947836Y-82946511D01*
X171928296Y-82597008D01*
X171927518Y-82590074D01*
X171869140Y-82244927D01*
X171867594Y-82238123D01*
X171771108Y-81901634D01*
X171768813Y-81895044D01*
X171635419Y-81571407D01*
X171632404Y-81565114D01*
X171463767Y-81258364D01*
X171460070Y-81252447D01*
X171258290Y-80966406D01*
X171253955Y-80960938D01*
X171021549Y-80699172D01*
X171016633Y-80694220D01*
X170756495Y-80459991D01*
X170751057Y-80455619D01*
X170466432Y-80251847D01*
X170460540Y-80248108D01*
X170154974Y-80077333D01*
X170148703Y-80074275D01*
X169826006Y-79938626D01*
X169819432Y-79936285D01*
X169483625Y-79837452D01*
X169476832Y-79835859D01*
X169132101Y-79775073D01*
X169125172Y-79774246D01*
X168775813Y-79752266D01*
X168768836Y-79752218D01*
X168419205Y-79769318D01*
X168412265Y-79770047D01*
X168066719Y-79826014D01*
X168059905Y-79827512D01*
X167722751Y-79921647D01*
X167716145Y-79923896D01*
X167391585Y-80055026D01*
X167385272Y-80057997D01*
X167077351Y-80224489D01*
X167071407Y-80228145D01*
X166783965Y-80427923D01*
X166778467Y-80432219D01*
X166515084Y-80662793D01*
X166510099Y-80667675D01*
X166274060Y-80926170D01*
X166269649Y-80931578D01*
X166063896Y-81214774D01*
X166060117Y-81220639D01*
X165887213Y-81525005D01*
X165884110Y-81531255D01*
X165746211Y-81852998D01*
X165743825Y-81859554D01*
X165642649Y-82194663D01*
X165641008Y-82201446D01*
X165577818Y-82545744D01*
X165576943Y-82552666D01*
X165552525Y-82901863D01*
X165552428Y-82908840D01*
X146246598Y-82908840D01*
X146239411Y-82903618D01*
X146139074Y-82852493D01*
X146120476Y-82846450D01*
X146009251Y-82828834D01*
X145989697Y-82828834D01*
X145878472Y-82846450D01*
X145859874Y-82852493D01*
X145759537Y-82903618D01*
X145743718Y-82915112D01*
X145664090Y-82994740D01*
X145652596Y-83010559D01*
X145601471Y-83110896D01*
X145595428Y-83129494D01*
X145577812Y-83240719D01*
X145577812Y-83260273D01*
X131597938Y-83260273D01*
X131546878Y-83160063D01*
X131535384Y-83144244D01*
X131455756Y-83064616D01*
X131439937Y-83053122D01*
X131339600Y-83001997D01*
X131321002Y-82995954D01*
X131209777Y-82978338D01*
X131190223Y-82978338D01*
X131078998Y-82995954D01*
X131060400Y-83001997D01*
X130960063Y-83053122D01*
X130944244Y-83064616D01*
X130864616Y-83144244D01*
X130853122Y-83160063D01*
X130801997Y-83260400D01*
X130795954Y-83278998D01*
X130778338Y-83390223D01*
X130778338Y-83409777D01*
X123913998Y-83409777D01*
X123916229Y-83398508D01*
X123917200Y-83391598D01*
X123946492Y-83042776D01*
X123946705Y-83038418D01*
X123947927Y-82950872D01*
X123947836Y-82946511D01*
X123928296Y-82597008D01*
X123927518Y-82590074D01*
X123879432Y-82305777D01*
X132420338Y-82305777D01*
X132437954Y-82417002D01*
X132443997Y-82435600D01*
X132495122Y-82535937D01*
X132506616Y-82551756D01*
X132586244Y-82631384D01*
X132602063Y-82642878D01*
X132702400Y-82694003D01*
X132720998Y-82700046D01*
X132832223Y-82717662D01*
X132851777Y-82717662D01*
X132963002Y-82700046D01*
X132981600Y-82694003D01*
X133081937Y-82642878D01*
X133097756Y-82631384D01*
X133177384Y-82551756D01*
X133188878Y-82535937D01*
X133227684Y-82459777D01*
X133928338Y-82459777D01*
X133945954Y-82571002D01*
X133951997Y-82589600D01*
X134003122Y-82689937D01*
X134014616Y-82705756D01*
X134094244Y-82785384D01*
X134110063Y-82796878D01*
X134210400Y-82848003D01*
X134228998Y-82854046D01*
X134340223Y-82871662D01*
X134359777Y-82871662D01*
X134471002Y-82854046D01*
X134489600Y-82848003D01*
X134589937Y-82796878D01*
X134605756Y-82785384D01*
X134681363Y-82709777D01*
X142728338Y-82709777D01*
X142745954Y-82821002D01*
X142751997Y-82839600D01*
X142803122Y-82939937D01*
X142814616Y-82955756D01*
X142894244Y-83035384D01*
X142910063Y-83046878D01*
X143010400Y-83098003D01*
X143028998Y-83104046D01*
X143140223Y-83121662D01*
X143159777Y-83121662D01*
X143271002Y-83104046D01*
X143289600Y-83098003D01*
X143389937Y-83046878D01*
X143405756Y-83035384D01*
X143485384Y-82955756D01*
X143496878Y-82939937D01*
X143548003Y-82839600D01*
X143554046Y-82821002D01*
X143571662Y-82709777D01*
X143571662Y-82690223D01*
X143554046Y-82578998D01*
X143548003Y-82560400D01*
X143496878Y-82460063D01*
X143485384Y-82444244D01*
X143405756Y-82364616D01*
X143389937Y-82353122D01*
X143289600Y-82301997D01*
X143271002Y-82295954D01*
X143159777Y-82278338D01*
X143140223Y-82278338D01*
X143028998Y-82295954D01*
X143010400Y-82301997D01*
X142910063Y-82353122D01*
X142894244Y-82364616D01*
X142814616Y-82444244D01*
X142803122Y-82460063D01*
X142751997Y-82560400D01*
X142745954Y-82578998D01*
X142728338Y-82690223D01*
X142728338Y-82709777D01*
X134681363Y-82709777D01*
X134685384Y-82705756D01*
X134696878Y-82689937D01*
X134748003Y-82589600D01*
X134754046Y-82571002D01*
X134771662Y-82459777D01*
X134771662Y-82440223D01*
X134754046Y-82328998D01*
X134748003Y-82310400D01*
X134696878Y-82210063D01*
X134685384Y-82194244D01*
X134605756Y-82114616D01*
X134589937Y-82103122D01*
X134489600Y-82051997D01*
X134471002Y-82045954D01*
X134359777Y-82028338D01*
X134340223Y-82028338D01*
X134228998Y-82045954D01*
X134210400Y-82051997D01*
X134110063Y-82103122D01*
X134094244Y-82114616D01*
X134014616Y-82194244D01*
X134003122Y-82210063D01*
X133951997Y-82310400D01*
X133945954Y-82328998D01*
X133928338Y-82440223D01*
X133928338Y-82459777D01*
X133227684Y-82459777D01*
X133240003Y-82435600D01*
X133246046Y-82417002D01*
X133263662Y-82305777D01*
X133263662Y-82286223D01*
X133246046Y-82174998D01*
X133240003Y-82156400D01*
X133188878Y-82056063D01*
X133177384Y-82040244D01*
X133097756Y-81960616D01*
X133081937Y-81949122D01*
X132981600Y-81897997D01*
X132963002Y-81891954D01*
X132851777Y-81874338D01*
X132832223Y-81874338D01*
X132720998Y-81891954D01*
X132702400Y-81897997D01*
X132602063Y-81949122D01*
X132586244Y-81960616D01*
X132506616Y-82040244D01*
X132495122Y-82056063D01*
X132443997Y-82156400D01*
X132437954Y-82174998D01*
X132420338Y-82286223D01*
X132420338Y-82305777D01*
X123879432Y-82305777D01*
X123869140Y-82244927D01*
X123867594Y-82238123D01*
X123771108Y-81901634D01*
X123768813Y-81895044D01*
X123635419Y-81571407D01*
X123632404Y-81565114D01*
X123601982Y-81509777D01*
X126678338Y-81509777D01*
X126695954Y-81621002D01*
X126701997Y-81639600D01*
X126753122Y-81739937D01*
X126764616Y-81755756D01*
X126844244Y-81835384D01*
X126860063Y-81846878D01*
X126960400Y-81898003D01*
X126978998Y-81904046D01*
X127090223Y-81921662D01*
X127109777Y-81921662D01*
X127221002Y-81904046D01*
X127239600Y-81898003D01*
X127339937Y-81846878D01*
X127355756Y-81835384D01*
X127435384Y-81755756D01*
X127446878Y-81739937D01*
X127498003Y-81639600D01*
X127504046Y-81621002D01*
X127521662Y-81509777D01*
X127521662Y-81490223D01*
X127504046Y-81378998D01*
X127498003Y-81360400D01*
X127446878Y-81260063D01*
X127435384Y-81244244D01*
X127405417Y-81214277D01*
X133378338Y-81214277D01*
X133395954Y-81325502D01*
X133401997Y-81344100D01*
X133453122Y-81444437D01*
X133464616Y-81460256D01*
X133544244Y-81539884D01*
X133560063Y-81551378D01*
X133660400Y-81602503D01*
X133678998Y-81608546D01*
X133790223Y-81626162D01*
X133809777Y-81626162D01*
X133921002Y-81608546D01*
X133939600Y-81602503D01*
X134039937Y-81551378D01*
X134055756Y-81539884D01*
X134135384Y-81460256D01*
X134146878Y-81444437D01*
X134164538Y-81409777D01*
X134728338Y-81409777D01*
X134745954Y-81521002D01*
X134751997Y-81539600D01*
X134803122Y-81639937D01*
X134814616Y-81655756D01*
X134894244Y-81735384D01*
X134910063Y-81746878D01*
X135010400Y-81798003D01*
X135028998Y-81804046D01*
X135140223Y-81821662D01*
X135159777Y-81821662D01*
X135241031Y-81808793D01*
X135201997Y-81885400D01*
X135195954Y-81903998D01*
X135178338Y-82015223D01*
X135178338Y-82034777D01*
X135195954Y-82146002D01*
X135201997Y-82164600D01*
X135253122Y-82264937D01*
X135264616Y-82280756D01*
X135344244Y-82360384D01*
X135360063Y-82371878D01*
X135460400Y-82423003D01*
X135478998Y-82429046D01*
X135590223Y-82446662D01*
X135609777Y-82446662D01*
X135721002Y-82429046D01*
X135739600Y-82423003D01*
X135839937Y-82371878D01*
X135855756Y-82360384D01*
X135935384Y-82280756D01*
X135946878Y-82264937D01*
X135998003Y-82164600D01*
X136004046Y-82146002D01*
X136021662Y-82034777D01*
X136021662Y-82015223D01*
X136004046Y-81903998D01*
X135998003Y-81885400D01*
X135946878Y-81785063D01*
X135935384Y-81769244D01*
X135855756Y-81689616D01*
X135839937Y-81678122D01*
X135739600Y-81626997D01*
X135721002Y-81620954D01*
X135609777Y-81603338D01*
X135590223Y-81603338D01*
X135508969Y-81616207D01*
X135548003Y-81539600D01*
X135554046Y-81521002D01*
X135571662Y-81409777D01*
X135571662Y-81390223D01*
X135554046Y-81278998D01*
X135548003Y-81260400D01*
X135496878Y-81160063D01*
X135485384Y-81144244D01*
X135405756Y-81064616D01*
X135389937Y-81053122D01*
X135304869Y-81009777D01*
X144228338Y-81009777D01*
X144245954Y-81121002D01*
X144251997Y-81139600D01*
X144303122Y-81239937D01*
X144314616Y-81255756D01*
X144394244Y-81335384D01*
X144410063Y-81346878D01*
X144510400Y-81398003D01*
X144528998Y-81404046D01*
X144640223Y-81421662D01*
X144659777Y-81421662D01*
X144771002Y-81404046D01*
X144789600Y-81398003D01*
X144889937Y-81346878D01*
X144905756Y-81335384D01*
X144985384Y-81255756D01*
X144996878Y-81239937D01*
X145048003Y-81139600D01*
X145054046Y-81121002D01*
X145071662Y-81009777D01*
X148778338Y-81009777D01*
X148795954Y-81121002D01*
X148801997Y-81139600D01*
X148853122Y-81239937D01*
X148864616Y-81255756D01*
X148944244Y-81335384D01*
X148960063Y-81346878D01*
X149060400Y-81398003D01*
X149078998Y-81404046D01*
X149190223Y-81421662D01*
X149209777Y-81421662D01*
X149321002Y-81404046D01*
X149339600Y-81398003D01*
X149439937Y-81346878D01*
X149455756Y-81335384D01*
X149535384Y-81255756D01*
X149546878Y-81239937D01*
X149598003Y-81139600D01*
X149604046Y-81121002D01*
X149621662Y-81009777D01*
X149621662Y-80990223D01*
X149604046Y-80878998D01*
X149598003Y-80860400D01*
X149546878Y-80760063D01*
X149535384Y-80744244D01*
X149455756Y-80664616D01*
X149439937Y-80653122D01*
X149354869Y-80609777D01*
X152178338Y-80609777D01*
X152195954Y-80721002D01*
X152201997Y-80739600D01*
X152253122Y-80839937D01*
X152264616Y-80855756D01*
X152344244Y-80935384D01*
X152360063Y-80946878D01*
X152460400Y-80998003D01*
X152478998Y-81004046D01*
X152590223Y-81021662D01*
X152609777Y-81021662D01*
X152721002Y-81004046D01*
X152739600Y-80998003D01*
X152839937Y-80946878D01*
X152855756Y-80935384D01*
X152935384Y-80855756D01*
X152946878Y-80839937D01*
X152998003Y-80739600D01*
X153004046Y-80721002D01*
X153021662Y-80609777D01*
X153878338Y-80609777D01*
X153895954Y-80721002D01*
X153901997Y-80739600D01*
X153953122Y-80839937D01*
X153964616Y-80855756D01*
X154044244Y-80935384D01*
X154060063Y-80946878D01*
X154160400Y-80998003D01*
X154178998Y-81004046D01*
X154290223Y-81021662D01*
X154309777Y-81021662D01*
X154421002Y-81004046D01*
X154439600Y-80998003D01*
X154539937Y-80946878D01*
X154555756Y-80935384D01*
X154631363Y-80859777D01*
X156078338Y-80859777D01*
X156095954Y-80971002D01*
X156101997Y-80989600D01*
X156153122Y-81089937D01*
X156164616Y-81105756D01*
X156244244Y-81185384D01*
X156260063Y-81196878D01*
X156360400Y-81248003D01*
X156378998Y-81254046D01*
X156490223Y-81271662D01*
X156509777Y-81271662D01*
X156621002Y-81254046D01*
X156639600Y-81248003D01*
X156739937Y-81196878D01*
X156755756Y-81185384D01*
X156835384Y-81105756D01*
X156846878Y-81089937D01*
X156898003Y-80989600D01*
X156904046Y-80971002D01*
X156921662Y-80859777D01*
X156921662Y-80840223D01*
X156904046Y-80728998D01*
X156898003Y-80710400D01*
X156846878Y-80610063D01*
X156835384Y-80594244D01*
X156755756Y-80514616D01*
X156739937Y-80503122D01*
X156639600Y-80451997D01*
X156621002Y-80445954D01*
X156509777Y-80428338D01*
X156490223Y-80428338D01*
X156378998Y-80445954D01*
X156360400Y-80451997D01*
X156260063Y-80503122D01*
X156244244Y-80514616D01*
X156164616Y-80594244D01*
X156153122Y-80610063D01*
X156101997Y-80710400D01*
X156095954Y-80728998D01*
X156078338Y-80840223D01*
X156078338Y-80859777D01*
X154631363Y-80859777D01*
X154635384Y-80855756D01*
X154646878Y-80839937D01*
X154698003Y-80739600D01*
X154704046Y-80721002D01*
X154721662Y-80609777D01*
X154721662Y-80590223D01*
X154704046Y-80478998D01*
X154698003Y-80460400D01*
X154646878Y-80360063D01*
X154635384Y-80344244D01*
X154555756Y-80264616D01*
X154539937Y-80253122D01*
X154439600Y-80201997D01*
X154421002Y-80195954D01*
X154309777Y-80178338D01*
X154290223Y-80178338D01*
X154178998Y-80195954D01*
X154160400Y-80201997D01*
X154060063Y-80253122D01*
X154044244Y-80264616D01*
X153964616Y-80344244D01*
X153953122Y-80360063D01*
X153901997Y-80460400D01*
X153895954Y-80478998D01*
X153878338Y-80590223D01*
X153878338Y-80609777D01*
X153021662Y-80609777D01*
X153021662Y-80590223D01*
X153004046Y-80478998D01*
X152998003Y-80460400D01*
X152946878Y-80360063D01*
X152935384Y-80344244D01*
X152855756Y-80264616D01*
X152839937Y-80253122D01*
X152739600Y-80201997D01*
X152721002Y-80195954D01*
X152609777Y-80178338D01*
X152590223Y-80178338D01*
X152478998Y-80195954D01*
X152460400Y-80201997D01*
X152360063Y-80253122D01*
X152344244Y-80264616D01*
X152264616Y-80344244D01*
X152253122Y-80360063D01*
X152201997Y-80460400D01*
X152195954Y-80478998D01*
X152178338Y-80590223D01*
X152178338Y-80609777D01*
X149354869Y-80609777D01*
X149339600Y-80601997D01*
X149321002Y-80595954D01*
X149209777Y-80578338D01*
X149190223Y-80578338D01*
X149078998Y-80595954D01*
X149060400Y-80601997D01*
X148960063Y-80653122D01*
X148944244Y-80664616D01*
X148864616Y-80744244D01*
X148853122Y-80760063D01*
X148801997Y-80860400D01*
X148795954Y-80878998D01*
X148778338Y-80990223D01*
X148778338Y-81009777D01*
X145071662Y-81009777D01*
X145071662Y-80990223D01*
X145054046Y-80878998D01*
X145048003Y-80860400D01*
X144996878Y-80760063D01*
X144985384Y-80744244D01*
X144905756Y-80664616D01*
X144889937Y-80653122D01*
X144789600Y-80601997D01*
X144771002Y-80595954D01*
X144659777Y-80578338D01*
X144640223Y-80578338D01*
X144528998Y-80595954D01*
X144510400Y-80601997D01*
X144410063Y-80653122D01*
X144394244Y-80664616D01*
X144314616Y-80744244D01*
X144303122Y-80760063D01*
X144251997Y-80860400D01*
X144245954Y-80878998D01*
X144228338Y-80990223D01*
X144228338Y-81009777D01*
X135304869Y-81009777D01*
X135289600Y-81001997D01*
X135271002Y-80995954D01*
X135159777Y-80978338D01*
X135140223Y-80978338D01*
X135028998Y-80995954D01*
X135010400Y-81001997D01*
X134910063Y-81053122D01*
X134894244Y-81064616D01*
X134814616Y-81144244D01*
X134803122Y-81160063D01*
X134751997Y-81260400D01*
X134745954Y-81278998D01*
X134728338Y-81390223D01*
X134728338Y-81409777D01*
X134164538Y-81409777D01*
X134198003Y-81344100D01*
X134204046Y-81325502D01*
X134221662Y-81214277D01*
X134221662Y-81194723D01*
X134204046Y-81083498D01*
X134198003Y-81064900D01*
X134146878Y-80964563D01*
X134135384Y-80948744D01*
X134055756Y-80869116D01*
X134039937Y-80857622D01*
X133939600Y-80806497D01*
X133921002Y-80800454D01*
X133809777Y-80782838D01*
X133790223Y-80782838D01*
X133678998Y-80800454D01*
X133660400Y-80806497D01*
X133560063Y-80857622D01*
X133544244Y-80869116D01*
X133464616Y-80948744D01*
X133453122Y-80964563D01*
X133401997Y-81064900D01*
X133395954Y-81083498D01*
X133378338Y-81194723D01*
X133378338Y-81214277D01*
X127405417Y-81214277D01*
X127355756Y-81164616D01*
X127339937Y-81153122D01*
X127239600Y-81101997D01*
X127221002Y-81095954D01*
X127109777Y-81078338D01*
X127090223Y-81078338D01*
X126978998Y-81095954D01*
X126960400Y-81101997D01*
X126860063Y-81153122D01*
X126844244Y-81164616D01*
X126764616Y-81244244D01*
X126753122Y-81260063D01*
X126701997Y-81360400D01*
X126695954Y-81378998D01*
X126678338Y-81490223D01*
X126678338Y-81509777D01*
X123601982Y-81509777D01*
X123463767Y-81258364D01*
X123460070Y-81252447D01*
X123258290Y-80966406D01*
X123253955Y-80960938D01*
X123021549Y-80699172D01*
X123016633Y-80694220D01*
X122756495Y-80459991D01*
X122751057Y-80455619D01*
X122466432Y-80251847D01*
X122460540Y-80248108D01*
X122154974Y-80077333D01*
X122148703Y-80074275D01*
X121826006Y-79938626D01*
X121819432Y-79936285D01*
X121483625Y-79837452D01*
X121476832Y-79835859D01*
X121132101Y-79775073D01*
X121125172Y-79774246D01*
X120775813Y-79752266D01*
X120768836Y-79752218D01*
X120419205Y-79769318D01*
X120412265Y-79770047D01*
X120066719Y-79826014D01*
X120059905Y-79827512D01*
X119722751Y-79921647D01*
X119716145Y-79923896D01*
X119391585Y-80055026D01*
X119385272Y-80057997D01*
X119077351Y-80224489D01*
X119071407Y-80228145D01*
X118783965Y-80427923D01*
X118778467Y-80432219D01*
X118515084Y-80662793D01*
X118510099Y-80667675D01*
X118274060Y-80926170D01*
X118269649Y-80931578D01*
X118063896Y-81214774D01*
X118060117Y-81220639D01*
X117887213Y-81525005D01*
X117884110Y-81531255D01*
X117746211Y-81852998D01*
X117743825Y-81859554D01*
X117642649Y-82194663D01*
X117641008Y-82201446D01*
X117577818Y-82545744D01*
X117576943Y-82552666D01*
X117552525Y-82901863D01*
X117552428Y-82908840D01*
X117489500Y-82908840D01*
X117489500Y-82524947D01*
X117491850Y-82516176D01*
X117491850Y-82483823D01*
X117490740Y-82479679D01*
X117507270Y-82185333D01*
X117560062Y-81874623D01*
X117647308Y-81571783D01*
X117767917Y-81280610D01*
X117920361Y-81004784D01*
X118102743Y-80747739D01*
X118312747Y-80512747D01*
X118547739Y-80302743D01*
X118804784Y-80120361D01*
X119080610Y-79967917D01*
X119371783Y-79847308D01*
X119674623Y-79760062D01*
X119985333Y-79707270D01*
X120279679Y-79690740D01*
X120283823Y-79691850D01*
X120316176Y-79691850D01*
X120324947Y-79689500D01*
X169275053Y-79689500D01*
X169283824Y-79691850D01*
G37*
G04 #@! TD.AperFunction*
M02*
