G04 #@! TF.GenerationSoftware,KiCad,Pcbnew,(6.0.0)*
G04 #@! TF.CreationDate,2022-12-24T23:31:17+01:00*
G04 #@! TF.ProjectId,MinCab,4d696e43-6162-42e6-9b69-6361645f7063,rev?*
G04 #@! TF.SameCoordinates,Original*
G04 #@! TF.FileFunction,Legend,Bot*
G04 #@! TF.FilePolarity,Positive*
%FSLAX46Y46*%
G04 Gerber Fmt 4.6, Leading zero omitted, Abs format (unit mm)*
G04 Created by KiCad (PCBNEW (6.0.0)) date 2022-12-24 23:31:17*
%MOMM*%
%LPD*%
G01*
G04 APERTURE LIST*
G04 #@! TA.AperFunction,Profile*
%ADD10C,0.050000*%
G04 #@! TD*
%ADD11C,0.200000*%
%ADD12C,0.150000*%
%ADD13C,0.120000*%
%ADD14C,0.160000*%
%ADD15C,0.100000*%
%ADD16C,6.000000*%
%ADD17C,0.800000*%
%ADD18C,0.650000*%
%ADD19O,1.050000X2.100000*%
%ADD20O,1.000000X2.000000*%
%ADD21R,2.000000X2.000000*%
%ADD22C,2.000000*%
%ADD23C,2.500000*%
%ADD24R,1.200000X1.150000*%
%ADD25R,1.200000X1.450000*%
%ADD26R,0.700000X1.000000*%
%ADD27R,0.900000X1.400000*%
%ADD28R,1.000000X0.700000*%
G04 APERTURE END LIST*
D10*
X117300000Y-91200000D02*
G75*
G03*
X120300000Y-94200000I3000001J1D01*
G01*
X172300000Y-82500000D02*
X172300000Y-91200000D01*
X169300000Y-94200000D02*
X120300000Y-94200000D01*
X172300000Y-82500000D02*
G75*
G03*
X169300000Y-79500000I-3000001J-1D01*
G01*
X169300000Y-94200000D02*
G75*
G03*
X172300000Y-91200000I-1J3000001D01*
G01*
X120300000Y-79500000D02*
X169300000Y-79500000D01*
X120300000Y-79500000D02*
G75*
G03*
X117300000Y-82500000I1J-3000001D01*
G01*
X117300000Y-82500000D02*
X117300000Y-91200000D01*
D11*
X148928571Y-80842857D02*
X148928571Y-81814285D01*
X148871428Y-81928571D01*
X148814285Y-81985714D01*
X148700000Y-82042857D01*
X148471428Y-82042857D01*
X148357142Y-81985714D01*
X148300000Y-81928571D01*
X148242857Y-81814285D01*
X148242857Y-80842857D01*
X147671428Y-81242857D02*
X147671428Y-82442857D01*
X147671428Y-81300000D02*
X147557142Y-81242857D01*
X147328571Y-81242857D01*
X147214285Y-81300000D01*
X147157142Y-81357142D01*
X147100000Y-81471428D01*
X147100000Y-81814285D01*
X147157142Y-81928571D01*
X147214285Y-81985714D01*
X147328571Y-82042857D01*
X147557142Y-82042857D01*
X147671428Y-81985714D01*
X146414285Y-82042857D02*
X146528571Y-81985714D01*
X146585714Y-81871428D01*
X146585714Y-80842857D01*
X145442857Y-82042857D02*
X145442857Y-81414285D01*
X145500000Y-81300000D01*
X145614285Y-81242857D01*
X145842857Y-81242857D01*
X145957142Y-81300000D01*
X145442857Y-81985714D02*
X145557142Y-82042857D01*
X145842857Y-82042857D01*
X145957142Y-81985714D01*
X146014285Y-81871428D01*
X146014285Y-81757142D01*
X145957142Y-81642857D01*
X145842857Y-81585714D01*
X145557142Y-81585714D01*
X145442857Y-81528571D01*
X144871428Y-82042857D02*
X144871428Y-80842857D01*
X144871428Y-81300000D02*
X144757142Y-81242857D01*
X144528571Y-81242857D01*
X144414285Y-81300000D01*
X144357142Y-81357142D01*
X144300000Y-81471428D01*
X144300000Y-81814285D01*
X144357142Y-81928571D01*
X144414285Y-81985714D01*
X144528571Y-82042857D01*
X144757142Y-82042857D01*
X144871428Y-81985714D01*
X143785714Y-81928571D02*
X143728571Y-81985714D01*
X143785714Y-82042857D01*
X143842857Y-81985714D01*
X143785714Y-81928571D01*
X143785714Y-82042857D01*
X143214285Y-81242857D02*
X143214285Y-82442857D01*
X143214285Y-81300000D02*
X143100000Y-81242857D01*
X142871428Y-81242857D01*
X142757142Y-81300000D01*
X142700000Y-81357142D01*
X142642857Y-81471428D01*
X142642857Y-81814285D01*
X142700000Y-81928571D01*
X142757142Y-81985714D01*
X142871428Y-82042857D01*
X143100000Y-82042857D01*
X143214285Y-81985714D01*
X142128571Y-82042857D02*
X142128571Y-81242857D01*
X142128571Y-81471428D02*
X142071428Y-81357142D01*
X142014285Y-81300000D01*
X141900000Y-81242857D01*
X141785714Y-81242857D01*
X141214285Y-82042857D02*
X141328571Y-81985714D01*
X141385714Y-81928571D01*
X141442857Y-81814285D01*
X141442857Y-81471428D01*
X141385714Y-81357142D01*
X141328571Y-81300000D01*
X141214285Y-81242857D01*
X141042857Y-81242857D01*
X140928571Y-81300000D01*
X140871428Y-81357142D01*
X140814285Y-81471428D01*
X140814285Y-81814285D01*
X140871428Y-81928571D01*
X140928571Y-81985714D01*
X141042857Y-82042857D01*
X141214285Y-82042857D01*
D12*
X137700000Y-92052380D02*
X137700000Y-91052380D01*
X137033333Y-91052380D02*
X136842857Y-91052380D01*
X136747619Y-91100000D01*
X136652380Y-91195238D01*
X136604761Y-91385714D01*
X136604761Y-91719047D01*
X136652380Y-91909523D01*
X136747619Y-92004761D01*
X136842857Y-92052380D01*
X137033333Y-92052380D01*
X137128571Y-92004761D01*
X137223809Y-91909523D01*
X137271428Y-91719047D01*
X137271428Y-91385714D01*
X137223809Y-91195238D01*
X137128571Y-91100000D01*
X137033333Y-91052380D01*
X136271428Y-91052380D02*
X135652380Y-91052380D01*
X135985714Y-91433333D01*
X135842857Y-91433333D01*
X135747619Y-91480952D01*
X135700000Y-91528571D01*
X135652380Y-91623809D01*
X135652380Y-91861904D01*
X135700000Y-91957142D01*
X135747619Y-92004761D01*
X135842857Y-92052380D01*
X136128571Y-92052380D01*
X136223809Y-92004761D01*
X136271428Y-91957142D01*
X163761904Y-80250000D02*
X163857142Y-80202380D01*
X164000000Y-80202380D01*
X164142857Y-80250000D01*
X164238095Y-80345238D01*
X164285714Y-80440476D01*
X164333333Y-80630952D01*
X164333333Y-80773809D01*
X164285714Y-80964285D01*
X164238095Y-81059523D01*
X164142857Y-81154761D01*
X164000000Y-81202380D01*
X163904761Y-81202380D01*
X163761904Y-81154761D01*
X163714285Y-81107142D01*
X163714285Y-80773809D01*
X163904761Y-80773809D01*
X163285714Y-81202380D02*
X163285714Y-80202380D01*
X162714285Y-81202380D01*
X162714285Y-80202380D01*
X162238095Y-81202380D02*
X162238095Y-80202380D01*
X162000000Y-80202380D01*
X161857142Y-80250000D01*
X161761904Y-80345238D01*
X161714285Y-80440476D01*
X161666666Y-80630952D01*
X161666666Y-80773809D01*
X161714285Y-80964285D01*
X161761904Y-81059523D01*
X161857142Y-81154761D01*
X162000000Y-81202380D01*
X162238095Y-81202380D01*
D13*
X160133333Y-93361904D02*
X160400000Y-92980952D01*
X160590476Y-93361904D02*
X160590476Y-92561904D01*
X160285714Y-92561904D01*
X160209523Y-92600000D01*
X160171428Y-92638095D01*
X160133333Y-92714285D01*
X160133333Y-92828571D01*
X160171428Y-92904761D01*
X160209523Y-92942857D01*
X160285714Y-92980952D01*
X160590476Y-92980952D01*
X159866666Y-92561904D02*
X159333333Y-93361904D01*
X159333333Y-92561904D02*
X159866666Y-93361904D01*
X159028571Y-93361904D02*
X159028571Y-92561904D01*
X158838095Y-92561904D01*
X158723809Y-92600000D01*
X158647619Y-92676190D01*
X158609523Y-92752380D01*
X158571428Y-92904761D01*
X158571428Y-93019047D01*
X158609523Y-93171428D01*
X158647619Y-93247619D01*
X158723809Y-93323809D01*
X158838095Y-93361904D01*
X159028571Y-93361904D01*
D12*
X132076190Y-92802380D02*
X132076190Y-91802380D01*
X131409523Y-91802380D02*
X131219047Y-91802380D01*
X131123809Y-91850000D01*
X131028571Y-91945238D01*
X130980952Y-92135714D01*
X130980952Y-92469047D01*
X131028571Y-92659523D01*
X131123809Y-92754761D01*
X131219047Y-92802380D01*
X131409523Y-92802380D01*
X131504761Y-92754761D01*
X131600000Y-92659523D01*
X131647619Y-92469047D01*
X131647619Y-92135714D01*
X131600000Y-91945238D01*
X131504761Y-91850000D01*
X131409523Y-91802380D01*
X130028571Y-92802380D02*
X130600000Y-92802380D01*
X130314285Y-92802380D02*
X130314285Y-91802380D01*
X130409523Y-91945238D01*
X130504761Y-92040476D01*
X130600000Y-92088095D01*
X129695238Y-91802380D02*
X129076190Y-91802380D01*
X129409523Y-92183333D01*
X129266666Y-92183333D01*
X129171428Y-92230952D01*
X129123809Y-92278571D01*
X129076190Y-92373809D01*
X129076190Y-92611904D01*
X129123809Y-92707142D01*
X129171428Y-92754761D01*
X129266666Y-92802380D01*
X129552380Y-92802380D01*
X129647619Y-92754761D01*
X129695238Y-92707142D01*
X169600000Y-89652380D02*
X169600000Y-88652380D01*
X168933333Y-88652380D02*
X168742857Y-88652380D01*
X168647619Y-88700000D01*
X168552380Y-88795238D01*
X168504761Y-88985714D01*
X168504761Y-89319047D01*
X168552380Y-89509523D01*
X168647619Y-89604761D01*
X168742857Y-89652380D01*
X168933333Y-89652380D01*
X169028571Y-89604761D01*
X169123809Y-89509523D01*
X169171428Y-89319047D01*
X169171428Y-88985714D01*
X169123809Y-88795238D01*
X169028571Y-88700000D01*
X168933333Y-88652380D01*
X167933333Y-89080952D02*
X168028571Y-89033333D01*
X168076190Y-88985714D01*
X168123809Y-88890476D01*
X168123809Y-88842857D01*
X168076190Y-88747619D01*
X168028571Y-88700000D01*
X167933333Y-88652380D01*
X167742857Y-88652380D01*
X167647619Y-88700000D01*
X167600000Y-88747619D01*
X167552380Y-88842857D01*
X167552380Y-88890476D01*
X167600000Y-88985714D01*
X167647619Y-89033333D01*
X167742857Y-89080952D01*
X167933333Y-89080952D01*
X168028571Y-89128571D01*
X168076190Y-89176190D01*
X168123809Y-89271428D01*
X168123809Y-89461904D01*
X168076190Y-89557142D01*
X168028571Y-89604761D01*
X167933333Y-89652380D01*
X167742857Y-89652380D01*
X167647619Y-89604761D01*
X167600000Y-89557142D01*
X167552380Y-89461904D01*
X167552380Y-89271428D01*
X167600000Y-89176190D01*
X167647619Y-89128571D01*
X167742857Y-89080952D01*
X160285714Y-80821428D02*
X159523809Y-80821428D01*
X159904761Y-81202380D02*
X159904761Y-80440476D01*
X158571428Y-80202380D02*
X159047619Y-80202380D01*
X159095238Y-80678571D01*
X159047619Y-80630952D01*
X158952380Y-80583333D01*
X158714285Y-80583333D01*
X158619047Y-80630952D01*
X158571428Y-80678571D01*
X158523809Y-80773809D01*
X158523809Y-81011904D01*
X158571428Y-81107142D01*
X158619047Y-81154761D01*
X158714285Y-81202380D01*
X158952380Y-81202380D01*
X159047619Y-81154761D01*
X159095238Y-81107142D01*
X158238095Y-80202380D02*
X157904761Y-81202380D01*
X157571428Y-80202380D01*
D14*
X153188095Y-90945238D02*
X152616666Y-90945238D01*
X152502380Y-90983333D01*
X152426190Y-91059523D01*
X152388095Y-91173809D01*
X152388095Y-91250000D01*
X152388095Y-90183333D02*
X152388095Y-90564285D01*
X153188095Y-90564285D01*
X152464285Y-89459523D02*
X152426190Y-89497619D01*
X152388095Y-89611904D01*
X152388095Y-89688095D01*
X152426190Y-89802380D01*
X152502380Y-89878571D01*
X152578571Y-89916666D01*
X152730952Y-89954761D01*
X152845238Y-89954761D01*
X152997619Y-89916666D01*
X153073809Y-89878571D01*
X153150000Y-89802380D01*
X153188095Y-89688095D01*
X153188095Y-89611904D01*
X153150000Y-89497619D01*
X153111904Y-89459523D01*
X153188095Y-88888095D02*
X152616666Y-88888095D01*
X152502380Y-88926190D01*
X152426190Y-89002380D01*
X152388095Y-89116666D01*
X152388095Y-89192857D01*
X152388095Y-88126190D02*
X152388095Y-88507142D01*
X153188095Y-88507142D01*
X152464285Y-87402380D02*
X152426190Y-87440476D01*
X152388095Y-87554761D01*
X152388095Y-87630952D01*
X152426190Y-87745238D01*
X152502380Y-87821428D01*
X152578571Y-87859523D01*
X152730952Y-87897619D01*
X152845238Y-87897619D01*
X152997619Y-87859523D01*
X153073809Y-87821428D01*
X153150000Y-87745238D01*
X153188095Y-87630952D01*
X153188095Y-87554761D01*
X153150000Y-87440476D01*
X153111904Y-87402380D01*
X153188095Y-86830952D02*
X152616666Y-86830952D01*
X152502380Y-86869047D01*
X152426190Y-86945238D01*
X152388095Y-87059523D01*
X152388095Y-87135714D01*
X152388095Y-86069047D02*
X152388095Y-86450000D01*
X153188095Y-86450000D01*
X152464285Y-85345238D02*
X152426190Y-85383333D01*
X152388095Y-85497619D01*
X152388095Y-85573809D01*
X152426190Y-85688095D01*
X152502380Y-85764285D01*
X152578571Y-85802380D01*
X152730952Y-85840476D01*
X152845238Y-85840476D01*
X152997619Y-85802380D01*
X153073809Y-85764285D01*
X153150000Y-85688095D01*
X153188095Y-85573809D01*
X153188095Y-85497619D01*
X153150000Y-85383333D01*
X153111904Y-85345238D01*
X153188095Y-84773809D02*
X152616666Y-84773809D01*
X152502380Y-84811904D01*
X152426190Y-84888095D01*
X152388095Y-85002380D01*
X152388095Y-85078571D01*
X152388095Y-84011904D02*
X152388095Y-84392857D01*
X153188095Y-84392857D01*
X152464285Y-83288095D02*
X152426190Y-83326190D01*
X152388095Y-83440476D01*
X152388095Y-83516666D01*
X152426190Y-83630952D01*
X152502380Y-83707142D01*
X152578571Y-83745238D01*
X152730952Y-83783333D01*
X152845238Y-83783333D01*
X152997619Y-83745238D01*
X153073809Y-83707142D01*
X153150000Y-83630952D01*
X153188095Y-83516666D01*
X153188095Y-83440476D01*
X153150000Y-83326190D01*
X153111904Y-83288095D01*
D13*
X170547619Y-92561904D02*
X170547619Y-93209523D01*
X170509523Y-93285714D01*
X170471428Y-93323809D01*
X170395238Y-93361904D01*
X170242857Y-93361904D01*
X170166666Y-93323809D01*
X170128571Y-93285714D01*
X170090476Y-93209523D01*
X170090476Y-92561904D01*
X169747619Y-93133333D02*
X169366666Y-93133333D01*
X169823809Y-93361904D02*
X169557142Y-92561904D01*
X169290476Y-93361904D01*
X168566666Y-93361904D02*
X168833333Y-92980952D01*
X169023809Y-93361904D02*
X169023809Y-92561904D01*
X168719047Y-92561904D01*
X168642857Y-92600000D01*
X168604761Y-92638095D01*
X168566666Y-92714285D01*
X168566666Y-92828571D01*
X168604761Y-92904761D01*
X168642857Y-92942857D01*
X168719047Y-92980952D01*
X169023809Y-92980952D01*
X168338095Y-92561904D02*
X167880952Y-92561904D01*
X168109523Y-93361904D02*
X168109523Y-92561904D01*
X167271428Y-92828571D02*
X167271428Y-93361904D01*
X167461904Y-92523809D02*
X167652380Y-93095238D01*
X167157142Y-93095238D01*
X166357142Y-92561904D02*
X165900000Y-92561904D01*
X166128571Y-93361904D02*
X166128571Y-92561904D01*
X165709523Y-92561904D02*
X165176190Y-93361904D01*
X165176190Y-92561904D02*
X165709523Y-93361904D01*
X164871428Y-93361904D02*
X164871428Y-92561904D01*
X164680952Y-92561904D01*
X164566666Y-92600000D01*
X164490476Y-92676190D01*
X164452380Y-92752380D01*
X164414285Y-92904761D01*
X164414285Y-93019047D01*
X164452380Y-93171428D01*
X164490476Y-93247619D01*
X164566666Y-93323809D01*
X164680952Y-93361904D01*
X164871428Y-93361904D01*
D11*
X149807142Y-90535714D02*
X149635714Y-90592857D01*
X149350000Y-90592857D01*
X149235714Y-90535714D01*
X149178571Y-90478571D01*
X149121428Y-90364285D01*
X149121428Y-90250000D01*
X149178571Y-90135714D01*
X149235714Y-90078571D01*
X149350000Y-90021428D01*
X149578571Y-89964285D01*
X149692857Y-89907142D01*
X149750000Y-89850000D01*
X149807142Y-89735714D01*
X149807142Y-89621428D01*
X149750000Y-89507142D01*
X149692857Y-89450000D01*
X149578571Y-89392857D01*
X149292857Y-89392857D01*
X149121428Y-89450000D01*
X148607142Y-90592857D02*
X148607142Y-89392857D01*
X148321428Y-89392857D01*
X148150000Y-89450000D01*
X148035714Y-89564285D01*
X147978571Y-89678571D01*
X147921428Y-89907142D01*
X147921428Y-90078571D01*
X147978571Y-90307142D01*
X148035714Y-90421428D01*
X148150000Y-90535714D01*
X148321428Y-90592857D01*
X148607142Y-90592857D01*
X145807142Y-90478571D02*
X145864285Y-90535714D01*
X146035714Y-90592857D01*
X146150000Y-90592857D01*
X146321428Y-90535714D01*
X146435714Y-90421428D01*
X146492857Y-90307142D01*
X146550000Y-90078571D01*
X146550000Y-89907142D01*
X146492857Y-89678571D01*
X146435714Y-89564285D01*
X146321428Y-89450000D01*
X146150000Y-89392857D01*
X146035714Y-89392857D01*
X145864285Y-89450000D01*
X145807142Y-89507142D01*
X144778571Y-90592857D02*
X144778571Y-89964285D01*
X144835714Y-89850000D01*
X144950000Y-89792857D01*
X145178571Y-89792857D01*
X145292857Y-89850000D01*
X144778571Y-90535714D02*
X144892857Y-90592857D01*
X145178571Y-90592857D01*
X145292857Y-90535714D01*
X145350000Y-90421428D01*
X145350000Y-90307142D01*
X145292857Y-90192857D01*
X145178571Y-90135714D01*
X144892857Y-90135714D01*
X144778571Y-90078571D01*
X144207142Y-90592857D02*
X144207142Y-89792857D01*
X144207142Y-90021428D02*
X144150000Y-89907142D01*
X144092857Y-89850000D01*
X143978571Y-89792857D01*
X143864285Y-89792857D01*
X142950000Y-90592857D02*
X142950000Y-89392857D01*
X142950000Y-90535714D02*
X143064285Y-90592857D01*
X143292857Y-90592857D01*
X143407142Y-90535714D01*
X143464285Y-90478571D01*
X143521428Y-90364285D01*
X143521428Y-90021428D01*
X143464285Y-89907142D01*
X143407142Y-89850000D01*
X143292857Y-89792857D01*
X143064285Y-89792857D01*
X142950000Y-89850000D01*
D12*
X133250000Y-80821428D02*
X132488095Y-80821428D01*
X132869047Y-81202380D02*
X132869047Y-80440476D01*
X132107142Y-80202380D02*
X131488095Y-80202380D01*
X131821428Y-80583333D01*
X131678571Y-80583333D01*
X131583333Y-80630952D01*
X131535714Y-80678571D01*
X131488095Y-80773809D01*
X131488095Y-81011904D01*
X131535714Y-81107142D01*
X131583333Y-81154761D01*
X131678571Y-81202380D01*
X131964285Y-81202380D01*
X132059523Y-81154761D01*
X132107142Y-81107142D01*
X131059523Y-81107142D02*
X131011904Y-81154761D01*
X131059523Y-81202380D01*
X131107142Y-81154761D01*
X131059523Y-81107142D01*
X131059523Y-81202380D01*
X130678571Y-80202380D02*
X130059523Y-80202380D01*
X130392857Y-80583333D01*
X130250000Y-80583333D01*
X130154761Y-80630952D01*
X130107142Y-80678571D01*
X130059523Y-80773809D01*
X130059523Y-81011904D01*
X130107142Y-81107142D01*
X130154761Y-81154761D01*
X130250000Y-81202380D01*
X130535714Y-81202380D01*
X130630952Y-81154761D01*
X130678571Y-81107142D01*
X129773809Y-80202380D02*
X129440476Y-81202380D01*
X129107142Y-80202380D01*
X127761904Y-80250000D02*
X127857142Y-80202380D01*
X128000000Y-80202380D01*
X128142857Y-80250000D01*
X128238095Y-80345238D01*
X128285714Y-80440476D01*
X128333333Y-80630952D01*
X128333333Y-80773809D01*
X128285714Y-80964285D01*
X128238095Y-81059523D01*
X128142857Y-81154761D01*
X128000000Y-81202380D01*
X127904761Y-81202380D01*
X127761904Y-81154761D01*
X127714285Y-81107142D01*
X127714285Y-80773809D01*
X127904761Y-80773809D01*
X127285714Y-81202380D02*
X127285714Y-80202380D01*
X126714285Y-81202380D01*
X126714285Y-80202380D01*
X126238095Y-81202380D02*
X126238095Y-80202380D01*
X126000000Y-80202380D01*
X125857142Y-80250000D01*
X125761904Y-80345238D01*
X125714285Y-80440476D01*
X125666666Y-80630952D01*
X125666666Y-80773809D01*
X125714285Y-80964285D01*
X125761904Y-81059523D01*
X125857142Y-81154761D01*
X126000000Y-81202380D01*
X126238095Y-81202380D01*
D15*
X137814285Y-90042857D02*
X137728571Y-90071428D01*
X137585714Y-90071428D01*
X137528571Y-90042857D01*
X137500000Y-90014285D01*
X137471428Y-89957142D01*
X137471428Y-89900000D01*
X137500000Y-89842857D01*
X137528571Y-89814285D01*
X137585714Y-89785714D01*
X137700000Y-89757142D01*
X137757142Y-89728571D01*
X137785714Y-89700000D01*
X137814285Y-89642857D01*
X137814285Y-89585714D01*
X137785714Y-89528571D01*
X137757142Y-89500000D01*
X137700000Y-89471428D01*
X137557142Y-89471428D01*
X137471428Y-89500000D01*
X137214285Y-90071428D02*
X137214285Y-89471428D01*
X137071428Y-89471428D01*
X136985714Y-89500000D01*
X136928571Y-89557142D01*
X136900000Y-89614285D01*
X136871428Y-89728571D01*
X136871428Y-89814285D01*
X136900000Y-89928571D01*
X136928571Y-89985714D01*
X136985714Y-90042857D01*
X137071428Y-90071428D01*
X137214285Y-90071428D01*
X136642857Y-89900000D02*
X136357142Y-89900000D01*
X136700000Y-90071428D02*
X136500000Y-89471428D01*
X136300000Y-90071428D01*
X135785714Y-90071428D02*
X136128571Y-90071428D01*
X135957142Y-90071428D02*
X135957142Y-89471428D01*
X136014285Y-89557142D01*
X136071428Y-89614285D01*
X136128571Y-89642857D01*
X137600000Y-93092857D02*
X137514285Y-93121428D01*
X137371428Y-93121428D01*
X137314285Y-93092857D01*
X137285714Y-93064285D01*
X137257142Y-93007142D01*
X137257142Y-92950000D01*
X137285714Y-92892857D01*
X137314285Y-92864285D01*
X137371428Y-92835714D01*
X137485714Y-92807142D01*
X137542857Y-92778571D01*
X137571428Y-92750000D01*
X137600000Y-92692857D01*
X137600000Y-92635714D01*
X137571428Y-92578571D01*
X137542857Y-92550000D01*
X137485714Y-92521428D01*
X137342857Y-92521428D01*
X137257142Y-92550000D01*
X136657142Y-93064285D02*
X136685714Y-93092857D01*
X136771428Y-93121428D01*
X136828571Y-93121428D01*
X136914285Y-93092857D01*
X136971428Y-93035714D01*
X137000000Y-92978571D01*
X137028571Y-92864285D01*
X137028571Y-92778571D01*
X137000000Y-92664285D01*
X136971428Y-92607142D01*
X136914285Y-92550000D01*
X136828571Y-92521428D01*
X136771428Y-92521428D01*
X136685714Y-92550000D01*
X136657142Y-92578571D01*
X136114285Y-93121428D02*
X136400000Y-93121428D01*
X136400000Y-92521428D01*
X135600000Y-93121428D02*
X135942857Y-93121428D01*
X135771428Y-93121428D02*
X135771428Y-92521428D01*
X135828571Y-92607142D01*
X135885714Y-92664285D01*
X135942857Y-92692857D01*
D12*
X125476190Y-88852380D02*
X125476190Y-87852380D01*
X124809523Y-87852380D02*
X124619047Y-87852380D01*
X124523809Y-87900000D01*
X124428571Y-87995238D01*
X124380952Y-88185714D01*
X124380952Y-88519047D01*
X124428571Y-88709523D01*
X124523809Y-88804761D01*
X124619047Y-88852380D01*
X124809523Y-88852380D01*
X124904761Y-88804761D01*
X125000000Y-88709523D01*
X125047619Y-88519047D01*
X125047619Y-88185714D01*
X125000000Y-87995238D01*
X124904761Y-87900000D01*
X124809523Y-87852380D01*
X123428571Y-88852380D02*
X124000000Y-88852380D01*
X123714285Y-88852380D02*
X123714285Y-87852380D01*
X123809523Y-87995238D01*
X123904761Y-88090476D01*
X124000000Y-88138095D01*
X123047619Y-87947619D02*
X123000000Y-87900000D01*
X122904761Y-87852380D01*
X122666666Y-87852380D01*
X122571428Y-87900000D01*
X122523809Y-87947619D01*
X122476190Y-88042857D01*
X122476190Y-88138095D01*
X122523809Y-88280952D01*
X123095238Y-88852380D01*
X122476190Y-88852380D01*
D15*
X125528571Y-89821428D02*
X125528571Y-89221428D01*
X125300000Y-89221428D01*
X125242857Y-89250000D01*
X125214285Y-89278571D01*
X125185714Y-89335714D01*
X125185714Y-89421428D01*
X125214285Y-89478571D01*
X125242857Y-89507142D01*
X125300000Y-89535714D01*
X125528571Y-89535714D01*
X124985714Y-89221428D02*
X124842857Y-89821428D01*
X124728571Y-89392857D01*
X124614285Y-89821428D01*
X124471428Y-89221428D01*
X124242857Y-89821428D02*
X124242857Y-89221428D01*
X124042857Y-89650000D01*
X123842857Y-89221428D01*
X123842857Y-89821428D01*
X123442857Y-89221428D02*
X123385714Y-89221428D01*
X123328571Y-89250000D01*
X123300000Y-89278571D01*
X123271428Y-89335714D01*
X123242857Y-89450000D01*
X123242857Y-89592857D01*
X123271428Y-89707142D01*
X123300000Y-89764285D01*
X123328571Y-89792857D01*
X123385714Y-89821428D01*
X123442857Y-89821428D01*
X123500000Y-89792857D01*
X123528571Y-89764285D01*
X123557142Y-89707142D01*
X123585714Y-89592857D01*
X123585714Y-89450000D01*
X123557142Y-89335714D01*
X123528571Y-89278571D01*
X123500000Y-89250000D01*
X123442857Y-89221428D01*
X125478571Y-92971428D02*
X125478571Y-92371428D01*
X125250000Y-92371428D01*
X125192857Y-92400000D01*
X125164285Y-92428571D01*
X125135714Y-92485714D01*
X125135714Y-92571428D01*
X125164285Y-92628571D01*
X125192857Y-92657142D01*
X125250000Y-92685714D01*
X125478571Y-92685714D01*
X124935714Y-92371428D02*
X124792857Y-92971428D01*
X124678571Y-92542857D01*
X124564285Y-92971428D01*
X124421428Y-92371428D01*
X124192857Y-92971428D02*
X124192857Y-92371428D01*
X123992857Y-92800000D01*
X123792857Y-92371428D01*
X123792857Y-92971428D01*
X123192857Y-92971428D02*
X123535714Y-92971428D01*
X123364285Y-92971428D02*
X123364285Y-92371428D01*
X123421428Y-92457142D01*
X123478571Y-92514285D01*
X123535714Y-92542857D01*
D12*
X125476190Y-92002380D02*
X125476190Y-91002380D01*
X124809523Y-91002380D02*
X124619047Y-91002380D01*
X124523809Y-91050000D01*
X124428571Y-91145238D01*
X124380952Y-91335714D01*
X124380952Y-91669047D01*
X124428571Y-91859523D01*
X124523809Y-91954761D01*
X124619047Y-92002380D01*
X124809523Y-92002380D01*
X124904761Y-91954761D01*
X125000000Y-91859523D01*
X125047619Y-91669047D01*
X125047619Y-91335714D01*
X125000000Y-91145238D01*
X124904761Y-91050000D01*
X124809523Y-91002380D01*
X123428571Y-92002380D02*
X124000000Y-92002380D01*
X123714285Y-92002380D02*
X123714285Y-91002380D01*
X123809523Y-91145238D01*
X123904761Y-91240476D01*
X124000000Y-91288095D01*
X122857142Y-91430952D02*
X122952380Y-91383333D01*
X123000000Y-91335714D01*
X123047619Y-91240476D01*
X123047619Y-91192857D01*
X123000000Y-91097619D01*
X122952380Y-91050000D01*
X122857142Y-91002380D01*
X122666666Y-91002380D01*
X122571428Y-91050000D01*
X122523809Y-91097619D01*
X122476190Y-91192857D01*
X122476190Y-91240476D01*
X122523809Y-91335714D01*
X122571428Y-91383333D01*
X122666666Y-91430952D01*
X122857142Y-91430952D01*
X122952380Y-91478571D01*
X123000000Y-91526190D01*
X123047619Y-91621428D01*
X123047619Y-91811904D01*
X123000000Y-91907142D01*
X122952380Y-91954761D01*
X122857142Y-92002380D01*
X122666666Y-92002380D01*
X122571428Y-91954761D01*
X122523809Y-91907142D01*
X122476190Y-91811904D01*
X122476190Y-91621428D01*
X122523809Y-91526190D01*
X122571428Y-91478571D01*
X122666666Y-91430952D01*
X131200000Y-89452380D02*
X131200000Y-88452380D01*
X130533333Y-88452380D02*
X130342857Y-88452380D01*
X130247619Y-88500000D01*
X130152380Y-88595238D01*
X130104761Y-88785714D01*
X130104761Y-89119047D01*
X130152380Y-89309523D01*
X130247619Y-89404761D01*
X130342857Y-89452380D01*
X130533333Y-89452380D01*
X130628571Y-89404761D01*
X130723809Y-89309523D01*
X130771428Y-89119047D01*
X130771428Y-88785714D01*
X130723809Y-88595238D01*
X130628571Y-88500000D01*
X130533333Y-88452380D01*
X129247619Y-88785714D02*
X129247619Y-89452380D01*
X129485714Y-88404761D02*
X129723809Y-89119047D01*
X129104761Y-89119047D01*
X137800000Y-89052380D02*
X137800000Y-88052380D01*
X137133333Y-88052380D02*
X136942857Y-88052380D01*
X136847619Y-88100000D01*
X136752380Y-88195238D01*
X136704761Y-88385714D01*
X136704761Y-88719047D01*
X136752380Y-88909523D01*
X136847619Y-89004761D01*
X136942857Y-89052380D01*
X137133333Y-89052380D01*
X137228571Y-89004761D01*
X137323809Y-88909523D01*
X137371428Y-88719047D01*
X137371428Y-88385714D01*
X137323809Y-88195238D01*
X137228571Y-88100000D01*
X137133333Y-88052380D01*
X136323809Y-88147619D02*
X136276190Y-88100000D01*
X136180952Y-88052380D01*
X135942857Y-88052380D01*
X135847619Y-88100000D01*
X135800000Y-88147619D01*
X135752380Y-88242857D01*
X135752380Y-88338095D01*
X135800000Y-88480952D01*
X136371428Y-89052380D01*
X135752380Y-89052380D01*
X163800000Y-89652380D02*
X163800000Y-88652380D01*
X163133333Y-88652380D02*
X162942857Y-88652380D01*
X162847619Y-88700000D01*
X162752380Y-88795238D01*
X162704761Y-88985714D01*
X162704761Y-89319047D01*
X162752380Y-89509523D01*
X162847619Y-89604761D01*
X162942857Y-89652380D01*
X163133333Y-89652380D01*
X163228571Y-89604761D01*
X163323809Y-89509523D01*
X163371428Y-89319047D01*
X163371428Y-88985714D01*
X163323809Y-88795238D01*
X163228571Y-88700000D01*
X163133333Y-88652380D01*
X162228571Y-89652380D02*
X162038095Y-89652380D01*
X161942857Y-89604761D01*
X161895238Y-89557142D01*
X161800000Y-89414285D01*
X161752380Y-89223809D01*
X161752380Y-88842857D01*
X161800000Y-88747619D01*
X161847619Y-88700000D01*
X161942857Y-88652380D01*
X162133333Y-88652380D01*
X162228571Y-88700000D01*
X162276190Y-88747619D01*
X162323809Y-88842857D01*
X162323809Y-89080952D01*
X162276190Y-89176190D01*
X162228571Y-89223809D01*
X162133333Y-89271428D01*
X161942857Y-89271428D01*
X161847619Y-89223809D01*
X161800000Y-89176190D01*
X161752380Y-89080952D01*
D13*
X128200000Y-84200000D02*
X128200000Y-81800000D01*
X125800000Y-81800000D02*
X125800000Y-84200000D01*
X125800000Y-84200000D02*
X128200000Y-84200000D01*
X128200000Y-81800000D02*
X125800000Y-81800000D01*
X135200000Y-92000000D02*
G75*
G03*
X135200000Y-92000000I-1200000J0D01*
G01*
X135200000Y-89000000D02*
G75*
G03*
X135200000Y-89000000I-1200000J0D01*
G01*
X122200000Y-89000000D02*
G75*
G03*
X122200000Y-89000000I-1200000J0D01*
G01*
X166900000Y-90900000D02*
G75*
G03*
X166900000Y-90900000I-1200000J0D01*
G01*
X132450000Y-83000000D02*
G75*
G03*
X132450000Y-83000000I-1450000J0D01*
G01*
X128700000Y-92000000D02*
G75*
G03*
X128700000Y-92000000I-1200000J0D01*
G01*
D11*
X157375000Y-83800000D02*
X157375000Y-83800000D01*
D15*
X156600000Y-93000000D02*
X156600000Y-81600000D01*
X156600000Y-81600000D02*
X154675000Y-81600000D01*
X151150000Y-91700000D02*
X151150000Y-83100000D01*
D11*
X157475000Y-83800000D02*
X157475000Y-83800000D01*
X157375000Y-83800000D02*
X157375000Y-83800000D01*
D15*
X155075000Y-93000000D02*
X156600000Y-93000000D01*
D11*
X157375000Y-83800000D02*
G75*
G03*
X157475000Y-83800000I50000J0D01*
G01*
X157475000Y-83800000D02*
G75*
G03*
X157375000Y-83800000I-50000J0D01*
G01*
X157475000Y-83800000D02*
G75*
G03*
X157375000Y-83800000I-50000J0D01*
G01*
D13*
X164110000Y-84200000D02*
X164110000Y-81800000D01*
X161710000Y-84200000D02*
X164110000Y-84200000D01*
X161710000Y-81800000D02*
X161710000Y-84200000D01*
X164110000Y-81800000D02*
X161710000Y-81800000D01*
X161300000Y-90900000D02*
G75*
G03*
X161300000Y-90900000I-1200000J0D01*
G01*
G36*
X136878282Y-85193333D02*
G01*
X137186161Y-85193333D01*
X137186161Y-85501212D01*
X136878282Y-85501212D01*
X136878282Y-85809091D01*
X137186161Y-85809091D01*
X137186161Y-85501212D01*
X137494040Y-85501212D01*
X137494040Y-85809091D01*
X137186161Y-85809091D01*
X137186161Y-86116969D01*
X137494040Y-86116969D01*
X137494040Y-86732727D01*
X137186161Y-86732727D01*
X137186161Y-86424848D01*
X136878282Y-86424848D01*
X136878282Y-85809091D01*
X136570404Y-85809091D01*
X136570404Y-86424848D01*
X136262525Y-86424848D01*
X136262525Y-86116969D01*
X135954646Y-86116969D01*
X135954646Y-86424848D01*
X135646767Y-86424848D01*
X135646767Y-86732727D01*
X135338888Y-86732727D01*
X135338888Y-86424848D01*
X135031010Y-86424848D01*
X135031010Y-86116969D01*
X135338888Y-86116969D01*
X135338888Y-86424848D01*
X135646767Y-86424848D01*
X135646767Y-85809091D01*
X135954646Y-85809091D01*
X135954646Y-85501212D01*
X135646767Y-85501212D01*
X135646767Y-84885454D01*
X135338888Y-84885454D01*
X135338888Y-85809091D01*
X135031010Y-85809091D01*
X135031010Y-86116969D01*
X134107373Y-86116969D01*
X134107373Y-85809091D01*
X134723131Y-85809091D01*
X134723131Y-84885454D01*
X134107373Y-84885454D01*
X134107373Y-85193333D01*
X133799495Y-85193333D01*
X133799495Y-84577575D01*
X133491616Y-84577575D01*
X133491616Y-83038182D01*
X133799495Y-83038182D01*
X133799495Y-82730303D01*
X134415252Y-82730303D01*
X134415252Y-83038182D01*
X134723131Y-83038182D01*
X134723131Y-82730303D01*
X135646767Y-82730303D01*
X135646767Y-83038182D01*
X135954646Y-83038182D01*
X135954646Y-83653939D01*
X136262525Y-83653939D01*
X136262525Y-83038182D01*
X135954646Y-83038182D01*
X135954646Y-82730303D01*
X136878282Y-82730303D01*
X136878282Y-83038182D01*
X137494040Y-83038182D01*
X137494040Y-83346060D01*
X136878282Y-83346060D01*
X136878282Y-83653939D01*
X136262525Y-83653939D01*
X136262525Y-83961818D01*
X135954646Y-83961818D01*
X135954646Y-83653939D01*
X135646767Y-83653939D01*
X135646767Y-83038182D01*
X135031010Y-83038182D01*
X135031010Y-83346060D01*
X134415252Y-83346060D01*
X134415252Y-83038182D01*
X133799495Y-83038182D01*
X133799495Y-83961818D01*
X134107373Y-83961818D01*
X134107373Y-84269697D01*
X134415252Y-84269697D01*
X134415252Y-84577575D01*
X135338888Y-84577575D01*
X135338888Y-84269697D01*
X135954646Y-84269697D01*
X135954646Y-84577575D01*
X136262525Y-84577575D01*
X136262525Y-83961818D01*
X137186161Y-83961818D01*
X137186161Y-83653939D01*
X137494040Y-83653939D01*
X137494040Y-83961818D01*
X137186161Y-83961818D01*
X137186161Y-84269697D01*
X137494040Y-84269697D01*
X137494040Y-83961818D01*
X138109798Y-83961818D01*
X138109798Y-84269697D01*
X137494040Y-84269697D01*
X137494040Y-84885454D01*
X137186161Y-84885454D01*
X137186161Y-84269697D01*
X136878282Y-84269697D01*
X136878282Y-84577575D01*
X136570404Y-84577575D01*
X136570404Y-84885454D01*
X136262525Y-84885454D01*
X136262525Y-85501212D01*
X136878282Y-85501212D01*
X136878282Y-85193333D01*
G37*
G36*
X135031010Y-81806666D02*
G01*
X134107373Y-81806666D01*
X134107373Y-80883030D01*
X135031010Y-80883030D01*
X135031010Y-81806666D01*
G37*
G36*
X134415252Y-83653939D02*
G01*
X134107373Y-83653939D01*
X134107373Y-83346060D01*
X134415252Y-83346060D01*
X134415252Y-83653939D01*
G37*
G36*
X138725555Y-83346060D02*
G01*
X138109798Y-83346060D01*
X138109798Y-83038182D01*
X138725555Y-83038182D01*
X138725555Y-83346060D01*
G37*
G36*
X134107373Y-86732727D02*
G01*
X133799495Y-86732727D01*
X133799495Y-86424848D01*
X134107373Y-86424848D01*
X134107373Y-86732727D01*
G37*
G36*
X137801919Y-82422424D02*
G01*
X137801919Y-80575151D01*
X138109798Y-80575151D01*
X138109798Y-82114545D01*
X139649191Y-82114545D01*
X139649191Y-80575151D01*
X138109798Y-80575151D01*
X137801919Y-80575151D01*
X137801919Y-80267272D01*
X139957070Y-80267272D01*
X139957070Y-82422424D01*
X137801919Y-82422424D01*
G37*
G36*
X137494040Y-81190909D02*
G01*
X137186161Y-81190909D01*
X137186161Y-80575151D01*
X137494040Y-80575151D01*
X137494040Y-81190909D01*
G37*
G36*
X138109798Y-83038182D02*
G01*
X137494040Y-83038182D01*
X137494040Y-82730303D01*
X138109798Y-82730303D01*
X138109798Y-83038182D01*
G37*
G36*
X139341313Y-83653939D02*
G01*
X139649191Y-83653939D01*
X139649191Y-83961818D01*
X139957070Y-83961818D01*
X139957070Y-84269697D01*
X139033434Y-84269697D01*
X139033434Y-83653939D01*
X138725555Y-83653939D01*
X138725555Y-83346060D01*
X139341313Y-83346060D01*
X139341313Y-83653939D01*
G37*
G36*
X135031010Y-86732727D02*
G01*
X134415252Y-86732727D01*
X134415252Y-86424848D01*
X135031010Y-86424848D01*
X135031010Y-86732727D01*
G37*
G36*
X136262525Y-80883030D02*
G01*
X135954646Y-80883030D01*
X135954646Y-80267272D01*
X136262525Y-80267272D01*
X136262525Y-80883030D01*
G37*
G36*
X135338888Y-83653939D02*
G01*
X135646767Y-83653939D01*
X135646767Y-83961818D01*
X135031010Y-83961818D01*
X135031010Y-83346060D01*
X135338888Y-83346060D01*
X135338888Y-83653939D01*
G37*
G36*
X136262525Y-82422424D02*
G01*
X135954646Y-82422424D01*
X135954646Y-82114545D01*
X136262525Y-82114545D01*
X136262525Y-82422424D01*
G37*
G36*
X139033434Y-83038182D02*
G01*
X138725555Y-83038182D01*
X138725555Y-82730303D01*
X139033434Y-82730303D01*
X139033434Y-83038182D01*
G37*
G36*
X137801919Y-86732727D02*
G01*
X137801919Y-84885454D01*
X138109798Y-84885454D01*
X138109798Y-86424848D01*
X139649191Y-86424848D01*
X139649191Y-84885454D01*
X138109798Y-84885454D01*
X137801919Y-84885454D01*
X137801919Y-84577575D01*
X139957070Y-84577575D01*
X139957070Y-86732727D01*
X137801919Y-86732727D01*
G37*
G36*
X139341313Y-81806666D02*
G01*
X138417676Y-81806666D01*
X138417676Y-80883030D01*
X139341313Y-80883030D01*
X139341313Y-81806666D01*
G37*
G36*
X138109798Y-83653939D02*
G01*
X137801919Y-83653939D01*
X137801919Y-83346060D01*
X138109798Y-83346060D01*
X138109798Y-83653939D01*
G37*
G36*
X139957070Y-83346060D02*
G01*
X139341313Y-83346060D01*
X139341313Y-82730303D01*
X139957070Y-82730303D01*
X139957070Y-83346060D01*
G37*
G36*
X133491616Y-82422424D02*
G01*
X133491616Y-80575151D01*
X133799495Y-80575151D01*
X133799495Y-82114545D01*
X135338888Y-82114545D01*
X135338888Y-80575151D01*
X133799495Y-80575151D01*
X133491616Y-80575151D01*
X133491616Y-80267272D01*
X135646767Y-80267272D01*
X135646767Y-82422424D01*
X133491616Y-82422424D01*
G37*
G36*
X134723131Y-83961818D02*
G01*
X134415252Y-83961818D01*
X134415252Y-83653939D01*
X134723131Y-83653939D01*
X134723131Y-83961818D01*
G37*
G36*
X134107373Y-85809091D02*
G01*
X133799495Y-85809091D01*
X133799495Y-86116969D01*
X133491616Y-86116969D01*
X133491616Y-85501212D01*
X134107373Y-85501212D01*
X134107373Y-85809091D01*
G37*
G36*
X135031010Y-84269697D02*
G01*
X134723131Y-84269697D01*
X134723131Y-83961818D01*
X135031010Y-83961818D01*
X135031010Y-84269697D01*
G37*
G36*
X136262525Y-81498788D02*
G01*
X137494040Y-81498788D01*
X137494040Y-82730303D01*
X137186161Y-82730303D01*
X137186161Y-82114545D01*
X136878282Y-82114545D01*
X136878282Y-82422424D01*
X136570404Y-82422424D01*
X136570404Y-81806666D01*
X135954646Y-81806666D01*
X135954646Y-81190909D01*
X136262525Y-81190909D01*
X136262525Y-81498788D01*
G37*
G36*
X136878282Y-81190909D02*
G01*
X136262525Y-81190909D01*
X136262525Y-80883030D01*
X136570404Y-80883030D01*
X136570404Y-80267272D01*
X136878282Y-80267272D01*
X136878282Y-81190909D01*
G37*
G36*
X138725555Y-84269697D02*
G01*
X138417676Y-84269697D01*
X138417676Y-83961818D01*
X138725555Y-83961818D01*
X138725555Y-84269697D01*
G37*
G36*
X139341313Y-86116969D02*
G01*
X138417676Y-86116969D01*
X138417676Y-85193333D01*
X139341313Y-85193333D01*
X139341313Y-86116969D01*
G37*
X122200000Y-92000000D02*
G75*
G03*
X122200000Y-92000000I-1200000J0D01*
G01*
X160390000Y-82980000D02*
G75*
G03*
X160390000Y-82980000I-1450000J0D01*
G01*
X128700000Y-89000000D02*
G75*
G03*
X128700000Y-89000000I-1200000J0D01*
G01*
G36*
X147327527Y-83642474D02*
G01*
X147359353Y-83642784D01*
X147384070Y-83643649D01*
X147404134Y-83645302D01*
X147422003Y-83647970D01*
X147440134Y-83651886D01*
X147460981Y-83657278D01*
X147475739Y-83661613D01*
X147508611Y-83672915D01*
X147542994Y-83686429D01*
X147573481Y-83700097D01*
X147630556Y-83727975D01*
X147630556Y-84881551D01*
X147590087Y-84901295D01*
X147557657Y-84915770D01*
X147505146Y-84933859D01*
X147446949Y-84947624D01*
X147380556Y-84957740D01*
X147375297Y-84958258D01*
X147349657Y-84959109D01*
X147317036Y-84958398D01*
X147280571Y-84956335D01*
X147243402Y-84953134D01*
X147208668Y-84949006D01*
X147179510Y-84944164D01*
X147118971Y-84929033D01*
X147036684Y-84899852D01*
X146952480Y-84860537D01*
X146866968Y-84811412D01*
X146780754Y-84752801D01*
X146694445Y-84685028D01*
X146622223Y-84624465D01*
X146620789Y-84306562D01*
X146619354Y-83988659D01*
X146648950Y-83961114D01*
X146664065Y-83947291D01*
X146700947Y-83915082D01*
X146740904Y-83881891D01*
X146781193Y-83849919D01*
X146819071Y-83821365D01*
X146851796Y-83798429D01*
X146874610Y-83783494D01*
X146933736Y-83747045D01*
X146988281Y-83717229D01*
X147040476Y-83692972D01*
X147092555Y-83673204D01*
X147146750Y-83656852D01*
X147156426Y-83654307D01*
X147175474Y-83649790D01*
X147193398Y-83646592D01*
X147212643Y-83644486D01*
X147235657Y-83643246D01*
X147264886Y-83642646D01*
X147302778Y-83642461D01*
X147327527Y-83642474D01*
G37*
G36*
X144748601Y-83644202D02*
G01*
X144815206Y-83654090D01*
X144879905Y-83670246D01*
X144945675Y-83693449D01*
X145015495Y-83724479D01*
X145055938Y-83745204D01*
X145128559Y-83787676D01*
X145202102Y-83836867D01*
X145273771Y-83890859D01*
X145340771Y-83947733D01*
X145375001Y-83978710D01*
X145375001Y-84607615D01*
X145340278Y-84640251D01*
X145312535Y-84665510D01*
X145257871Y-84711605D01*
X145198984Y-84757260D01*
X145138676Y-84800425D01*
X145079748Y-84839048D01*
X145025001Y-84871078D01*
X145011792Y-84878072D01*
X144932070Y-84913607D01*
X144849669Y-84939464D01*
X144766648Y-84954972D01*
X144765740Y-84955082D01*
X144731098Y-84957637D01*
X144690015Y-84958255D01*
X144646834Y-84957053D01*
X144605900Y-84954150D01*
X144571559Y-84949663D01*
X144544045Y-84943751D01*
X144497903Y-84930379D01*
X144450628Y-84913124D01*
X144406945Y-84893596D01*
X144363890Y-84872098D01*
X144363890Y-83712628D01*
X144397402Y-83697589D01*
X144469176Y-83669614D01*
X144541413Y-83650758D01*
X144615367Y-83641191D01*
X144693907Y-83640361D01*
X144748601Y-83644202D01*
G37*
G36*
X146624820Y-85190477D02*
G01*
X146635787Y-85196926D01*
X146652534Y-85207187D01*
X146673012Y-85220018D01*
X146693311Y-85232236D01*
X146727058Y-85251040D01*
X146766400Y-85271754D01*
X146808805Y-85293131D01*
X146851735Y-85313923D01*
X146892657Y-85332886D01*
X146929035Y-85348771D01*
X146958334Y-85360333D01*
X147013261Y-85379048D01*
X147067434Y-85394751D01*
X147120198Y-85406700D01*
X147174029Y-85415287D01*
X147231402Y-85420902D01*
X147294790Y-85423936D01*
X147366667Y-85424778D01*
X147414153Y-85424391D01*
X147469719Y-85422826D01*
X147516732Y-85419949D01*
X147556629Y-85415630D01*
X147590850Y-85409743D01*
X147620834Y-85402158D01*
X147622454Y-85401798D01*
X147625268Y-85402527D01*
X147627345Y-85406378D01*
X147628796Y-85414683D01*
X147629732Y-85428774D01*
X147630264Y-85449980D01*
X147630502Y-85479635D01*
X147630556Y-85519070D01*
X147630556Y-85638888D01*
X146619445Y-85638888D01*
X146619445Y-85413888D01*
X146619453Y-85394297D01*
X146619545Y-85346813D01*
X146619728Y-85303428D01*
X146619991Y-85265311D01*
X146620324Y-85233629D01*
X146620714Y-85209552D01*
X146621151Y-85194249D01*
X146621624Y-85188888D01*
X146624820Y-85190477D01*
G37*
G36*
X147630556Y-83086111D02*
G01*
X147630533Y-83104890D01*
X147630366Y-83138948D01*
X147630058Y-83168167D01*
X147629635Y-83190979D01*
X147629121Y-83205816D01*
X147628542Y-83211111D01*
X147627566Y-83210952D01*
X147618501Y-83208909D01*
X147602219Y-83205005D01*
X147581363Y-83199870D01*
X147561546Y-83195260D01*
X147496516Y-83183689D01*
X147425354Y-83175539D01*
X147351346Y-83170960D01*
X147277779Y-83170099D01*
X147207940Y-83173107D01*
X147145116Y-83180130D01*
X147108847Y-83186591D01*
X147020277Y-83208546D01*
X146929479Y-83239210D01*
X146838470Y-83277764D01*
X146749268Y-83323391D01*
X146663890Y-83375273D01*
X146659977Y-83377847D01*
X146642902Y-83388745D01*
X146629930Y-83396500D01*
X146623612Y-83399573D01*
X146623328Y-83399095D01*
X146622433Y-83390688D01*
X146621613Y-83372710D01*
X146620893Y-83346341D01*
X146620293Y-83312760D01*
X146619837Y-83273149D01*
X146619547Y-83228687D01*
X146619445Y-83180555D01*
X146619445Y-82961111D01*
X147630556Y-82961111D01*
X147630556Y-83086111D01*
G37*
G36*
X148758334Y-85638888D02*
G01*
X147752778Y-85638888D01*
X147752778Y-85363447D01*
X147802091Y-85342565D01*
X147874134Y-85308168D01*
X147959412Y-85256941D01*
X148040233Y-85196626D01*
X148115270Y-85128231D01*
X148183195Y-85052766D01*
X148223959Y-84998739D01*
X148278473Y-84911928D01*
X148325466Y-84818111D01*
X148364473Y-84718382D01*
X148395027Y-84613833D01*
X148416664Y-84505555D01*
X148420791Y-84473440D01*
X148424865Y-84426688D01*
X148427735Y-84375025D01*
X148429315Y-84321630D01*
X148429518Y-84269683D01*
X148428257Y-84222366D01*
X148425447Y-84182858D01*
X148423882Y-84168745D01*
X148405452Y-84058085D01*
X148376594Y-83950390D01*
X148337661Y-83846396D01*
X148289010Y-83746841D01*
X148230994Y-83652461D01*
X148163968Y-83563993D01*
X148088286Y-83482174D01*
X148043135Y-83440182D01*
X147973084Y-83383653D01*
X147897793Y-83333146D01*
X147814413Y-83286626D01*
X147752778Y-83255098D01*
X147752778Y-82961111D01*
X148758334Y-82961111D01*
X148758334Y-85638888D01*
G37*
G36*
X144240376Y-83097720D02*
G01*
X144238890Y-83234329D01*
X144180070Y-83260593D01*
X144131883Y-83283662D01*
X144042182Y-83335660D01*
X143959111Y-83396218D01*
X143882991Y-83464874D01*
X143814145Y-83541165D01*
X143752896Y-83624628D01*
X143699565Y-83714800D01*
X143654476Y-83811220D01*
X143617951Y-83913424D01*
X143590311Y-84020949D01*
X143571880Y-84133333D01*
X143571536Y-84136285D01*
X143568238Y-84173720D01*
X143565918Y-84217725D01*
X143564595Y-84265362D01*
X143564291Y-84313693D01*
X143565028Y-84359782D01*
X143566827Y-84400689D01*
X143569709Y-84433479D01*
X143574254Y-84466424D01*
X143596216Y-84575532D01*
X143628053Y-84680911D01*
X143669323Y-84781929D01*
X143719586Y-84877954D01*
X143778398Y-84968354D01*
X143845318Y-85052497D01*
X143919905Y-85129752D01*
X144001717Y-85199487D01*
X144090312Y-85261070D01*
X144185249Y-85313869D01*
X144241667Y-85341627D01*
X144241667Y-85638888D01*
X143230556Y-85638888D01*
X143230556Y-82961111D01*
X144241861Y-82961111D01*
X144240376Y-83097720D01*
G37*
G36*
X143013890Y-85850000D02*
G01*
X143013890Y-85727777D01*
X143136091Y-85727777D01*
X148858355Y-85727777D01*
X148856956Y-84298611D01*
X148855556Y-82869444D01*
X143138890Y-82869444D01*
X143137490Y-84298611D01*
X143136091Y-85727777D01*
X143013890Y-85727777D01*
X143013890Y-85122222D01*
X142519445Y-85122222D01*
X142519445Y-83472222D01*
X142768056Y-83472223D01*
X143016667Y-83472223D01*
X143015199Y-83111111D01*
X143013730Y-82750000D01*
X148980556Y-82750000D01*
X148980556Y-85850000D01*
X143013890Y-85850000D01*
G37*
G36*
X147773612Y-83849869D02*
G01*
X147782559Y-83860406D01*
X147835131Y-83931523D01*
X147878300Y-84007191D01*
X147911523Y-84086334D01*
X147934258Y-84167878D01*
X147938560Y-84195940D01*
X147941696Y-84232384D01*
X147943517Y-84273525D01*
X147943988Y-84316221D01*
X147943077Y-84357330D01*
X147940749Y-84393711D01*
X147936972Y-84422222D01*
X147922378Y-84484538D01*
X147896095Y-84563114D01*
X147862398Y-84636725D01*
X147822062Y-84703732D01*
X147775861Y-84762500D01*
X147768956Y-84769985D01*
X147759517Y-84779580D01*
X147754910Y-84783333D01*
X147754657Y-84779963D01*
X147754348Y-84766368D01*
X147754057Y-84743093D01*
X147753786Y-84710938D01*
X147753540Y-84670707D01*
X147753322Y-84623199D01*
X147753136Y-84569215D01*
X147752985Y-84509558D01*
X147752873Y-84445028D01*
X147752803Y-84376427D01*
X147752778Y-84304555D01*
X147752778Y-83825777D01*
X147773612Y-83849869D01*
G37*
G36*
X146502778Y-83490067D02*
G01*
X146487501Y-83501978D01*
X146470224Y-83516060D01*
X146446705Y-83536298D01*
X146418792Y-83561093D01*
X146387382Y-83589586D01*
X146353375Y-83620915D01*
X146317672Y-83654218D01*
X146281171Y-83688634D01*
X146244772Y-83723301D01*
X146209375Y-83757360D01*
X146175879Y-83789947D01*
X146145183Y-83820202D01*
X146118188Y-83847264D01*
X146095792Y-83870270D01*
X146078895Y-83888361D01*
X146068397Y-83900674D01*
X146065198Y-83906348D01*
X146065718Y-83907079D01*
X146072086Y-83914326D01*
X146085023Y-83928449D01*
X146103706Y-83948567D01*
X146127313Y-83973802D01*
X146155020Y-84003271D01*
X146186005Y-84036096D01*
X146219445Y-84071395D01*
X146372223Y-84232389D01*
X146437501Y-84167670D01*
X146502778Y-84102951D01*
X146502778Y-84301938D01*
X146502672Y-84345896D01*
X146502352Y-84387952D01*
X146501846Y-84425034D01*
X146501179Y-84455914D01*
X146500379Y-84479366D01*
X146499473Y-84494162D01*
X146498486Y-84499074D01*
X146494302Y-84495324D01*
X146483393Y-84484472D01*
X146466885Y-84467619D01*
X146445834Y-84445850D01*
X146421294Y-84420250D01*
X146394320Y-84391904D01*
X146292879Y-84285192D01*
X146190697Y-84178287D01*
X146095363Y-84079191D01*
X146006927Y-83987956D01*
X145925442Y-83904632D01*
X145850958Y-83829272D01*
X145783527Y-83761926D01*
X145723199Y-83702646D01*
X145670027Y-83651485D01*
X145624061Y-83608492D01*
X145585353Y-83573721D01*
X145553953Y-83547222D01*
X145491910Y-83497222D01*
X145491789Y-83229166D01*
X145491667Y-82961111D01*
X146502778Y-82961111D01*
X146502778Y-83490067D01*
G37*
G36*
X145375001Y-83183333D02*
G01*
X145374987Y-83200564D01*
X145374804Y-83247893D01*
X145374425Y-83291168D01*
X145373875Y-83329211D01*
X145373178Y-83360848D01*
X145372359Y-83384901D01*
X145371440Y-83400196D01*
X145370447Y-83405555D01*
X145370144Y-83405510D01*
X145362860Y-83402136D01*
X145348302Y-83394186D01*
X145328421Y-83382756D01*
X145305169Y-83368940D01*
X145263521Y-83344624D01*
X145164558Y-83293059D01*
X145065714Y-83250098D01*
X144968351Y-83216299D01*
X144873837Y-83192222D01*
X144836415Y-83185320D01*
X144753427Y-83174784D01*
X144666953Y-83169596D01*
X144580276Y-83169797D01*
X144496679Y-83175429D01*
X144419445Y-83186531D01*
X144416131Y-83187156D01*
X144395561Y-83190851D01*
X144379376Y-83193456D01*
X144370834Y-83194443D01*
X144368805Y-83192753D01*
X144366863Y-83185462D01*
X144365465Y-83171404D01*
X144364547Y-83149494D01*
X144364043Y-83118647D01*
X144363890Y-83077777D01*
X144363890Y-82961111D01*
X145375001Y-82961111D01*
X145375001Y-83183333D01*
G37*
G36*
X144241468Y-84291928D02*
G01*
X144241268Y-84775000D01*
X144227073Y-84758333D01*
X144173932Y-84689429D01*
X144126899Y-84612547D01*
X144090700Y-84533221D01*
X144065344Y-84451490D01*
X144050840Y-84367391D01*
X144047198Y-84280963D01*
X144054426Y-84192245D01*
X144072533Y-84101276D01*
X144073820Y-84096369D01*
X144089322Y-84048576D01*
X144110201Y-83998717D01*
X144135041Y-83949402D01*
X144162427Y-83903240D01*
X144190946Y-83862841D01*
X144219182Y-83830812D01*
X144241667Y-83808856D01*
X144241468Y-84291928D01*
G37*
G36*
X145367668Y-85200070D02*
G01*
X145369635Y-85201989D01*
X145371230Y-85207259D01*
X145372489Y-85216850D01*
X145373444Y-85231731D01*
X145374130Y-85252872D01*
X145374582Y-85281244D01*
X145374833Y-85317817D01*
X145374919Y-85363560D01*
X145374874Y-85419444D01*
X145374516Y-85638888D01*
X144363890Y-85638888D01*
X144363890Y-85513888D01*
X144363913Y-85500828D01*
X144364269Y-85463977D01*
X144365008Y-85433065D01*
X144366080Y-85409384D01*
X144367430Y-85394228D01*
X144369007Y-85388888D01*
X144370584Y-85389052D01*
X144381208Y-85391051D01*
X144398760Y-85394841D01*
X144420395Y-85399818D01*
X144458262Y-85408045D01*
X144517563Y-85417815D01*
X144578940Y-85423899D01*
X144645274Y-85426550D01*
X144719445Y-85426021D01*
X144750914Y-85425098D01*
X144788746Y-85423480D01*
X144819991Y-85421297D01*
X144847320Y-85418294D01*
X144873407Y-85414219D01*
X144900922Y-85408819D01*
X144914032Y-85405963D01*
X144991790Y-85385205D01*
X145069931Y-85357530D01*
X145151501Y-85321881D01*
X145167193Y-85314255D01*
X145195511Y-85299822D01*
X145225869Y-85283692D01*
X145256564Y-85266835D01*
X145285895Y-85250221D01*
X145312159Y-85234821D01*
X145333654Y-85221603D01*
X145348679Y-85211539D01*
X145355530Y-85205597D01*
X145357585Y-85203367D01*
X145367111Y-85200000D01*
X145367668Y-85200070D01*
G37*
G36*
X145517858Y-84119444D02*
G01*
X145518582Y-84120219D01*
X145529915Y-84132237D01*
X145547536Y-84150810D01*
X145570171Y-84174600D01*
X145596547Y-84202267D01*
X145625388Y-84232476D01*
X145655422Y-84263888D01*
X145675263Y-84284638D01*
X145710462Y-84321495D01*
X145750217Y-84363165D01*
X145792665Y-84407693D01*
X145835943Y-84453127D01*
X145878187Y-84497510D01*
X145917536Y-84538888D01*
X145981365Y-84605639D01*
X146057367Y-84684007D01*
X146130053Y-84757716D01*
X146198865Y-84826224D01*
X146263247Y-84888991D01*
X146322642Y-84945474D01*
X146376493Y-84995131D01*
X146424244Y-85037421D01*
X146465336Y-85071803D01*
X146502778Y-85101940D01*
X146502778Y-85638888D01*
X145491667Y-85638888D01*
X145491667Y-85106807D01*
X145531945Y-85074288D01*
X145547984Y-85061252D01*
X145566449Y-85045923D01*
X145584340Y-85030583D01*
X145602707Y-85014247D01*
X145622601Y-84995931D01*
X145645071Y-84974650D01*
X145671168Y-84949421D01*
X145701943Y-84919260D01*
X145738445Y-84883181D01*
X145781724Y-84840201D01*
X145930115Y-84692630D01*
X145912681Y-84672704D01*
X145912116Y-84672060D01*
X145901158Y-84659946D01*
X145884611Y-84642086D01*
X145863490Y-84619543D01*
X145838812Y-84593381D01*
X145811594Y-84564662D01*
X145782853Y-84534452D01*
X145753605Y-84503812D01*
X145724867Y-84473808D01*
X145697657Y-84445501D01*
X145672990Y-84419957D01*
X145651884Y-84398237D01*
X145635355Y-84381407D01*
X145624421Y-84370529D01*
X145620097Y-84366666D01*
X145617923Y-84368135D01*
X145608930Y-84376091D01*
X145594387Y-84389785D01*
X145575695Y-84407889D01*
X145554254Y-84429076D01*
X145491667Y-84491485D01*
X145491796Y-84291576D01*
X145491925Y-84091666D01*
X145517858Y-84119444D01*
G37*
%LPC*%
D16*
X120750000Y-82950000D03*
X168750000Y-82950000D03*
D17*
X131000000Y-91350000D03*
D18*
X147690000Y-88320000D03*
X141910000Y-88320000D03*
D19*
X140480000Y-87820000D03*
D20*
X140480000Y-92000000D03*
X149120000Y-92000000D03*
D19*
X149120000Y-87820000D03*
D21*
X127000000Y-83000000D03*
D22*
X134000000Y-92000000D03*
X134000000Y-89000000D03*
X121000000Y-89000000D03*
X165700000Y-90900000D03*
D23*
X131000000Y-83000000D03*
D22*
X127500000Y-92000000D03*
D24*
X154240000Y-92525000D03*
X151650000Y-92525000D03*
D25*
X153800000Y-82125000D03*
D26*
X152650000Y-81900000D03*
D27*
X151500000Y-82100000D03*
D28*
X155290000Y-83750000D03*
X155290000Y-84850000D03*
X155290000Y-85950000D03*
X155290000Y-87050000D03*
X155290000Y-88150000D03*
X155290000Y-89250000D03*
X155290000Y-90350000D03*
X155290000Y-91450000D03*
D21*
X162910000Y-83000000D03*
D22*
X160100000Y-90900000D03*
X121000000Y-92000000D03*
D23*
X158940000Y-82980000D03*
D22*
X127500000Y-89000000D03*
M02*
