M48
; DRILL file {KiCad (6.0.0)} date Sat Dec 24 23:31:21 2022
; FORMAT={-:-/ absolute / metric / decimal}
; #@! TF.CreationDate,2022-12-24T23:31:21+01:00
; #@! TF.GenerationSoftware,Kicad,Pcbnew,(6.0.0)
; #@! TF.FileFunction,Plated,1,4,PTH
FMAT,2
METRIC
; #@! TA.AperFunction,Plated,PTH,ViaDrill
T1C0.250
; #@! TA.AperFunction,Plated,PTH,ComponentDrill
T2C0.600
; #@! TA.AperFunction,Plated,PTH,ComponentDrill
T3C3.700
%
G90
G05
T1
X118.0Y-86.0
X118.0Y-88.0
X118.0Y-90.0
X118.0Y-92.0
X119.0Y-87.0
X119.0Y-89.0
X119.0Y-91.0
X119.0Y-93.0
X121.0Y-87.0
X123.0Y-87.0
X123.0Y-91.0
X123.0Y-93.0
X124.0Y-80.0
X126.0Y-80.0
X126.15Y-85.6
X127.1Y-81.5
X128.0Y-80.0
X129.2Y-86.05
X129.65Y-93.35
X130.0Y-80.0
X131.2Y-83.4
X131.397Y-87.547
X132.0Y-80.0
X132.8Y-89.95
X132.842Y-82.296
X133.0Y-93.15
X133.5Y-86.7
X133.8Y-81.204
X134.35Y-82.45
X135.15Y-81.4
X135.6Y-82.025
X136.5Y-90.9
X136.5Y-92.65
X136.9Y-85.6
X136.95Y-82.7
X137.9Y-86.8
X139.55Y-86.25
X141.0Y-84.05
X142.0Y-91.0
X142.24Y-84.074
X143.0Y-86.0
X143.15Y-82.7
X143.253Y-83.68
X143.6Y-81.0
X144.0Y-93.0
X144.05Y-88.55
X144.55Y-89.15
X144.65Y-81.0
X144.65Y-84.15
X145.0Y-92.0
X145.028Y-88.328
X145.999Y-83.25
X146.0Y-91.0
X146.0Y-93.0
X146.4Y-81.0
X147.0Y-92.0
X147.1Y-83.75
X147.9Y-83.8
X148.0Y-91.0
X148.0Y-93.0
X148.75Y-83.85
X149.2Y-81.0
X149.8Y-83.6
X150.0Y-91.0
X150.0Y-93.0
X150.4Y-81.0
X150.6Y-87.2
X151.0Y-92.0
X151.052Y-84.103
X151.55Y-86.15
X151.6Y-81.0
X151.85Y-86.85
X152.0Y-93.0
X152.6Y-80.6
X153.0Y-92.0
X153.35Y-89.55
X154.0Y-88.0
X154.0Y-93.0
X154.3Y-80.6
X155.5Y-80.8
X156.0Y-93.0
X156.4Y-89.1
X156.5Y-80.85
X157.0Y-83.93
X157.0Y-92.0
X157.55Y-86.95
X157.55Y-87.8
X157.75Y-84.35
X157.75Y-85.25
X158.0Y-80.0
X158.0Y-90.0
X159.0Y-81.0
X160.0Y-80.0
X160.1Y-85.2
X160.8Y-90.0
X161.0Y-81.0
X161.0Y-83.0
X161.0Y-87.0
X161.0Y-93.0
X162.0Y-80.0
X162.0Y-82.0
X162.0Y-84.0
X162.0Y-90.0
X162.0Y-92.0
X163.0Y-81.0
X163.0Y-83.0
X163.0Y-85.0
X163.0Y-87.0
X163.0Y-91.0
X163.0Y-93.0
X164.0Y-80.0
X164.0Y-82.0
X164.0Y-84.0
X164.0Y-90.0
X164.0Y-92.0
X165.0Y-81.0
X165.0Y-83.0
X165.0Y-85.0
X165.0Y-89.8
X165.0Y-93.0
X166.0Y-80.0
X166.0Y-86.0
X167.0Y-87.0
X167.0Y-89.0
X167.0Y-93.0
X168.0Y-88.0
X168.0Y-90.0
X168.0Y-92.0
X169.0Y-87.0
X169.0Y-89.0
X169.0Y-91.0
X169.0Y-93.0
X170.0Y-88.0
X170.0Y-90.0
X170.0Y-92.0
X171.0Y-87.0
X171.0Y-89.0
X171.0Y-91.0
T2
X131.0Y-91.35
T3
X120.75Y-82.95
X168.75Y-82.95
T2
X140.48Y-87.27G85X140.48Y-88.37
G05
X140.48Y-91.6G85X140.48Y-92.4
G05
X149.12Y-87.27G85X149.12Y-88.37
G05
X149.12Y-91.6G85X149.12Y-92.4
G05
T0
M30
