G04 #@! TF.GenerationSoftware,KiCad,Pcbnew,(6.0.0)*
G04 #@! TF.CreationDate,2022-12-24T23:31:17+01:00*
G04 #@! TF.ProjectId,MinCab,4d696e43-6162-42e6-9b69-6361645f7063,rev?*
G04 #@! TF.SameCoordinates,Original*
G04 #@! TF.FileFunction,Copper,L3,Inr*
G04 #@! TF.FilePolarity,Positive*
%FSLAX46Y46*%
G04 Gerber Fmt 4.6, Leading zero omitted, Abs format (unit mm)*
G04 Created by KiCad (PCBNEW (6.0.0)) date 2022-12-24 23:31:17*
%MOMM*%
%LPD*%
G01*
G04 APERTURE LIST*
G04 #@! TA.AperFunction,Profile*
%ADD10C,0.050000*%
G04 #@! TD*
G04 #@! TA.AperFunction,ComponentPad*
%ADD11C,6.000000*%
G04 #@! TD*
G04 #@! TA.AperFunction,ComponentPad*
%ADD12C,0.800000*%
G04 #@! TD*
G04 #@! TA.AperFunction,ComponentPad*
%ADD13O,1.050000X2.100000*%
G04 #@! TD*
G04 #@! TA.AperFunction,ComponentPad*
%ADD14O,1.000000X2.000000*%
G04 #@! TD*
G04 #@! TA.AperFunction,ViaPad*
%ADD15C,0.450000*%
G04 #@! TD*
G04 #@! TA.AperFunction,Conductor*
%ADD16C,0.130000*%
G04 #@! TD*
G04 APERTURE END LIST*
D10*
X117300000Y-91200000D02*
G75*
G03*
X120300000Y-94200000I3000001J1D01*
G01*
X172300000Y-82500000D02*
X172300000Y-91200000D01*
X169300000Y-94200000D02*
X120300000Y-94200000D01*
X172300000Y-82500000D02*
G75*
G03*
X169300000Y-79500000I-3000001J-1D01*
G01*
X169300000Y-94200000D02*
G75*
G03*
X172300000Y-91200000I-1J3000001D01*
G01*
X120300000Y-79500000D02*
X169300000Y-79500000D01*
X120300000Y-79500000D02*
G75*
G03*
X117300000Y-82500000I1J-3000001D01*
G01*
X117300000Y-82500000D02*
X117300000Y-91200000D01*
D11*
X120750000Y-82950000D03*
X168750000Y-82950000D03*
D12*
X131000000Y-91350000D03*
D13*
X140480000Y-87820000D03*
D14*
X140480000Y-92000000D03*
X149120000Y-92000000D03*
D13*
X149120000Y-87820000D03*
D15*
X126150000Y-85600000D03*
X132842000Y-82296000D03*
X129200000Y-86050000D03*
X141000000Y-84050000D03*
X119000000Y-89000000D03*
X166000000Y-80000000D03*
X160000000Y-80000000D03*
X154000000Y-93000000D03*
X118000000Y-88000000D03*
X163000000Y-87000000D03*
X171000000Y-91000000D03*
X163000000Y-91000000D03*
X164000000Y-84000000D03*
X171000000Y-89000000D03*
X126000000Y-80000000D03*
X162000000Y-80000000D03*
X151600000Y-81000000D03*
X142000000Y-91000000D03*
X165000000Y-85000000D03*
X150000000Y-91000000D03*
X163000000Y-83000000D03*
X168000000Y-88000000D03*
X133500000Y-86700000D03*
X168000000Y-90000000D03*
X155500000Y-80800000D03*
X153000000Y-92000000D03*
X157000000Y-92000000D03*
X164000000Y-90000000D03*
X169000000Y-87000000D03*
X167000000Y-93000000D03*
X163000000Y-85000000D03*
X123000000Y-87000000D03*
X128000000Y-80000000D03*
X169000000Y-89000000D03*
X165000000Y-93000000D03*
X162000000Y-84000000D03*
X165000000Y-81000000D03*
X170000000Y-88000000D03*
X162000000Y-92000000D03*
X123000000Y-93000000D03*
X157750000Y-85250000D03*
X132000000Y-80000000D03*
X162000000Y-90000000D03*
X118000000Y-86000000D03*
X146000000Y-93000000D03*
X144000000Y-93000000D03*
X119000000Y-91000000D03*
X136950000Y-82700000D03*
X158000000Y-80000000D03*
X150000000Y-93000000D03*
X146400000Y-81000000D03*
X130000000Y-80000000D03*
X167000000Y-89000000D03*
X159000000Y-81000000D03*
X147000000Y-92000000D03*
X170000000Y-90000000D03*
X169000000Y-93000000D03*
X161000000Y-87000000D03*
X171000000Y-87000000D03*
X121000000Y-87000000D03*
X143253368Y-83680043D03*
X143600000Y-81000000D03*
X161000000Y-83000000D03*
X154000000Y-88000000D03*
X148000000Y-91000000D03*
X163000000Y-93000000D03*
X145000000Y-92000000D03*
X152000000Y-93000000D03*
X158000000Y-90000000D03*
X123000000Y-91000000D03*
X156000000Y-93000000D03*
X168000000Y-92000000D03*
X166000000Y-86000000D03*
X151000000Y-92000000D03*
X162000000Y-82000000D03*
X169000000Y-91000000D03*
X163000000Y-81000000D03*
X150400000Y-81000000D03*
X118000000Y-92000000D03*
X164000000Y-82000000D03*
X164000000Y-92000000D03*
X161000000Y-81000000D03*
X161000000Y-93000000D03*
X164000000Y-80000000D03*
X165000000Y-83000000D03*
X119000000Y-87000000D03*
X142240000Y-84074000D03*
X118000000Y-90000000D03*
X170000000Y-92000000D03*
X124000000Y-80000000D03*
X148000000Y-93000000D03*
X167000000Y-87000000D03*
X146000000Y-91000000D03*
X119000000Y-93000000D03*
X160100000Y-85200000D03*
X156400000Y-89100000D03*
X153350000Y-89550000D03*
X157750000Y-84350000D03*
X136900000Y-85600000D03*
X157000000Y-83930500D03*
X156500000Y-80850000D03*
X149800000Y-83600000D03*
X151052236Y-84103267D03*
X151550000Y-86150000D03*
X151850000Y-86850000D03*
X149200000Y-81000000D03*
X148750000Y-83850000D03*
X135150000Y-81400000D03*
X143150000Y-82700000D03*
X145999474Y-83250496D03*
X133800000Y-81204500D03*
X133000000Y-93150000D03*
X147100000Y-83750000D03*
X147900000Y-83800000D03*
X129650000Y-93350000D03*
X135600000Y-82025000D03*
X134350000Y-82450000D03*
X143000000Y-86000000D03*
X157550000Y-87800000D03*
X150600000Y-87200000D03*
X157550000Y-86950000D03*
X137900000Y-86800000D03*
X139550000Y-86250000D03*
X154300000Y-80600000D03*
X127100000Y-81500000D03*
X152600000Y-80600000D03*
X131200000Y-83400000D03*
X144650000Y-84150000D03*
X165000000Y-89800000D03*
X160800000Y-90000000D03*
X144650000Y-81000000D03*
X136500000Y-92650000D03*
X144550000Y-89150000D03*
X136500000Y-90900000D03*
X144050000Y-88550000D03*
X145028368Y-88328368D03*
X132800000Y-89950000D03*
X131396632Y-87546632D03*
D16*
X126800000Y-85600000D02*
X126150000Y-85600000D01*
X130104000Y-82296000D02*
X126800000Y-85600000D01*
X132842000Y-82296000D02*
X130104000Y-82296000D01*
X129200000Y-86050000D02*
X131200000Y-84050000D01*
X131200000Y-84050000D02*
X141000000Y-84050000D01*
X133000000Y-93150000D02*
X133350000Y-93500000D01*
X147100000Y-87350000D02*
X147100000Y-83750000D01*
X133350000Y-93500000D02*
X140950000Y-93500000D01*
X140950000Y-93500000D02*
X147100000Y-87350000D01*
X147900000Y-83800000D02*
X147900000Y-87150000D01*
X130150000Y-93850000D02*
X129650000Y-93350000D01*
X147900000Y-87150000D02*
X141200000Y-93850000D01*
X141200000Y-93850000D02*
X130150000Y-93850000D01*
X165000000Y-89800000D02*
X164219511Y-90580489D01*
X158050000Y-83100000D02*
X146750000Y-83100000D01*
X146750000Y-83100000D02*
X145700000Y-84150000D01*
X158840481Y-89407497D02*
X158840481Y-83890481D01*
X160013473Y-90580489D02*
X158840481Y-89407497D01*
X158840481Y-83890481D02*
X158050000Y-83100000D01*
X164219511Y-90580489D02*
X160013473Y-90580489D01*
X145700000Y-84150000D02*
X144650000Y-84150000D01*
X160800000Y-90000000D02*
X159800000Y-90000000D01*
X159100000Y-89300000D02*
X159100000Y-83500000D01*
X159100000Y-83500000D02*
X158000000Y-82400000D01*
X159800000Y-90000000D02*
X159100000Y-89300000D01*
X146050000Y-82400000D02*
X144650000Y-81000000D01*
X158000000Y-82400000D02*
X146050000Y-82400000D01*
X140600000Y-90000000D02*
X139150000Y-91450000D01*
X143750000Y-90000000D02*
X140600000Y-90000000D01*
X144550000Y-89200000D02*
X143750000Y-90000000D01*
X144550000Y-89150000D02*
X144550000Y-89200000D01*
X139150000Y-91450000D02*
X137700000Y-91450000D01*
X137700000Y-91450000D02*
X136500000Y-92650000D01*
X140400000Y-89550000D02*
X142850000Y-89550000D01*
X142850000Y-89550000D02*
X143000000Y-89550000D01*
X145028368Y-88328368D02*
X144806736Y-88550000D01*
X139750000Y-90200000D02*
X140400000Y-89550000D01*
X144806736Y-88550000D02*
X144050000Y-88550000D01*
X139050000Y-90900000D02*
X136500000Y-90900000D01*
X143050000Y-89550000D02*
X144050000Y-88550000D01*
X143000000Y-89550000D02*
X143050000Y-89550000D01*
X139750000Y-90200000D02*
X139050000Y-90900000D01*
X132800000Y-88950000D02*
X132800000Y-89950000D01*
X131396632Y-87546632D02*
X132800000Y-88950000D01*
M02*
