%FSLAX45Y45*%
G04 Gerber Fmt 4.5, Leading zero omitted, Abs format (unit mm)*
G04 Created by KiCad (PCBNEW (6.0.0)) date 2022-11-14 23:44:42*
%MOMM*%
%LPD*%
G01*
G04 APERTURE LIST*
%TA.AperFunction,Profile*%
%ADD10C,0.050000*%
%TD*%
%ADD11C,0.200000*%
%ADD12C,0.065000*%
G04 APERTURE END LIST*
D10*
X11730000Y-9120000D02*
G75*
G03*
X12030000Y-9420000I300000J0D01*
G01*
X17230000Y-8250000D02*
X17230000Y-9120000D01*
X16930000Y-9420000D02*
X12030000Y-9420000D01*
X17230000Y-8250000D02*
G75*
G03*
X16930000Y-7950000I-300000J0D01*
G01*
X16930000Y-9420000D02*
G75*
G03*
X17230000Y-9120000I0J300000D01*
G01*
X12030000Y-7950000D02*
X16930000Y-7950000D01*
X12030000Y-7950000D02*
G75*
G03*
X11730000Y-8250000I0J-300000D01*
G01*
X11730000Y-8250000D02*
X11730000Y-9120000D01*
D11*
D12*
X14158500Y-8799500D02*
X14223500Y-8864500D01*
X14223500Y-8799500D02*
X14158500Y-8864500D01*
X14736500Y-8799500D02*
X14801500Y-8864500D01*
X14801500Y-8799500D02*
X14736500Y-8864500D01*
D11*
X11985119Y-9732976D02*
X11985119Y-9532976D01*
X12032738Y-9532976D01*
X12061309Y-9542500D01*
X12080357Y-9561548D01*
X12089881Y-9580595D01*
X12099405Y-9618690D01*
X12099405Y-9647262D01*
X12089881Y-9685357D01*
X12080357Y-9704405D01*
X12061309Y-9723452D01*
X12032738Y-9732976D01*
X11985119Y-9732976D01*
X12185119Y-9732976D02*
X12185119Y-9599643D01*
X12185119Y-9637738D02*
X12194643Y-9618690D01*
X12204167Y-9609167D01*
X12223214Y-9599643D01*
X12242262Y-9599643D01*
X12308928Y-9732976D02*
X12308928Y-9599643D01*
X12308928Y-9532976D02*
X12299405Y-9542500D01*
X12308928Y-9552024D01*
X12318452Y-9542500D01*
X12308928Y-9532976D01*
X12308928Y-9552024D01*
X12432738Y-9732976D02*
X12413690Y-9723452D01*
X12404167Y-9704405D01*
X12404167Y-9532976D01*
X12537500Y-9732976D02*
X12518452Y-9723452D01*
X12508928Y-9704405D01*
X12508928Y-9532976D01*
X12766071Y-9732976D02*
X12766071Y-9532976D01*
X12832738Y-9675833D01*
X12899405Y-9532976D01*
X12899405Y-9732976D01*
X13080357Y-9732976D02*
X13080357Y-9628214D01*
X13070833Y-9609167D01*
X13051786Y-9599643D01*
X13013690Y-9599643D01*
X12994643Y-9609167D01*
X13080357Y-9723452D02*
X13061309Y-9732976D01*
X13013690Y-9732976D01*
X12994643Y-9723452D01*
X12985119Y-9704405D01*
X12985119Y-9685357D01*
X12994643Y-9666310D01*
X13013690Y-9656786D01*
X13061309Y-9656786D01*
X13080357Y-9647262D01*
X13175595Y-9599643D02*
X13175595Y-9799643D01*
X13175595Y-9609167D02*
X13194643Y-9599643D01*
X13232738Y-9599643D01*
X13251786Y-9609167D01*
X13261309Y-9618690D01*
X13270833Y-9637738D01*
X13270833Y-9694881D01*
X13261309Y-9713929D01*
X13251786Y-9723452D01*
X13232738Y-9732976D01*
X13194643Y-9732976D01*
X13175595Y-9723452D01*
X13356548Y-9713929D02*
X13366071Y-9723452D01*
X13356548Y-9732976D01*
X13347024Y-9723452D01*
X13356548Y-9713929D01*
X13356548Y-9732976D01*
X13356548Y-9609167D02*
X13366071Y-9618690D01*
X13356548Y-9628214D01*
X13347024Y-9618690D01*
X13356548Y-9609167D01*
X13356548Y-9628214D01*
D12*
X11662500Y-10030000D02*
X11727500Y-10095000D01*
X11727500Y-10030000D02*
X11662500Y-10095000D01*
D11*
X12023214Y-9952976D02*
X12042262Y-9952976D01*
X12061309Y-9962500D01*
X12070833Y-9972024D01*
X12080357Y-9991071D01*
X12089881Y-10029167D01*
X12089881Y-10076786D01*
X12080357Y-10114881D01*
X12070833Y-10133929D01*
X12061309Y-10143452D01*
X12042262Y-10152976D01*
X12023214Y-10152976D01*
X12004167Y-10143452D01*
X11994643Y-10133929D01*
X11985119Y-10114881D01*
X11975595Y-10076786D01*
X11975595Y-10029167D01*
X11985119Y-9991071D01*
X11994643Y-9972024D01*
X12004167Y-9962500D01*
X12023214Y-9952976D01*
X12175595Y-10133929D02*
X12185119Y-10143452D01*
X12175595Y-10152976D01*
X12166071Y-10143452D01*
X12175595Y-10133929D01*
X12175595Y-10152976D01*
X12356548Y-9952976D02*
X12318452Y-9952976D01*
X12299405Y-9962500D01*
X12289881Y-9972024D01*
X12270833Y-10000595D01*
X12261309Y-10038690D01*
X12261309Y-10114881D01*
X12270833Y-10133929D01*
X12280357Y-10143452D01*
X12299405Y-10152976D01*
X12337500Y-10152976D01*
X12356548Y-10143452D01*
X12366071Y-10133929D01*
X12375595Y-10114881D01*
X12375595Y-10067262D01*
X12366071Y-10048214D01*
X12356548Y-10038690D01*
X12337500Y-10029167D01*
X12299405Y-10029167D01*
X12280357Y-10038690D01*
X12270833Y-10048214D01*
X12261309Y-10067262D01*
X12556548Y-9952976D02*
X12461309Y-9952976D01*
X12451786Y-10048214D01*
X12461309Y-10038690D01*
X12480357Y-10029167D01*
X12527976Y-10029167D01*
X12547024Y-10038690D01*
X12556548Y-10048214D01*
X12566071Y-10067262D01*
X12566071Y-10114881D01*
X12556548Y-10133929D01*
X12547024Y-10143452D01*
X12527976Y-10152976D01*
X12480357Y-10152976D01*
X12461309Y-10143452D01*
X12451786Y-10133929D01*
X12689881Y-9952976D02*
X12708928Y-9952976D01*
X12727976Y-9962500D01*
X12737500Y-9972024D01*
X12747024Y-9991071D01*
X12756548Y-10029167D01*
X12756548Y-10076786D01*
X12747024Y-10114881D01*
X12737500Y-10133929D01*
X12727976Y-10143452D01*
X12708928Y-10152976D01*
X12689881Y-10152976D01*
X12670833Y-10143452D01*
X12661309Y-10133929D01*
X12651786Y-10114881D01*
X12642262Y-10076786D01*
X12642262Y-10029167D01*
X12651786Y-9991071D01*
X12661309Y-9972024D01*
X12670833Y-9962500D01*
X12689881Y-9952976D01*
X12842262Y-10152976D02*
X12842262Y-10019643D01*
X12842262Y-10038690D02*
X12851786Y-10029167D01*
X12870833Y-10019643D01*
X12899405Y-10019643D01*
X12918452Y-10029167D01*
X12927976Y-10048214D01*
X12927976Y-10152976D01*
X12927976Y-10048214D02*
X12937500Y-10029167D01*
X12956548Y-10019643D01*
X12985119Y-10019643D01*
X13004167Y-10029167D01*
X13013690Y-10048214D01*
X13013690Y-10152976D01*
X13108928Y-10152976D02*
X13108928Y-10019643D01*
X13108928Y-10038690D02*
X13118452Y-10029167D01*
X13137500Y-10019643D01*
X13166071Y-10019643D01*
X13185119Y-10029167D01*
X13194643Y-10048214D01*
X13194643Y-10152976D01*
X13194643Y-10048214D02*
X13204167Y-10029167D01*
X13223214Y-10019643D01*
X13251786Y-10019643D01*
X13270833Y-10029167D01*
X13280357Y-10048214D01*
X13280357Y-10152976D01*
X13670833Y-9943452D02*
X13499405Y-10200595D01*
X13927976Y-9952976D02*
X13947024Y-9952976D01*
X13966071Y-9962500D01*
X13975595Y-9972024D01*
X13985119Y-9991071D01*
X13994643Y-10029167D01*
X13994643Y-10076786D01*
X13985119Y-10114881D01*
X13975595Y-10133929D01*
X13966071Y-10143452D01*
X13947024Y-10152976D01*
X13927976Y-10152976D01*
X13908928Y-10143452D01*
X13899405Y-10133929D01*
X13889881Y-10114881D01*
X13880357Y-10076786D01*
X13880357Y-10029167D01*
X13889881Y-9991071D01*
X13899405Y-9972024D01*
X13908928Y-9962500D01*
X13927976Y-9952976D01*
X14080357Y-10133929D02*
X14089881Y-10143452D01*
X14080357Y-10152976D01*
X14070833Y-10143452D01*
X14080357Y-10133929D01*
X14080357Y-10152976D01*
X14213690Y-9952976D02*
X14232738Y-9952976D01*
X14251786Y-9962500D01*
X14261309Y-9972024D01*
X14270833Y-9991071D01*
X14280357Y-10029167D01*
X14280357Y-10076786D01*
X14270833Y-10114881D01*
X14261309Y-10133929D01*
X14251786Y-10143452D01*
X14232738Y-10152976D01*
X14213690Y-10152976D01*
X14194643Y-10143452D01*
X14185119Y-10133929D01*
X14175595Y-10114881D01*
X14166071Y-10076786D01*
X14166071Y-10029167D01*
X14175595Y-9991071D01*
X14185119Y-9972024D01*
X14194643Y-9962500D01*
X14213690Y-9952976D01*
X14356548Y-9972024D02*
X14366071Y-9962500D01*
X14385119Y-9952976D01*
X14432738Y-9952976D01*
X14451786Y-9962500D01*
X14461309Y-9972024D01*
X14470833Y-9991071D01*
X14470833Y-10010119D01*
X14461309Y-10038690D01*
X14347024Y-10152976D01*
X14470833Y-10152976D01*
X14651786Y-9952976D02*
X14556548Y-9952976D01*
X14547024Y-10048214D01*
X14556548Y-10038690D01*
X14575595Y-10029167D01*
X14623214Y-10029167D01*
X14642262Y-10038690D01*
X14651786Y-10048214D01*
X14661309Y-10067262D01*
X14661309Y-10114881D01*
X14651786Y-10133929D01*
X14642262Y-10143452D01*
X14623214Y-10152976D01*
X14575595Y-10152976D01*
X14556548Y-10143452D01*
X14547024Y-10133929D01*
X14832738Y-9952976D02*
X14794643Y-9952976D01*
X14775595Y-9962500D01*
X14766071Y-9972024D01*
X14747024Y-10000595D01*
X14737500Y-10038690D01*
X14737500Y-10114881D01*
X14747024Y-10133929D01*
X14756548Y-10143452D01*
X14775595Y-10152976D01*
X14813690Y-10152976D01*
X14832738Y-10143452D01*
X14842262Y-10133929D01*
X14851786Y-10114881D01*
X14851786Y-10067262D01*
X14842262Y-10048214D01*
X14832738Y-10038690D01*
X14813690Y-10029167D01*
X14775595Y-10029167D01*
X14756548Y-10038690D01*
X14747024Y-10048214D01*
X14737500Y-10067262D01*
X14927976Y-9952976D02*
X14927976Y-9991071D01*
X15004167Y-9952976D02*
X15004167Y-9991071D01*
X15299405Y-10229167D02*
X15289881Y-10219643D01*
X15270833Y-10191071D01*
X15261309Y-10172024D01*
X15251786Y-10143452D01*
X15242262Y-10095833D01*
X15242262Y-10057738D01*
X15251786Y-10010119D01*
X15261309Y-9981548D01*
X15270833Y-9962500D01*
X15289881Y-9933929D01*
X15299405Y-9924405D01*
X15366071Y-9972024D02*
X15375595Y-9962500D01*
X15394643Y-9952976D01*
X15442262Y-9952976D01*
X15461309Y-9962500D01*
X15470833Y-9972024D01*
X15480357Y-9991071D01*
X15480357Y-10010119D01*
X15470833Y-10038690D01*
X15356548Y-10152976D01*
X15480357Y-10152976D01*
X15718452Y-10152976D02*
X15718452Y-9952976D01*
X15804167Y-10152976D02*
X15804167Y-10048214D01*
X15794643Y-10029167D01*
X15775595Y-10019643D01*
X15747024Y-10019643D01*
X15727976Y-10029167D01*
X15718452Y-10038690D01*
X15927976Y-10152976D02*
X15908928Y-10143452D01*
X15899405Y-10133929D01*
X15889881Y-10114881D01*
X15889881Y-10057738D01*
X15899405Y-10038690D01*
X15908928Y-10029167D01*
X15927976Y-10019643D01*
X15956548Y-10019643D01*
X15975595Y-10029167D01*
X15985119Y-10038690D01*
X15994643Y-10057738D01*
X15994643Y-10114881D01*
X15985119Y-10133929D01*
X15975595Y-10143452D01*
X15956548Y-10152976D01*
X15927976Y-10152976D01*
X16108928Y-10152976D02*
X16089881Y-10143452D01*
X16080357Y-10124405D01*
X16080357Y-9952976D01*
X16261309Y-10143452D02*
X16242262Y-10152976D01*
X16204167Y-10152976D01*
X16185119Y-10143452D01*
X16175595Y-10124405D01*
X16175595Y-10048214D01*
X16185119Y-10029167D01*
X16204167Y-10019643D01*
X16242262Y-10019643D01*
X16261309Y-10029167D01*
X16270833Y-10048214D01*
X16270833Y-10067262D01*
X16175595Y-10086310D01*
X16347024Y-10143452D02*
X16366071Y-10152976D01*
X16404167Y-10152976D01*
X16423214Y-10143452D01*
X16432738Y-10124405D01*
X16432738Y-10114881D01*
X16423214Y-10095833D01*
X16404167Y-10086310D01*
X16375595Y-10086310D01*
X16356548Y-10076786D01*
X16347024Y-10057738D01*
X16347024Y-10048214D01*
X16356548Y-10029167D01*
X16375595Y-10019643D01*
X16404167Y-10019643D01*
X16423214Y-10029167D01*
X16499405Y-10229167D02*
X16508928Y-10219643D01*
X16527976Y-10191071D01*
X16537500Y-10172024D01*
X16547024Y-10143452D01*
X16556548Y-10095833D01*
X16556548Y-10057738D01*
X16547024Y-10010119D01*
X16537500Y-9981548D01*
X16527976Y-9962500D01*
X16508928Y-9933929D01*
X16499405Y-9924405D01*
X16861310Y-10229167D02*
X16851786Y-10219643D01*
X16832738Y-10191071D01*
X16823214Y-10172024D01*
X16813690Y-10143452D01*
X16804167Y-10095833D01*
X16804167Y-10057738D01*
X16813690Y-10010119D01*
X16823214Y-9981548D01*
X16832738Y-9962500D01*
X16851786Y-9933929D01*
X16861310Y-9924405D01*
X16937500Y-10019643D02*
X16937500Y-10152976D01*
X16937500Y-10038690D02*
X16947024Y-10029167D01*
X16966071Y-10019643D01*
X16994643Y-10019643D01*
X17013690Y-10029167D01*
X17023214Y-10048214D01*
X17023214Y-10152976D01*
X17147024Y-10152976D02*
X17127976Y-10143452D01*
X17118452Y-10133929D01*
X17108929Y-10114881D01*
X17108929Y-10057738D01*
X17118452Y-10038690D01*
X17127976Y-10029167D01*
X17147024Y-10019643D01*
X17175595Y-10019643D01*
X17194643Y-10029167D01*
X17204167Y-10038690D01*
X17213690Y-10057738D01*
X17213690Y-10114881D01*
X17204167Y-10133929D01*
X17194643Y-10143452D01*
X17175595Y-10152976D01*
X17147024Y-10152976D01*
X17270833Y-10019643D02*
X17347024Y-10019643D01*
X17299405Y-9952976D02*
X17299405Y-10124405D01*
X17308929Y-10143452D01*
X17327976Y-10152976D01*
X17347024Y-10152976D01*
X17566071Y-10019643D02*
X17566071Y-10219643D01*
X17566071Y-10029167D02*
X17585119Y-10019643D01*
X17623214Y-10019643D01*
X17642262Y-10029167D01*
X17651786Y-10038690D01*
X17661310Y-10057738D01*
X17661310Y-10114881D01*
X17651786Y-10133929D01*
X17642262Y-10143452D01*
X17623214Y-10152976D01*
X17585119Y-10152976D01*
X17566071Y-10143452D01*
X17775595Y-10152976D02*
X17756548Y-10143452D01*
X17747024Y-10124405D01*
X17747024Y-9952976D01*
X17937500Y-10152976D02*
X17937500Y-10048214D01*
X17927976Y-10029167D01*
X17908929Y-10019643D01*
X17870833Y-10019643D01*
X17851786Y-10029167D01*
X17937500Y-10143452D02*
X17918452Y-10152976D01*
X17870833Y-10152976D01*
X17851786Y-10143452D01*
X17842262Y-10124405D01*
X17842262Y-10105357D01*
X17851786Y-10086310D01*
X17870833Y-10076786D01*
X17918452Y-10076786D01*
X17937500Y-10067262D01*
X18004167Y-10019643D02*
X18080357Y-10019643D01*
X18032738Y-9952976D02*
X18032738Y-10124405D01*
X18042262Y-10143452D01*
X18061310Y-10152976D01*
X18080357Y-10152976D01*
X18223214Y-10143452D02*
X18204167Y-10152976D01*
X18166071Y-10152976D01*
X18147024Y-10143452D01*
X18137500Y-10124405D01*
X18137500Y-10048214D01*
X18147024Y-10029167D01*
X18166071Y-10019643D01*
X18204167Y-10019643D01*
X18223214Y-10029167D01*
X18232738Y-10048214D01*
X18232738Y-10067262D01*
X18137500Y-10086310D01*
X18404167Y-10152976D02*
X18404167Y-9952976D01*
X18404167Y-10143452D02*
X18385119Y-10152976D01*
X18347024Y-10152976D01*
X18327976Y-10143452D01*
X18318452Y-10133929D01*
X18308929Y-10114881D01*
X18308929Y-10057738D01*
X18318452Y-10038690D01*
X18327976Y-10029167D01*
X18347024Y-10019643D01*
X18385119Y-10019643D01*
X18404167Y-10029167D01*
X18480357Y-10229167D02*
X18489881Y-10219643D01*
X18508929Y-10191071D01*
X18518452Y-10172024D01*
X18527976Y-10143452D01*
X18537500Y-10095833D01*
X18537500Y-10057738D01*
X18527976Y-10010119D01*
X18518452Y-9981548D01*
X18508929Y-9962500D01*
X18489881Y-9933929D01*
X18480357Y-9924405D01*
M02*
