%FSLAX45Y45*%
G04 Gerber Fmt 4.5, Leading zero omitted, Abs format (unit mm)*
G04 Created by KiCad (PCBNEW (5.99.0-12267-gfe608bfcef)) date 2021-11-07 23:23:37*
%MOMM*%
%LPD*%
G01*
G04 APERTURE LIST*
%TA.AperFunction,Profile*%
%ADD10C,0.050000*%
%TD*%
%ADD11C,0.200000*%
%ADD12C,0.065000*%
G04 APERTURE END LIST*
D10*
X11730000Y-9120000D02*
G75*
G03*
X12030000Y-9420000I300000J0D01*
G01*
X17230000Y-8250000D02*
X17230000Y-9120000D01*
X16930000Y-9420000D02*
X12030000Y-9420000D01*
X17230000Y-8250000D02*
G75*
G03*
X16930000Y-7950000I-300000J0D01*
G01*
X16930000Y-9420000D02*
G75*
G03*
X17230000Y-9120000I0J300000D01*
G01*
X12030000Y-7950000D02*
X16930000Y-7950000D01*
X11730000Y-8250000D02*
G75*
G02*
X12030000Y-7950000I300000J0D01*
G01*
X11730000Y-8250000D02*
X11730000Y-9120000D01*
D11*
D12*
X14158500Y-8799500D02*
X14223500Y-8864500D01*
X14223500Y-8799500D02*
X14158500Y-8864500D01*
X14736500Y-8799500D02*
X14801500Y-8864500D01*
X14801500Y-8799500D02*
X14736500Y-8864500D01*
D11*
X11980119Y-9737976D02*
X11980119Y-9537976D01*
X12027738Y-9537976D01*
X12056309Y-9547500D01*
X12075357Y-9566548D01*
X12084881Y-9585595D01*
X12094405Y-9623690D01*
X12094405Y-9652262D01*
X12084881Y-9690357D01*
X12075357Y-9709405D01*
X12056309Y-9728452D01*
X12027738Y-9737976D01*
X11980119Y-9737976D01*
X12180119Y-9737976D02*
X12180119Y-9604643D01*
X12180119Y-9642738D02*
X12189643Y-9623690D01*
X12199167Y-9614167D01*
X12218214Y-9604643D01*
X12237262Y-9604643D01*
X12303928Y-9737976D02*
X12303928Y-9604643D01*
X12303928Y-9537976D02*
X12294405Y-9547500D01*
X12303928Y-9557024D01*
X12313452Y-9547500D01*
X12303928Y-9537976D01*
X12303928Y-9557024D01*
X12427738Y-9737976D02*
X12408690Y-9728452D01*
X12399167Y-9709405D01*
X12399167Y-9537976D01*
X12532500Y-9737976D02*
X12513452Y-9728452D01*
X12503928Y-9709405D01*
X12503928Y-9537976D01*
X12761071Y-9737976D02*
X12761071Y-9537976D01*
X12827738Y-9680833D01*
X12894405Y-9537976D01*
X12894405Y-9737976D01*
X13075357Y-9737976D02*
X13075357Y-9633214D01*
X13065833Y-9614167D01*
X13046786Y-9604643D01*
X13008690Y-9604643D01*
X12989643Y-9614167D01*
X13075357Y-9728452D02*
X13056309Y-9737976D01*
X13008690Y-9737976D01*
X12989643Y-9728452D01*
X12980119Y-9709405D01*
X12980119Y-9690357D01*
X12989643Y-9671310D01*
X13008690Y-9661786D01*
X13056309Y-9661786D01*
X13075357Y-9652262D01*
X13170595Y-9604643D02*
X13170595Y-9804643D01*
X13170595Y-9614167D02*
X13189643Y-9604643D01*
X13227738Y-9604643D01*
X13246786Y-9614167D01*
X13256309Y-9623690D01*
X13265833Y-9642738D01*
X13265833Y-9699881D01*
X13256309Y-9718929D01*
X13246786Y-9728452D01*
X13227738Y-9737976D01*
X13189643Y-9737976D01*
X13170595Y-9728452D01*
X13351548Y-9718929D02*
X13361071Y-9728452D01*
X13351548Y-9737976D01*
X13342024Y-9728452D01*
X13351548Y-9718929D01*
X13351548Y-9737976D01*
X13351548Y-9614167D02*
X13361071Y-9623690D01*
X13351548Y-9633214D01*
X13342024Y-9623690D01*
X13351548Y-9614167D01*
X13351548Y-9633214D01*
D12*
X11657500Y-10035000D02*
X11722500Y-10100000D01*
X11722500Y-10035000D02*
X11657500Y-10100000D01*
D11*
X12018214Y-9957976D02*
X12037262Y-9957976D01*
X12056309Y-9967500D01*
X12065833Y-9977024D01*
X12075357Y-9996071D01*
X12084881Y-10034167D01*
X12084881Y-10081786D01*
X12075357Y-10119881D01*
X12065833Y-10138929D01*
X12056309Y-10148452D01*
X12037262Y-10157976D01*
X12018214Y-10157976D01*
X11999167Y-10148452D01*
X11989643Y-10138929D01*
X11980119Y-10119881D01*
X11970595Y-10081786D01*
X11970595Y-10034167D01*
X11980119Y-9996071D01*
X11989643Y-9977024D01*
X11999167Y-9967500D01*
X12018214Y-9957976D01*
X12170595Y-10138929D02*
X12180119Y-10148452D01*
X12170595Y-10157976D01*
X12161071Y-10148452D01*
X12170595Y-10138929D01*
X12170595Y-10157976D01*
X12351548Y-9957976D02*
X12313452Y-9957976D01*
X12294405Y-9967500D01*
X12284881Y-9977024D01*
X12265833Y-10005595D01*
X12256309Y-10043690D01*
X12256309Y-10119881D01*
X12265833Y-10138929D01*
X12275357Y-10148452D01*
X12294405Y-10157976D01*
X12332500Y-10157976D01*
X12351548Y-10148452D01*
X12361071Y-10138929D01*
X12370595Y-10119881D01*
X12370595Y-10072262D01*
X12361071Y-10053214D01*
X12351548Y-10043690D01*
X12332500Y-10034167D01*
X12294405Y-10034167D01*
X12275357Y-10043690D01*
X12265833Y-10053214D01*
X12256309Y-10072262D01*
X12551548Y-9957976D02*
X12456309Y-9957976D01*
X12446786Y-10053214D01*
X12456309Y-10043690D01*
X12475357Y-10034167D01*
X12522976Y-10034167D01*
X12542024Y-10043690D01*
X12551548Y-10053214D01*
X12561071Y-10072262D01*
X12561071Y-10119881D01*
X12551548Y-10138929D01*
X12542024Y-10148452D01*
X12522976Y-10157976D01*
X12475357Y-10157976D01*
X12456309Y-10148452D01*
X12446786Y-10138929D01*
X12684881Y-9957976D02*
X12703928Y-9957976D01*
X12722976Y-9967500D01*
X12732500Y-9977024D01*
X12742024Y-9996071D01*
X12751548Y-10034167D01*
X12751548Y-10081786D01*
X12742024Y-10119881D01*
X12732500Y-10138929D01*
X12722976Y-10148452D01*
X12703928Y-10157976D01*
X12684881Y-10157976D01*
X12665833Y-10148452D01*
X12656309Y-10138929D01*
X12646786Y-10119881D01*
X12637262Y-10081786D01*
X12637262Y-10034167D01*
X12646786Y-9996071D01*
X12656309Y-9977024D01*
X12665833Y-9967500D01*
X12684881Y-9957976D01*
X12837262Y-10157976D02*
X12837262Y-10024643D01*
X12837262Y-10043690D02*
X12846786Y-10034167D01*
X12865833Y-10024643D01*
X12894405Y-10024643D01*
X12913452Y-10034167D01*
X12922976Y-10053214D01*
X12922976Y-10157976D01*
X12922976Y-10053214D02*
X12932500Y-10034167D01*
X12951548Y-10024643D01*
X12980119Y-10024643D01*
X12999167Y-10034167D01*
X13008690Y-10053214D01*
X13008690Y-10157976D01*
X13103928Y-10157976D02*
X13103928Y-10024643D01*
X13103928Y-10043690D02*
X13113452Y-10034167D01*
X13132500Y-10024643D01*
X13161071Y-10024643D01*
X13180119Y-10034167D01*
X13189643Y-10053214D01*
X13189643Y-10157976D01*
X13189643Y-10053214D02*
X13199167Y-10034167D01*
X13218214Y-10024643D01*
X13246786Y-10024643D01*
X13265833Y-10034167D01*
X13275357Y-10053214D01*
X13275357Y-10157976D01*
X13665833Y-9948452D02*
X13494405Y-10205595D01*
X13922976Y-9957976D02*
X13942024Y-9957976D01*
X13961071Y-9967500D01*
X13970595Y-9977024D01*
X13980119Y-9996071D01*
X13989643Y-10034167D01*
X13989643Y-10081786D01*
X13980119Y-10119881D01*
X13970595Y-10138929D01*
X13961071Y-10148452D01*
X13942024Y-10157976D01*
X13922976Y-10157976D01*
X13903928Y-10148452D01*
X13894405Y-10138929D01*
X13884881Y-10119881D01*
X13875357Y-10081786D01*
X13875357Y-10034167D01*
X13884881Y-9996071D01*
X13894405Y-9977024D01*
X13903928Y-9967500D01*
X13922976Y-9957976D01*
X14075357Y-10138929D02*
X14084881Y-10148452D01*
X14075357Y-10157976D01*
X14065833Y-10148452D01*
X14075357Y-10138929D01*
X14075357Y-10157976D01*
X14208690Y-9957976D02*
X14227738Y-9957976D01*
X14246786Y-9967500D01*
X14256309Y-9977024D01*
X14265833Y-9996071D01*
X14275357Y-10034167D01*
X14275357Y-10081786D01*
X14265833Y-10119881D01*
X14256309Y-10138929D01*
X14246786Y-10148452D01*
X14227738Y-10157976D01*
X14208690Y-10157976D01*
X14189643Y-10148452D01*
X14180119Y-10138929D01*
X14170595Y-10119881D01*
X14161071Y-10081786D01*
X14161071Y-10034167D01*
X14170595Y-9996071D01*
X14180119Y-9977024D01*
X14189643Y-9967500D01*
X14208690Y-9957976D01*
X14351548Y-9977024D02*
X14361071Y-9967500D01*
X14380119Y-9957976D01*
X14427738Y-9957976D01*
X14446786Y-9967500D01*
X14456309Y-9977024D01*
X14465833Y-9996071D01*
X14465833Y-10015119D01*
X14456309Y-10043690D01*
X14342024Y-10157976D01*
X14465833Y-10157976D01*
X14646786Y-9957976D02*
X14551548Y-9957976D01*
X14542024Y-10053214D01*
X14551548Y-10043690D01*
X14570595Y-10034167D01*
X14618214Y-10034167D01*
X14637262Y-10043690D01*
X14646786Y-10053214D01*
X14656309Y-10072262D01*
X14656309Y-10119881D01*
X14646786Y-10138929D01*
X14637262Y-10148452D01*
X14618214Y-10157976D01*
X14570595Y-10157976D01*
X14551548Y-10148452D01*
X14542024Y-10138929D01*
X14827738Y-9957976D02*
X14789643Y-9957976D01*
X14770595Y-9967500D01*
X14761071Y-9977024D01*
X14742024Y-10005595D01*
X14732500Y-10043690D01*
X14732500Y-10119881D01*
X14742024Y-10138929D01*
X14751548Y-10148452D01*
X14770595Y-10157976D01*
X14808690Y-10157976D01*
X14827738Y-10148452D01*
X14837262Y-10138929D01*
X14846786Y-10119881D01*
X14846786Y-10072262D01*
X14837262Y-10053214D01*
X14827738Y-10043690D01*
X14808690Y-10034167D01*
X14770595Y-10034167D01*
X14751548Y-10043690D01*
X14742024Y-10053214D01*
X14732500Y-10072262D01*
X14922976Y-9957976D02*
X14922976Y-9996071D01*
X14999167Y-9957976D02*
X14999167Y-9996071D01*
X15294405Y-10234167D02*
X15284881Y-10224643D01*
X15265833Y-10196071D01*
X15256309Y-10177024D01*
X15246786Y-10148452D01*
X15237262Y-10100833D01*
X15237262Y-10062738D01*
X15246786Y-10015119D01*
X15256309Y-9986548D01*
X15265833Y-9967500D01*
X15284881Y-9938929D01*
X15294405Y-9929405D01*
X15361071Y-9977024D02*
X15370595Y-9967500D01*
X15389643Y-9957976D01*
X15437262Y-9957976D01*
X15456309Y-9967500D01*
X15465833Y-9977024D01*
X15475357Y-9996071D01*
X15475357Y-10015119D01*
X15465833Y-10043690D01*
X15351548Y-10157976D01*
X15475357Y-10157976D01*
X15713452Y-10157976D02*
X15713452Y-9957976D01*
X15799167Y-10157976D02*
X15799167Y-10053214D01*
X15789643Y-10034167D01*
X15770595Y-10024643D01*
X15742024Y-10024643D01*
X15722976Y-10034167D01*
X15713452Y-10043690D01*
X15922976Y-10157976D02*
X15903928Y-10148452D01*
X15894405Y-10138929D01*
X15884881Y-10119881D01*
X15884881Y-10062738D01*
X15894405Y-10043690D01*
X15903928Y-10034167D01*
X15922976Y-10024643D01*
X15951548Y-10024643D01*
X15970595Y-10034167D01*
X15980119Y-10043690D01*
X15989643Y-10062738D01*
X15989643Y-10119881D01*
X15980119Y-10138929D01*
X15970595Y-10148452D01*
X15951548Y-10157976D01*
X15922976Y-10157976D01*
X16103928Y-10157976D02*
X16084881Y-10148452D01*
X16075357Y-10129405D01*
X16075357Y-9957976D01*
X16256309Y-10148452D02*
X16237262Y-10157976D01*
X16199167Y-10157976D01*
X16180119Y-10148452D01*
X16170595Y-10129405D01*
X16170595Y-10053214D01*
X16180119Y-10034167D01*
X16199167Y-10024643D01*
X16237262Y-10024643D01*
X16256309Y-10034167D01*
X16265833Y-10053214D01*
X16265833Y-10072262D01*
X16170595Y-10091310D01*
X16342024Y-10148452D02*
X16361071Y-10157976D01*
X16399167Y-10157976D01*
X16418214Y-10148452D01*
X16427738Y-10129405D01*
X16427738Y-10119881D01*
X16418214Y-10100833D01*
X16399167Y-10091310D01*
X16370595Y-10091310D01*
X16351548Y-10081786D01*
X16342024Y-10062738D01*
X16342024Y-10053214D01*
X16351548Y-10034167D01*
X16370595Y-10024643D01*
X16399167Y-10024643D01*
X16418214Y-10034167D01*
X16494405Y-10234167D02*
X16503928Y-10224643D01*
X16522976Y-10196071D01*
X16532500Y-10177024D01*
X16542024Y-10148452D01*
X16551548Y-10100833D01*
X16551548Y-10062738D01*
X16542024Y-10015119D01*
X16532500Y-9986548D01*
X16522976Y-9967500D01*
X16503928Y-9938929D01*
X16494405Y-9929405D01*
X16856310Y-10234167D02*
X16846786Y-10224643D01*
X16827738Y-10196071D01*
X16818214Y-10177024D01*
X16808690Y-10148452D01*
X16799167Y-10100833D01*
X16799167Y-10062738D01*
X16808690Y-10015119D01*
X16818214Y-9986548D01*
X16827738Y-9967500D01*
X16846786Y-9938929D01*
X16856310Y-9929405D01*
X16932500Y-10024643D02*
X16932500Y-10157976D01*
X16932500Y-10043690D02*
X16942024Y-10034167D01*
X16961071Y-10024643D01*
X16989643Y-10024643D01*
X17008690Y-10034167D01*
X17018214Y-10053214D01*
X17018214Y-10157976D01*
X17142024Y-10157976D02*
X17122976Y-10148452D01*
X17113452Y-10138929D01*
X17103929Y-10119881D01*
X17103929Y-10062738D01*
X17113452Y-10043690D01*
X17122976Y-10034167D01*
X17142024Y-10024643D01*
X17170595Y-10024643D01*
X17189643Y-10034167D01*
X17199167Y-10043690D01*
X17208690Y-10062738D01*
X17208690Y-10119881D01*
X17199167Y-10138929D01*
X17189643Y-10148452D01*
X17170595Y-10157976D01*
X17142024Y-10157976D01*
X17265833Y-10024643D02*
X17342024Y-10024643D01*
X17294405Y-9957976D02*
X17294405Y-10129405D01*
X17303929Y-10148452D01*
X17322976Y-10157976D01*
X17342024Y-10157976D01*
X17561071Y-10024643D02*
X17561071Y-10224643D01*
X17561071Y-10034167D02*
X17580119Y-10024643D01*
X17618214Y-10024643D01*
X17637262Y-10034167D01*
X17646786Y-10043690D01*
X17656310Y-10062738D01*
X17656310Y-10119881D01*
X17646786Y-10138929D01*
X17637262Y-10148452D01*
X17618214Y-10157976D01*
X17580119Y-10157976D01*
X17561071Y-10148452D01*
X17770595Y-10157976D02*
X17751548Y-10148452D01*
X17742024Y-10129405D01*
X17742024Y-9957976D01*
X17932500Y-10157976D02*
X17932500Y-10053214D01*
X17922976Y-10034167D01*
X17903929Y-10024643D01*
X17865833Y-10024643D01*
X17846786Y-10034167D01*
X17932500Y-10148452D02*
X17913452Y-10157976D01*
X17865833Y-10157976D01*
X17846786Y-10148452D01*
X17837262Y-10129405D01*
X17837262Y-10110357D01*
X17846786Y-10091310D01*
X17865833Y-10081786D01*
X17913452Y-10081786D01*
X17932500Y-10072262D01*
X17999167Y-10024643D02*
X18075357Y-10024643D01*
X18027738Y-9957976D02*
X18027738Y-10129405D01*
X18037262Y-10148452D01*
X18056310Y-10157976D01*
X18075357Y-10157976D01*
X18218214Y-10148452D02*
X18199167Y-10157976D01*
X18161071Y-10157976D01*
X18142024Y-10148452D01*
X18132500Y-10129405D01*
X18132500Y-10053214D01*
X18142024Y-10034167D01*
X18161071Y-10024643D01*
X18199167Y-10024643D01*
X18218214Y-10034167D01*
X18227738Y-10053214D01*
X18227738Y-10072262D01*
X18132500Y-10091310D01*
X18399167Y-10157976D02*
X18399167Y-9957976D01*
X18399167Y-10148452D02*
X18380119Y-10157976D01*
X18342024Y-10157976D01*
X18322976Y-10148452D01*
X18313452Y-10138929D01*
X18303929Y-10119881D01*
X18303929Y-10062738D01*
X18313452Y-10043690D01*
X18322976Y-10034167D01*
X18342024Y-10024643D01*
X18380119Y-10024643D01*
X18399167Y-10034167D01*
X18475357Y-10234167D02*
X18484881Y-10224643D01*
X18503929Y-10196071D01*
X18513452Y-10177024D01*
X18522976Y-10148452D01*
X18532500Y-10100833D01*
X18532500Y-10062738D01*
X18522976Y-10015119D01*
X18513452Y-9986548D01*
X18503929Y-9967500D01*
X18484881Y-9938929D01*
X18475357Y-9929405D01*
M02*
