G04 #@! TF.GenerationSoftware,KiCad,Pcbnew,(5.99.0-12267-gfe608bfcef)*
G04 #@! TF.CreationDate,2021-11-07T23:22:06+01:00*
G04 #@! TF.ProjectId,MinCab,4d696e43-6162-42e6-9b69-6361645f7063,rev?*
G04 #@! TF.SameCoordinates,Original*
G04 #@! TF.FileFunction,Paste,Top*
G04 #@! TF.FilePolarity,Positive*
%FSLAX46Y46*%
G04 Gerber Fmt 4.6, Leading zero omitted, Abs format (unit mm)*
G04 Created by KiCad (PCBNEW (5.99.0-12267-gfe608bfcef)) date 2021-11-07 23:22:06*
%MOMM*%
%LPD*%
G01*
G04 APERTURE LIST*
G04 Aperture macros list*
%AMRoundRect*
0 Rectangle with rounded corners*
0 $1 Rounding radius*
0 $2 $3 $4 $5 $6 $7 $8 $9 X,Y pos of 4 corners*
0 Add a 4 corners polygon primitive as box body*
4,1,4,$2,$3,$4,$5,$6,$7,$8,$9,$2,$3,0*
0 Add four circle primitives for the rounded corners*
1,1,$1+$1,$2,$3*
1,1,$1+$1,$4,$5*
1,1,$1+$1,$6,$7*
1,1,$1+$1,$8,$9*
0 Add four rect primitives between the rounded corners*
20,1,$1+$1,$2,$3,$4,$5,0*
20,1,$1+$1,$4,$5,$6,$7,0*
20,1,$1+$1,$6,$7,$8,$9,0*
20,1,$1+$1,$8,$9,$2,$3,0*%
G04 Aperture macros list end*
%ADD10RoundRect,0.250000X0.475000X-0.250000X0.475000X0.250000X-0.475000X0.250000X-0.475000X-0.250000X0*%
%ADD11R,0.200000X0.700000*%
%ADD12RoundRect,0.237500X-0.237500X0.250000X-0.237500X-0.250000X0.237500X-0.250000X0.237500X0.250000X0*%
%ADD13RoundRect,0.237500X0.237500X-0.250000X0.237500X0.250000X-0.237500X0.250000X-0.237500X-0.250000X0*%
%ADD14R,0.650000X0.400000*%
%ADD15RoundRect,0.218750X-0.256250X0.218750X-0.256250X-0.218750X0.256250X-0.218750X0.256250X0.218750X0*%
%ADD16R,0.600000X1.150000*%
%ADD17R,0.300000X1.150000*%
%ADD18RoundRect,0.250000X-0.787500X-1.025000X0.787500X-1.025000X0.787500X1.025000X-0.787500X1.025000X0*%
G04 APERTURE END LIST*
D10*
X158900000Y-88350000D03*
X158900000Y-86450000D03*
X161150000Y-88350000D03*
X161150000Y-86450000D03*
D11*
X137450000Y-84950000D03*
X137450000Y-81870000D03*
X137850000Y-84950000D03*
X137850000Y-81870000D03*
X138250000Y-84950000D03*
X138250000Y-81870000D03*
X138650000Y-84950000D03*
X138650000Y-81870000D03*
X139050000Y-84950000D03*
X139050000Y-81870000D03*
X139450000Y-84950000D03*
X139450000Y-81870000D03*
X139850000Y-84950000D03*
X139850000Y-81870000D03*
X140250000Y-84950000D03*
X140250000Y-81870000D03*
X140650000Y-84950000D03*
X140650000Y-81870000D03*
X141050000Y-84950000D03*
X141050000Y-81870000D03*
X141450000Y-84950000D03*
X141450000Y-81870000D03*
X141850000Y-84950000D03*
X141850000Y-81870000D03*
X142250000Y-84950000D03*
X142250000Y-81870000D03*
X142650000Y-84950000D03*
X142650000Y-81870000D03*
X143050000Y-84950000D03*
X143050000Y-81870000D03*
X143450000Y-84950000D03*
X143450000Y-81870000D03*
X143850000Y-84950000D03*
X143850000Y-81870000D03*
X144250000Y-84950000D03*
X144250000Y-81870000D03*
X144650000Y-84950000D03*
X144650000Y-81870000D03*
X145050000Y-84950000D03*
X145050000Y-81870000D03*
X145450000Y-84950000D03*
X145450000Y-81870000D03*
X145850000Y-84950000D03*
X145850000Y-81870000D03*
X146250000Y-84950000D03*
X146250000Y-81870000D03*
X146650000Y-84950000D03*
X146650000Y-81870000D03*
X147050000Y-84950000D03*
X147050000Y-81870000D03*
X147450000Y-84950000D03*
X147450000Y-81870000D03*
X147850000Y-84950000D03*
X147850000Y-81870000D03*
X148250000Y-84950000D03*
X148250000Y-81870000D03*
X148650000Y-84950000D03*
X148650000Y-81870000D03*
X149050000Y-84950000D03*
X149050000Y-81870000D03*
X149450000Y-84950000D03*
X149450000Y-81870000D03*
X149850000Y-84950000D03*
X149850000Y-81870000D03*
X150250000Y-84950000D03*
X150250000Y-81870000D03*
X150650000Y-84950000D03*
X150650000Y-81870000D03*
X151050000Y-84950000D03*
X151050000Y-81870000D03*
X151450000Y-84950000D03*
X151450000Y-81870000D03*
X151850000Y-84950000D03*
X151850000Y-81870000D03*
X152250000Y-84950000D03*
X152250000Y-81870000D03*
X152650000Y-84950000D03*
X152650000Y-81870000D03*
X153050000Y-84950000D03*
X153050000Y-81870000D03*
X153450000Y-84950000D03*
X153450000Y-81870000D03*
X153850000Y-84950000D03*
X153850000Y-81870000D03*
X154250000Y-84950000D03*
X154250000Y-81870000D03*
X154650000Y-84950000D03*
X154650000Y-81870000D03*
X155050000Y-84950000D03*
X155050000Y-81870000D03*
X155450000Y-84950000D03*
X155450000Y-81870000D03*
X155850000Y-84950000D03*
X155850000Y-81870000D03*
X156250000Y-84950000D03*
X156250000Y-81870000D03*
X156650000Y-84950000D03*
X156650000Y-81870000D03*
X157050000Y-84950000D03*
X157050000Y-81870000D03*
D12*
X154500000Y-89487500D03*
X154500000Y-91312500D03*
D13*
X124600000Y-89200000D03*
X124600000Y-87375000D03*
D14*
X135850000Y-88950000D03*
X135850000Y-88300000D03*
X135850000Y-87650000D03*
X133950000Y-87650000D03*
X133950000Y-88950000D03*
D13*
X130100000Y-89112500D03*
X130100000Y-87287500D03*
D15*
X124600000Y-91000000D03*
X124600000Y-92575000D03*
D10*
X165650000Y-88350000D03*
X165650000Y-86450000D03*
X163400000Y-88350000D03*
X163400000Y-86450000D03*
D13*
X152150000Y-91312500D03*
X152150000Y-89487500D03*
D16*
X141600000Y-87245000D03*
X142400000Y-87245000D03*
D17*
X143550000Y-87245000D03*
X144550000Y-87245000D03*
X145050000Y-87245000D03*
X146050000Y-87245000D03*
D16*
X148000000Y-87245000D03*
X147200000Y-87245000D03*
D17*
X146550000Y-87245000D03*
X145550000Y-87245000D03*
X144050000Y-87245000D03*
X143050000Y-87245000D03*
D18*
X159287500Y-91600000D03*
X165512500Y-91600000D03*
D15*
X130100000Y-90912500D03*
X130100000Y-92487500D03*
M02*
