G04 #@! TF.GenerationSoftware,KiCad,Pcbnew,(5.99.0-12267-gfe608bfcef)*
G04 #@! TF.CreationDate,2021-11-07T23:22:06+01:00*
G04 #@! TF.ProjectId,MinCab,4d696e43-6162-42e6-9b69-6361645f7063,rev?*
G04 #@! TF.SameCoordinates,Original*
G04 #@! TF.FileFunction,Legend,Bot*
G04 #@! TF.FilePolarity,Positive*
%FSLAX46Y46*%
G04 Gerber Fmt 4.6, Leading zero omitted, Abs format (unit mm)*
G04 Created by KiCad (PCBNEW (5.99.0-12267-gfe608bfcef)) date 2021-11-07 23:22:06*
%MOMM*%
%LPD*%
G01*
G04 APERTURE LIST*
%ADD10C,0.150000*%
%ADD11C,0.120000*%
%ADD12C,6.000000*%
%ADD13C,0.650000*%
%ADD14O,1.050000X2.100000*%
%ADD15O,1.000000X2.000000*%
%ADD16R,2.000000X2.000000*%
%ADD17C,2.000000*%
%ADD18C,2.500000*%
G04 APERTURE END LIST*
D10*
X127761904Y-80502000D02*
X127857142Y-80454380D01*
X128000000Y-80454380D01*
X128142857Y-80502000D01*
X128238095Y-80597238D01*
X128285714Y-80692476D01*
X128333333Y-80882952D01*
X128333333Y-81025809D01*
X128285714Y-81216285D01*
X128238095Y-81311523D01*
X128142857Y-81406761D01*
X128000000Y-81454380D01*
X127904761Y-81454380D01*
X127761904Y-81406761D01*
X127714285Y-81359142D01*
X127714285Y-81025809D01*
X127904761Y-81025809D01*
X127285714Y-81454380D02*
X127285714Y-80454380D01*
X126714285Y-81454380D01*
X126714285Y-80454380D01*
X126238095Y-81454380D02*
X126238095Y-80454380D01*
X126000000Y-80454380D01*
X125857142Y-80502000D01*
X125761904Y-80597238D01*
X125714285Y-80692476D01*
X125666666Y-80882952D01*
X125666666Y-81025809D01*
X125714285Y-81216285D01*
X125761904Y-81311523D01*
X125857142Y-81406761D01*
X126000000Y-81454380D01*
X126238095Y-81454380D01*
X139000000Y-91452380D02*
X139000000Y-90452380D01*
X138333333Y-90452380D02*
X138142857Y-90452380D01*
X138047619Y-90500000D01*
X137952380Y-90595238D01*
X137904761Y-90785714D01*
X137904761Y-91119047D01*
X137952380Y-91309523D01*
X138047619Y-91404761D01*
X138142857Y-91452380D01*
X138333333Y-91452380D01*
X138428571Y-91404761D01*
X138523809Y-91309523D01*
X138571428Y-91119047D01*
X138571428Y-90785714D01*
X138523809Y-90595238D01*
X138428571Y-90500000D01*
X138333333Y-90452380D01*
X137571428Y-90452380D02*
X136952380Y-90452380D01*
X137285714Y-90833333D01*
X137142857Y-90833333D01*
X137047619Y-90880952D01*
X137000000Y-90928571D01*
X136952380Y-91023809D01*
X136952380Y-91261904D01*
X137000000Y-91357142D01*
X137047619Y-91404761D01*
X137142857Y-91452380D01*
X137428571Y-91452380D01*
X137523809Y-91404761D01*
X137571428Y-91357142D01*
X139000000Y-88452380D02*
X139000000Y-87452380D01*
X138333333Y-87452380D02*
X138142857Y-87452380D01*
X138047619Y-87500000D01*
X137952380Y-87595238D01*
X137904761Y-87785714D01*
X137904761Y-88119047D01*
X137952380Y-88309523D01*
X138047619Y-88404761D01*
X138142857Y-88452380D01*
X138333333Y-88452380D01*
X138428571Y-88404761D01*
X138523809Y-88309523D01*
X138571428Y-88119047D01*
X138571428Y-87785714D01*
X138523809Y-87595238D01*
X138428571Y-87500000D01*
X138333333Y-87452380D01*
X137523809Y-87547619D02*
X137476190Y-87500000D01*
X137380952Y-87452380D01*
X137142857Y-87452380D01*
X137047619Y-87500000D01*
X137000000Y-87547619D01*
X136952380Y-87642857D01*
X136952380Y-87738095D01*
X137000000Y-87880952D01*
X137571428Y-88452380D01*
X136952380Y-88452380D01*
X125476190Y-88452380D02*
X125476190Y-87452380D01*
X124809523Y-87452380D02*
X124619047Y-87452380D01*
X124523809Y-87500000D01*
X124428571Y-87595238D01*
X124380952Y-87785714D01*
X124380952Y-88119047D01*
X124428571Y-88309523D01*
X124523809Y-88404761D01*
X124619047Y-88452380D01*
X124809523Y-88452380D01*
X124904761Y-88404761D01*
X125000000Y-88309523D01*
X125047619Y-88119047D01*
X125047619Y-87785714D01*
X125000000Y-87595238D01*
X124904761Y-87500000D01*
X124809523Y-87452380D01*
X123428571Y-88452380D02*
X124000000Y-88452380D01*
X123714285Y-88452380D02*
X123714285Y-87452380D01*
X123809523Y-87595238D01*
X123904761Y-87690476D01*
X124000000Y-87738095D01*
X123047619Y-87547619D02*
X123000000Y-87500000D01*
X122904761Y-87452380D01*
X122666666Y-87452380D01*
X122571428Y-87500000D01*
X122523809Y-87547619D01*
X122476190Y-87642857D01*
X122476190Y-87738095D01*
X122523809Y-87880952D01*
X123095238Y-88452380D01*
X122476190Y-88452380D01*
X170176190Y-90352380D02*
X170176190Y-89352380D01*
X169509523Y-89352380D02*
X169319047Y-89352380D01*
X169223809Y-89400000D01*
X169128571Y-89495238D01*
X169080952Y-89685714D01*
X169080952Y-90019047D01*
X169128571Y-90209523D01*
X169223809Y-90304761D01*
X169319047Y-90352380D01*
X169509523Y-90352380D01*
X169604761Y-90304761D01*
X169700000Y-90209523D01*
X169747619Y-90019047D01*
X169747619Y-89685714D01*
X169700000Y-89495238D01*
X169604761Y-89400000D01*
X169509523Y-89352380D01*
X168128571Y-90352380D02*
X168700000Y-90352380D01*
X168414285Y-90352380D02*
X168414285Y-89352380D01*
X168509523Y-89495238D01*
X168604761Y-89590476D01*
X168700000Y-89638095D01*
X167271428Y-89685714D02*
X167271428Y-90352380D01*
X167509523Y-89304761D02*
X167747619Y-90019047D01*
X167128571Y-90019047D01*
X133000000Y-80923428D02*
X132238095Y-80923428D01*
X132619047Y-81304380D02*
X132619047Y-80542476D01*
X131857142Y-80304380D02*
X131238095Y-80304380D01*
X131571428Y-80685333D01*
X131428571Y-80685333D01*
X131333333Y-80732952D01*
X131285714Y-80780571D01*
X131238095Y-80875809D01*
X131238095Y-81113904D01*
X131285714Y-81209142D01*
X131333333Y-81256761D01*
X131428571Y-81304380D01*
X131714285Y-81304380D01*
X131809523Y-81256761D01*
X131857142Y-81209142D01*
X130809523Y-81209142D02*
X130761904Y-81256761D01*
X130809523Y-81304380D01*
X130857142Y-81256761D01*
X130809523Y-81209142D01*
X130809523Y-81304380D01*
X130428571Y-80304380D02*
X129809523Y-80304380D01*
X130142857Y-80685333D01*
X130000000Y-80685333D01*
X129904761Y-80732952D01*
X129857142Y-80780571D01*
X129809523Y-80875809D01*
X129809523Y-81113904D01*
X129857142Y-81209142D01*
X129904761Y-81256761D01*
X130000000Y-81304380D01*
X130285714Y-81304380D01*
X130380952Y-81256761D01*
X130428571Y-81209142D01*
X129523809Y-80304380D02*
X129190476Y-81304380D01*
X128857142Y-80304380D01*
X132476190Y-91452380D02*
X132476190Y-90452380D01*
X131809523Y-90452380D02*
X131619047Y-90452380D01*
X131523809Y-90500000D01*
X131428571Y-90595238D01*
X131380952Y-90785714D01*
X131380952Y-91119047D01*
X131428571Y-91309523D01*
X131523809Y-91404761D01*
X131619047Y-91452380D01*
X131809523Y-91452380D01*
X131904761Y-91404761D01*
X132000000Y-91309523D01*
X132047619Y-91119047D01*
X132047619Y-90785714D01*
X132000000Y-90595238D01*
X131904761Y-90500000D01*
X131809523Y-90452380D01*
X130428571Y-91452380D02*
X131000000Y-91452380D01*
X130714285Y-91452380D02*
X130714285Y-90452380D01*
X130809523Y-90595238D01*
X130904761Y-90690476D01*
X131000000Y-90738095D01*
X130095238Y-90452380D02*
X129476190Y-90452380D01*
X129809523Y-90833333D01*
X129666666Y-90833333D01*
X129571428Y-90880952D01*
X129523809Y-90928571D01*
X129476190Y-91023809D01*
X129476190Y-91261904D01*
X129523809Y-91357142D01*
X129571428Y-91404761D01*
X129666666Y-91452380D01*
X129952380Y-91452380D01*
X130047619Y-91404761D01*
X130095238Y-91357142D01*
X163671904Y-80502000D02*
X163767142Y-80454380D01*
X163910000Y-80454380D01*
X164052857Y-80502000D01*
X164148095Y-80597238D01*
X164195714Y-80692476D01*
X164243333Y-80882952D01*
X164243333Y-81025809D01*
X164195714Y-81216285D01*
X164148095Y-81311523D01*
X164052857Y-81406761D01*
X163910000Y-81454380D01*
X163814761Y-81454380D01*
X163671904Y-81406761D01*
X163624285Y-81359142D01*
X163624285Y-81025809D01*
X163814761Y-81025809D01*
X163195714Y-81454380D02*
X163195714Y-80454380D01*
X162624285Y-81454380D01*
X162624285Y-80454380D01*
X162148095Y-81454380D02*
X162148095Y-80454380D01*
X161910000Y-80454380D01*
X161767142Y-80502000D01*
X161671904Y-80597238D01*
X161624285Y-80692476D01*
X161576666Y-80882952D01*
X161576666Y-81025809D01*
X161624285Y-81216285D01*
X161671904Y-81311523D01*
X161767142Y-81406761D01*
X161910000Y-81454380D01*
X162148095Y-81454380D01*
X164176190Y-90352380D02*
X164176190Y-89352380D01*
X163509523Y-89352380D02*
X163319047Y-89352380D01*
X163223809Y-89400000D01*
X163128571Y-89495238D01*
X163080952Y-89685714D01*
X163080952Y-90019047D01*
X163128571Y-90209523D01*
X163223809Y-90304761D01*
X163319047Y-90352380D01*
X163509523Y-90352380D01*
X163604761Y-90304761D01*
X163700000Y-90209523D01*
X163747619Y-90019047D01*
X163747619Y-89685714D01*
X163700000Y-89495238D01*
X163604761Y-89400000D01*
X163509523Y-89352380D01*
X162128571Y-90352380D02*
X162700000Y-90352380D01*
X162414285Y-90352380D02*
X162414285Y-89352380D01*
X162509523Y-89495238D01*
X162604761Y-89590476D01*
X162700000Y-89638095D01*
X161223809Y-89352380D02*
X161700000Y-89352380D01*
X161747619Y-89828571D01*
X161700000Y-89780952D01*
X161604761Y-89733333D01*
X161366666Y-89733333D01*
X161271428Y-89780952D01*
X161223809Y-89828571D01*
X161176190Y-89923809D01*
X161176190Y-90161904D01*
X161223809Y-90257142D01*
X161271428Y-90304761D01*
X161366666Y-90352380D01*
X161604761Y-90352380D01*
X161700000Y-90304761D01*
X161747619Y-90257142D01*
X125476190Y-91452380D02*
X125476190Y-90452380D01*
X124809523Y-90452380D02*
X124619047Y-90452380D01*
X124523809Y-90500000D01*
X124428571Y-90595238D01*
X124380952Y-90785714D01*
X124380952Y-91119047D01*
X124428571Y-91309523D01*
X124523809Y-91404761D01*
X124619047Y-91452380D01*
X124809523Y-91452380D01*
X124904761Y-91404761D01*
X125000000Y-91309523D01*
X125047619Y-91119047D01*
X125047619Y-90785714D01*
X125000000Y-90595238D01*
X124904761Y-90500000D01*
X124809523Y-90452380D01*
X123428571Y-91452380D02*
X124000000Y-91452380D01*
X123714285Y-91452380D02*
X123714285Y-90452380D01*
X123809523Y-90595238D01*
X123904761Y-90690476D01*
X124000000Y-90738095D01*
X122857142Y-90880952D02*
X122952380Y-90833333D01*
X123000000Y-90785714D01*
X123047619Y-90690476D01*
X123047619Y-90642857D01*
X123000000Y-90547619D01*
X122952380Y-90500000D01*
X122857142Y-90452380D01*
X122666666Y-90452380D01*
X122571428Y-90500000D01*
X122523809Y-90547619D01*
X122476190Y-90642857D01*
X122476190Y-90690476D01*
X122523809Y-90785714D01*
X122571428Y-90833333D01*
X122666666Y-90880952D01*
X122857142Y-90880952D01*
X122952380Y-90928571D01*
X123000000Y-90976190D01*
X123047619Y-91071428D01*
X123047619Y-91261904D01*
X123000000Y-91357142D01*
X122952380Y-91404761D01*
X122857142Y-91452380D01*
X122666666Y-91452380D01*
X122571428Y-91404761D01*
X122523809Y-91357142D01*
X122476190Y-91261904D01*
X122476190Y-91071428D01*
X122523809Y-90976190D01*
X122571428Y-90928571D01*
X122666666Y-90880952D01*
X160225714Y-80903428D02*
X159463809Y-80903428D01*
X159844761Y-81284380D02*
X159844761Y-80522476D01*
X158511428Y-80284380D02*
X158987619Y-80284380D01*
X159035238Y-80760571D01*
X158987619Y-80712952D01*
X158892380Y-80665333D01*
X158654285Y-80665333D01*
X158559047Y-80712952D01*
X158511428Y-80760571D01*
X158463809Y-80855809D01*
X158463809Y-81093904D01*
X158511428Y-81189142D01*
X158559047Y-81236761D01*
X158654285Y-81284380D01*
X158892380Y-81284380D01*
X158987619Y-81236761D01*
X159035238Y-81189142D01*
X158178095Y-80284380D02*
X157844761Y-81284380D01*
X157511428Y-80284380D01*
X132000000Y-88452380D02*
X132000000Y-87452380D01*
X131333333Y-87452380D02*
X131142857Y-87452380D01*
X131047619Y-87500000D01*
X130952380Y-87595238D01*
X130904761Y-87785714D01*
X130904761Y-88119047D01*
X130952380Y-88309523D01*
X131047619Y-88404761D01*
X131142857Y-88452380D01*
X131333333Y-88452380D01*
X131428571Y-88404761D01*
X131523809Y-88309523D01*
X131571428Y-88119047D01*
X131571428Y-87785714D01*
X131523809Y-87595238D01*
X131428571Y-87500000D01*
X131333333Y-87452380D01*
X130047619Y-87785714D02*
X130047619Y-88452380D01*
X130285714Y-87404761D02*
X130523809Y-88119047D01*
X129904761Y-88119047D01*
D11*
X128200000Y-84200000D02*
X128200000Y-81800000D01*
X125800000Y-81800000D02*
X125800000Y-84200000D01*
X125800000Y-84200000D02*
X128200000Y-84200000D01*
X128200000Y-81800000D02*
X125800000Y-81800000D01*
X136200000Y-92000000D02*
G75*
G03*
X136200000Y-92000000I-1200000J0D01*
G01*
X136200000Y-89000000D02*
G75*
G03*
X136200000Y-89000000I-1200000J0D01*
G01*
X122200000Y-89000000D02*
G75*
G03*
X122200000Y-89000000I-1200000J0D01*
G01*
X166900000Y-90900000D02*
G75*
G03*
X166900000Y-90900000I-1200000J0D01*
G01*
X132450000Y-83000000D02*
G75*
G03*
X132450000Y-83000000I-1450000J0D01*
G01*
X129200000Y-92000000D02*
G75*
G03*
X129200000Y-92000000I-1200000J0D01*
G01*
X164110000Y-84200000D02*
X164110000Y-81800000D01*
X161710000Y-84200000D02*
X164110000Y-84200000D01*
X161710000Y-81800000D02*
X161710000Y-84200000D01*
X164110000Y-81800000D02*
X161710000Y-81800000D01*
X160900000Y-90900000D02*
G75*
G03*
X160900000Y-90900000I-1200000J0D01*
G01*
G36*
X143366894Y-86286833D02*
G01*
X143088919Y-86286833D01*
X143088919Y-86008858D01*
X143366894Y-86008858D01*
X143366894Y-86286833D01*
G37*
G36*
X154034539Y-81656806D02*
G01*
X154034678Y-81916142D01*
X154035284Y-82176642D01*
X154036855Y-82382426D01*
X154039907Y-82541627D01*
X154044957Y-82662374D01*
X154052523Y-82752799D01*
X154063122Y-82821033D01*
X154077269Y-82875206D01*
X154095483Y-82923448D01*
X154118280Y-82973892D01*
X154165284Y-83058771D01*
X154303728Y-83209075D01*
X154489327Y-83309126D01*
X154720438Y-83357876D01*
X154782590Y-83361945D01*
X155023303Y-83343761D01*
X155225491Y-83268842D01*
X155387467Y-83138057D01*
X155507546Y-82952276D01*
X155513073Y-82940160D01*
X155532094Y-82893263D01*
X155547320Y-82841205D01*
X155559269Y-82775944D01*
X155568463Y-82689439D01*
X155575420Y-82573649D01*
X155580660Y-82420532D01*
X155584703Y-82222047D01*
X155588068Y-81970152D01*
X155591277Y-81656806D01*
X155602116Y-80518844D01*
X156049521Y-80518844D01*
X156048625Y-81378830D01*
X156047316Y-81669897D01*
X156042038Y-82010460D01*
X156032105Y-82294540D01*
X156016840Y-82529581D01*
X155995561Y-82723028D01*
X155967588Y-82882325D01*
X155932242Y-83014918D01*
X155888843Y-83128250D01*
X155786591Y-83309885D01*
X155615988Y-83495349D01*
X155398462Y-83630441D01*
X155131969Y-83716749D01*
X155013189Y-83731118D01*
X154842705Y-83734579D01*
X154655805Y-83726482D01*
X154479452Y-83708061D01*
X154340611Y-83680551D01*
X154282422Y-83659339D01*
X154163311Y-83601109D01*
X154045262Y-83529337D01*
X153908316Y-83404649D01*
X153778608Y-83219171D01*
X153678092Y-82998485D01*
X153616483Y-82760020D01*
X153615232Y-82751559D01*
X153606612Y-82653847D01*
X153598862Y-82499306D01*
X153592288Y-82299053D01*
X153587197Y-82064205D01*
X153583895Y-81805879D01*
X153582691Y-81535191D01*
X153582490Y-80518844D01*
X154034200Y-80518844D01*
X154034539Y-81656806D01*
G37*
G36*
X150786569Y-85437884D02*
G01*
X150812576Y-85534736D01*
X150857828Y-85690808D01*
X150896961Y-85810287D01*
X150926478Y-85882876D01*
X150942885Y-85898281D01*
X150945591Y-85892056D01*
X150965698Y-85828567D01*
X150997303Y-85714788D01*
X151036635Y-85564654D01*
X151079921Y-85392100D01*
X151193028Y-84931703D01*
X151454765Y-84931703D01*
X151586837Y-85461593D01*
X151718910Y-85991484D01*
X151828046Y-85557148D01*
X151831056Y-85545169D01*
X151874467Y-85372444D01*
X151913420Y-85217531D01*
X151943756Y-85096959D01*
X151961319Y-85027257D01*
X151978247Y-84977889D01*
X152020751Y-84940472D01*
X152106407Y-84931703D01*
X152121693Y-84931883D01*
X152196793Y-84939288D01*
X152227360Y-84954193D01*
X152226943Y-84957059D01*
X152214108Y-85007463D01*
X152186070Y-85109020D01*
X152146534Y-85248894D01*
X152099205Y-85414247D01*
X152047787Y-85592242D01*
X151995986Y-85770042D01*
X151947507Y-85934811D01*
X151906054Y-86073711D01*
X151875332Y-86173905D01*
X151851834Y-86234697D01*
X151806497Y-86277309D01*
X151721497Y-86286833D01*
X151662539Y-86283674D01*
X151607470Y-86257793D01*
X151579367Y-86191279D01*
X151561531Y-86122053D01*
X151530055Y-86002050D01*
X151489507Y-85848636D01*
X151444353Y-85678762D01*
X151436372Y-85648630D01*
X151398435Y-85502432D01*
X151369916Y-85400405D01*
X151346676Y-85345766D01*
X151324572Y-85341729D01*
X151299464Y-85391512D01*
X151267210Y-85498329D01*
X151223670Y-85665396D01*
X151164703Y-85895930D01*
X151063673Y-86286833D01*
X150813931Y-86286833D01*
X150629744Y-85652702D01*
X150628197Y-85647378D01*
X150569709Y-85446673D01*
X150517261Y-85267886D01*
X150474169Y-85122228D01*
X150443751Y-85020908D01*
X150429321Y-84975137D01*
X150428167Y-84971504D01*
X150448841Y-84941467D01*
X150533633Y-84931703D01*
X150654182Y-84931703D01*
X150786569Y-85437884D01*
G37*
G36*
X148926402Y-85385138D02*
G01*
X148927081Y-85492170D01*
X148934831Y-85697703D01*
X148953275Y-85848735D01*
X148984957Y-85955516D01*
X149032421Y-86028294D01*
X149098212Y-86077321D01*
X149104508Y-86080575D01*
X149225000Y-86111362D01*
X149349765Y-86098035D01*
X149447606Y-86043604D01*
X149448828Y-86042376D01*
X149475473Y-86009675D01*
X149494161Y-85966491D01*
X149506279Y-85901022D01*
X149513216Y-85801469D01*
X149516360Y-85656031D01*
X149517100Y-85452907D01*
X149517100Y-84931703D01*
X149760328Y-84931703D01*
X149760328Y-85447722D01*
X149760172Y-85516877D01*
X149755931Y-85746711D01*
X149744116Y-85920187D01*
X149722340Y-86047645D01*
X149688215Y-86139422D01*
X149639353Y-86205858D01*
X149573367Y-86257292D01*
X149447768Y-86307031D01*
X149284850Y-86316983D01*
X149125229Y-86280171D01*
X148995127Y-86199229D01*
X148891655Y-86100097D01*
X148891655Y-86193465D01*
X148888842Y-86237881D01*
X148861591Y-86277819D01*
X148787414Y-86286833D01*
X148683174Y-86286833D01*
X148683174Y-84931703D01*
X148926402Y-84931703D01*
X148926402Y-85385138D01*
G37*
G36*
X150455267Y-86286833D02*
G01*
X150177291Y-86286833D01*
X150177291Y-86008858D01*
X150455267Y-86008858D01*
X150455267Y-86286833D01*
G37*
G36*
X146841458Y-87807011D02*
G01*
X146841330Y-88076299D01*
X146606916Y-88197065D01*
X146543301Y-88231762D01*
X146274457Y-88424220D01*
X146035736Y-88670671D01*
X145834272Y-88961210D01*
X145677196Y-89285930D01*
X145571642Y-89634923D01*
X145534372Y-89863279D01*
X145522180Y-90252289D01*
X145570537Y-90639516D01*
X145677257Y-91010969D01*
X145840153Y-91352656D01*
X145910577Y-91459710D01*
X146066799Y-91652000D01*
X146250738Y-91838331D01*
X146443056Y-91999840D01*
X146624418Y-92117667D01*
X146841587Y-92232632D01*
X146841587Y-92819254D01*
X144895759Y-92819254D01*
X144895759Y-87537722D01*
X146841587Y-87537722D01*
X146841458Y-87807011D01*
G37*
G36*
X144909321Y-82673521D02*
G01*
X144889525Y-82885112D01*
X144847529Y-83055369D01*
X144781803Y-83202491D01*
X144630147Y-83422134D01*
X144434218Y-83588505D01*
X144194798Y-83700827D01*
X144129242Y-83717868D01*
X143937443Y-83736526D01*
X143722824Y-83723190D01*
X143512513Y-83678739D01*
X143373308Y-83615857D01*
X143210424Y-83496021D01*
X143066698Y-83343951D01*
X142962635Y-83178307D01*
X142914980Y-83072177D01*
X142887559Y-82985649D01*
X142900404Y-82939003D01*
X142958359Y-82919996D01*
X143066268Y-82916381D01*
X143171712Y-82918609D01*
X143235613Y-82934270D01*
X143276112Y-82976802D01*
X143316702Y-83059644D01*
X143358318Y-83135473D01*
X143480045Y-83267121D01*
X143633524Y-83353372D01*
X143805044Y-83393837D01*
X143980892Y-83388131D01*
X144147356Y-83335867D01*
X144290724Y-83236657D01*
X144397282Y-83090116D01*
X144416452Y-83048060D01*
X144466077Y-82911436D01*
X144496830Y-82786080D01*
X144519651Y-82638406D01*
X142835760Y-82638406D01*
X142856286Y-82369117D01*
X142860419Y-82318294D01*
X142871343Y-82228806D01*
X143262654Y-82228806D01*
X143262654Y-82325684D01*
X144506156Y-82325684D01*
X144473209Y-82179046D01*
X144442188Y-82071182D01*
X144345229Y-81887847D01*
X144206313Y-81758688D01*
X144028552Y-81686099D01*
X143815059Y-81672476D01*
X143800755Y-81673601D01*
X143632471Y-81703116D01*
X143514102Y-81756645D01*
X143427580Y-81845346D01*
X143345910Y-81972997D01*
X143285957Y-82110164D01*
X143262654Y-82228806D01*
X142871343Y-82228806D01*
X142885572Y-82112249D01*
X142924023Y-81952487D01*
X142981630Y-81820051D01*
X143064250Y-81695984D01*
X143218081Y-81540294D01*
X143427888Y-81413982D01*
X143666493Y-81340833D01*
X143921830Y-81324385D01*
X144181833Y-81368179D01*
X144365592Y-81449172D01*
X144553514Y-81592696D01*
X144711920Y-81779730D01*
X144826840Y-81996665D01*
X144840267Y-82034300D01*
X144884216Y-82223759D01*
X144894896Y-82325684D01*
X144907393Y-82444951D01*
X144909321Y-82673521D01*
G37*
G36*
X148008686Y-88928414D02*
G01*
X148281636Y-89015200D01*
X148564772Y-89161091D01*
X148865595Y-89368919D01*
X149065390Y-89522358D01*
X149063703Y-90171832D01*
X149062015Y-90821306D01*
X148872798Y-90977667D01*
X148749334Y-91071411D01*
X148581404Y-91183260D01*
X148404963Y-91288227D01*
X148240836Y-91374012D01*
X148109849Y-91428312D01*
X148018499Y-91446294D01*
X147865405Y-91455434D01*
X147688855Y-91451636D01*
X147511988Y-91436292D01*
X147357944Y-91410795D01*
X147249863Y-91376538D01*
X147119562Y-91312265D01*
X147119562Y-89028294D01*
X147249863Y-88972945D01*
X147341218Y-88944715D01*
X147479660Y-88917687D01*
X147626151Y-88901035D01*
X147738421Y-88897903D01*
X148008686Y-88928414D01*
G37*
G36*
X146270383Y-86176448D02*
G01*
X146133906Y-86289680D01*
X146129186Y-86292501D01*
X146023396Y-86337296D01*
X145920793Y-86355434D01*
X145883288Y-86352332D01*
X145775644Y-86326420D01*
X145659741Y-86282831D01*
X145561042Y-86232033D01*
X145505005Y-86184494D01*
X145503528Y-86182277D01*
X145464605Y-86176785D01*
X145398137Y-86232996D01*
X145357396Y-86271031D01*
X145248453Y-86319144D01*
X145124456Y-86300489D01*
X145109966Y-86293439D01*
X145072812Y-86240954D01*
X145083403Y-86178796D01*
X145138988Y-86137777D01*
X145161986Y-86129311D01*
X145183376Y-86107447D01*
X145197022Y-86062524D01*
X145204673Y-85982935D01*
X145208081Y-85857073D01*
X145208592Y-85754180D01*
X145451710Y-85754180D01*
X145471003Y-85885673D01*
X145547181Y-86011947D01*
X145680990Y-86099395D01*
X145800249Y-86137300D01*
X145937191Y-86138032D01*
X146042407Y-86078351D01*
X146056864Y-86062988D01*
X146110260Y-85964203D01*
X146100828Y-85869279D01*
X146034178Y-85785826D01*
X145915917Y-85721457D01*
X145751656Y-85683783D01*
X145676562Y-85673884D01*
X145571184Y-85656182D01*
X145506787Y-85640341D01*
X145477495Y-85636068D01*
X145457042Y-85667546D01*
X145451710Y-85754180D01*
X145208592Y-85754180D01*
X145208994Y-85673328D01*
X145209930Y-85564739D01*
X145217343Y-85365878D01*
X145231686Y-85223319D01*
X145252427Y-85143534D01*
X145334048Y-85035630D01*
X145479293Y-84946684D01*
X145672230Y-84904641D01*
X145729943Y-84901399D01*
X145933206Y-84919333D01*
X146095367Y-84983561D01*
X146210347Y-85090710D01*
X146272071Y-85237409D01*
X146272169Y-85237897D01*
X146282153Y-85313684D01*
X146258578Y-85343483D01*
X146184648Y-85348666D01*
X146106567Y-85337390D01*
X146053409Y-85287859D01*
X145997809Y-85185202D01*
X145905693Y-85123916D01*
X145766778Y-85105438D01*
X145711428Y-85107448D01*
X145569628Y-85139671D01*
X145481811Y-85209291D01*
X145451710Y-85313839D01*
X145460295Y-85388015D01*
X145482905Y-85433338D01*
X145488255Y-85435787D01*
X145548506Y-85450810D01*
X145654403Y-85470081D01*
X145786941Y-85490056D01*
X145987321Y-85527527D01*
X146156888Y-85588800D01*
X146270446Y-85674707D01*
X146334266Y-85790223D01*
X146354618Y-85940319D01*
X146351624Y-85964203D01*
X146341941Y-86041438D01*
X146270383Y-86176448D01*
G37*
G36*
X140413535Y-85869551D02*
G01*
X140349944Y-86039143D01*
X140240296Y-86188721D01*
X140086748Y-86292267D01*
X140023174Y-86316471D01*
X139842780Y-86344726D01*
X139651808Y-86329628D01*
X139480500Y-86272180D01*
X139391073Y-86204992D01*
X139291488Y-86070134D01*
X139216878Y-85898307D01*
X139172543Y-85706953D01*
X139171099Y-85675076D01*
X139415455Y-85675076D01*
X139417703Y-85695514D01*
X139456066Y-85884822D01*
X139522102Y-86016704D01*
X139619266Y-86098331D01*
X139636665Y-86106885D01*
X139792345Y-86146393D01*
X139938482Y-86122659D01*
X140061692Y-86040568D01*
X140148592Y-85905011D01*
X140158979Y-85877632D01*
X140201596Y-85689149D01*
X140197036Y-85509390D01*
X140150196Y-85349748D01*
X140065970Y-85221614D01*
X139949255Y-85136380D01*
X139804947Y-85105438D01*
X139693942Y-85118967D01*
X139560305Y-85186219D01*
X139466852Y-85304967D01*
X139417323Y-85469741D01*
X139415455Y-85675076D01*
X139171099Y-85675076D01*
X139163782Y-85513515D01*
X139195896Y-85335437D01*
X139281338Y-85162413D01*
X139410604Y-85025752D01*
X139568215Y-84937369D01*
X139742234Y-84898134D01*
X139920730Y-84908920D01*
X140091768Y-84970598D01*
X140243413Y-85084041D01*
X140363733Y-85250119D01*
X140403706Y-85358955D01*
X140432623Y-85528885D01*
X140436267Y-85689149D01*
X140436727Y-85709372D01*
X140413535Y-85869551D01*
G37*
G36*
X148092476Y-86842784D02*
G01*
X148092476Y-86149940D01*
X147966013Y-86235760D01*
X147868740Y-86287462D01*
X147694881Y-86319920D01*
X147512727Y-86284622D01*
X147454137Y-86257755D01*
X147316803Y-86148046D01*
X147215451Y-85996629D01*
X147151064Y-85817100D01*
X147124623Y-85623057D01*
X147125236Y-85613483D01*
X147364679Y-85613483D01*
X147382648Y-85782647D01*
X147435987Y-85931892D01*
X147525034Y-86042024D01*
X147550146Y-86059187D01*
X147673605Y-86103254D01*
X147811934Y-86109005D01*
X147930684Y-86073746D01*
X147962685Y-86049027D01*
X148028363Y-85948682D01*
X148072268Y-85807959D01*
X148091469Y-85645977D01*
X148083032Y-85481857D01*
X148044026Y-85334718D01*
X148023372Y-85292134D01*
X147928153Y-85178762D01*
X147805398Y-85115681D01*
X147670934Y-85108318D01*
X147540586Y-85162099D01*
X147519596Y-85178416D01*
X147433492Y-85292174D01*
X147381740Y-85443594D01*
X147364679Y-85613483D01*
X147125236Y-85613483D01*
X147137112Y-85428097D01*
X147189513Y-85245816D01*
X147282809Y-85089812D01*
X147417983Y-84973682D01*
X147470857Y-84947078D01*
X147644588Y-84906487D01*
X147823269Y-84923804D01*
X147983796Y-84998036D01*
X148016222Y-85021011D01*
X148069676Y-85054192D01*
X148089548Y-85048094D01*
X148092476Y-85003563D01*
X148096792Y-84969282D01*
X148130610Y-84939236D01*
X148214090Y-84931703D01*
X148335704Y-84931703D01*
X148335704Y-86842784D01*
X148092476Y-86842784D01*
G37*
G36*
X154539237Y-85437884D02*
G01*
X154565244Y-85534736D01*
X154610496Y-85690808D01*
X154649628Y-85810287D01*
X154679146Y-85882876D01*
X154695553Y-85898281D01*
X154698258Y-85892056D01*
X154718365Y-85828567D01*
X154749971Y-85714788D01*
X154789303Y-85564654D01*
X154832588Y-85392100D01*
X154945695Y-84931703D01*
X155207433Y-84931703D01*
X155339505Y-85461593D01*
X155471577Y-85991484D01*
X155580713Y-85557148D01*
X155583723Y-85545169D01*
X155627135Y-85372444D01*
X155666088Y-85217531D01*
X155696424Y-85096959D01*
X155713986Y-85027257D01*
X155730915Y-84977889D01*
X155773419Y-84940472D01*
X155859075Y-84931703D01*
X155874360Y-84931883D01*
X155949460Y-84939288D01*
X155980027Y-84954193D01*
X155979610Y-84957059D01*
X155966776Y-85007463D01*
X155938738Y-85109020D01*
X155899202Y-85248894D01*
X155851873Y-85414247D01*
X155800455Y-85592242D01*
X155748654Y-85770042D01*
X155700174Y-85934811D01*
X155658721Y-86073711D01*
X155627999Y-86173905D01*
X155604501Y-86234697D01*
X155559165Y-86277309D01*
X155474164Y-86286833D01*
X155415206Y-86283674D01*
X155360138Y-86257793D01*
X155332035Y-86191279D01*
X155314199Y-86122053D01*
X155282722Y-86002050D01*
X155242174Y-85848636D01*
X155197021Y-85678762D01*
X155189039Y-85648630D01*
X155151102Y-85502432D01*
X155122584Y-85400405D01*
X155099343Y-85345766D01*
X155077239Y-85341729D01*
X155052131Y-85391512D01*
X155019878Y-85498329D01*
X154976338Y-85665396D01*
X154917371Y-85895930D01*
X154816340Y-86286833D01*
X154566598Y-86286833D01*
X154382411Y-85652702D01*
X154380865Y-85647378D01*
X154322376Y-85446673D01*
X154269928Y-85267886D01*
X154226837Y-85122228D01*
X154196418Y-85020908D01*
X154181988Y-84975137D01*
X154180834Y-84971504D01*
X154201509Y-84941467D01*
X154286301Y-84931703D01*
X154406850Y-84931703D01*
X154539237Y-85437884D01*
G37*
G36*
X138758494Y-83382119D02*
G01*
X138641865Y-83531037D01*
X138484741Y-83644381D01*
X138290870Y-83710308D01*
X138168965Y-83724947D01*
X137912157Y-83706764D01*
X137670265Y-83623278D01*
X137453565Y-83477348D01*
X137382556Y-83417110D01*
X137322313Y-83376534D01*
X137293540Y-83379550D01*
X137286183Y-83422885D01*
X137283693Y-83437315D01*
X137247777Y-83503825D01*
X137182771Y-83581090D01*
X137151438Y-83611279D01*
X137085907Y-83658003D01*
X137010639Y-83675712D01*
X136896109Y-83673972D01*
X136712859Y-83663440D01*
X136702289Y-83518108D01*
X136699124Y-83469148D01*
X136703362Y-83401696D01*
X136734495Y-83372899D01*
X136806530Y-83361747D01*
X136921340Y-83350718D01*
X136937269Y-82618022D01*
X137320271Y-82618022D01*
X137325894Y-82748141D01*
X137346788Y-82928345D01*
X137401735Y-83087264D01*
X137497208Y-83207358D01*
X137641012Y-83302352D01*
X137682940Y-83322099D01*
X137853524Y-83374570D01*
X138026161Y-83390563D01*
X138184747Y-83371532D01*
X138313178Y-83318931D01*
X138395349Y-83234216D01*
X138410428Y-83197344D01*
X138430305Y-83078080D01*
X138425902Y-82947983D01*
X138397055Y-82844963D01*
X138371010Y-82807016D01*
X138301353Y-82751518D01*
X138191764Y-82705146D01*
X138032400Y-82664189D01*
X137813414Y-82624935D01*
X137706812Y-82607028D01*
X137560769Y-82578614D01*
X137447007Y-82551807D01*
X137383798Y-82530619D01*
X137361081Y-82519244D01*
X137334546Y-82516039D01*
X137322049Y-82544810D01*
X137320271Y-82618022D01*
X136937269Y-82618022D01*
X136938714Y-82551539D01*
X136944535Y-82306608D01*
X136952916Y-82074222D01*
X136965557Y-81894797D01*
X136985228Y-81759387D01*
X137014696Y-81659044D01*
X137056730Y-81584820D01*
X137114098Y-81527768D01*
X137189569Y-81478940D01*
X137285910Y-81429390D01*
X137347651Y-81400329D01*
X137438645Y-81366251D01*
X137534045Y-81346589D01*
X137655526Y-81337565D01*
X137824760Y-81335397D01*
X137976291Y-81336727D01*
X138096268Y-81343748D01*
X138186774Y-81360531D01*
X138268799Y-81391140D01*
X138363338Y-81439637D01*
X138437025Y-81485520D01*
X138583363Y-81623390D01*
X138677505Y-81788668D01*
X138710807Y-81968204D01*
X138709321Y-82023731D01*
X138693357Y-82064768D01*
X138644595Y-82080137D01*
X138544688Y-82082455D01*
X138465550Y-82081187D01*
X138399795Y-82067233D01*
X138361830Y-82024388D01*
X138327519Y-81936424D01*
X138268990Y-81819379D01*
X138168302Y-81727039D01*
X138023579Y-81675947D01*
X137825836Y-81661174D01*
X137727883Y-81665044D01*
X137544686Y-81698229D01*
X137418086Y-81767254D01*
X137344646Y-81874579D01*
X137320930Y-82022665D01*
X137327808Y-82100846D01*
X137355990Y-82163285D01*
X137415098Y-82210259D01*
X137514741Y-82246724D01*
X137664526Y-82277633D01*
X137874061Y-82307942D01*
X137934191Y-82315969D01*
X138159032Y-82350977D01*
X138330426Y-82388846D01*
X138461409Y-82433820D01*
X138565015Y-82490146D01*
X138654279Y-82562069D01*
X138745087Y-82667588D01*
X138827924Y-82840362D01*
X138855272Y-83024937D01*
X138848247Y-83078080D01*
X138830879Y-83209471D01*
X138758494Y-83382119D01*
G37*
G36*
X144739398Y-86286833D02*
G01*
X144677182Y-86283871D01*
X144629391Y-86262878D01*
X144617784Y-86211282D01*
X144617784Y-86135731D01*
X144539603Y-86206860D01*
X144472347Y-86260916D01*
X144409302Y-86298907D01*
X144394265Y-86303959D01*
X144287071Y-86314524D01*
X144153207Y-86302306D01*
X144023543Y-86271875D01*
X143928944Y-86227800D01*
X143906390Y-86210061D01*
X143788361Y-86072663D01*
X143706946Y-85898187D01*
X143662854Y-85702181D01*
X143662608Y-85693995D01*
X143895687Y-85693995D01*
X143935067Y-85866936D01*
X144016059Y-86010063D01*
X144072602Y-86067736D01*
X144147603Y-86104119D01*
X144257609Y-86113098D01*
X144377231Y-86097700D01*
X144496382Y-86030789D01*
X144574494Y-85909820D01*
X144612222Y-85733656D01*
X144610220Y-85501160D01*
X144595306Y-85400482D01*
X144535266Y-85255768D01*
X144430356Y-85162161D01*
X144277293Y-85115866D01*
X144182075Y-85109820D01*
X144109350Y-85133161D01*
X144031739Y-85199679D01*
X144023110Y-85208636D01*
X143940119Y-85343611D01*
X143897508Y-85512476D01*
X143895687Y-85693995D01*
X143662608Y-85693995D01*
X143656788Y-85500195D01*
X143689456Y-85307779D01*
X143761564Y-85140483D01*
X143873818Y-85013855D01*
X143981762Y-84949512D01*
X144155382Y-84902238D01*
X144330270Y-84911912D01*
X144487483Y-84979593D01*
X144617784Y-85068596D01*
X144617784Y-84410499D01*
X144861012Y-84410499D01*
X144861012Y-86286833D01*
X144739398Y-86286833D01*
G37*
G36*
X146876334Y-86286833D02*
G01*
X146633105Y-86286833D01*
X146633105Y-84410499D01*
X146876334Y-84410499D01*
X146876334Y-86286833D01*
G37*
G36*
X140630136Y-84897078D02*
G01*
X140743915Y-84925826D01*
X140861545Y-84992347D01*
X140949874Y-85078224D01*
X140954852Y-85085325D01*
X140989390Y-85129506D01*
X141002219Y-85117909D01*
X141004104Y-85043675D01*
X141008319Y-84977021D01*
X141036287Y-84939413D01*
X141108345Y-84931703D01*
X141212585Y-84931703D01*
X141212585Y-86286833D01*
X140969357Y-86286833D01*
X140969357Y-85343320D01*
X140867789Y-85241752D01*
X140780621Y-85173642D01*
X140659307Y-85140184D01*
X140587707Y-85133730D01*
X140558127Y-85100234D01*
X140552394Y-85018570D01*
X140554870Y-84961361D01*
X140574675Y-84909926D01*
X140623613Y-84896956D01*
X140630136Y-84897078D01*
G37*
G36*
X147517057Y-81338202D02*
G01*
X147712877Y-81417185D01*
X147892681Y-81552626D01*
X148022982Y-81679596D01*
X148022982Y-81387517D01*
X148405198Y-81387517D01*
X148405198Y-83646067D01*
X148028762Y-83646067D01*
X148016935Y-82872948D01*
X148015139Y-82759779D01*
X148010688Y-82531114D01*
X148005303Y-82357563D01*
X147998025Y-82228956D01*
X147987892Y-82135122D01*
X147973945Y-82065893D01*
X147955222Y-82011098D01*
X147930764Y-81960568D01*
X147846835Y-81844513D01*
X147722433Y-81746640D01*
X147581335Y-81688294D01*
X147437209Y-81670872D01*
X147303722Y-81695769D01*
X147194540Y-81764381D01*
X147123329Y-81878103D01*
X147110514Y-81948984D01*
X147099637Y-82085333D01*
X147091565Y-82279477D01*
X147086543Y-82525460D01*
X147084815Y-82817326D01*
X147084815Y-83646067D01*
X146708287Y-83646067D01*
X146696686Y-82855574D01*
X146695039Y-82749108D01*
X146689521Y-82491479D01*
X146681138Y-82290859D01*
X146667855Y-82138026D01*
X146647637Y-82023756D01*
X146618449Y-81938826D01*
X146578257Y-81874014D01*
X146525026Y-81820095D01*
X146456721Y-81767846D01*
X146317157Y-81699886D01*
X146162930Y-81674641D01*
X146012995Y-81690437D01*
X145885904Y-81745312D01*
X145800209Y-81837302D01*
X145796569Y-81847370D01*
X145785658Y-81923748D01*
X145776742Y-82061180D01*
X145770068Y-82253198D01*
X145765882Y-82493331D01*
X145764432Y-82775109D01*
X145764432Y-83646067D01*
X145343324Y-83646067D01*
X145354083Y-82716587D01*
X145355703Y-82580454D01*
X145359232Y-82329408D01*
X145363353Y-82134682D01*
X145368807Y-81987237D01*
X145376333Y-81878037D01*
X145386670Y-81798044D01*
X145400557Y-81738221D01*
X145418735Y-81689530D01*
X145441943Y-81642934D01*
X145453259Y-81622646D01*
X145577884Y-81472991D01*
X145748112Y-81375060D01*
X145965101Y-81328158D01*
X145983004Y-81326669D01*
X146224357Y-81334485D01*
X146430250Y-81399302D01*
X146607512Y-81523192D01*
X146747834Y-81654083D01*
X146867626Y-81521489D01*
X146952091Y-81443605D01*
X147124804Y-81351052D01*
X147317079Y-81316037D01*
X147517057Y-81338202D01*
G37*
G36*
X151289193Y-88578130D02*
G01*
X150865357Y-88991189D01*
X150441521Y-89404247D01*
X150734444Y-89721874D01*
X150743192Y-89731344D01*
X150856732Y-89851364D01*
X150954158Y-89949307D01*
X151025351Y-90015308D01*
X151060195Y-90039500D01*
X151071277Y-90036007D01*
X151122950Y-89996303D01*
X151189696Y-89926573D01*
X151286368Y-89813645D01*
X151287781Y-90173909D01*
X151289193Y-90534172D01*
X149343365Y-88563250D01*
X149343365Y-87537722D01*
X151289193Y-87537722D01*
X151289193Y-88578130D01*
G37*
G36*
X152987760Y-88902402D02*
G01*
X153191116Y-88930259D01*
X153356635Y-88983529D01*
X153495622Y-89049736D01*
X153504782Y-90185961D01*
X153513942Y-91322185D01*
X153437317Y-91363193D01*
X153372738Y-91393929D01*
X153271796Y-91433119D01*
X153248697Y-91438520D01*
X153152443Y-91448763D01*
X153017207Y-91453914D01*
X152864591Y-91452923D01*
X152748049Y-91448576D01*
X152620429Y-91436992D01*
X152514280Y-91412845D01*
X152402132Y-91369185D01*
X152256520Y-91299062D01*
X152221447Y-91281144D01*
X152057291Y-91189202D01*
X151895638Y-91087861D01*
X151766963Y-90995988D01*
X151567168Y-90837664D01*
X151567168Y-89556899D01*
X151740592Y-89407297D01*
X151908078Y-89275162D01*
X152126685Y-89130908D01*
X152343582Y-89014747D01*
X152537324Y-88939278D01*
X152577167Y-88928846D01*
X152773975Y-88901438D01*
X152987760Y-88902402D01*
G37*
G36*
X150490014Y-81387517D02*
G01*
X150802736Y-81387517D01*
X150802736Y-81700239D01*
X150490014Y-81700239D01*
X150489960Y-82525479D01*
X150489893Y-82604142D01*
X150487961Y-82883258D01*
X150482214Y-83103110D01*
X150471113Y-83271891D01*
X150453123Y-83397790D01*
X150426707Y-83488998D01*
X150390327Y-83553706D01*
X150342448Y-83600105D01*
X150281532Y-83636384D01*
X150202382Y-83659924D01*
X150082921Y-83674982D01*
X149952986Y-83678946D01*
X149838806Y-83671090D01*
X149766610Y-83650685D01*
X149735924Y-83593728D01*
X149731863Y-83486169D01*
X149735138Y-83449611D01*
X149750782Y-83380851D01*
X149792488Y-83351429D01*
X149881942Y-83340259D01*
X149903778Y-83338005D01*
X150002212Y-83312772D01*
X150064364Y-83272810D01*
X150070429Y-83262083D01*
X150084731Y-83204302D01*
X150095301Y-83100985D01*
X150102456Y-82946153D01*
X150106515Y-82733827D01*
X150107797Y-82458030D01*
X150107797Y-81700239D01*
X149725581Y-81700239D01*
X149725581Y-81387517D01*
X150107797Y-81387517D01*
X150107797Y-80762072D01*
X150490014Y-80762072D01*
X150490014Y-81387517D01*
G37*
G36*
X149065390Y-88398262D02*
G01*
X148741527Y-88232351D01*
X148702609Y-88212671D01*
X148407142Y-88083636D01*
X148124514Y-88002406D01*
X147829800Y-87963555D01*
X147498079Y-87961659D01*
X147119562Y-87977254D01*
X147119562Y-87537722D01*
X149065390Y-87537722D01*
X149065390Y-88398262D01*
G37*
G36*
X149378112Y-83646067D02*
G01*
X148995896Y-83646067D01*
X148995896Y-81387517D01*
X149378112Y-81387517D01*
X149378112Y-83646067D01*
G37*
G36*
X151711563Y-92040862D02*
G01*
X151835678Y-92112006D01*
X152065520Y-92219582D01*
X152307407Y-92309405D01*
X152528464Y-92368298D01*
X152585020Y-92377300D01*
X152743675Y-92391709D01*
X152933297Y-92398690D01*
X153127849Y-92396997D01*
X153512996Y-92383814D01*
X153512996Y-92819254D01*
X151567168Y-92819254D01*
X151567168Y-91949709D01*
X151711563Y-92040862D01*
G37*
G36*
X141073598Y-83646067D02*
G01*
X139054644Y-83646067D01*
X139065147Y-83463645D01*
X139075650Y-83281224D01*
X139866142Y-83271885D01*
X140656635Y-83262546D01*
X140656635Y-80518844D01*
X141073598Y-80518844D01*
X141073598Y-83646067D01*
G37*
G36*
X149378112Y-80935807D02*
G01*
X148995896Y-80935807D01*
X148995896Y-80518844D01*
X149378112Y-80518844D01*
X149378112Y-80935807D01*
G37*
G36*
X152644323Y-84549487D02*
G01*
X152644323Y-83394752D01*
X152509877Y-83516216D01*
X152506423Y-83519323D01*
X152333052Y-83640307D01*
X152142847Y-83701639D01*
X151919642Y-83708589D01*
X151858632Y-83702186D01*
X151615886Y-83636498D01*
X151406798Y-83511876D01*
X151237021Y-83332561D01*
X151112207Y-83102792D01*
X151084539Y-83027666D01*
X151057521Y-82928494D01*
X151041188Y-82817243D01*
X151033024Y-82674798D01*
X151030952Y-82515719D01*
X151414927Y-82515719D01*
X151419741Y-82645955D01*
X151456423Y-82890964D01*
X151530711Y-83082098D01*
X151644727Y-83223784D01*
X151800594Y-83320449D01*
X151872910Y-83345474D01*
X152052151Y-83367361D01*
X152229675Y-83341405D01*
X152385993Y-83271970D01*
X152501617Y-83163421D01*
X152571376Y-83040492D01*
X152617969Y-82890749D01*
X152639296Y-82705757D01*
X152638473Y-82469721D01*
X152638294Y-82465356D01*
X152627906Y-82292653D01*
X152610725Y-82168053D01*
X152582511Y-82070655D01*
X152539024Y-81979559D01*
X152510876Y-81932013D01*
X152383055Y-81781945D01*
X152227440Y-81694105D01*
X152039258Y-81665492D01*
X151899050Y-81675706D01*
X151743544Y-81727828D01*
X151620332Y-81831927D01*
X151515701Y-81996674D01*
X151489489Y-82049879D01*
X151448452Y-82148063D01*
X151425519Y-82242087D01*
X151415930Y-82356467D01*
X151414927Y-82515719D01*
X151030952Y-82515719D01*
X151030514Y-82482045D01*
X151031713Y-82296125D01*
X151037964Y-82160220D01*
X151051684Y-82058079D01*
X151075286Y-81971794D01*
X151111184Y-81883458D01*
X151199741Y-81726033D01*
X151361204Y-81544961D01*
X151557705Y-81413707D01*
X151778656Y-81338804D01*
X152013467Y-81326785D01*
X152212860Y-81361544D01*
X152377704Y-81433726D01*
X152533990Y-81555561D01*
X152644323Y-81658627D01*
X152644323Y-81387517D01*
X153026539Y-81387517D01*
X153026539Y-84549487D01*
X152644323Y-84549487D01*
G37*
G36*
X155736799Y-92819254D02*
G01*
X153790971Y-92819254D01*
X153791100Y-92549966D01*
X153791228Y-92280677D01*
X154025641Y-92161013D01*
X154077299Y-92133413D01*
X154350654Y-91942756D01*
X154591975Y-91697403D01*
X154794989Y-91406083D01*
X154953426Y-91077521D01*
X155061013Y-90720443D01*
X155102307Y-90437767D01*
X155106964Y-90086948D01*
X155065420Y-89740956D01*
X154979242Y-89424650D01*
X154813755Y-89066755D01*
X154594541Y-88746227D01*
X154327426Y-88472685D01*
X154016565Y-88251192D01*
X153790971Y-88119260D01*
X153790971Y-87537722D01*
X155736799Y-87537722D01*
X155736799Y-92819254D01*
G37*
G36*
X152662903Y-85437884D02*
G01*
X152688910Y-85534736D01*
X152734162Y-85690808D01*
X152773295Y-85810287D01*
X152802812Y-85882876D01*
X152819219Y-85898281D01*
X152821924Y-85892056D01*
X152842031Y-85828567D01*
X152873637Y-85714788D01*
X152912969Y-85564654D01*
X152956254Y-85392100D01*
X153069362Y-84931703D01*
X153331099Y-84931703D01*
X153463171Y-85461593D01*
X153595243Y-85991484D01*
X153704380Y-85557148D01*
X153707390Y-85545169D01*
X153750801Y-85372444D01*
X153789754Y-85217531D01*
X153820090Y-85096959D01*
X153837652Y-85027257D01*
X153854581Y-84977889D01*
X153897085Y-84940472D01*
X153982741Y-84931703D01*
X153998027Y-84931883D01*
X154073126Y-84939288D01*
X154103693Y-84954193D01*
X154103276Y-84957059D01*
X154090442Y-85007463D01*
X154062404Y-85109020D01*
X154022868Y-85248894D01*
X153975539Y-85414247D01*
X153924121Y-85592242D01*
X153872320Y-85770042D01*
X153823841Y-85934811D01*
X153782387Y-86073711D01*
X153751666Y-86173905D01*
X153728167Y-86234697D01*
X153682831Y-86277309D01*
X153597830Y-86286833D01*
X153538873Y-86283674D01*
X153483804Y-86257793D01*
X153455701Y-86191279D01*
X153437865Y-86122053D01*
X153406388Y-86002050D01*
X153365841Y-85848636D01*
X153320687Y-85678762D01*
X153312705Y-85648630D01*
X153274768Y-85502432D01*
X153246250Y-85400405D01*
X153223010Y-85345766D01*
X153200906Y-85341729D01*
X153175797Y-85391512D01*
X153143544Y-85498329D01*
X153100004Y-85665396D01*
X153041037Y-85895930D01*
X152940006Y-86286833D01*
X152690265Y-86286833D01*
X152506077Y-85652702D01*
X152504531Y-85647378D01*
X152446042Y-85446673D01*
X152393594Y-85267886D01*
X152350503Y-85122228D01*
X152320084Y-85020908D01*
X152305654Y-84975137D01*
X152304501Y-84971504D01*
X152325175Y-84941467D01*
X152409967Y-84931703D01*
X152530516Y-84931703D01*
X152662903Y-85437884D01*
G37*
G36*
X153866683Y-89379309D02*
G01*
X153871855Y-89385483D01*
X154009374Y-89602853D01*
X154096709Y-89854294D01*
X154133255Y-90125609D01*
X154118409Y-90402605D01*
X154051566Y-90671087D01*
X153932122Y-90916860D01*
X153886690Y-90985740D01*
X153836054Y-91055062D01*
X153809110Y-91081908D01*
X153804744Y-91055111D01*
X153800407Y-90967412D01*
X153796803Y-90827602D01*
X153794106Y-90644848D01*
X153792489Y-90428316D01*
X153792127Y-90187175D01*
X153793283Y-89292442D01*
X153866683Y-89379309D01*
G37*
G36*
X135965800Y-83646067D02*
G01*
X135965800Y-83389206D01*
X135852873Y-83498428D01*
X135831177Y-83518437D01*
X135723518Y-83601210D01*
X135618331Y-83662425D01*
X135576384Y-83678075D01*
X135419950Y-83704559D01*
X135237308Y-83702210D01*
X135055375Y-83672706D01*
X134901066Y-83617725D01*
X134850200Y-83588708D01*
X134684774Y-83452130D01*
X134539853Y-83269299D01*
X134430501Y-83058126D01*
X134404070Y-82976738D01*
X134366650Y-82778313D01*
X134348789Y-82548853D01*
X134349003Y-82523632D01*
X134735493Y-82523632D01*
X134736296Y-82598459D01*
X134742473Y-82738983D01*
X134758488Y-82843826D01*
X134789103Y-82936802D01*
X134839077Y-83041724D01*
X134852523Y-83067148D01*
X134952552Y-83214934D01*
X135061838Y-83303566D01*
X135165208Y-83343247D01*
X135332827Y-83366863D01*
X135500483Y-83353223D01*
X135638786Y-83302387D01*
X135722500Y-83243403D01*
X135838516Y-83116849D01*
X135916715Y-82953996D01*
X135960925Y-82745507D01*
X135974971Y-82482045D01*
X135971675Y-82360328D01*
X135939380Y-82135462D01*
X135869443Y-81960843D01*
X135757943Y-81828595D01*
X135600957Y-81730842D01*
X135460935Y-81682320D01*
X135269108Y-81669502D01*
X135094933Y-81721626D01*
X134945451Y-81836145D01*
X134827702Y-82010511D01*
X134810438Y-82046564D01*
X134770384Y-82144914D01*
X134747388Y-82241375D01*
X134737180Y-82359697D01*
X134735493Y-82523632D01*
X134349003Y-82523632D01*
X134350794Y-82312080D01*
X134372973Y-82091717D01*
X134415635Y-81911486D01*
X134474189Y-81780031D01*
X134609208Y-81597500D01*
X134782926Y-81457923D01*
X134983775Y-81364532D01*
X135200184Y-81320555D01*
X135420584Y-81329224D01*
X135633404Y-81393768D01*
X135827076Y-81517418D01*
X135965800Y-81636161D01*
X135965800Y-80518844D01*
X136348016Y-80518844D01*
X136348016Y-83646067D01*
X135965800Y-83646067D01*
G37*
G36*
X144444049Y-93236217D02*
G01*
X144444049Y-92992989D01*
X144687278Y-92992989D01*
X155945280Y-92992989D01*
X155945280Y-87363987D01*
X144687278Y-87363987D01*
X144687278Y-92992989D01*
X144444049Y-92992989D01*
X144444049Y-91811593D01*
X143471135Y-91811593D01*
X143471135Y-88545383D01*
X144444049Y-88545383D01*
X144444049Y-87120759D01*
X156188509Y-87120759D01*
X156188509Y-93236217D01*
X144444049Y-93236217D01*
G37*
G36*
X153512996Y-87784668D02*
G01*
X153512973Y-87806113D01*
X153510693Y-87925453D01*
X153502167Y-87990102D01*
X153483847Y-88013039D01*
X153452189Y-88007243D01*
X153422338Y-87999894D01*
X153328998Y-87986977D01*
X153195723Y-87974399D01*
X153040718Y-87964069D01*
X152780328Y-87961178D01*
X152475047Y-87995614D01*
X152188067Y-88077722D01*
X151897264Y-88212304D01*
X151835917Y-88245274D01*
X151719501Y-88306428D01*
X151633526Y-88349658D01*
X151593228Y-88367202D01*
X151592910Y-88367225D01*
X151582902Y-88334636D01*
X151574718Y-88246191D01*
X151569195Y-88115129D01*
X151567168Y-87954685D01*
X151567168Y-87537722D01*
X153512996Y-87537722D01*
X153512996Y-87784668D01*
G37*
G36*
X149065390Y-92819254D02*
G01*
X147119562Y-92819254D01*
X147119562Y-92572308D01*
X147119591Y-92547599D01*
X147121901Y-92429771D01*
X147130433Y-92366508D01*
X147148739Y-92344965D01*
X147180369Y-92352294D01*
X147230633Y-92363148D01*
X147337360Y-92375258D01*
X147482163Y-92386166D01*
X147648626Y-92394394D01*
X147780968Y-92397223D01*
X148056932Y-92383707D01*
X148304110Y-92337083D01*
X148547844Y-92251398D01*
X148813475Y-92120697D01*
X149065390Y-91983532D01*
X149065390Y-92819254D01*
G37*
G36*
X146841587Y-91091280D02*
G01*
X146771005Y-91001550D01*
X146731496Y-90943378D01*
X146668146Y-90833242D01*
X146605958Y-90710202D01*
X146579012Y-90650488D01*
X146543704Y-90554045D01*
X146523244Y-90455235D01*
X146513788Y-90331708D01*
X146511491Y-90161115D01*
X146512090Y-90060722D01*
X146517823Y-89918617D01*
X146532815Y-89811366D01*
X146560912Y-89716619D01*
X146605958Y-89612027D01*
X146653394Y-89516721D01*
X146717903Y-89401156D01*
X146771005Y-89320679D01*
X146841587Y-89230949D01*
X146841587Y-91091280D01*
G37*
G36*
X142463475Y-86842784D02*
G01*
X142463475Y-86149940D01*
X142337011Y-86235760D01*
X142239739Y-86287462D01*
X142065880Y-86319920D01*
X141883726Y-86284622D01*
X141825135Y-86257755D01*
X141687802Y-86148046D01*
X141586450Y-85996629D01*
X141522063Y-85817100D01*
X141495622Y-85623057D01*
X141496235Y-85613483D01*
X141735677Y-85613483D01*
X141753647Y-85782647D01*
X141806985Y-85931892D01*
X141896033Y-86042024D01*
X141921144Y-86059187D01*
X142044603Y-86103254D01*
X142182933Y-86109005D01*
X142301682Y-86073746D01*
X142333684Y-86049027D01*
X142399362Y-85948682D01*
X142443267Y-85807959D01*
X142462467Y-85645977D01*
X142454031Y-85481857D01*
X142415025Y-85334718D01*
X142394371Y-85292134D01*
X142299152Y-85178762D01*
X142176397Y-85115681D01*
X142041932Y-85108318D01*
X141911585Y-85162099D01*
X141890594Y-85178416D01*
X141804490Y-85292174D01*
X141752738Y-85443594D01*
X141735677Y-85613483D01*
X141496235Y-85613483D01*
X141508111Y-85428097D01*
X141560512Y-85245816D01*
X141653808Y-85089812D01*
X141788982Y-84973682D01*
X141841855Y-84947078D01*
X142015586Y-84906487D01*
X142194268Y-84923804D01*
X142354794Y-84998036D01*
X142387221Y-85021011D01*
X142440674Y-85054192D01*
X142460547Y-85048094D01*
X142463475Y-85003563D01*
X142467790Y-84969282D01*
X142501608Y-84939236D01*
X142585089Y-84931703D01*
X142706703Y-84931703D01*
X142706703Y-86842784D01*
X142463475Y-86842784D01*
G37*
G36*
X150315765Y-90809815D02*
G01*
X151288166Y-91794220D01*
X151288679Y-92306737D01*
X151289193Y-92819254D01*
X149343365Y-92819254D01*
X149344290Y-92289364D01*
X149345215Y-91759473D01*
X149608464Y-91533618D01*
X149740819Y-91416224D01*
X149877741Y-91286859D01*
X149998056Y-91165398D01*
X150092808Y-91061270D01*
X150153042Y-90983900D01*
X150169803Y-90942717D01*
X150169745Y-90942578D01*
X150142810Y-90908386D01*
X150077836Y-90834674D01*
X149984484Y-90732197D01*
X149872417Y-90611709D01*
X149584917Y-90305469D01*
X149464141Y-90422529D01*
X149343365Y-90539590D01*
X149343365Y-89825409D01*
X150315765Y-90809815D01*
G37*
X122200000Y-92000000D02*
G75*
G03*
X122200000Y-92000000I-1200000J0D01*
G01*
X160390000Y-82980000D02*
G75*
G03*
X160390000Y-82980000I-1450000J0D01*
G01*
X129200000Y-89000000D02*
G75*
G03*
X129200000Y-89000000I-1200000J0D01*
G01*
%LPC*%
D12*
X120750000Y-82950000D03*
X168750000Y-82950000D03*
D13*
X147690000Y-88320000D03*
X141910000Y-88320000D03*
D14*
X140480000Y-87820000D03*
D15*
X140480000Y-92000000D03*
X149120000Y-92000000D03*
D14*
X149120000Y-87820000D03*
D16*
X127000000Y-83000000D03*
D17*
X135000000Y-92000000D03*
X135000000Y-89000000D03*
X121000000Y-89000000D03*
X165700000Y-90900000D03*
D18*
X131000000Y-83000000D03*
D17*
X128000000Y-92000000D03*
D16*
X162910000Y-83000000D03*
D17*
X159700000Y-90900000D03*
X121000000Y-92000000D03*
D18*
X158940000Y-82980000D03*
D17*
X128000000Y-89000000D03*
M02*
